<?xml version="1.0" standalone="no"?>
<!DOCTYPE svg PUBLIC "-//W3C//DTD SVG 20010904//EN"
 "http://www.w3.org/TR/2001/REC-SVG-20010904/DTD/svg10.dtd">
<svg version="1.0" xmlns="http://www.w3.org/2000/svg"
 width="1296.000000pt" height="1080.000000pt" viewBox="0 0 1296.000000 1080.000000"
 preserveAspectRatio="xMidYMid meet">
<metadata>
Created by potrace 1.16, written by Peter Selinger 2001-2019
</metadata>
<g transform="translate(0.000000,1080.000000) scale(0.100000,-0.100000)"
fill="#000000" stroke="none">
<path d="M2 8608 c2 -1206 5 -1936 8 -1623 l5 570 5 -580 5 -580 3 578 2 578
73 -6 c39 -3 110 -10 157 -14 62 -6 100 -4 139 6 46 11 64 11 129 -2 78 -16
199 -18 208 -3 10 15 96 9 117 -9 25 -23 193 -26 206 -4 6 10 17 11 37 6 16
-5 39 -7 52 -6 13 2 46 -3 73 -9 53 -13 103 -8 132 14 14 11 16 18 7 41 -11
30 3 55 43 77 28 15 118 -9 116 -31 -3 -32 2 -41 31 -56 47 -24 130 -20 174
10 47 32 69 31 135 -1 49 -25 55 -26 94 -13 23 7 52 19 63 26 18 12 28 11 65
-3 24 -9 72 -19 107 -21 l62 -5 0 -82 c0 -97 31 -201 83 -281 19 -27 36 -57
39 -65 3 -9 28 -45 55 -80 46 -61 128 -199 121 -205 -10 -9 -84 -35 -100 -35
-27 0 -149 -28 -223 -51 -65 -20 -790 -202 -895 -224 -177 -38 -259 -59 -302
-76 -26 -11 -64 -19 -85 -19 -21 0 -69 -7 -108 -16 -138 -31 -200 -42 -212
-37 -7 3 -13 1 -13 -4 0 -9 -39 -20 -135 -38 -16 -3 -50 -11 -75 -16 -25 -6
-72 -14 -105 -19 -33 -4 -100 -20 -149 -35 -49 -14 -98 -27 -108 -28 -10 -1
-18 -6 -18 -12 0 -5 -5 -3 -10 5 -7 10 -9 -8 -8 -60 1 -48 3 -62 7 -40 l5 35
6 -45 7 -45 2 45 1 45 56 0 c30 1 58 5 62 10 8 12 16 13 73 16 24 1 53 8 65
15 11 7 63 20 115 29 155 28 170 32 274 59 55 14 109 26 120 26 11 0 33 7 49
15 19 10 41 13 59 9 20 -4 27 -3 23 5 -4 7 1 11 13 11 11 0 23 4 26 10 3 6 24
10 45 10 21 0 41 4 44 9 3 5 18 12 33 15 48 12 215 46 298 62 44 8 89 21 100
28 11 7 47 18 80 25 33 8 89 22 125 32 124 35 386 98 490 119 98 20 265 60
335 80 72 21 93 21 107 4 7 -9 30 -35 51 -58 33 -35 38 -46 33 -74 -7 -44 -44
-102 -65 -102 -9 0 -21 -4 -27 -10 -6 -6 -21 -6 -41 2 -27 10 -35 9 -50 -4
-27 -24 -84 -39 -140 -37 -38 2 -57 -3 -82 -22 -26 -19 -43 -23 -93 -22 -52 2
-66 -2 -91 -23 l-30 -25 -14 21 c-14 20 -15 20 -37 3 -19 -15 -36 -17 -110
-13 -85 5 -122 -2 -111 -20 3 -5 -7 -17 -21 -27 -20 -13 -29 -14 -32 -5 -5 17
-61 15 -96 -3 -46 -24 -129 -30 -148 -11 -18 18 -48 22 -48 6 0 -5 6 -10 13
-10 8 0 7 -4 -3 -10 -8 -5 -32 -10 -52 -10 -21 0 -38 -4 -38 -10 0 -5 -11 -10
-24 -10 -14 0 -27 -4 -31 -9 -7 -12 -64 -11 -71 1 -9 13 -22 9 -26 -9 -4 -23
-45 -24 -51 -1 -4 14 -15 18 -46 18 -23 0 -41 -4 -41 -10 0 -5 -6 -10 -14 -10
-8 0 -17 -6 -20 -12 -3 -9 -8 -8 -16 5 -6 9 -23 17 -38 17 -47 0 -158 -27
-186 -45 -14 -10 -26 -14 -26 -9 0 4 -11 -3 -24 -15 -20 -19 -37 -23 -103 -26
-43 -1 -89 -3 -102 -4 -15 -1 -21 -6 -18 -15 11 -27 -25 -45 -88 -44 -71 1
-128 -10 -119 -23 3 -5 -2 -9 -10 -9 -9 0 -16 6 -16 13 0 7 -3 8 -8 2 -4 -5
-25 -19 -47 -31 -32 -16 -46 -19 -66 -11 -38 14 -63 3 -55 -27 4 -16 -1 -32
-13 -47 -18 -22 -19 -22 -45 -6 -19 13 -26 14 -26 5 0 -9 -3 -8 -10 2 -7 11
-10 3 -12 -30 -1 -28 -4 -13 -8 40 l-6 85 -4 -110 -4 -110 -6 100 c-3 55 -7
-1262 -8 -2927 l-2 -3028 6380 0 c4304 0 6380 3 6380 10 0 12 -22 52 -32 60
-3 3 -18 25 -32 50 l-25 44 35 24 c31 21 39 22 65 12 31 -13 34 -23 19 -85 -7
-31 -6 -41 6 -48 7 -4 14 -21 14 -37 l0 -30 75 0 75 0 -2 473 c-1 259 -5 436
-8 392 l-6 -80 -4 95 -4 95 -6 -70 -6 -70 -4 60 c-4 53 -6 57 -17 39 -9 -16
-10 -45 -2 -118 8 -82 7 -102 -5 -121 -13 -20 -13 -25 1 -44 10 -15 13 -33 9
-57 -8 -42 -24 -44 -39 -4 -20 53 -34 35 -42 -50 -8 -92 -21 -100 -45 -27 -8
25 -18 49 -22 53 -13 12 -9 52 6 66 7 8 16 23 20 35 5 16 2 23 -14 28 -19 6
-21 13 -18 61 l3 54 -40 13 c-28 10 -41 20 -43 35 -3 17 -10 22 -33 22 -24 0
-29 4 -29 24 0 14 -4 28 -10 31 -5 3 -10 17 -10 30 0 13 -7 30 -15 39 -8 8
-15 19 -15 25 0 6 -9 11 -20 11 -27 0 -27 -41 0 -65 23 -21 25 -36 8 -68 -6
-12 -14 -29 -18 -37 -5 -11 -26 -15 -81 -15 -41 -1 -79 -4 -85 -7 -6 -4 -20
-1 -30 7 -16 10 -19 22 -16 49 2 20 8 36 14 36 12 0 -1 42 -17 55 -7 5 -16 26
-19 45 -16 103 -26 150 -41 195 -24 68 -45 172 -45 220 0 36 -25 126 -63 230
-17 45 -43 54 -40 15 0 -14 6 -54 13 -90 7 -36 13 -74 14 -85 2 -11 8 -39 15
-61 9 -34 8 -47 -4 -70 -10 -20 -13 -42 -9 -72 8 -53 -12 -58 -21 -4 -4 20
-11 50 -16 66 -5 16 -9 45 -9 65 -1 58 -35 186 -50 186 -33 0 -47 -128 -18
-163 16 -18 11 -82 -7 -103 -8 -8 -15 -22 -15 -29 0 -7 -7 -21 -15 -30 -15
-17 -11 -50 6 -50 5 0 9 -8 9 -19 0 -10 7 -24 15 -31 18 -15 19 -32 4 -47 -14
-14 -39 6 -39 31 0 8 -6 19 -13 23 -7 4 -27 26 -45 48 -23 28 -32 50 -32 76 0
21 -9 66 -20 100 -10 35 -17 73 -14 85 4 16 0 26 -15 34 -14 7 -21 21 -21 41
0 39 -20 119 -36 144 -7 11 -16 40 -19 65 -7 48 -19 79 -46 120 -14 22 -31 68
-34 95 -3 22 -18 61 -33 85 -9 14 -28 59 -42 101 -28 85 -70 169 -84 169 -5 0
-15 8 -22 18 -13 16 -13 16 -14 0 0 -31 33 -173 44 -187 6 -7 19 -52 28 -99
10 -47 29 -103 42 -126 13 -23 27 -55 30 -73 4 -18 15 -49 25 -70 10 -21 17
-54 15 -73 -1 -19 11 -87 27 -152 16 -64 29 -123 29 -131 0 -19 -41 -17 -64 2
-28 24 -56 139 -73 308 -3 37 -11 57 -29 74 -13 12 -24 28 -24 35 0 7 -18 31
-40 54 -88 92 -177 126 -95 36 25 -26 45 -54 45 -62 0 -7 11 -38 25 -68 14
-30 25 -60 25 -66 0 -6 9 -36 20 -68 21 -57 41 -262 26 -262 -15 0 -36 29 -36
49 0 11 -11 37 -25 57 -24 36 -29 60 -25 136 1 31 -3 38 -26 50 -16 7 -34 24
-40 38 -33 69 -36 81 -31 109 7 32 -6 43 -17 16 -9 -23 -45 -18 -57 9 -12 25
2 66 21 66 6 0 10 5 10 10 0 6 -7 10 -15 10 -28 0 -52 34 -65 90 -7 30 -23 78
-36 105 -13 28 -24 55 -24 61 0 6 -8 18 -18 27 -14 13 -21 14 -30 5 -16 -16
-15 -112 0 -179 10 -41 10 -53 0 -57 -7 -2 -12 -19 -12 -38 0 -19 -5 -34 -12
-34 -6 0 -4 -8 7 -20 18 -19 15 -50 -5 -50 -13 0 -30 43 -30 76 0 15 6 24 15
24 21 0 19 26 -5 50 -26 26 -28 26 -32 -12 -4 -42 -21 -40 -31 4 -5 18 -13 49
-19 68 -6 19 -12 56 -12 82 -1 37 -7 51 -28 70 -30 26 -93 111 -108 145 -5 13
-16 23 -25 23 -17 0 -20 -30 -6 -58 45 -92 61 -130 61 -148 0 -12 9 -33 20
-47 11 -14 20 -31 20 -39 0 -8 9 -31 20 -52 25 -49 31 -163 10 -176 -10 -6
-21 -2 -35 13 -15 16 -20 35 -20 82 0 45 -6 70 -23 100 -13 21 -26 61 -28 88
-2 27 -15 81 -29 120 -54 149 -66 193 -69 246 -2 34 -8 58 -18 65 -8 6 -18 20
-22 32 -3 11 -23 47 -43 80 -21 34 -39 80 -44 109 -20 132 -22 145 -11 145 6
0 13 -13 17 -29 8 -38 29 -56 42 -39 13 17 -46 208 -64 208 -7 0 -13 5 -13 10
0 6 11 10 25 10 14 0 25 -5 25 -11 0 -7 11 -9 29 -6 23 5 34 0 55 -23 30 -35
70 -39 86 -11 19 36 64 40 472 39 218 0 441 3 497 7 l100 7 28 -30 c15 -16 36
-41 46 -56 23 -34 52 -36 43 -2 -3 13 -8 31 -12 39 -8 22 28 27 130 16 60 -7
133 -7 205 -1 104 8 132 15 119 27 -2 3 -90 7 -194 10 -240 6 -314 12 -330 26
-10 8 -33 7 -86 -2 -151 -26 -819 -9 -1050 27 -53 8 -139 14 -190 13 -51 -1
-138 6 -193 14 -280 43 -823 53 -980 17 -22 -5 -52 -11 -67 -15 -15 -3 -39
-10 -54 -15 -21 -9 -24 -13 -14 -25 10 -12 18 -12 53 7 40 20 103 32 249 44
39 4 124 -1 200 -10 73 -8 196 -18 273 -22 76 -3 146 -9 155 -14 8 -4 53 -11
100 -15 47 -4 101 -11 121 -17 32 -9 38 -16 52 -62 8 -28 18 -67 22 -86 4 -19
21 -75 40 -125 18 -49 39 -110 46 -135 6 -25 28 -97 49 -160 40 -124 59 -210
67 -305 l5 -60 -26 34 c-14 19 -26 43 -26 52 0 10 -4 21 -10 24 -5 3 -10 17
-10 31 0 30 -12 54 -44 89 -14 15 -27 43 -31 64 -3 21 -15 42 -27 50 -20 12
-20 11 -13 -51 4 -35 8 -108 9 -163 1 -57 7 -109 14 -122 7 -12 12 -29 12 -39
0 -14 -6 -16 -37 -10 -21 3 -48 6 -61 6 -13 0 -34 12 -47 26 -21 23 -24 35
-23 98 0 49 -5 82 -16 105 -24 46 -41 34 -42 -30 -1 -52 19 -263 32 -342 6
-39 -9 -50 -34 -25 -6 6 -23 13 -38 14 -42 5 -54 12 -54 33 0 11 -4 22 -9 25
-4 3 -7 25 -5 49 4 55 -15 88 -40 68 -9 -7 -16 -24 -16 -37 0 -13 -4 -24 -9
-24 -23 0 -42 -190 -21 -215 10 -12 10 -19 -1 -32 -7 -10 -14 -19 -15 -21 -1
-2 -18 6 -38 18 -21 11 -41 18 -47 15 -5 -4 -9 2 -9 12 0 10 -4 24 -9 31 -7
11 -11 11 -23 -2 -14 -13 -18 -11 -44 19 -24 30 -36 35 -89 40 -55 6 -65 4
-100 -19 -43 -30 -59 -29 -63 2 -2 12 -8 23 -13 23 -13 2 -22 5 -42 13 -9 5
-31 6 -48 4 -20 -3 -33 0 -36 9 -6 16 -41 17 -79 3 -32 -13 -44 -1 -44 44 0
16 -3 26 -7 23 -3 -4 -12 -2 -19 4 -9 7 -12 6 -10 -7 2 -10 8 -20 15 -22 8 -3
6 -8 -6 -18 -18 -13 -42 -20 -30 -7 10 9 -13 33 -32 33 -9 0 -34 9 -55 21 -35
19 -39 19 -50 3 -12 -15 -15 -15 -44 0 -18 9 -32 22 -32 29 0 6 -7 21 -15 31
-14 19 -15 19 -35 1 -14 -12 -24 -15 -28 -9 -4 6 -28 19 -54 30 -27 10 -48 22
-48 27 0 4 -9 16 -19 26 -19 19 -19 31 -14 203 l6 183 -21 -18 c-19 -18 -22
-18 -46 -2 -25 17 -26 17 -26 -4 0 -11 -4 -21 -9 -21 -5 0 -12 -15 -16 -32 -4
-18 -15 -51 -24 -73 -10 -22 -23 -51 -29 -65 -8 -18 -11 -20 -11 -7 -1 22 -51
24 -51 1 0 -8 -5 -12 -10 -9 -6 4 -8 10 -6 14 3 4 0 13 -6 21 -8 12 -9 12 -4
-2 3 -10 1 -18 -4 -18 -6 0 -10 5 -10 10 0 6 -12 22 -27 35 -24 20 -26 24 -11
30 15 6 15 10 2 50 -12 34 -19 42 -35 38 -10 -3 -19 -9 -19 -14 0 -21 -22 -6
-47 33 -16 24 -34 49 -40 56 -7 7 -13 18 -13 23 0 5 -8 21 -17 36 -30 45 -26
60 22 93 44 30 45 32 45 87 0 35 -11 88 -30 145 -17 49 -30 92 -30 97 0 10
131 31 201 31 38 0 69 -6 84 -16 48 -31 206 -24 235 11 9 11 -3 14 -62 20 -72
6 -139 7 -208 4 -19 -1 -89 1 -155 4 -110 6 -120 9 -132 30 -16 29 -16 54 0
64 29 18 122 200 161 316 19 57 22 230 5 339 -16 103 -70 262 -105 308 -7 8
-25 40 -41 70 -16 30 -50 75 -76 100 l-46 45 6 62 c3 34 10 60 14 57 5 -3 9 2
9 10 0 9 -5 16 -10 16 -10 0 -9 23 5 100 14 76 1 172 -21 163 -14 -5 -19 17
-15 67 3 32 10 38 21 20 8 -12 10 -11 10 6 0 12 6 24 14 27 28 11 105 72 105
84 1 7 29 42 64 79 34 37 79 92 100 123 21 31 53 72 72 91 49 51 141 241 166
341 29 118 27 117 85 90 97 -46 199 -64 314 -57 213 12 298 45 449 171 135
112 158 127 181 120 12 -4 20 -2 20 5 0 6 12 23 27 38 14 14 29 40 33 57 4 21
12 31 28 33 15 2 29 16 39 38 10 21 24 34 36 34 12 0 17 6 15 18 -2 10 -11 16
-21 14 -11 -2 -17 4 -17 18 0 11 6 20 13 21 133 6 211 8 417 13 330 8 444 18
437 40 -2 7 -42 12 -107 13 -57 2 -108 7 -112 11 -6 6 5 18 25 29 27 17 37 18
50 8 18 -13 110 -9 136 5 8 5 26 4 39 -1 30 -11 52 4 52 35 0 12 6 28 12 34
10 10 16 8 29 -9 15 -20 19 -21 54 -9 21 7 62 10 94 8 33 -3 75 0 101 8 67 20
86 18 110 -16 27 -38 53 -38 80 0 27 39 38 38 55 -4 18 -43 31 -52 38 -26 6
24 47 28 47 5 0 -8 5 -15 10 -15 6 0 10 6 10 13 0 7 7 22 15 33 14 18 15 18
39 -11 14 -16 25 -37 26 -45 0 -8 15 0 38 23 21 20 43 37 50 37 7 0 15 7 18
15 9 23 20 18 43 -20 18 -31 23 -34 46 -25 15 6 42 22 60 36 32 24 35 25 59 9
14 -10 26 -21 26 -26 0 -5 9 -9 20 -9 22 0 28 34 9 46 -6 3 -8 17 -4 33 15 56
14 66 -7 88 -14 15 -33 23 -52 23 -17 0 -44 1 -61 3 -24 2 -31 -2 -33 -20 -4
-28 -7 -28 -32 -3 -12 12 -25 18 -31 15 -5 -4 -23 -8 -40 -10 -22 -3 -35 2
-51 20 -27 31 -44 31 -68 3 -16 -20 -22 -21 -39 -10 -25 14 -61 16 -61 2 0
-22 -22 -8 -33 20 -12 31 -26 37 -43 20 -7 -7 -19 -7 -36 -1 -15 5 -30 6 -39
0 -8 -5 -27 -9 -42 -9 -15 0 -39 -7 -52 -16 -23 -15 -27 -15 -49 0 -22 14 -81
16 -121 5 -5 -2 -24 4 -41 13 -17 9 -46 17 -65 18 -19 0 -41 1 -49 1 -9 0 -22
14 -29 30 -9 22 -19 29 -40 29 -15 0 -32 5 -38 11 -8 8 -13 8 -17 0 -4 -6 -34
-11 -67 -11 -44 0 -64 5 -77 18 -24 24 -142 39 -154 20 -7 -13 -118 -18 -423
-20 -100 -1 -138 2 -165 15 -57 26 -102 34 -150 25 -39 -7 -47 -6 -61 13 -15
20 -22 21 -82 15 -43 -5 -73 -4 -87 4 -12 6 -43 14 -68 17 -26 2 -63 6 -82 9
-20 2 -74 17 -120 34 -45 16 -101 30 -123 30 -21 0 -66 7 -99 16 -69 17 -125
12 -160 -16 -22 -17 -126 -45 -135 -36 -3 3 5 13 17 23 12 10 26 28 31 41 5
12 19 26 31 30 13 5 118 5 233 1 768 -26 1022 -32 1235 -28 19 0 158 0 309 0
212 -1 289 3 342 15 56 13 72 13 91 3 17 -10 118 -14 403 -16 209 -1 466 -5
570 -7 105 -3 273 -4 375 -3 102 1 238 2 303 2 l117 0 0 26 c0 24 -3 26 -32
22 -55 -7 -682 -2 -878 7 -373 17 -661 19 -780 6 -136 -16 -128 -15 -390 -2
-203 11 -276 12 -460 6 -192 -7 -951 14 -1070 30 -41 5 -111 10 -155 10 -44 0
-90 3 -102 6 -21 6 -22 8 -8 34 8 15 32 46 55 68 l40 41 83 -6 c126 -9 220 26
316 116 89 85 138 114 180 107 99 -17 157 -18 196 -2 45 19 38 35 -22 46 -33
7 -35 9 -15 15 13 4 22 15 22 27 0 15 -5 18 -23 13 -18 -6 -20 -5 -9 6 17 18
15 68 -2 75 -8 3 -28 -6 -43 -21 -22 -20 -83 -55 -98 -55 -1 0 -8 24 -14 53
-17 68 -9 126 19 147 19 15 21 20 10 39 -9 18 -9 29 0 52 15 34 24 36 67 9 30
-18 33 -18 49 -3 11 12 15 27 11 54 -3 20 -1 42 3 49 14 22 30 0 28 -39 -1
-26 6 -49 21 -70 16 -22 21 -39 17 -57 -7 -25 8 -64 24 -64 4 0 22 12 39 26
17 14 37 24 44 21 7 -2 19 -32 26 -67 13 -59 13 -63 -9 -102 -18 -33 -20 -44
-11 -64 13 -29 44 -31 99 -8 29 12 57 14 135 9 89 -7 97 -6 97 11 0 9 3 14 7
11 3 -4 12 -2 20 5 10 8 17 7 27 -7 20 -27 124 -22 144 6 13 18 15 19 26 4 18
-24 135 -48 121 -25 -4 6 -14 8 -23 6 -10 -3 -23 -2 -31 3 -11 7 -5 11 22 16
20 4 41 13 48 21 20 24 80 10 102 -23 14 -22 59 -15 88 13 33 31 51 24 42 -16
-4 -23 -2 -30 11 -30 9 0 16 8 16 20 0 11 7 20 15 20 8 0 15 6 15 13 0 21 99
41 175 35 36 -3 69 -9 72 -12 9 -9 -28 -47 -39 -40 -5 3 -20 3 -33 0 -31 -8
-23 -36 10 -36 13 0 33 -9 46 -20 l24 -19 -25 -2 c-63 -3 -106 4 -128 22 -31
24 -85 25 -108 2 -13 -14 -34 -18 -85 -18 -80 0 -115 -20 -53 -30 22 -3 51
-12 65 -19 22 -11 37 -11 80 -2 34 8 70 9 99 4 25 -4 63 -6 85 -4 22 2 48 4
58 5 10 0 22 12 27 26 5 14 15 24 22 23 7 -2 13 9 14 27 1 17 2 33 3 36 1 5
68 4 81 -1 3 -1 29 -2 59 -1 53 0 91 -11 91 -29 0 -5 -9 -18 -20 -28 -24 -22
-17 -52 10 -52 10 0 27 12 38 28 20 26 22 27 116 25 l95 -2 39 47 c32 37 52
51 98 66 33 10 86 29 119 41 77 30 284 56 453 58 122 2 133 1 153 -19 12 -12
19 -27 15 -32 -8 -14 -77 -27 -281 -52 -261 -33 -298 -42 -363 -92 l-55 -43
39 -6 c21 -3 59 -13 84 -22 53 -20 91 -21 175 -6 54 9 69 8 126 -11 60 -21 70
-21 170 -10 82 10 115 10 142 1 26 -9 42 -9 56 -2 25 14 44 14 36 1 -3 -5 -1
-10 5 -10 7 0 9 7 6 15 -3 9 7 34 24 57 17 22 30 48 31 57 0 12 3 11 9 -4 6
-13 9 13 11 80 l3 100 6 -95 c4 -58 6 7 6 170 0 167 -2 228 -6 165 l-6 -100
-4 120 -4 120 -5 -115 c-4 -63 -9 -104 -12 -90 l-6 25 -2 -24 c-1 -18 -5 -21
-18 -16 -32 14 -174 24 -412 30 -237 5 -259 9 -246 43 6 16 -4 20 -93 30 -54
6 -77 5 -90 -4 -13 -10 -46 -11 -127 -7 -60 3 -114 9 -118 13 -5 4 -29 5 -54
2 -32 -3 -48 -1 -54 9 -6 10 -31 14 -79 15 -75 2 -110 19 -108 52 1 10 -4 43
-11 76 -11 50 -17 60 -42 70 -17 6 -32 20 -35 33 -4 13 -10 20 -15 17 -5 -3
-9 0 -9 6 0 7 7 10 15 7 8 -4 17 -2 20 3 4 6 15 10 26 10 25 0 99 37 100 50 2
14 5 23 13 42 4 9 5 21 2 26 -10 17 42 20 96 5 29 -7 69 -11 88 -8 20 3 53 0
78 -9 27 -10 79 -15 145 -15 56 0 109 -1 117 -2 37 -5 51 4 76 46 14 25 29 46
32 46 4 1 16 3 27 5 11 2 46 9 77 15 48 10 65 10 112 -5 31 -10 56 -23 56 -28
0 -6 13 -24 30 -39 26 -25 38 -29 87 -29 l58 0 17 41 c12 28 22 40 32 36 8 -3
61 -7 118 -8 l103 -2 5 -161 6 -161 4 170 4 170 6 -140 c3 -77 6 135 7 470 1
336 -2 601 -6 590 l-8 -20 -5 20 c-5 17 -6 18 -7 2 0 -10 -5 -16 -9 -13 -5 3
-26 -11 -48 -31 -21 -19 -51 -40 -65 -45 -14 -5 -42 -29 -63 -53 -38 -46 -59
-55 -73 -32 -4 7 -22 23 -39 35 -25 17 -32 30 -37 68 -7 66 -24 79 -110 81
-40 0 -76 2 -80 2 -4 1 -16 21 -27 45 -18 43 -20 45 -73 51 -39 5 -62 3 -80
-6 -13 -8 -48 -27 -78 -43 -30 -16 -86 -62 -125 -102 -62 -64 -76 -74 -106
-74 -84 0 -175 -74 -227 -183 -21 -44 -38 -67 -49 -67 -9 0 -53 -13 -97 -28
-61 -21 -88 -26 -110 -20 -17 5 -48 6 -70 3 -28 -4 -47 -1 -60 9 -25 19 -117
20 -177 2 -25 -7 -71 -30 -102 -51 l-57 -38 -29 28 c-29 28 -29 28 -105 16
-43 -6 -97 -22 -126 -37 -28 -15 -63 -27 -77 -27 -43 1 -365 57 -647 112 -143
28 -303 55 -355 61 -52 6 -130 17 -174 25 -43 8 -95 15 -115 15 -34 0 -215 29
-311 50 -25 6 -72 13 -105 15 -33 3 -73 10 -90 15 -16 5 -70 14 -120 21 -49 6
-112 16 -140 20 -27 5 -86 14 -130 20 -44 6 -88 15 -97 20 -9 5 -32 9 -50 9
-18 0 -65 7 -103 15 -141 31 -571 87 -755 100 -41 2 -100 9 -130 15 -96 17
-291 37 -820 80 -47 4 -128 14 -180 23 -52 8 -146 16 -209 16 -62 1 -117 4
-122 6 -4 3 -104 10 -221 16 -117 5 -294 15 -393 21 -99 6 -269 12 -378 13
-108 1 -200 5 -204 8 -3 4 -1 12 5 19 6 8 10 90 11 217 1 212 5 269 25 286 6
6 11 16 12 23 1 6 2 24 3 38 1 19 5 25 16 20 8 -3 15 -1 15 4 0 6 6 10 14 10
8 0 16 16 20 40 3 22 11 40 16 40 6 0 9 12 8 28 -2 21 1 26 15 24 9 -2 17 2
17 8 0 6 9 21 21 33 15 16 19 30 15 54 -4 28 -1 34 19 39 12 3 31 5 41 4 42
-5 64 1 64 15 0 12 16 15 80 15 47 0 80 4 80 10 0 6 31 10 74 10 78 0 154 19
109 27 -31 6 -29 23 1 23 26 0 41 26 31 52 -4 11 2 15 24 16 36 1 51 -16 27
-30 -20 -11 -12 -28 15 -28 13 0 19 7 19 21 0 12 8 23 20 26 11 3 20 9 20 14
0 5 4 9 10 9 13 0 40 -54 40 -80 0 -17 3 -19 19 -8 15 9 22 8 36 -5 9 -9 21
-17 26 -17 5 0 9 -6 9 -14 0 -8 19 -18 45 -25 42 -10 54 -31 19 -31 -8 0 -14
-7 -14 -15 0 -8 8 -15 19 -15 10 0 24 7 31 15 7 8 18 15 25 15 17 0 73 29 81
42 4 6 -3 19 -15 30 -19 15 -20 19 -8 24 10 4 29 -8 52 -30 20 -20 42 -36 50
-36 8 0 15 -4 15 -10 0 -5 6 -10 13 -10 7 0 39 -14 70 -31 39 -21 57 -37 57
-50 0 -15 5 -17 29 -13 26 5 40 0 121 -45 8 -4 40 -20 70 -36 30 -15 64 -36
76 -46 11 -11 23 -19 27 -19 4 0 24 -11 45 -24 21 -13 53 -27 72 -31 19 -4 51
-15 70 -25 19 -10 73 -33 120 -51 47 -18 97 -41 112 -51 14 -10 33 -18 42 -18
8 0 27 -11 41 -24 14 -13 54 -34 88 -46 34 -13 90 -36 125 -51 35 -16 69 -29
76 -29 6 0 16 -4 22 -8 32 -28 353 -137 524 -177 63 -15 171 -44 240 -65 69
-21 143 -42 165 -45 55 -10 193 -46 360 -95 77 -23 163 -38 270 -50 39 -4 138
-14 220 -23 370 -40 456 -45 815 -48 251 -3 325 2 623 42 75 10 202 41 302 74
22 7 87 28 145 46 58 17 151 47 207 65 56 19 109 34 117 34 34 0 376 171 431
215 46 37 87 59 130 69 41 10 188 85 255 130 162 110 277 216 319 296 18 33
68 95 114 142 45 47 87 91 93 99 6 8 47 49 92 92 l82 77 -50 0 c-33 0 -57 -6
-71 -17 -47 -38 -113 -100 -143 -132 -72 -79 -111 -105 -173 -117 -26 -5 -34
-4 -29 5 4 6 16 11 26 11 20 0 33 14 37 41 1 9 33 47 71 85 38 38 77 81 87 97
l17 27 -66 0 c-47 0 -66 -4 -66 -13 0 -16 -127 -145 -186 -188 -25 -19 -78
-63 -117 -98 -40 -35 -83 -70 -97 -79 -14 -9 -39 -28 -56 -43 -32 -27 -186
-129 -279 -186 -54 -33 -356 -183 -368 -183 -3 0 -35 -14 -69 -31 -138 -68
-569 -203 -793 -248 -135 -28 -375 -58 -515 -66 -135 -7 -663 10 -800 26 -134
15 -287 38 -340 49 -231 51 -332 73 -373 80 -26 5 -62 14 -80 19 -17 6 -93 27
-167 47 -74 19 -160 44 -190 54 -30 10 -85 26 -122 34 -78 18 -246 72 -262 85
-6 5 -29 12 -51 16 -21 3 -51 15 -66 26 -15 10 -33 19 -40 19 -8 0 -36 9 -64
19 -27 10 -76 27 -109 37 -32 10 -60 24 -63 30 -3 7 -19 16 -36 19 -18 4 -41
13 -52 19 -11 7 -54 26 -95 41 -41 16 -86 36 -100 44 -14 9 -41 23 -60 32 -58
27 -184 89 -200 99 -21 13 -70 37 -102 51 -16 6 -28 15 -28 20 0 5 -5 9 -11 9
-6 0 -39 17 -72 37 -97 58 -114 83 -60 83 20 0 23 4 18 21 -6 17 -3 20 12 17
10 -2 17 -10 15 -16 -1 -7 7 -12 18 -12 11 0 20 4 20 9 0 5 9 11 20 14 18 5
20 2 16 -24 -5 -33 4 -37 26 -11 15 18 17 30 5 49 -10 16 30 27 57 15 85 -38
125 -37 235 8 72 30 141 39 141 20 0 -6 60 -10 160 -10 141 0 160 2 160 16 0
17 33 16 128 -2 37 -7 92 12 92 32 0 12 -576 14 -3790 14 l-3790 0 2 -2192z
m6294 2151 c6 -2 8 -12 5 -22 -6 -17 -8 -16 -29 3 -22 21 -21 50 1 32 7 -5 17
-11 23 -13z m-2296 -19 c0 -5 -5 -10 -11 -10 -5 0 -7 5 -4 10 3 6 8 10 11 10
2 0 4 -4 4 -10z m1544 -31 c-7 -11 -44 -12 -44 -1 0 15 11 20 30 15 11 -3 17
-9 14 -14z m1016 11 c0 -5 -10 -10 -22 -9 -22 0 -22 1 -3 9 11 5 21 9 23 9 1
1 2 -3 2 -9z m-2543 -457 c-3 -104 -2 -174 2 -158 7 29 7 28 14 -15 8 -60 10
-494 2 -546 -4 -22 -3 -56 2 -75 5 -20 6 -83 1 -149 -5 -75 -5 -134 2 -170 23
-114 40 -374 30 -430 -4 -21 -1 -25 24 -28 16 -2 33 1 39 7 19 19 37 12 37
-14 0 -13 -6 -30 -14 -37 -12 -11 -12 -16 -1 -28 11 -12 10 -26 -3 -78 -13
-50 -14 -66 -4 -82 6 -11 12 -27 12 -35 0 -8 5 -15 11 -15 6 0 9 -10 7 -22 -2
-15 -9 -22 -19 -20 -26 4 -29 -19 -14 -109 12 -78 12 -86 -6 -122 -11 -21 -17
-42 -14 -47 3 -6 -2 -10 -12 -11 -15 0 -14 -2 5 -11 13 -7 22 -20 22 -35 0
-31 -26 -40 -122 -42 l-78 -2 -1 73 c-5 264 2 559 15 716 9 101 13 189 10 194
-10 16 -12 1468 -3 1462 5 -3 9 -18 9 -34 0 -34 9 -60 20 -60 5 0 6 25 3 55
-5 48 -4 55 12 55 17 0 17 -12 12 -187z m8343 121 c0 -7 -13 -21 -30 -31 -16
-9 -30 -23 -30 -29 0 -20 -39 -27 -71 -14 -32 14 -37 25 -14 34 21 8 19 28 -2
24 -35 -7 -32 -78 3 -78 8 0 14 -3 14 -6 0 -11 -45 -54 -57 -54 -6 0 -19 -7
-28 -17 -14 -14 -18 -14 -27 -2 -8 11 -9 11 -5 -3 8 -23 -3 -30 -20 -13 -13
13 -19 12 -48 -10 -25 -20 -40 -24 -62 -20 -19 5 -24 4 -14 -3 11 -8 10 -11
-4 -20 -10 -5 -23 -24 -29 -42 -9 -26 -21 -36 -69 -56 -49 -19 -69 -22 -123
-17 l-65 6 22 23 c11 12 35 28 52 35 18 7 47 23 66 37 19 14 47 25 63 25 18 0
28 6 28 15 0 9 3 12 6 9 4 -4 19 2 34 13 16 11 33 20 39 20 6 0 11 6 11 14 0
12 56 53 70 52 7 -1 68 53 93 82 16 17 32 22 71 23 28 1 62 4 76 8 37 11 50 9
50 -5z m-7510 -99 c0 -16 -6 -25 -15 -25 -18 0 -19 4 -3 30 16 26 18 25 18 -5z
m-1016 -87 c12 -11 11 -17 -1 -39 -14 -24 -14 -30 -1 -57 l16 -30 -36 4 c-51
7 -70 46 -37 74 8 7 15 18 15 24 0 11 19 36 27 36 2 0 10 -6 17 -12z m-194
-18 c0 -11 -4 -20 -9 -20 -11 0 -22 26 -14 34 12 12 23 5 23 -14z m8420 -25
c-7 -8 -20 -15 -29 -15 -13 1 -13 3 3 15 26 19 42 19 26 0z m-8340 -5 c0 -5
-4 -10 -10 -10 -5 0 -10 5 -10 10 0 6 5 10 10 10 6 0 10 -4 10 -10z m-3703
-597 c-1 -109 -2 -22 -2 192 0 215 1 304 2 198 2 -105 2 -281 0 -390z m3834
470 c0 -16 1 -115 2 -220 l2 -193 -42 2 c-41 1 -61 17 -25 19 16 1 16 2 0 6
-10 2 -18 12 -19 21 0 11 -2 12 -6 5 -2 -7 -16 -13 -30 -13 -18 0 -24 -4 -20
-14 7 -19 -25 -30 -60 -21 -22 5 -25 10 -19 35 3 17 1 30 -4 30 -6 0 -10 6
-10 14 0 12 -28 26 -55 26 -6 0 -17 -16 -24 -36 -13 -35 -14 -36 -54 -31 -42
6 -67 -8 -67 -37 0 -13 -14 -16 -86 -16 -47 0 -93 4 -102 9 -10 5 -40 5 -70 0
-37 -5 -60 -4 -73 4 -14 9 -21 9 -31 -1 -15 -15 -119 -16 -153 0 -16 7 -25 19
-25 34 0 12 -7 24 -15 28 -8 3 -15 18 -15 33 0 57 -13 105 -29 110 -9 2 -24 9
-35 15 -26 14 -33 -1 -34 -80 -1 -48 -5 -68 -17 -74 -8 -5 -15 -16 -15 -23 0
-8 -7 -15 -15 -15 -7 0 -18 -6 -22 -14 -10 -18 -107 -36 -197 -36 -52 0 -67 3
-59 11 7 7 30 13 53 15 85 8 76 29 -16 39 -56 6 -64 5 -83 -16 -17 -19 -25
-21 -43 -12 -13 6 -31 14 -40 17 -27 8 -22 26 7 26 14 0 34 9 45 20 17 17 17
20 4 20 -10 0 -14 6 -10 15 7 20 -24 35 -74 35 -29 0 -42 -5 -47 -17 -4 -9 -1
-19 5 -21 7 -2 12 -14 12 -27 0 -23 -3 -24 -72 -23 -42 0 -100 -7 -136 -17
-34 -10 -66 -15 -69 -11 -4 4 -8 20 -9 36 -2 22 2 30 14 30 39 0 92 23 126 53
20 19 36 37 36 41 0 29 36 76 69 91 33 15 56 16 157 10 198 -12 312 -11 326 3
6 6 20 12 30 12 17 0 22 11 30 65 2 12 10 19 20 17 9 -1 19 1 21 5 3 5 98 7
211 5 205 -3 206 -3 206 -25 0 -41 32 -50 182 -48 124 2 138 0 138 -15 0 -15
8 -16 63 -10 34 3 87 16 117 27 30 12 66 23 80 26 31 7 51 22 49 37 -3 26 2
46 11 46 6 0 10 -12 11 -27z m-1201 -13 c17 -11 11 -14 -62 -30 -55 -11 -106
3 -88 25 13 15 128 19 150 5z m8897 -126 c-3 -3 -12 -4 -19 -1 -8 3 -5 6 6 6
11 1 17 -2 13 -5z m-3441 -77 c4 -4 0 -7 -9 -7 -9 0 -18 4 -21 9 -7 10 20 9
30 -2z m58 -12 c3 3 2 0 -3 -6 -10 -12 -31 -4 -31 13 0 7 4 7 13 -1 8 -6 17
-9 21 -6z m105 -42 c15 3 21 1 21 -10 0 -12 -7 -14 -32 -9 -38 8 -53 20 -43
36 5 8 11 6 19 -6 9 -11 21 -15 35 -11z m2906 17 c3 -5 -1 -10 -9 -10 -8 0
-18 5 -21 10 -3 6 1 10 9 10 8 0 18 -4 21 -10z m-2807 -35 c-4 -11 -28 -16
-28 -6 0 12 13 22 23 18 5 -1 7 -7 5 -12z m107 -15 c3 -5 -1 -10 -9 -10 -8 0
-18 5 -21 10 -3 6 1 10 9 10 8 0 18 -4 21 -10z m2410 -10 c-5 -15 -2 -20 12
-20 15 0 16 -2 3 -10 -21 -14 -27 -12 -27 8 -2 22 5 42 12 42 4 0 3 -9 0 -20z
m-2335 0 c0 -5 -7 -7 -15 -4 -8 4 -15 8 -15 10 0 2 7 4 15 4 8 0 15 -4 15 -10z
m2430 -15 c0 -8 -4 -15 -9 -15 -5 0 -11 7 -15 15 -3 9 0 15 9 15 8 0 15 -7 15
-15z m-2505 -5 c3 -5 -1 -10 -9 -10 -9 0 -16 5 -16 10 0 6 4 10 9 10 6 0 13
-4 16 -10z m2353 -2 c7 -7 12 -16 12 -20 0 -12 -48 -10 -55 2 -3 6 -16 10 -28
11 -20 1 -20 2 3 9 37 12 55 11 68 -2z m-153 -38 c-3 -5 -2 -10 3 -10 5 0 9
-15 7 -32 -2 -26 -7 -34 -25 -36 -19 -3 -21 0 -16 15 4 10 10 30 13 46 3 15
10 27 15 27 5 0 6 -4 3 -10z m170 -9 c7 -12 -26 -31 -54 -31 -19 0 -20 2 -9
20 13 21 52 27 63 11z m-259 -8 c-11 -3 -28 -16 -39 -29 -11 -14 -29 -24 -45
-24 l-26 0 34 30 c23 21 43 30 64 29 21 -1 25 -3 12 -6z m-1666 -13 c0 -5 -2
-10 -4 -10 -3 0 -8 5 -11 10 -3 6 -1 10 4 10 6 0 11 -4 11 -10z m173 -6 c3 -4
68 -8 143 -10 117 -2 141 -5 163 -22 41 -30 38 -48 -11 -60 -61 -14 -91 -14
-132 3 -19 8 -53 15 -74 15 -41 0 -75 23 -50 33 7 3 3 6 -9 6 -17 1 -21 -3
-16 -16 4 -13 3 -15 -5 -8 -6 6 -12 19 -14 30 -1 11 -10 23 -18 27 -13 6 -13
7 1 7 9 1 19 -2 22 -5z m1375 -26 c2 -9 13 -19 25 -23 15 -4 18 -8 9 -12 -15
-6 -92 25 -92 37 0 22 54 20 58 -2z m-1398 -18 c0 -5 -2 -10 -4 -10 -3 0 -8 5
-11 10 -3 6 -1 10 4 10 6 0 11 -4 11 -10z m868 -5 c46 -1 85 -5 88 -8 3 -3 -2
-17 -13 -31 -17 -24 -23 -25 -118 -26 -149 0 -285 31 -300 68 -5 12 12 13 127
7 73 -4 170 -8 216 -10z m652 11 c0 -2 -7 -7 -16 -10 -8 -3 -12 -2 -9 4 6 10
25 14 25 6z m-419 -46 c20 0 28 -4 23 -11 -4 -7 -22 -9 -45 -6 -22 3 -39 1
-39 -4 0 -12 -27 -11 -35 1 -3 5 0 7 8 4 8 -3 17 2 21 11 4 11 12 15 22 11 9
-3 29 -6 45 -6z m94 4 c13 -5 14 -8 3 -15 -19 -13 -28 -11 -28 6 0 17 2 18 25
9z m-8928 -51 c-3 -3 -11 -2 -17 2 -8 5 -7 11 2 22 12 15 13 14 16 -1 2 -10 1
-20 -1 -23z m-1300 -30 c-3 -10 -5 -4 -5 12 0 17 2 24 5 18 2 -7 2 -21 0 -30z
m12313 23 c0 -15 -18 -31 -26 -23 -7 7 7 37 17 37 5 0 9 -6 9 -14z m597 -128
c-3 -7 -5 -2 -5 12 0 14 2 19 5 13 2 -7 2 -19 0 -25z m-12930 -550 c-1 -40 -3
-8 -3 72 0 80 2 112 3 73 2 -40 2 -106 0 -145z m20 15 c-2 -32 -3 -8 -3 52 0
61 1 87 3 58 2 -29 2 -78 0 -110z m33 75 c0 -23 -2 -39 -4 -37 -8 8 -15 62
-10 71 10 16 14 7 14 -34z m719 30 c46 -10 51 -14 57 -44 3 -18 4 -36 1 -41
-8 -13 -114 -15 -137 -3 -15 8 -20 21 -20 50 0 37 5 42 42 49 3 0 29 -4 57
-11z m631 -2 c49 -2 66 -6 68 -18 2 -12 -13 -16 -78 -21 -44 -3 -86 -10 -93
-16 -7 -6 -26 -9 -43 -8 -19 1 -28 -2 -26 -10 3 -19 -82 -20 -151 -2 -54 14
-41 33 24 37 29 2 61 10 69 17 23 20 89 35 130 28 19 -3 64 -6 100 -7z m243
-3 c-13 -2 -33 -2 -45 0 -13 2 -3 4 22 4 25 0 35 -2 23 -4z m-625 -36 c4 -21
-21 -22 -37 -3 -9 11 -9 15 1 19 20 8 33 2 36 -16z m-163 -86 c24 -4 39 -12
37 -20 -2 -10 28 -12 140 -8 81 2 108 2 63 -2 -72 -6 -76 -7 -35 -12 25 -3
-28 -6 -117 -6 -90 -1 -163 3 -163 7 0 5 8 14 18 19 14 8 14 11 2 12 -8 1 -21
1 -27 0 -7 -1 -13 3 -13 9 0 12 37 12 95 1z m324 -7 c8 -7 -144 -2 -194 6 -32
5 -7 6 70 3 66 -3 122 -7 124 -9z m2961 -54 c0 -5 -5 -10 -11 -10 -5 0 -7 5
-4 10 3 6 8 10 11 10 2 0 4 -4 4 -10z m-2564 -28 c-3 -5 23 -5 57 0 34 5 107
6 162 2 110 -8 295 -8 598 -3 181 4 199 2 208 -13 6 -10 18 -18 28 -18 10 0
24 -7 31 -15 7 -8 10 -15 7 -15 -3 0 -52 -9 -109 -21 -114 -23 -128 -23 -440
-14 -156 5 -218 4 -218 -4 0 -7 -34 -10 -102 -9 -97 1 -99 2 -38 8 50 5 32 7
-81 8 -108 2 -154 6 -175 17 -16 8 -40 15 -54 15 -14 1 -38 7 -55 15 -29 13
-27 13 45 16 l75 2 -65 7 -65 7 78 1 c49 1 76 6 72 12 -4 6 5 10 20 10 14 0
24 -4 21 -8z m2267 -28 c11 -11 -28 -74 -48 -78 -11 -3 -77 -7 -147 -10 l-128
-6 0 29 c0 26 4 29 53 39 28 6 91 9 140 8 63 -2 90 1 98 11 12 14 22 16 32 7z
m-564 -35 c65 -6 66 -29 2 -29 -40 0 -51 -3 -51 -16 0 -12 -5 -14 -17 -8 -34
15 -177 15 -231 1 -54 -15 -122 -6 -122 15 0 4 -8 8 -19 8 -10 0 -21 8 -24 19
-4 17 5 18 207 16 116 -1 231 -4 255 -6z m7222 -42 c-7 -7 -15 -6 -25 3 -22
17 -9 32 16 19 14 -8 17 -14 9 -22z m-959 4 c14 -17 15 -21 2 -32 -11 -9 -18
-8 -34 6 -11 10 -20 24 -20 32 0 20 33 16 52 -6z m223 -41 c3 -5 -1 -10 -9
-10 -9 0 -16 -5 -16 -11 0 -6 -14 -9 -32 -7 -42 4 -39 21 4 29 18 4 36 7 40 8
4 0 10 -3 13 -9z m155 -20 c0 -4 -17 -6 -37 -5 -48 3 -51 4 -35 13 14 10 72 3
72 -8z m1043 -4 c12 -13 32 -26 45 -30 31 -10 27 -30 -9 -43 -36 -14 -34 -32
6 -52 l28 -14 -34 -14 c-37 -16 -104 -12 -122 6 -14 14 -16 91 -4 91 5 0 4 7
-3 15 -13 16 -6 35 14 35 8 0 19 7 26 15 17 21 27 19 53 -9z m-1306 8 c-3 -3
-12 -4 -19 -1 -8 3 -5 6 6 6 11 1 17 -2 13 -5z m163 -14 c-19 -12 -40 -13 -40
-1 0 9 40 20 50 13 2 -2 -2 -7 -10 -12z m330 -15 c10 -12 10 -18 0 -30 -12
-15 -6 -35 11 -35 6 0 29 -8 52 -18 23 -10 61 -27 85 -37 23 -10 42 -21 42
-26 0 -19 -13 -39 -25 -39 -8 0 -17 -5 -21 -12 -4 -7 -3 -8 4 -4 8 4 12 0 12
-11 0 -31 21 -43 75 -43 32 0 61 -7 83 -20 34 -21 97 -27 107 -10 3 6 18 10
32 10 23 0 25 3 19 33 l-6 33 42 -2 c24 -1 61 -9 84 -17 27 -10 46 -12 57 -5
9 5 17 6 17 3 0 -4 15 3 34 15 22 13 37 17 41 10 3 -5 14 -10 23 -10 9 0 23
-13 30 -30 8 -17 21 -30 31 -30 24 0 26 -66 2 -75 -9 -4 -81 -9 -161 -11 -80
-3 -165 -9 -190 -13 -48 -10 -148 -3 -166 10 -6 5 -39 12 -73 15 -52 6 -61 5
-61 -9 0 -9 11 -24 25 -33 14 -9 25 -21 25 -26 0 -13 -82 -90 -114 -107 -20
-11 -31 -12 -48 -3 -13 6 -34 14 -48 18 -43 12 -55 33 -55 100 0 58 -2 64 -37
98 -30 29 -44 36 -78 36 -31 0 -47 6 -67 26 -21 21 -23 28 -12 35 8 5 23 9 33
9 32 0 86 23 86 36 0 16 -56 44 -89 44 -44 0 -101 12 -101 21 0 5 8 5 18 2 15
-6 16 -5 2 11 -8 11 -16 14 -18 7 -4 -12 -35 -15 -45 -5 -9 10 15 54 30 54 7
0 16 7 20 16 4 12 14 14 47 8 22 -4 65 -6 95 -5 34 1 57 -3 62 -11 5 -8 10 -3
14 15 6 21 13 27 35 27 15 0 33 -7 40 -15z m-576 -11 c4 -10 1 -14 -6 -12 -15
5 -23 28 -10 28 5 0 13 -7 16 -16z m136 -35 c0 -5 -7 -9 -15 -9 -8 0 -15 5
-15 11 0 6 -9 9 -20 6 -27 -7 -25 2 3 12 22 9 47 -2 47 -20z m-120 -4 c0 -8
-2 -15 -4 -15 -2 0 -6 7 -10 15 -3 8 -1 15 4 15 6 0 10 -7 10 -15z m30 0 c0
-8 -4 -15 -10 -15 -5 0 -10 7 -10 15 0 8 5 15 10 15 6 0 10 -7 10 -15z m-5806
-52 c-3 -21 -9 -41 -13 -45 -9 -10 -146 25 -143 37 3 12 91 37 113 31 9 -2 23
0 30 5 20 13 20 12 13 -28z m907 -32 c16 -2 85 -65 101 -92 12 -20 21 -59 24
-107 6 -78 4 -92 -36 -237 -12 -44 -25 -97 -30 -117 -4 -21 -12 -43 -18 -50
-5 -7 -19 -40 -30 -73 -15 -43 -26 -60 -38 -60 -10 0 -45 32 -79 72 -33 40
-93 95 -133 124 -41 28 -78 61 -83 73 -7 16 -1 54 25 148 46 167 73 227 119
268 36 32 121 61 157 54 8 -1 18 -3 21 -3z m5762 -38 c-7 -2 -19 -2 -25 0 -7
3 -2 5 12 5 14 0 19 -2 13 -5z m-1483 -170 c96 -50 217 -148 285 -230 66 -81
135 -202 135 -238 0 -55 -68 -146 -160 -214 -40 -29 -61 -50 -187 -187 -178
-193 -278 -306 -315 -353 -45 -58 -217 -221 -234 -221 -17 0 -94 52 -119 80
-11 12 -46 35 -78 51 -31 16 -81 44 -110 63 -91 58 -152 84 -258 111 -108 27
-159 58 -159 96 0 10 35 55 78 101 42 45 94 102 116 125 49 54 68 60 106 32
58 -43 215 -33 299 19 131 81 339 307 329 358 -2 10 -33 26 -83 44 -120 42
-135 49 -135 60 0 6 74 85 165 175 164 164 165 165 209 165 32 0 65 -10 116
-37z m-9003 -25 c-3 -8 -6 -5 -6 6 -1 11 2 17 5 13 3 -3 4 -12 1 -19z m0 -160
c-2 -13 -4 -3 -4 22 0 25 2 35 4 23 2 -13 2 -33 0 -45z m9702 25 c12 10 14 9
8 -5 -4 -12 -2 -15 8 -11 8 3 13 9 10 13 -9 15 12 20 29 7 16 -12 16 -14 0
-47 -10 -19 -22 -38 -27 -41 -5 -4 -7 -11 -4 -16 3 -5 2 -15 -3 -23 -8 -13
-11 -13 -23 0 -24 26 -39 82 -25 92 8 6 5 7 -9 3 -20 -5 -23 -3 -23 20 0 25 1
25 22 11 17 -12 25 -13 37 -3z m-2255 -8 c27 -12 36 -21 36 -40 0 -13 5 -27
10 -30 15 -9 12 -92 -2 -97 -23 -9 -38 3 -38 31 0 31 -59 106 -90 116 -11 4
-20 13 -20 21 0 19 57 19 104 -1z m-2509 -44 c3 -5 1 -12 -5 -16 -5 -3 -10 1
-10 9 0 18 6 21 15 7z m5174 -2 c40 -14 41 -39 2 -39 -17 0 -33 -4 -36 -10
-18 -29 -33 6 -19 44 7 19 11 19 53 5z m-3529 -44 c1 -16 -32 -18 -41 -3 -5 7
-9 16 -9 20 0 10 50 -6 50 -17z m317 3 c-3 -8 -6 -5 -6 6 -1 11 2 17 5 13 3
-3 4 -12 1 -19z m3320 -4 c-3 -3 -12 -4 -19 -1 -8 3 -5 6 6 6 11 1 17 -2 13
-5z m-3394 -19 c1 -5 -6 -11 -15 -13 -11 -2 -18 3 -18 13 0 17 30 18 33 0z
m522 -23 c3 -18 -2 -44 -15 -74 -19 -44 -19 -68 3 -96 5 -7 10 -29 10 -50 -1
-77 4 -72 -80 -72 -72 -1 -204 -30 -242 -54 -7 -5 -24 -33 -37 -63 -35 -78
-32 -143 10 -249 27 -68 31 -87 20 -91 -24 -9 -1551 5 -1759 17 -110 6 -215 8
-233 5 -37 -7 -82 15 -82 40 0 18 -40 111 -86 198 -19 37 -34 72 -32 78 4 12
90 20 178 17 54 -1 119 -1 190 1 19 1 79 1 132 1 54 -1 117 4 140 11 24 6 70
13 103 15 79 5 437 16 495 15 25 0 71 4 103 11 53 10 58 13 53 33 -6 23 -1 26
131 80 56 24 83 49 76 75 -4 15 -1 20 15 20 26 0 38 -18 18 -26 -18 -7 -22
-34 -6 -34 6 0 10 -11 10 -25 0 -24 3 -25 58 -26 31 0 72 -1 90 -2 26 0 39 6
57 28 l23 29 37 -33 c34 -30 39 -31 53 -17 10 10 15 30 14 53 -4 76 79 132
125 85 19 -19 223 -122 242 -122 19 0 71 64 60 75 -23 23 -3 115 24 115 8 0
26 14 42 30 36 37 52 38 60 2z m-3142 -7 c113 -14 121 -16 178 -57 74 -53 206
-184 259 -258 52 -73 150 -235 150 -249 0 -7 8 -28 19 -49 64 -127 214 -781
231 -1007 6 -71 14 -173 20 -225 5 -52 12 -119 14 -148 3 -29 8 -57 10 -61 14
-23 37 -230 38 -341 0 -69 2 -213 5 -320 l4 -196 -23 -11 c-13 -6 -42 -14 -65
-17 -64 -9 -73 10 -73 157 0 152 -17 390 -35 492 -13 71 -25 162 -41 305 -3
25 -9 59 -14 75 -5 17 -14 71 -20 120 -13 115 -73 420 -120 614 -17 72 -86
202 -167 318 -85 123 -119 161 -183 207 -115 83 -277 74 -387 -22 -26 -23 -58
-45 -70 -48 -14 -4 -24 -17 -29 -37 -3 -18 -14 -43 -23 -57 -9 -14 -22 -36
-29 -50 -6 -14 -16 -32 -22 -40 -24 -35 -90 -164 -90 -175 0 -11 -20 -60 -71
-172 -10 -23 -19 -50 -19 -59 0 -9 -15 -67 -34 -128 -18 -61 -39 -136 -46
-166 -6 -30 -16 -68 -20 -85 -5 -16 -16 -66 -25 -110 -10 -44 -21 -93 -26
-109 -5 -16 -9 -49 -9 -73 0 -44 -13 -82 -34 -95 -8 -5 -7 -16 1 -38 9 -24 9
-69 2 -177 -5 -80 -11 -149 -13 -152 -2 -3 -9 -66 -16 -140 -7 -74 -16 -146
-22 -160 -22 -60 -28 -650 -6 -751 24 -117 32 -183 55 -480 2 -36 15 -135 28
-220 20 -131 34 -187 93 -355 38 -110 76 -213 84 -230 9 -16 21 -49 27 -71 16
-59 53 -122 110 -187 27 -31 57 -70 67 -85 9 -16 28 -36 43 -45 14 -8 40 -27
56 -41 41 -36 121 -73 176 -81 87 -13 227 39 314 115 124 110 129 117 197 252
89 178 141 335 199 613 17 77 34 169 40 204 5 35 11 66 13 70 3 4 10 53 16
110 6 56 16 115 22 129 6 15 13 142 17 282 l6 254 67 14 c37 8 74 12 82 9 21
-8 22 -207 1 -527 -8 -129 -19 -310 -25 -401 -10 -155 -18 -206 -55 -350 -8
-30 -15 -76 -15 -102 0 -55 -12 -105 -57 -246 -18 -57 -33 -108 -33 -114 0
-22 -83 -196 -101 -213 -10 -9 -19 -25 -19 -34 0 -10 -9 -29 -20 -43 -11 -14
-20 -28 -20 -32 0 -4 -14 -28 -31 -53 -17 -25 -35 -56 -40 -69 -5 -13 -13 -23
-18 -23 -5 0 -24 -25 -41 -55 -17 -30 -37 -55 -45 -55 -7 0 -16 -11 -19 -24
-6 -25 -171 -175 -206 -188 -10 -4 -24 -16 -30 -27 -6 -12 -19 -21 -29 -21
-10 0 -34 -6 -53 -14 -43 -18 -159 -12 -249 14 -51 15 -68 25 -77 45 -12 26
-32 26 -32 -1 0 -30 -16 -12 -28 31 -8 31 -17 45 -29 46 -10 1 -22 2 -28 4 -5
1 -16 3 -22 3 -7 1 -12 7 -10 13 1 6 -11 16 -28 22 -16 5 -34 16 -38 23 -4 8
-12 14 -17 14 -13 0 -35 23 -92 97 -37 47 -48 70 -48 97 0 20 5 36 11 36 18 0
4 76 -20 106 -12 15 -21 33 -21 40 0 8 -7 14 -15 14 -8 0 -15 5 -15 11 0 6 -7
9 -15 5 -8 -3 -15 -1 -15 3 0 5 -3 17 -6 26 -5 12 -2 16 12 13 18 -3 19 6 19
167 l0 170 -37 3 c-21 2 -38 7 -38 11 0 5 -7 8 -15 7 -16 -1 -25 57 -30 194
-3 82 -3 83 -21 76 -9 -3 -20 -3 -25 0 -15 9 10 34 27 27 11 -4 12 0 3 24 -7
21 -16 29 -31 29 -20 -1 -21 3 -19 82 2 69 0 82 -13 82 -9 0 -16 7 -16 15 0 8
-4 15 -9 15 -5 0 -13 10 -17 23 -4 12 -12 25 -18 29 -6 4 -12 22 -13 40 -1 18
-4 44 -6 58 -3 14 -6 28 -6 31 -2 12 -39 17 -50 6 -19 -19 -13 14 6 36 17 18
17 20 -10 41 -22 18 -27 30 -27 64 0 25 -5 42 -11 42 -8 0 -10 17 -6 55 3 33
2 53 -4 50 -5 -4 -9 -1 -9 4 0 10 17 15 48 14 20 -1 38 45 24 59 -7 7 -12 29
-12 50 0 34 -3 38 -25 38 -23 0 -24 -3 -27 -67 -3 -62 -5 -55 -21 82 -9 83
-20 213 -23 290 -2 77 -9 187 -13 245 -11 139 -6 409 9 471 7 27 9 64 6 82 -3
18 3 109 14 202 12 94 25 206 30 251 19 166 112 677 139 769 10 33 33 110 50
170 55 191 71 237 126 360 72 160 137 284 191 363 24 35 44 68 44 72 0 7 34
52 141 183 44 54 130 114 202 142 75 29 58 28 200 10z m-2337 -17 c-1 -19 6
-24 34 -29 44 -7 24 -16 -55 -23 -113 -11 -150 -18 -167 -33 -14 -13 -127 -36
-136 -28 -10 9 22 46 44 51 14 4 49 19 77 35 29 16 63 29 77 29 14 0 32 5 40
10 8 5 31 10 51 10 31 0 35 -3 35 -22z m1871 6 c-3 -3 -12 -4 -19 -1 -8 3 -5
6 6 6 11 1 17 -2 13 -5z m6555 -15 c16 -12 27 -24 24 -27 -3 -3 -1 -12 6 -19
9 -11 9 -16 -1 -22 -15 -10 8 -21 41 -21 24 0 100 -58 92 -71 -3 -5 -16 -9
-30 -9 -13 0 -24 -4 -24 -10 0 -5 -21 -10 -46 -10 -37 0 -47 -4 -51 -19 -8
-32 -74 -38 -112 -11 -39 30 -43 49 -19 102 13 29 18 56 15 81 -5 32 -2 40 16
47 35 14 57 11 89 -11z m-4658 -25 c24 -23 19 -42 -14 -59 -36 -18 -54 -19
-68 -2 -8 10 -3 21 19 45 34 36 41 38 63 16z m-694 -6 c0 16 322 17 368 1 39
-14 47 -35 21 -62 -19 -20 -31 -22 -222 -28 -111 -4 -212 -10 -224 -14 -21 -7
-22 -5 -14 23 5 17 6 33 3 37 -4 4 6 17 23 30 21 18 31 21 37 12 6 -9 8 -9 8
1z m3648 -26 c45 -14 82 -32 82 -38 0 -18 -69 -101 -136 -165 -169 -159 -295
-212 -381 -159 -19 11 -33 28 -33 39 0 12 67 88 168 192 149 151 172 170 193
164 13 -4 61 -18 107 -33z m-1870 9 c28 -18 8 -44 -43 -58 -56 -14 -121 -17
-129 -5 -9 14 8 29 42 37 17 3 32 10 32 15 0 17 76 26 98 11z m-3098 -33 c8 0
21 -5 28 -11 8 -6 17 -5 27 3 27 22 18 -12 -10 -39 -14 -13 -25 -29 -25 -35 0
-7 -10 -21 -21 -32 -12 -10 -45 -55 -74 -99 -28 -44 -59 -86 -68 -94 -9 -7
-17 -21 -17 -30 0 -9 -8 -28 -17 -41 -10 -14 -27 -43 -39 -65 -11 -22 -25 -49
-31 -60 -21 -36 -61 -159 -67 -200 -5 -42 -24 -103 -36 -120 -9 -11 -101 -349
-118 -430 -58 -272 -124 -673 -142 -860 -6 -60 -15 -153 -20 -205 -28 -283
-33 -380 -26 -583 9 -291 64 -940 82 -968 2 -4 8 -42 13 -85 5 -44 15 -107 21
-142 6 -35 15 -98 20 -140 11 -98 40 -238 79 -377 17 -60 32 -128 34 -152 1
-24 5 -43 9 -43 7 0 58 -151 58 -172 0 -16 -39 32 -40 49 0 6 -5 15 -11 19 -7
4 -10 -3 -7 -22 5 -44 -17 -39 -33 8 -8 24 -13 49 -11 56 2 6 -2 12 -9 12 -6
0 -29 16 -50 35 -22 19 -36 35 -33 35 4 0 1 7 -6 15 -6 8 -9 19 -5 25 4 6 -5
23 -19 37 -14 14 -26 31 -27 37 0 6 -4 3 -8 -7 -6 -17 -9 -16 -33 8 -15 15
-33 40 -40 56 -7 16 -16 29 -20 29 -5 0 -8 7 -8 15 0 8 -4 15 -10 15 -5 0 -10
5 -10 12 0 23 -74 158 -87 158 -7 0 -13 6 -13 13 0 6 -6 24 -13 38 -8 14 -17
44 -21 67 -7 48 -38 105 -59 108 -10 1 -12 -6 -9 -25 3 -19 2 -23 -7 -15 -17
15 -22 54 -8 54 7 0 13 11 13 25 1 14 -4 25 -11 25 -18 0 -28 32 -13 41 6 4
16 5 20 3 20 -13 5 27 -16 44 -16 12 -23 26 -20 38 2 10 0 26 -6 34 -9 13 -11
13 -21 0 -8 -11 -9 -8 -3 15 15 61 13 95 -7 109 -23 16 -22 16 73 74 82 49
180 134 213 184 55 83 68 183 40 303 -12 50 -22 67 -59 101 -57 52 -139 77
-219 68 -70 -8 -82 8 -64 82 18 71 14 168 -8 190 -16 17 -17 34 -11 208 5 131
12 195 21 210 10 16 35 117 35 143 0 2 -6 3 -12 3 -30 0 -10 295 27 409 8 25
15 59 15 77 0 18 5 45 12 61 6 15 15 57 19 93 4 36 9 72 11 81 5 21 34 50 42
42 3 -4 6 5 6 19 0 15 -7 29 -16 32 -12 4 -14 13 -9 29 4 12 8 29 9 37 8 49
19 80 27 80 6 0 7 5 3 12 -4 6 1 17 12 25 15 11 16 15 5 22 -11 7 -11 15 -3
39 6 17 8 33 5 36 -4 3 16 6 44 6 65 0 158 47 217 110 37 39 44 55 50 103 4
31 4 78 1 104 -9 62 -61 212 -95 275 -13 24 -12 48 1 26 5 -10 16 -18 24 -18
9 0 12 -7 10 -17 -3 -10 0 -6 8 9 7 15 25 40 40 57 21 24 27 41 27 77 0 40 2
45 19 39 14 -4 23 0 31 15 6 11 17 20 25 20 8 0 15 9 15 20 0 12 10 25 25 32
14 6 25 17 25 25 0 7 16 23 35 35 22 15 35 31 35 45 0 25 51 56 77 46 18 -7
33 13 33 45 0 12 5 22 10 22 6 0 10 9 10 20 0 13 7 20 19 20 10 0 21 7 25 15
8 21 46 36 76 29 14 -3 32 -5 40 -6z m-274 -60 c4 -7 3 -8 -4 -4 -7 4 -12 2
-12 -3 0 -6 -7 -11 -16 -11 -14 0 -14 3 -4 15 15 18 26 19 36 3z m-772 -45 c6
-10 11 -12 15 -4 5 7 28 -10 64 -45 43 -42 61 -69 74 -110 9 -30 21 -54 26
-54 5 0 7 -9 4 -21 -4 -13 0 -22 11 -27 34 -12 67 -71 57 -102 -3 -9 1 -23 10
-30 8 -7 15 -18 15 -26 0 -7 9 -15 19 -19 30 -9 101 -127 133 -222 40 -115 37
-178 -11 -219 -39 -32 -92 -61 -133 -69 -36 -8 -91 12 -84 31 3 7 0 16 -6 20
-7 4 -6 9 3 15 11 7 11 9 1 9 -7 0 -11 4 -7 9 5 10 -12 26 -30 26 -5 0 -13 20
-18 45 -5 25 -13 50 -17 55 -4 6 -11 40 -15 77 -6 53 -11 67 -26 71 -13 3 -19
14 -19 31 0 14 -6 26 -13 26 -19 0 -54 70 -39 79 8 5 6 12 -8 24 -11 9 -25 17
-30 17 -14 0 -12 27 3 34 6 3 1 3 -12 0 -16 -4 -21 -3 -17 5 5 7 -6 11 -33 11
-37 0 -41 2 -41 25 0 14 -4 25 -8 25 -5 0 -19 9 -32 20 -13 12 -32 18 -45 16
-20 -4 -24 0 -27 36 -2 25 1 42 8 45 7 2 11 18 9 36 -4 46 34 109 71 119 19 5
34 18 43 39 13 30 16 31 55 25 22 -4 45 -14 50 -23z m716 13 c0 -7 -20 -31
-44 -52 -24 -21 -48 -49 -55 -61 -6 -13 -16 -23 -21 -23 -17 0 -11 14 21 50
17 19 42 50 56 68 27 34 43 41 43 18z m7340 -16 c0 -5 -2 -10 -4 -10 -3 0 -8
5 -11 10 -3 6 -1 10 4 10 6 0 11 -4 11 -10z m-8802 -27 c-10 -2 -26 -2 -35 0
-10 3 -2 5 17 5 19 0 27 -2 18 -5z m1051 -73 c7 0 9 -4 6 -10 -8 -13 18 -13
31 0 6 6 35 13 65 16 48 5 52 4 37 -9 -10 -8 -18 -21 -18 -29 0 -8 -6 -22 -13
-33 -13 -17 -16 -17 -45 -3 -30 16 -31 15 -41 -11 -6 -17 -10 -20 -10 -8 -1 9
-5 17 -11 17 -5 0 -10 11 -10 25 0 15 -6 25 -14 25 -19 0 -39 27 -31 40 5 8
12 7 24 -4 10 -9 23 -16 30 -16z m4489 -94 c119 -60 382 -315 382 -372 0 -7
-55 -13 -162 -17 -90 -3 -198 -13 -241 -22 l-78 -17 -37 25 c-112 74 -186 191
-187 294 0 78 22 111 91 136 71 25 146 16 232 -27z m-4238 24 c0 -5 -5 -10
-11 -10 -5 0 -7 5 -4 10 3 6 8 10 11 10 2 0 4 -4 4 -10z m-180 -50 c0 -5 -2
-10 -4 -10 -3 0 -8 5 -11 10 -3 6 -1 10 4 10 6 0 11 -4 11 -10z m1366 -277
c45 -28 94 -66 94 -73 0 -4 -47 -6 -104 -6 -88 1 -107 -2 -125 -18 -20 -18
-51 -16 -51 4 0 6 5 8 10 5 18 -11 11 10 -11 34 -26 27 -19 47 23 67 42 18
124 12 164 -13z m1584 -90 c154 -6 267 -7 883 -4 309 2 318 1 347 -19 17 -12
30 -24 30 -28 0 -9 -175 -98 -219 -112 -24 -7 -46 -7 -74 1 -23 6 -77 11 -121
12 -72 0 -85 4 -122 30 -34 24 -45 27 -62 18 -11 -6 -32 -11 -47 -11 -14 0
-39 -7 -55 -15 -17 -9 -63 -18 -102 -20 -40 -3 -100 -8 -134 -13 -33 -4 -76
-4 -95 0 -31 7 -265 2 -278 -6 -3 -2 -49 -7 -101 -10 -185 -13 -293 -15 -309
-6 -12 6 -27 4 -47 -6 -22 -12 -34 -13 -52 -5 -13 6 -34 8 -47 5 -16 -4 -36 1
-57 14 -38 23 -128 39 -128 23 0 -6 -11 -11 -24 -11 -13 0 -26 -7 -30 -15 -3
-8 -12 -15 -19 -15 -16 0 -82 183 -72 200 7 11 633 7 935 -7z m1980 -59 c140
-29 200 -73 259 -190 46 -91 43 -152 -12 -286 -24 -57 -69 -144 -101 -192 -74
-114 -195 -234 -262 -260 -73 -28 -92 -47 -58 -60 16 -6 119 42 258 121 100
58 162 73 297 73 157 0 249 -37 360 -145 102 -99 134 -168 134 -290 0 -106
-12 -142 -97 -296 -69 -125 -165 -234 -265 -302 -63 -42 -112 -67 -133 -67 -5
0 -15 19 -22 42 -18 62 -81 122 -148 142 -83 25 -140 30 -215 17 -37 -7 -70
-10 -72 -7 -3 3 17 30 45 61 60 67 181 291 211 389 26 85 28 146 4 146 -9 0
-41 -24 -72 -53 -96 -91 -282 -187 -461 -238 -151 -43 -396 -58 -560 -34 -63
9 -140 22 -170 30 -30 8 -102 26 -159 40 -121 30 -211 66 -261 103 -54 40
-163 153 -199 206 -64 96 -110 208 -98 240 6 14 12 14 57 -4 63 -25 142 -26
165 -3 39 39 41 97 7 195 -8 26 -12 51 -8 55 4 5 38 8 76 8 60 0 76 -5 149
-43 113 -59 147 -85 224 -174 52 -59 71 -75 87 -71 14 4 28 -3 45 -21 29 -32
76 -34 121 -7 69 42 172 194 214 316 22 63 27 164 10 196 -20 37 -116 17 -179
-38 -90 -77 -191 -266 -191 -359 0 -17 -3 -34 -7 -38 -8 -7 -113 100 -113 116
0 6 22 44 50 85 75 112 89 173 65 289 -7 30 -3 35 47 71 96 69 281 173 309
173 7 0 9 -8 4 -22 -17 -56 -17 -68 -3 -68 18 0 136 57 159 77 18 15 123 59
189 78 63 18 230 18 320 -1z m-3438 -33 c88 -40 94 -71 49 -244 -43 -165 -57
-237 -81 -392 -11 -77 -25 -160 -30 -185 -5 -25 -14 -79 -20 -120 -6 -41 -15
-93 -20 -115 -5 -22 -14 -65 -20 -95 -7 -30 -18 -73 -25 -95 -8 -22 -19 -72
-26 -112 -7 -39 -16 -78 -20 -85 -9 -14 -133 -18 -181 -5 -34 9 -34 14 -7 148
12 57 23 115 25 129 1 14 10 77 19 140 9 63 19 131 22 150 3 19 7 49 8 65 2
35 9 99 31 275 23 192 42 359 49 420 3 30 11 77 17 104 l12 48 76 -5 c46 -3
93 -13 122 -26z m-380 -32 c80 -70 68 -92 -38 -68 -42 10 -55 9 -82 -5 -36
-19 -42 -20 -42 -6 0 23 76 130 93 130 5 0 36 -23 69 -51z m573 -194 c14 -29
32 -85 40 -123 8 -38 33 -140 55 -228 36 -144 62 -302 91 -559 16 -142 27
-236 35 -292 8 -60 2 -64 -48 -33 -49 30 -135 27 -209 -6 -33 -15 -63 -24 -66
-20 -4 4 -10 71 -14 149 -9 169 -24 287 -47 359 -26 83 -20 224 17 403 50 245
97 418 112 410 5 -4 20 -30 34 -60z m7375 -86 c0 -11 -4 -17 -10 -14 -5 3 -10
13 -10 21 0 8 5 14 10 14 6 0 10 -9 10 -21z m-230 -109 c0 -5 -4 -10 -10 -10
-5 0 -10 5 -10 10 0 6 5 10 10 10 6 0 10 -4 10 -10z m-7705 -47 c12 -28 5 -77
-12 -90 -8 -6 -41 -15 -72 -19 -31 -3 -60 -10 -66 -14 -5 -4 -39 -16 -75 -25
-36 -10 -76 -24 -90 -30 -14 -7 -37 -15 -52 -19 -24 -5 -28 -3 -28 14 0 29 13
51 59 99 36 37 44 41 90 41 39 0 49 -3 45 -14 -3 -8 3 -19 15 -25 27 -15 41
-14 41 3 0 7 11 21 25 30 15 10 23 22 19 28 -5 8 -2 9 9 5 11 -4 17 -1 17 8 0
7 12 16 28 18 15 2 30 5 33 6 4 0 10 -7 14 -16z m6565 -63 c0 -5 -4 -10 -10
-10 -5 0 -10 5 -10 10 0 6 5 10 10 10 6 0 10 -4 10 -10z m-4983 -41 c8 -8 17
-8 26 -2 6 6 32 10 57 9 33 -1 45 -5 48 -18 2 -12 -6 -19 -32 -24 -20 -3 -36
-10 -36 -15 0 -5 -13 -9 -30 -9 -16 0 -30 5 -30 10 0 12 -42 13 -56 1 -5 -5
-28 -11 -51 -15 -35 -5 -43 -3 -43 9 0 9 -5 13 -11 9 -10 -6 -82 -18 -162 -28
-15 -1 -35 -13 -43 -25 -9 -12 -22 -20 -30 -17 -12 5 -20 -25 -15 -57 1 -4 -9
-5 -22 -2 -15 4 -28 1 -36 -9 -22 -27 -40 -18 -46 22 -3 20 -10 53 -15 73 -6
20 -10 53 -10 74 l0 38 262 -7 c167 -4 266 -10 275 -17z m229 -23 c36 -36 43
-56 19 -56 -8 0 -15 5 -15 12 0 9 -3 9 -12 0 -19 -19 -46 -14 -63 12 -14 20
-14 28 -3 45 18 29 35 26 74 -13z m-1832 -42 c12 -5 16 -20 16 -64 0 -64 -33
-286 -50 -340 -7 -19 -16 -66 -20 -105 -5 -38 -14 -90 -20 -115 -6 -25 -14
-58 -16 -75 -11 -61 -15 -59 -58 20 -23 44 -60 108 -82 141 -40 64 -47 74
-114 184 -62 100 -83 165 -69 207 9 29 21 39 65 59 30 13 65 24 77 24 12 0 42
7 67 16 25 9 77 24 115 34 39 11 71 19 72 19 1 1 8 -2 17 -5z m-363 -488 c44
-70 79 -131 79 -136 0 -4 9 -18 20 -32 10 -14 29 -49 40 -79 12 -30 35 -81 51
-114 29 -59 39 -145 21 -170 -10 -14 -92 -13 -92 1 0 20 -86 44 -117 32 -13
-4 -24 -4 -24 0 -1 4 -3 17 -4 30 -1 12 -6 26 -10 30 -5 4 -5 -1 -2 -10 4 -10
3 -18 -1 -18 -12 0 -62 108 -62 134 0 33 -10 57 -21 50 -10 -6 -11 -4 -10 137
0 147 22 284 43 277 6 -2 46 -61 89 -132z m-1150 -67 c-1 -40 -7 -100 -13
-133 -10 -54 -14 -59 -47 -73 -20 -8 -67 -30 -106 -48 -38 -18 -101 -46 -140
-60 -38 -15 -83 -33 -100 -40 -197 -85 -221 -88 -470 -66 -171 16 -204 18
-445 26 -96 4 -182 9 -190 12 -17 6 52 41 83 42 9 1 25 5 35 11 29 16 223 78
287 90 33 7 72 19 87 26 15 8 41 14 58 14 17 0 53 11 80 25 27 14 59 25 70 25
12 0 35 7 52 16 17 9 39 13 50 11 11 -3 21 0 24 7 3 7 24 19 47 26 23 6 57 18
75 26 18 8 43 14 55 14 12 0 47 7 77 16 30 9 72 17 93 19 20 2 44 8 51 14 8 7
22 13 32 16 78 16 147 35 157 43 11 10 70 20 91 17 5 0 8 -35 7 -76z m1888
-81 c1 -27 -3 -48 -8 -48 -5 0 -9 46 -9 103 0 89 1 95 8 47 5 -30 8 -76 9
-102z m2 -85 c9 -76 7 -114 -4 -111 -15 6 -23 118 -7 118 5 0 10 -3 11 -7z
m-80 -66 c-8 -8 -11 -7 -11 4 0 20 13 34 18 19 3 -7 -1 -17 -7 -23z m2524 -29
c-51 -159 -62 -252 -39 -336 6 -22 4 -23 -32 -20 l-39 3 -8 55 c-5 30 -6 69
-3 85 3 17 10 56 15 89 14 80 54 146 88 146 22 0 24 -3 18 -22z m254 -4 l62
-7 -7 -46 c-4 -25 -17 -67 -30 -93 -51 -102 -13 -118 88 -37 35 28 97 67 137
87 74 36 77 37 195 37 107 0 126 -3 164 -23 23 -12 42 -28 42 -36 0 -7 -28
-40 -63 -74 -70 -67 -55 -62 -272 -82 -66 -6 -172 -19 -235 -29 -63 -11 -154
-22 -202 -25 l-86 -5 -16 34 c-19 39 -20 66 -5 154 12 70 40 136 61 144 19 8
96 8 167 1z m-879 -45 c58 -6 114 -10 125 -10 11 0 45 -5 75 -10 30 -6 64 -12
75 -14 15 -3 20 -12 21 -39 0 -26 -3 -33 -11 -26 -16 13 -75 8 -75 -7 0 -7 -5
-13 -11 -13 -5 0 -7 -5 -4 -11 4 -6 -2 -13 -13 -16 -13 -3 -25 -20 -33 -48
-11 -39 -16 -44 -47 -47 -20 -3 -40 1 -47 9 -28 27 -79 3 -59 -28 3 -5 -2 -9
-10 -9 -11 0 -16 -9 -16 -28 0 -27 -33 -59 -57 -54 -6 1 -14 -2 -18 -7 -3 -6
-12 -8 -20 -5 -7 3 -25 -2 -39 -11 -14 -10 -26 -13 -26 -9 0 5 -12 8 -27 8
-41 -2 -84 -15 -78 -24 7 -11 -47 -21 -140 -27 -44 -3 -85 -9 -91 -14 -6 -5
-22 -9 -35 -9 -42 1 -133 -11 -154 -20 -11 -5 -69 -16 -130 -25 -60 -8 -125
-18 -142 -21 l-33 -6 0 121 c0 81 4 121 11 121 6 0 36 -8 67 -17 40 -12 93
-17 177 -17 137 -1 233 22 298 71 111 82 140 107 157 136 39 66 62 88 82 81
17 -5 18 -3 9 15 -10 18 -9 21 8 21 11 0 21 -3 24 -7 2 -5 2 -2 0 6 -3 11 6
12 39 7 24 -4 90 -12 148 -17z m-1849 -46 c15 -9 33 -28 39 -42 7 -14 16 -34
21 -43 5 -10 9 -25 9 -33 0 -9 6 -28 14 -43 8 -15 19 -65 25 -112 7 -47 14
-100 17 -117 2 -18 2 -33 -1 -33 -12 0 -35 29 -35 44 0 8 -5 18 -11 22 -8 4
-9 -3 -4 -25 4 -19 3 -31 -4 -31 -12 0 -39 54 -44 88 -5 35 -25 48 -75 51 -7
1 -16 9 -19 19 -9 21 -28 42 -41 42 -16 0 -72 34 -72 43 0 5 -5 5 -12 1 -22
-14 0 76 31 124 52 82 85 91 162 45z m-273 16 l32 -11 -41 -78 c-41 -78 -41
-79 -80 -77 -39 2 -39 2 -39 43 0 23 -3 62 -6 88 l-7 46 55 0 c30 0 69 -5 86
-11z m664 -16 c58 -62 78 -185 38 -235 -19 -25 -177 -108 -204 -108 -20 0 -27
13 -42 84 -7 34 -20 89 -29 124 -20 79 -13 92 68 131 82 40 134 41 169 4z
m1834 -44 c1 -33 0 -35 -25 -31 -14 3 -20 7 -13 10 6 2 10 8 6 13 -3 5 0 9 7
9 7 0 5 8 -7 21 -19 21 -19 21 6 18 21 -3 25 -10 26 -40z m-3085 -21 c1 -7 0
-25 -1 -41 -1 -19 4 -29 19 -35 19 -7 19 -7 -5 -19 -21 -10 -25 -9 -28 10 -7
32 -2 97 7 97 4 0 7 -6 8 -12z m-2326 -34 c94 -1 191 -3 218 -3 33 -1 47 -5
47 -15 0 -8 7 -16 15 -20 8 -3 14 -2 14 2 -5 31 2 34 64 27 34 -4 99 -10 144
-14 46 -5 89 -14 97 -20 23 -19 17 -193 -8 -219 -15 -17 -16 -26 -7 -58 12
-43 -11 -161 -35 -180 -8 -6 -14 -16 -14 -22 0 -17 -21 -26 -56 -24 -60 4 -56
-64 5 -74 57 -9 63 -12 56 -33 -3 -10 0 -30 6 -45 8 -17 9 -30 2 -38 -6 -7
-13 -26 -17 -43 -4 -16 -13 -37 -20 -45 -13 -15 -27 -118 -31 -240 -3 -91 -3
-90 -22 -90 -11 0 -14 -3 -8 -8 38 -27 49 -219 17 -279 -7 -12 -12 -44 -12
-72 0 -48 -2 -51 -25 -51 -17 0 -23 -4 -19 -14 6 -17 -12 -31 -21 -16 -3 5
-17 10 -31 10 -16 0 -24 6 -24 18 0 27 -41 59 -88 67 -26 4 -42 12 -42 21 0 8
-7 14 -15 14 -8 0 -15 9 -15 20 0 11 5 20 10 20 7 0 8 33 4 94 -5 77 -3 99 11
119 25 39 35 85 22 99 -7 7 -18 26 -26 41 -10 19 -21 27 -35 25 -17 -2 -22
-13 -27 -56 -4 -29 -12 -59 -18 -66 -9 -11 -9 -16 2 -23 19 -10 35 -133 17
-133 -7 0 -8 -6 -3 -14 4 -8 6 -40 5 -70 -4 -54 -5 -56 -31 -56 -18 0 -37 10
-54 30 -22 24 -35 30 -67 30 -40 0 -80 23 -80 47 0 24 39 41 85 35 50 -5 57 6
30 45 -11 16 -13 28 -5 48 10 27 -1 65 -20 65 -6 0 -10 11 -10 24 0 14 -4 27
-9 30 -16 10 -40 -5 -43 -27 -5 -32 -27 -33 -27 0 1 107 -5 155 -23 164 -10 5
-18 16 -18 24 0 10 -10 15 -29 15 -47 0 -78 -16 -85 -45 -8 -30 -26 -29 -41 3
-16 35 -30 19 -31 -34 -1 -62 -20 -130 -38 -137 -12 -5 -12 -13 -4 -41 8 -26
8 -42 1 -59 -6 -12 -14 -31 -18 -42 -6 -19 -8 -18 -21 7 -10 20 -13 53 -10
125 2 54 5 128 5 166 1 42 5 67 12 67 6 0 9 -6 6 -13 -3 -8 -1 -20 3 -28 16
-26 50 24 52 76 1 50 -12 69 -45 61 -11 -3 -20 2 -23 12 -3 9 -10 25 -15 34
-5 10 -9 19 -9 21 0 11 51 57 63 57 23 0 28 29 10 57 -16 24 -16 26 1 38 24
18 13 52 -16 50 -24 -2 -41 -35 -27 -56 5 -8 9 -20 9 -27 0 -20 -17 -5 -23 20
-3 13 -10 40 -15 61 -6 21 -6 37 -1 37 15 0 10 52 -7 71 -12 14 -13 24 -5 53
5 21 6 34 0 31 -5 -4 -8 63 -6 165 3 135 7 174 18 181 8 5 10 9 4 10 -5 0 13
7 40 14 33 9 78 12 130 8 44 -3 157 -7 250 -9z m-601 -91 c-14 -11 -15 -14 -4
-13 35 5 41 1 29 -21 -7 -15 -13 -18 -18 -10 -5 8 -15 6 -33 -8 -13 -11 -37
-23 -51 -26 -15 -4 -30 -11 -33 -16 -7 -12 -44 -11 -44 1 0 6 -4 10 -10 10 -5
0 -10 -7 -10 -15 0 -9 -12 -18 -30 -21 -16 -4 -30 -13 -30 -20 0 -17 22 -18
38 -2 10 10 14 8 18 -10 4 -12 9 -22 13 -22 13 0 26 16 26 30 0 8 7 15 15 15
20 0 22 -64 2 -87 -12 -15 -13 -23 -2 -48 7 -16 16 -30 21 -30 21 0 49 -42 49
-74 0 -58 -17 -91 -55 -105 -19 -7 -39 -10 -44 -6 -6 3 -14 -2 -19 -12 -14
-25 -8 -96 8 -101 21 -7 60 -53 54 -63 -3 -5 -26 -9 -51 -9 -34 0 -50 -5 -64
-21 -14 -17 -33 -22 -91 -26 -40 -2 -77 -9 -83 -14 -5 -5 -18 -9 -28 -9 -16 0
-17 3 -7 14 6 8 18 12 26 9 16 -6 18 14 4 37 -11 17 -71 21 -82 6 -4 -6 -8 7
-8 30 0 29 -4 41 -15 41 -8 0 -15 -6 -15 -12 0 -6 -11 -18 -25 -25 -20 -11
-25 -22 -26 -54 -1 -27 -3 -34 -8 -21 -3 11 -8 -34 -11 -100 -4 -67 -7 50 -8
267 l-2 387 37 7 c22 4 43 2 54 -5 29 -17 49 -13 58 13 10 26 49 38 94 29 25
-5 33 2 28 30 -1 4 10 13 25 19 21 10 27 9 35 -3 8 -12 11 -11 20 4 6 9 14 15
19 12 5 -3 34 -8 65 -10 47 -3 56 -1 65 16 8 13 8 19 0 19 -7 0 -8 6 0 19 8
15 17 18 49 14 23 -3 41 -1 45 6 4 6 12 8 18 5 7 -5 4 -12 -8 -21z m4272 -155
c-3 -13 -6 -47 -6 -75 l0 -53 -54 0 c-30 0 -58 4 -61 10 -3 5 -19 7 -35 3 -18
-3 -30 -1 -30 5 0 6 -8 12 -17 14 -19 4 106 78 131 78 7 0 21 9 31 20 25 28
49 26 41 -2z m-4889 -1010 c-1 -189 -2 -37 -2 337 0 374 1 528 2 343 2 -185 2
-491 0 -680z m6826 826 c34 -5 47 -11 51 -27 8 -30 -5 -77 -20 -77 -8 0 -14
-7 -14 -16 0 -9 -9 -18 -20 -21 -11 -3 -20 -11 -20 -18 0 -9 -24 -16 -72 -22
-65 -7 -73 -10 -76 -30 -3 -18 2 -23 17 -23 34 0 25 -20 -36 -80 -32 -30 -64
-68 -72 -83 -8 -15 -18 -27 -22 -27 -4 0 -19 -24 -34 -52 -15 -29 -38 -65 -50
-80 -13 -15 -29 -44 -35 -65 -7 -21 -21 -52 -31 -68 -23 -38 -59 -216 -66
-320 -5 -71 0 -118 23 -255 8 -44 82 -204 123 -264 17 -24 31 -49 31 -54 0
-19 -60 -144 -90 -189 -49 -72 -36 -111 59 -172 50 -32 72 -62 51 -69 -28 -10
-112 -106 -139 -160 -16 -32 -41 -73 -55 -89 -14 -17 -26 -35 -26 -40 0 -23
-63 -103 -81 -103 -15 0 -19 -7 -19 -33 0 -18 -7 -42 -15 -53 -8 -10 -15 -25
-15 -32 0 -7 -19 -43 -43 -80 -24 -37 -51 -80 -61 -95 -18 -29 -40 -32 -42 -6
-1 8 -2 18 -3 23 0 5 -8 3 -16 -4 -10 -8 -15 -32 -16 -69 -1 -31 -3 -48 -6
-38 -5 20 -4 20 -113 18 -47 -1 -80 2 -74 6 6 4 14 17 18 28 3 12 24 41 46 65
21 24 37 47 34 51 -3 5 7 26 21 46 14 21 25 42 25 48 0 5 9 21 20 35 19 25 27
70 12 70 -10 0 -82 -86 -82 -99 0 -5 -20 -27 -45 -48 -25 -20 -45 -43 -45 -50
0 -7 -9 -17 -19 -23 -11 -5 -22 -23 -26 -40 -4 -17 -13 -30 -21 -30 -9 0 -14
-7 -12 -17 3 -15 -5 -18 -44 -18 -25 0 -50 -3 -54 -7 -4 -5 -16 -8 -27 -8 -12
0 -17 -5 -14 -14 4 -9 -3 -16 -18 -20 -13 -3 -27 -15 -30 -26 -3 -11 -12 -20
-20 -20 -13 0 -31 -36 -27 -53 4 -13 -25 -37 -45 -37 -14 0 -15 2 -4 9 8 5 11
16 8 25 -8 20 5 54 32 85 12 13 21 30 21 36 0 7 6 15 14 18 9 4 12 14 9 26 -3
12 -1 21 6 21 6 0 16 11 21 25 5 13 27 53 50 88 22 35 40 67 40 71 0 8 46 71
70 96 8 8 24 33 35 54 11 21 32 51 48 67 28 28 36 59 15 59 -20 0 -48 -32 -48
-55 0 -12 -12 -32 -26 -46 -43 -39 -184 -206 -184 -217 0 -5 -11 -17 -24 -25
-13 -9 -34 -39 -47 -67 -12 -27 -26 -50 -31 -50 -5 0 -14 -12 -21 -27 -24 -56
-68 -110 -102 -126 -19 -9 -35 -23 -35 -31 0 -8 -8 -19 -17 -25 -15 -8 -16
-13 -5 -30 7 -12 8 -21 2 -21 -5 0 -12 11 -15 25 -3 14 -7 36 -10 50 -7 31
-31 42 -56 27 -10 -7 -27 -12 -36 -12 -14 0 -15 -2 -5 -9 11 -7 10 -10 -3 -15
-9 -3 -24 -6 -33 -6 -15 0 -15 2 -2 10 12 8 12 10 -5 10 -12 0 -16 3 -8 8 8 5
6 13 -7 30 l-19 22 -3 -22 c-2 -18 -10 -23 -31 -23 -15 -1 -37 -9 -48 -18 -12
-11 -28 -15 -40 -12 -19 6 -19 8 -5 31 9 13 16 30 16 38 0 9 9 20 20 26 11 6
20 17 20 25 0 21 -31 35 -52 24 -10 -5 -18 -7 -18 -3 0 17 -32 -23 -48 -60
-11 -22 -26 -47 -36 -55 -14 -12 -19 -11 -31 5 -10 12 -13 30 -10 49 4 17 9
47 12 67 3 21 11 42 19 49 8 6 14 18 14 25 0 8 9 31 20 51 20 38 27 107 12
117 -12 7 -42 -31 -42 -53 0 -10 -11 -26 -25 -35 -14 -9 -25 -22 -25 -29 0
-22 -40 -48 -62 -41 -18 5 -20 3 -15 -15 3 -12 1 -19 -5 -15 -5 3 -8 -2 -6
-12 3 -23 -52 -113 -69 -114 -7 0 -13 4 -13 9 0 6 -12 6 -30 0 -29 -10 -42
-39 -19 -39 8 0 8 -5 -1 -15 -7 -8 -17 -15 -22 -15 -6 0 -19 -11 -30 -25 -15
-19 -29 -25 -61 -25 -39 0 -40 1 -21 16 10 8 13 13 7 9 -7 -3 -13 -3 -13 2 1
9 82 71 106 80 20 7 94 85 141 148 77 102 114 163 191 312 l23 45 57 -57 c76
-77 126 -99 205 -90 127 14 195 58 240 154 27 56 31 78 32 149 1 58 -3 86 -12
94 -16 13 -83 130 -83 145 0 14 218 244 283 300 46 39 54 42 89 37 48 -8 50 7
3 36 -46 29 -86 23 -103 -13 -13 -26 -15 -27 -31 -13 -22 20 -64 20 -103 0
-23 -12 -27 -18 -17 -24 7 -5 26 -6 41 -3 22 4 28 2 28 -11 0 -16 -217 -246
-231 -246 -11 0 -66 85 -105 162 -34 68 -38 101 -12 97 28 -3 48 2 48 12 0 7
-12 9 -34 5 -67 -13 -77 6 -51 97 18 64 45 318 45 424 0 43 5 150 11 238 5 88
13 257 17 375 l7 215 60 12 c33 7 197 35 365 63 168 28 334 58 370 67 82 20
329 53 347 46 7 -3 28 2 46 10 17 8 52 18 77 21 25 4 83 13 130 20 100 16 150
18 213 10z m1483 -286 c-4 -22 -1 -37 10 -50 21 -23 7 -24 -18 -1 -20 18 -23
36 -8 64 16 29 23 23 16 -13z m-7716 -18 c0 -5 -4 -10 -10 -10 -5 0 -10 5 -10
10 0 6 5 10 10 10 6 0 10 -4 10 -10z m2167 -14 c15 -8 40 -20 55 -27 20 -9 34
-28 48 -66 21 -56 28 -173 10 -173 -5 0 -10 -9 -10 -20 0 -11 -9 -25 -19 -32
-10 -6 -17 -17 -15 -23 10 -25 -160 -146 -266 -189 -55 -23 -130 -36 -130 -23
0 5 -22 6 -52 2 -113 -13 -231 -16 -241 -6 -6 6 -19 11 -29 11 -10 0 -23 9
-30 20 -7 11 -18 20 -25 20 -6 0 -13 12 -15 28 -4 38 -30 34 -41 -7 -6 -24 -5
-42 4 -58 7 -13 10 -25 7 -28 -3 -3 -15 17 -26 45 -15 35 -19 58 -13 73 4 12
6 38 4 57 -4 29 3 47 37 97 23 34 58 75 78 91 40 31 171 91 242 111 25 8 93
31 152 52 168 61 224 70 275 45z m2138 -153 c8 -173 3 -312 -15 -357 -6 -16
-15 -63 -21 -105 -12 -91 -40 -221 -48 -221 -6 1 -36 59 -178 344 -51 102 -54
112 -44 145 12 42 28 139 37 228 3 34 11 66 17 71 7 5 50 17 97 26 46 9 86 19
89 21 2 3 17 5 32 5 l27 0 7 -157z m-4805 75 c0 -18 -2 -20 -9 -8 -6 8 -7 18
-5 22 9 14 14 9 14 -14z m4362 -33 c-4 -39 -69 -134 -100 -146 -33 -13 -34
-12 -71 19 l-34 28 28 44 c15 25 29 47 31 49 8 9 111 40 129 38 16 -2 19 -8
17 -32z m-4119 18 c-7 -2 -19 -2 -25 0 -7 3 -2 5 12 5 14 0 19 -2 13 -5z
m-245 -70 l-1 -58 -6 45 c-6 42 -4 70 5 70 2 0 3 -26 2 -57z m569 3 c-2 -6 2
-17 10 -24 19 -20 17 -43 -4 -36 -12 4 -14 3 -6 -3 6 -4 15 -21 19 -37 l7 -29
-59 8 c-32 4 -60 8 -60 8 -4 4 17 130 22 139 3 5 12 7 20 4 8 -3 14 0 14 6 0
6 9 3 20 -7 11 -10 19 -23 17 -29z m-447 4 c0 -16 -23 -60 -32 -60 -11 0 -10
13 2 44 9 25 30 36 30 16z m4311 -97 c-9 -17 -10 -17 -16 0 -4 9 -1 25 6 34
13 15 14 15 17 0 2 -9 -1 -24 -7 -34z m-4331 -4 c0 -12 -7 -19 -20 -19 -23 0
-24 4 -9 31 12 23 29 16 29 -12z m8244 -51 c26 -40 49 -84 52 -98 3 -14 14
-52 24 -85 46 -145 50 -313 12 -431 -56 -173 -161 -320 -281 -397 -42 -27 -60
-52 -45 -67 7 -7 33 2 83 27 l73 38 23 -29 c31 -39 95 -209 95 -252 0 -40 -12
-47 -106 -68 -38 -9 -94 -23 -124 -31 -103 -29 -334 -65 -418 -65 -49 0 -96 6
-117 14 -39 17 -75 68 -75 107 0 24 4 26 123 49 144 27 167 35 167 54 0 29
-12 28 -203 -10 -68 -14 -103 -15 -265 -4 -205 13 -285 25 -417 65 -62 19 -90
24 -98 16 -20 -20 24 -50 112 -76 148 -44 158 -53 78 -74 -48 -11 -73 -33 -61
-52 5 -8 29 -10 81 -5 l74 7 -7 -28 c-3 -15 -15 -37 -25 -47 -16 -18 -23 -18
-86 -8 -37 6 -97 23 -133 37 -36 15 -144 51 -240 82 -96 30 -190 64 -210 74
-19 11 -40 19 -46 19 -7 0 -9 11 -6 27 7 38 82 173 99 180 8 3 26 -6 41 -19
36 -34 67 -49 86 -42 24 9 20 20 -18 49 -19 14 -45 43 -59 64 -14 21 -41 56
-61 77 -57 62 -131 217 -146 305 -15 89 -8 308 14 389 26 101 114 270 141 270
6 0 18 -12 26 -26 21 -40 152 -150 217 -183 104 -52 176 -61 527 -68 275 -5
337 -3 440 12 202 29 469 140 557 231 23 24 45 44 49 44 3 0 27 -33 53 -72z
m-8348 -5 c-3 -3 -13 -2 -23 2 -17 7 -17 8 2 15 19 7 34 -5 21 -17z m-69 -345
c-1 -68 -3 -13 -3 122 0 135 2 190 3 123 2 -68 2 -178 0 -245z m4466 277 c60
-81 249 -453 268 -525 20 -76 5 -137 -46 -187 -48 -49 -86 -56 -127 -24 -13
11 -48 66 -78 123 -29 56 -63 117 -76 133 -12 17 -41 66 -64 110 -23 44 -48
87 -56 96 -8 8 -14 18 -14 21 0 4 -23 45 -50 91 -28 47 -57 105 -65 128 -23
65 -25 64 168 85 32 4 60 11 63 15 11 18 24 7 77 -66z m-4003 45 c0 -12 -38
-23 -51 -15 -6 5 -4 12 7 20 18 13 44 10 44 -5z m203 3 c-7 -2 -21 -2 -30 0
-10 3 -4 5 12 5 17 0 24 -2 18 -5z m7 -68 c8 -10 6 -57 -3 -72 -3 -5 -18 -9
-33 -8 -21 0 -35 9 -52 35 l-23 35 21 17 c12 10 30 18 41 18 10 0 21 6 26 13
5 8 9 6 11 -8 2 -11 8 -24 12 -30z m3284 -75 c-8 -47 -23 -112 -34 -145 -10
-33 -22 -78 -25 -100 -39 -240 -102 -524 -140 -629 -28 -78 -30 -80 -43 -72
-17 10 -89 171 -122 271 -37 115 -37 157 0 290 12 44 33 121 47 170 53 194 67
240 75 251 4 6 41 17 81 23 39 6 92 18 117 25 25 8 48 11 52 7 4 -3 1 -44 -8
-91z m140 20 c15 -36 51 -105 80 -155 30 -49 89 -157 132 -240 77 -148 78
-151 81 -235 4 -81 2 -87 -27 -133 -20 -32 -47 -56 -81 -75 -28 -15 -86 -50
-129 -79 -43 -28 -87 -54 -97 -57 -32 -11 -86 -62 -79 -74 11 -18 20 -15 93
34 76 52 229 134 251 134 9 0 11 -7 6 -22 -11 -36 -74 -160 -98 -193 -12 -16
-28 -43 -36 -60 -21 -43 -164 -183 -195 -191 -23 -6 -35 3 -101 72 -41 43 -74
83 -74 89 0 5 19 22 43 37 55 35 102 84 88 92 -6 4 -35 -9 -66 -29 -77 -49
-88 -47 -79 13 4 26 21 108 39 182 19 74 45 207 60 295 15 88 28 162 30 165 2
3 9 44 15 90 11 79 24 134 70 285 10 33 21 77 25 99 8 47 16 40 49 -44z
m-3774 41 c14 -26 13 -29 -10 -41 -16 -8 -24 -8 -35 4 -19 19 -19 26 3 42 23
18 30 17 42 -5z m3288 4 c27 -8 27 -7 -3 -122 -47 -175 -65 -174 -65 1 0 67 3
126 7 129 4 4 14 5 22 3 9 -2 26 -7 39 -11z m-3176 -102 c24 -22 23 -31 -4
-29 -16 1 -24 8 -26 24 -4 26 5 28 30 5z m944 -257 c10 -56 10 -126 -1 -126
-22 0 -55 70 -55 115 0 41 2 45 25 45 20 0 25 -6 31 -34z m-1399 -288 c-2 -35
-3 -7 -3 62 0 69 1 97 3 63 2 -35 2 -91 0 -125z m3218 172 c3 -5 -1 -10 -10
-10 -9 0 -13 5 -10 10 3 6 8 10 10 10 2 0 7 -4 10 -10z m-1475 -45 c0 -14 -4
-25 -8 -25 -7 0 -8 31 -3 48 4 11 11 -3 11 -23z m-1743 -447 c-1 -46 -3 -9 -3
82 0 91 2 128 3 83 2 -46 2 -120 0 -165z m4533 192 c45 -32 109 -36 159 -10
24 12 45 19 48 16 3 -2 -9 -50 -26 -104 -17 -55 -31 -105 -31 -111 0 -15 -80
-181 -122 -252 -39 -68 -104 -139 -179 -196 -88 -67 -169 -92 -238 -73 -75 20
-73 32 21 123 102 100 143 157 230 329 34 69 45 100 83 241 9 31 18 57 21 57
3 0 19 -9 34 -20z m611 -316 c14 -21 39 -64 55 -94 16 -30 45 -80 65 -110 53
-81 74 -159 60 -217 -19 -72 -37 -99 -84 -122 -47 -23 -77 -27 -92 -12 -6 5
-26 13 -45 18 -20 5 -39 18 -44 30 -5 11 -24 25 -41 32 -19 7 -39 25 -50 45
-17 32 -17 35 3 97 43 127 92 288 92 299 0 25 31 81 42 78 7 -3 25 -22 39 -44z
m2397 -141 c11 -10 28 -42 37 -70 27 -85 96 -125 238 -140 26 -3 47 -9 47 -15
0 -6 -13 -8 -34 -4 -31 6 -34 4 -40 -24 -3 -17 -13 -38 -21 -46 -8 -9 -15 -24
-15 -34 0 -10 -4 -21 -9 -24 -13 -9 -33 -117 -29 -161 3 -33 5 -36 12 -20 5
11 14 26 19 33 13 17 17 52 5 52 -16 0 -8 40 13 61 17 17 23 19 30 8 5 -8 9
-22 9 -31 0 -10 3 -18 8 -19 4 0 17 -2 30 -5 15 -3 22 1 22 11 0 21 36 19 44
-2 8 -19 -23 -133 -36 -133 -4 0 -8 15 -8 34 0 40 -8 66 -22 66 -5 0 -7 -4 -4
-9 3 -5 0 -21 -8 -36 -13 -25 -13 -30 5 -48 23 -25 24 -50 4 -67 -8 -7 -15
-20 -15 -29 -1 -14 -2 -14 -14 1 -12 16 -14 15 -34 -9 -14 -17 -22 -41 -22
-64 0 -21 -7 -44 -15 -53 -9 -8 -15 -19 -14 -23 5 -30 -3 -103 -11 -103 -5 0
-10 11 -10 23 0 21 -4 24 -37 22 -41 -3 -58 -31 -29 -47 24 -13 20 -33 -14
-70 -30 -34 -44 -51 -95 -117 -32 -42 -77 -58 -97 -34 -6 7 -20 13 -32 12 -82
-7 -115 13 -81 51 13 14 14 23 6 39 -11 19 -41 41 -56 41 -6 0 1 -86 10 -120
3 -8 0 -22 -5 -30 -9 -13 -11 -13 -20 0 -8 13 -11 13 -19 1 -10 -16 -31 -6
-31 15 0 8 8 14 18 15 9 0 12 3 7 5 -14 6 -6 75 10 94 7 8 17 33 20 55 4 22
14 52 21 66 7 14 15 57 19 95 3 38 10 84 16 102 6 18 8 36 5 39 -9 9 -66 -48
-66 -65 0 -22 -116 -132 -140 -132 -23 0 -27 22 -5 40 8 7 15 28 15 46 0 19 9
54 21 79 11 24 19 52 17 62 -3 19 -48 32 -48 14 0 -6 -15 -18 -33 -27 -18 -9
-39 -29 -46 -45 -7 -16 -19 -29 -27 -29 -9 0 -13 4 -10 9 3 5 -1 14 -9 21 -13
11 -15 5 -15 -39 0 -31 -4 -51 -11 -51 -7 0 -9 12 -5 34 4 19 2 53 -3 75 -8
38 -6 48 25 108 19 36 53 85 76 109 23 24 47 60 54 81 7 21 18 39 24 41 5 2
10 15 10 28 0 14 6 24 14 24 8 0 18 5 22 11 7 13 -13 29 -36 29 -17 0 -90 -64
-90 -79 0 -5 -11 -18 -25 -29 -14 -11 -25 -27 -25 -35 0 -8 -7 -17 -15 -21
-22 -8 -20 66 4 134 19 54 20 55 58 54 21 -1 63 -5 94 -9 79 -11 108 7 136 82
12 32 24 70 27 85 11 49 29 58 126 58 69 0 92 -4 108 -17z m-943 -53 c3 -5 -3
-10 -14 -10 -11 0 -23 5 -26 10 -3 6 3 10 14 10 11 0 23 -4 26 -10z m-3296
-142 c5 -13 11 -39 15 -58 6 -33 5 -32 -13 10 -20 45 -25 70 -16 70 3 0 9 -10
14 -22z m-3302 -115 c-3 -10 -5 -4 -5 12 0 17 2 24 5 18 2 -7 2 -21 0 -30z
m8368 -112 c60 -63 183 -162 231 -183 13 -6 24 -17 24 -25 0 -7 11 -13 23 -13
13 0 43 -13 65 -30 23 -16 46 -30 52 -30 12 0 13 -10 2 -27 -5 -8 -25 -10 -65
-6 -49 5 -57 9 -57 27 0 12 -4 27 -9 35 -7 10 -12 2 -18 -30 -7 -38 -12 -44
-36 -47 -15 -2 -27 -8 -27 -13 0 -5 -17 -9 -38 -9 l-38 0 -2 74 c-3 75 -8 115
-16 123 -5 6 -17 -84 -21 -153 -2 -62 -12 -76 -70 -100 -37 -15 -38 -15 -25 2
14 16 13 16 -10 4 -14 -7 -28 -18 -32 -24 -8 -12 -12 4 -9 36 1 9 -7 22 -18
28 -20 10 -21 20 -22 198 0 103 -4 211 -8 240 -4 29 -5 55 -2 58 3 3 20 -11
36 -32 17 -21 57 -67 90 -103z m-4875 73 c0 -8 -5 -12 -10 -9 -6 4 -8 11 -5
16 9 14 15 11 15 -7z m4437 -226 c-3 -8 -6 -5 -6 6 -1 11 2 17 5 13 3 -3 4
-12 1 -19z m2785 -130 c-9 -9 -12 -7 -12 12 0 19 3 21 12 12 9 -9 9 -15 0 -24z
m-2902 -48 c0 -11 -4 -20 -8 -20 -14 0 -32 24 -32 42 0 16 3 17 20 8 11 -6 20
-20 20 -30z m1175 -42 c25 -11 37 -58 14 -58 -6 0 -9 6 -7 12 5 14 -15 38 -31
38 -6 0 -11 5 -11 10 0 13 3 13 35 -2z m290 2 c13 -6 15 -9 5 -9 -8 0 -22 4
-30 9 -18 12 -2 12 25 0z m-180 -37 c36 -17 46 -33 21 -33 -18 0 -27 -23 -16
-40 6 -9 29 -14 74 -13 58 0 66 -2 66 -18 0 -14 -7 -19 -29 -19 -22 0 -29 -5
-29 -17 3 -40 -12 -72 -33 -70 -15 1 -19 6 -15 23 7 28 -9 72 -34 94 -11 10
-20 27 -20 38 0 33 -11 52 -30 52 -11 0 -22 5 -25 10 -10 16 31 12 70 -7z
m-307 -15 c59 -14 120 -55 166 -111 44 -53 60 -92 43 -105 -7 -5 -100 -16
-207 -25 -277 -24 -321 -40 -409 -158 -44 -60 -118 -175 -143 -224 -11 -22
-27 -51 -34 -65 -81 -145 -144 -285 -144 -319 0 -31 -5 -41 -20 -46 -53 -17
-150 28 -251 118 l-59 51 0 61 c0 66 13 111 48 167 31 51 51 54 114 20 82 -44
114 -53 129 -36 19 23 5 39 -66 74 -101 50 -148 128 -111 185 16 24 91 65 120
65 21 0 29 -34 22 -94 -3 -28 -3 -56 1 -62 13 -19 51 -34 108 -45 75 -14 90
-4 98 64 10 84 56 248 80 288 88 143 341 240 515 197z m1918 -35 c-7 -17 -8
-17 -17 0 -12 21 -2 44 13 29 6 -6 8 -19 4 -29z m-4148 -21 c19 -25 10 -46
-23 -52 -65 -11 -34 -68 52 -94 65 -20 235 -39 308 -34 52 3 60 6 60 23 0 14
-10 23 -32 30 -37 10 -48 32 -38 74 9 40 24 43 82 17 137 -64 163 -147 61
-194 -68 -31 -79 -34 -148 -41 -49 -5 -66 -10 -68 -23 -4 -23 26 -30 130 -31
83 0 91 -2 109 -25 24 -31 49 -114 49 -162 0 -46 -30 -87 -78 -107 -45 -19
-243 -43 -352 -43 -186 0 -559 51 -810 112 -128 30 -311 104 -337 136 -40 47
-32 111 27 228 27 54 55 106 62 114 47 56 104 62 294 30 180 -31 349 -84 409
-130 70 -53 89 -62 103 -48 17 17 15 23 -19 58 -28 27 -31 36 -26 71 6 49 28
76 82 100 44 21 83 17 103 -9z m2592 8 c0 -12 -8 -12 -35 0 -18 8 -17 9 8 9
15 1 27 -3 27 -9z m-1395 -29 c3 -5 1 -12 -5 -16 -5 -3 -10 1 -10 9 0 18 6 21
15 7z m2715 -45 c0 -8 -4 -17 -9 -21 -12 -7 -24 12 -16 25 9 15 25 12 25 -4z
m-6070 -37 c0 -5 -4 -8 -9 -5 -5 3 -11 -3 -14 -14 -3 -13 -14 -20 -29 -20 -17
0 -34 -14 -59 -46 l-34 -46 -6 44 c-7 47 1 58 42 58 15 0 37 9 50 20 26 21 59
26 59 9z m5075 1 c19 -8 19 -9 -2 -9 -12 -1 -25 4 -28 9 -7 12 2 12 30 0z
m-235 -45 c0 -9 -6 -12 -15 -9 -8 4 -15 10 -15 15 0 5 7 9 15 9 8 0 15 -7 15
-15z m-5510 -23 c36 -6 88 -8 115 -6 28 2 110 6 183 9 118 5 132 4 132 -11 0
-12 -7 -15 -26 -11 -18 3 -32 -2 -49 -19 -26 -26 -61 -32 -68 -11 -5 16 -37
-9 -37 -30 0 -11 -6 -10 -26 6 -28 22 -54 18 -54 -10 0 -15 -5 -13 -32 11 -17
16 -35 27 -39 24 -5 -2 -18 1 -29 8 -18 11 -23 10 -36 -6 -8 -11 -14 -25 -14
-32 0 -7 -9 -16 -20 -19 -15 -5 -19 -12 -15 -26 4 -11 1 -26 -5 -34 -6 -8 -9
-19 -6 -24 9 -14 -14 -25 -27 -12 -8 8 -7 17 1 33 7 13 13 43 14 68 2 35 0 45
-14 48 -11 2 -18 -3 -18 -11 0 -8 -6 -17 -14 -20 -12 -5 -51 -78 -76 -142 -4
-11 -13 -31 -19 -45 -10 -25 -10 -25 -4 4 3 17 1 31 -6 35 -9 6 -9 24 -2 71 8
49 17 71 41 95 16 17 30 38 30 46 0 23 12 31 35 25 11 -3 49 -9 85 -14z m3455
-83 c-6 -19 -4 -21 19 -15 21 5 26 3 26 -11 1 -17 1 -17 11 0 5 9 17 17 24 17
17 0 20 -26 5 -35 -5 -3 -7 -12 -3 -20 7 -19 2 -19 -32 -1 -21 11 -32 12 -46
3 -10 -6 -22 -7 -26 -3 -4 5 -2 11 5 13 6 3 9 10 5 16 -13 20 -12 41 0 49 18
11 19 10 12 -13z m3828 -20 c6 -45 0 -72 -14 -63 -12 7 -12 104 0 104 4 0 11
-19 14 -41z m-7003 21 c0 -5 -4 -10 -10 -10 -5 0 -10 5 -10 10 0 6 5 10 10 10
6 0 10 -4 10 -10z m6748 -34 c2 -27 0 -37 -9 -34 -15 5 -31 57 -23 70 12 19
29 0 32 -36z m-6982 -43 c-2 -16 -4 -32 -5 -36 0 -5 -6 -5 -12 -2 -6 4 -8 10
-5 13 3 3 1 12 -6 19 -9 11 -9 17 3 24 23 14 28 11 25 -18z m5319 6 c100 -13
119 -28 119 -96 -1 -49 -12 -80 -62 -165 -28 -49 -108 -128 -129 -128 -7 0
-18 -9 -25 -20 -8 -12 -24 -20 -40 -20 -22 0 -28 -5 -28 -22 -1 -23 -1 -23
-16 -3 -14 19 -16 19 -25 3 -7 -13 -23 -18 -59 -18 -28 0 -50 -4 -50 -10 0 -5
-7 -10 -15 -10 -7 0 -18 -7 -23 -17 -9 -16 -58 -22 -178 -23 -23 0 -58 -7 -77
-15 -20 -8 -52 -15 -72 -15 -23 0 -35 -5 -35 -14 0 -15 -17 -21 -91 -31 -28
-4 -49 -3 -53 3 -3 6 9 41 28 79 19 37 37 79 41 93 4 14 16 36 26 49 11 13 19
28 19 32 0 9 38 66 99 149 44 60 135 146 176 167 41 20 107 40 160 47 41 5
213 -3 310 -15z m1505 -84 c0 -14 -4 -25 -10 -25 -11 0 -14 33 -3 43 11 11 13
8 13 -18z m-5052 -93 c127 -78 288 -133 497 -167 55 -9 110 -21 123 -26 13 -5
37 -9 55 -9 18 0 39 -5 47 -10 26 -18 -9 -30 -85 -30 -271 1 -632 94 -735 190
-31 29 -39 67 -18 88 19 19 34 15 116 -36z m6143 -104 c18 12 23 11 35 -5 8
-11 11 -28 7 -43 -3 -14 -7 -36 -8 -50 -2 -19 -7 -24 -21 -22 -29 6 -45 23
-39 43 3 9 1 20 -4 23 -5 4 -9 20 -9 37 1 20 4 26 9 17 7 -11 12 -11 30 0z
m439 -238 c0 -5 -2 -10 -4 -10 -3 0 -8 5 -11 10 -3 6 -1 10 4 10 6 0 11 -4 11
-10z m-4365 -109 c54 -56 43 -69 -23 -27 -50 32 -76 62 -68 81 8 22 29 9 91
-54z m5156 -906 c5 13 7 0 7 -40 0 -44 -2 -54 -8 -35 -7 21 -8 22 -9 5 -1 -16
-4 -15 -17 10 -12 24 -13 34 -3 55 11 23 13 24 17 5 l5 -20 8 20z"/>
<path d="M3970 10253 c0 -5 4 -14 9 -21 7 -11 9 -11 14 1 3 8 3 18 0 21 -9 8
-23 7 -23 -1z"/>
<path d="M12102 10273 c2 -10 -3 -18 -9 -19 -7 -1 -21 -2 -30 -3 -15 -2 -14
-4 4 -13 12 -6 29 -8 37 -5 18 7 22 57 6 57 -6 0 -10 -8 -8 -17z"/>
<path d="M2840 9970 c0 -5 9 -10 20 -10 11 0 20 5 20 10 0 6 -9 10 -20 10 -11
0 -20 -4 -20 -10z"/>
<path d="M3168 9633 c6 -2 18 -2 25 0 6 3 1 5 -13 5 -14 0 -19 -2 -12 -5z"/>
<path d="M1728 8673 c6 -2 18 -2 25 0 6 3 1 5 -13 5 -14 0 -19 -2 -12 -5z"/>
<path d="M1618 8623 c12 -2 32 -2 45 0 12 2 2 4 -23 4 -25 0 -35 -2 -22 -4z"/>
<path d="M10085 8341 c-8 -13 13 -24 47 -25 35 -1 36 5 1 22 -32 14 -40 15
-48 3z"/>
<path d="M6300 7542 c0 -13 47 -32 96 -39 37 -5 44 -3 44 11 0 9 -12 21 -26
26 -31 12 -114 13 -114 2z"/>
<path d="M6625 7510 c-8 -12 17 -23 41 -18 10 1 19 9 22 16 5 15 -54 17 -63 2z"/>
<path d="M6890 7495 c0 -16 9 -19 34 -9 25 9 19 24 -9 24 -16 0 -25 -6 -25
-15z"/>
<path d="M3081 4980 c0 -8 4 -22 9 -30 12 -18 12 -2 0 25 -6 13 -9 15 -9 5z"/>
<path d="M3101 4894 c0 -11 3 -14 6 -6 3 7 2 16 -1 19 -3 4 -6 -2 -5 -13z"/>
<path d="M3098 4620 c-1 -33 -1 -60 2 -60 3 0 4 -26 2 -58 -2 -32 1 -74 7 -93
8 -26 10 0 8 118 -2 154 -12 205 -19 93z"/>
<path d="M3116 4320 c2 -19 4 -43 4 -52 0 -18 24 -25 33 -10 9 14 -5 62 -18
62 -8 0 -16 8 -18 18 -2 9 -3 1 -1 -18z"/>
<path d="M3147 4020 c-3 -11 -1 -20 4 -20 5 0 9 9 9 20 0 11 -2 20 -4 20 -2 0
-6 -9 -9 -20z"/>
<path d="M3171 4014 c0 -11 3 -14 6 -6 3 7 2 16 -1 19 -3 4 -6 -2 -5 -13z"/>
<path d="M3160 3960 c0 -5 5 -10 11 -10 5 0 7 5 4 10 -3 6 -8 10 -11 10 -2 0
-4 -4 -4 -10z"/>
<path d="M3210 3830 c0 -5 5 -10 10 -10 6 0 10 5 10 10 0 6 -4 10 -10 10 -5 0
-10 -4 -10 -10z"/>
<path d="M3492 3470 c0 -14 2 -19 5 -12 2 6 2 18 0 25 -3 6 -5 1 -5 -13z"/>
<path d="M3532 3220 c0 -14 2 -19 5 -12 2 6 2 18 0 25 -3 6 -5 1 -5 -13z"/>
<path d="M3621 3103 c-1 -6 -4 -20 -7 -30 -5 -17 -5 -17 6 0 6 10 9 23 6 30
-3 9 -5 9 -5 0z"/>
<path d="M3602 3030 c0 -14 2 -19 5 -12 2 6 2 18 0 25 -3 6 -5 1 -5 -13z"/>
<path d="M3620 3025 c0 -14 5 -25 10 -25 6 0 10 11 10 25 0 14 -4 25 -10 25
-5 0 -10 -11 -10 -25z"/>
<path d="M3661 3024 c0 -11 3 -14 6 -6 3 7 2 16 -1 19 -3 4 -6 -2 -5 -13z"/>
<path d="M3987 2125 c-4 -8 -2 -17 3 -20 6 -4 10 3 10 14 0 25 -6 27 -13 6z"/>
<path d="M2976 4515 c4 -8 8 -15 10 -15 2 0 4 7 4 15 0 8 -4 15 -10 15 -5 0
-7 -7 -4 -15z"/>
<path d="M3240 2900 c0 -5 5 -10 11 -10 5 0 7 5 4 10 -3 6 -8 10 -11 10 -2 0
-4 -4 -4 -10z"/>
<path d="M3210 2886 c0 -8 4 -17 9 -21 6 -3 9 4 8 15 -1 23 -17 28 -17 6z"/>
<path d="M8094 6086 c-49 -15 -130 -69 -144 -95 -7 -14 -6 -22 4 -30 10 -8 23
-3 56 20 80 58 125 72 209 66 88 -6 151 -26 193 -62 35 -29 58 -32 58 -7 0 40
-57 74 -167 102 -89 23 -150 24 -209 6z"/>
<path d="M3997 6456 c-6 -15 1 -26 15 -26 4 0 8 9 8 20 0 23 -15 27 -23 6z"/>
<path d="M3875 5360 c-10 -16 4 -30 28 -30 18 0 19 2 7 10 -13 9 -13 11 0 20
12 8 11 10 -7 10 -12 0 -25 -4 -28 -10z"/>
<path d="M1008 4995 c-3 -6 -8 -32 -9 -60 -4 -45 -2 -50 19 -53 13 -2 22 2 22
10 -1 28 -26 112 -32 103z"/>
<path d="M865 4829 c-10 -15 3 -25 16 -12 7 7 7 13 1 17 -6 3 -14 1 -17 -5z"/>
<path d="M1020 4521 c-15 -4 -26 -15 -28 -29 -2 -12 -10 -22 -18 -22 -8 0 -14
-5 -14 -11 0 -8 12 -10 35 -6 34 6 55 -5 35 -18 -21 -13 -10 -35 18 -35 26 0
27 2 27 53 0 50 -8 78 -23 76 -4 -1 -18 -4 -32 -8z"/>
<path d="M1406 4465 c-4 -14 -4 -30 -1 -35 12 -20 23 -9 27 25 5 41 -16 49
-26 10z"/>
<path d="M1170 4436 c0 -25 5 -48 11 -51 15 -10 16 -6 11 48 -5 60 -22 62 -22
3z"/>
<path d="M1202 4460 c0 -14 2 -19 5 -12 2 6 2 18 0 25 -3 6 -5 1 -5 -13z"/>
<path d="M1167 4333 c-13 -13 -7 -31 22 -62 32 -34 61 -41 61 -13 0 10 5 23
11 29 7 7 0 16 -25 31 -24 14 -36 17 -40 9 -3 -9 -5 -9 -5 1 -1 13 -14 16 -24
5z"/>
<path d="M1165 4240 c3 -5 8 -10 11 -10 2 0 4 5 4 10 0 6 -5 10 -11 10 -5 0
-7 -4 -4 -10z"/>
<path d="M841 4094 c0 -11 3 -14 6 -6 3 7 2 16 -1 19 -3 4 -6 -2 -5 -13z"/>
<path d="M41 4754 c0 -11 3 -14 6 -6 3 7 2 16 -1 19 -3 4 -6 -2 -5 -13z"/>
<path d="M42 4660 c0 -14 2 -19 5 -12 2 6 2 18 0 25 -3 6 -5 1 -5 -13z"/>
<path d="M222 4624 c-30 -21 -19 -35 21 -27 41 8 42 9 27 28 -16 19 -20 19
-48 -1z"/>
<path d="M5860 3305 c-15 -18 5 -28 47 -23 l28 3 -31 17 c-28 15 -34 16 -44 3z"/>
<path d="M5264 3282 c5 -8 66 -4 66 4 0 2 -16 4 -36 4 -19 0 -33 -4 -30 -8z"/>
<path d="M6052 3268 c3 -7 15 -15 27 -16 16 -3 22 1 19 10 -3 7 -15 15 -27 16
-16 3 -22 -1 -19 -10z"/>
<path d="M6330 3260 c0 -5 7 -10 15 -10 8 0 15 5 15 10 0 6 -7 10 -15 10 -8 0
-15 -4 -15 -10z"/>
<path d="M5977 2794 c-13 -13 -7 -65 8 -70 23 -9 46 16 43 45 -3 26 -35 41
-51 25z"/>
<path d="M5930 2775 c-8 -9 -8 -15 -2 -15 12 0 26 19 19 26 -2 2 -10 -2 -17
-11z"/>
<path d="M5880 2731 c-21 -40 -1 -44 24 -6 14 21 14 25 2 25 -9 0 -20 -9 -26
-19z"/>
<path d="M6082 2607 c-12 -13 -22 -31 -22 -39 0 -9 -11 -25 -25 -36 -29 -23
-33 -45 -7 -40 18 3 91 103 92 126 0 19 -14 15 -38 -11z"/>
<path d="M5963 2612 c-25 -16 -107 -121 -135 -175 -17 -31 -47 -72 -67 -90
-20 -18 -51 -50 -69 -70 -31 -36 -31 -39 -16 -62 9 -14 22 -25 28 -25 21 0 52
42 71 95 10 28 26 59 36 70 9 11 20 30 23 42 4 12 16 25 27 28 10 4 19 15 19
25 0 11 17 35 37 55 20 20 43 52 49 72 14 41 14 45 -3 35z"/>
<path d="M6700 4033 c-64 -33 -89 -65 -101 -127 -12 -65 2 -126 41 -174 98
-123 306 -84 358 67 27 77 12 145 -46 204 -62 64 -161 76 -252 30z m201 -57
c97 -66 81 -196 -31 -254 -105 -54 -226 14 -224 126 1 99 56 152 158 152 49 0
69 -5 97 -24z"/>
<path d="M7486 3943 c-81 -23 -139 -89 -152 -171 -19 -127 78 -222 226 -222
91 1 157 31 209 95 49 59 65 104 56 152 -13 72 -135 144 -250 149 -38 2 -79 0
-89 -3z m206 -83 c34 -17 67 -38 74 -48 30 -39 6 -105 -57 -161 -79 -67 -161
-79 -250 -33 -94 47 -111 131 -42 212 35 42 76 58 151 59 51 1 75 -5 124 -29z"/>
<path d="M7708 2330 c-4 -8 -14 -40 -23 -70 -9 -30 -25 -72 -35 -92 -10 -21
-14 -38 -9 -38 5 0 9 -6 9 -13 0 -9 9 -12 29 -9 23 3 28 9 28 30 1 15 5 47 11
72 10 44 1 149 -10 120z"/>
<path d="M7251 1864 c0 -11 3 -14 6 -6 3 7 2 16 -1 19 -3 4 -6 -2 -5 -13z"/>
<path d="M8461 2401 c-8 -5 -9 -11 -3 -15 5 -3 12 1 16 9 6 17 6 18 -13 6z"/>
<path d="M7725 10785 c66 -18 127 -19 151 0 17 13 8 14 -91 14 l-110 0 50 -14z"/>
<path d="M7900 10796 c0 -10 28 -13 41 -5 10 6 7 9 -13 9 -16 0 -28 -2 -28 -4z"/>
<path d="M8213 10793 c9 -2 23 -2 30 0 6 3 -1 5 -18 5 -16 0 -22 -2 -12 -5z"/>
<path d="M12010 10791 c0 -17 18 -21 24 -6 3 9 0 15 -9 15 -8 0 -15 -4 -15 -9z"/>
<path d="M6631 10704 c0 -11 3 -14 6 -6 3 7 2 16 -1 19 -3 4 -6 -2 -5 -13z"/>
<path d="M8810 10652 c-20 -17 -20 -52 1 -52 5 0 15 -13 24 -30 9 -16 24 -30
33 -30 10 0 28 -9 41 -21 18 -17 25 -18 37 -9 12 10 12 16 2 28 -7 8 -12 18
-10 21 3 8 -59 79 -85 96 -19 13 -24 12 -43 -3z"/>
<path d="M6497 10633 c-10 -9 -9 -23 2 -23 5 0 11 7 15 15 5 15 -5 20 -17 8z"/>
<path d="M6667 10603 c-4 -3 -7 -11 -7 -17 0 -6 5 -5 12 2 6 6 9 14 7 17 -3 3
-9 2 -12 -2z"/>
<path d="M5540 10576 c0 -16 27 -29 41 -20 13 8 -9 34 -27 34 -8 0 -14 -6 -14
-14z"/>
<path d="M5680 10570 c0 -5 5 -10 10 -10 6 0 10 5 10 10 0 6 -4 10 -10 10 -5
0 -10 -4 -10 -10z"/>
<path d="M5243 9890 c-33 -13 -31 -58 2 -66 57 -14 110 33 69 63 -20 15 -39
16 -71 3z"/>
<path d="M11853 8300 c-11 -16 -10 -21 6 -30 24 -12 101 -13 119 -1 10 6 2 11
-25 16 -21 5 -44 7 -51 6 -7 -1 -15 5 -18 14 -8 20 -17 19 -31 -5z"/>
<path d="M11710 8300 c0 -5 4 -10 9 -10 5 0 16 -3 25 -6 11 -4 16 -1 16 10 0
10 -9 16 -25 16 -14 0 -25 -4 -25 -10z"/>
<path d="M10233 7535 c-58 -25 -37 -45 45 -45 26 0 57 3 69 6 19 5 20 9 11 30
-9 20 -18 24 -52 24 -23 -1 -56 -7 -73 -15z"/>
<path d="M755 7520 c4 -6 20 -10 37 -10 39 0 31 10 -11 15 -19 2 -29 0 -26 -5z"/>
<path d="M10450 7522 c0 -15 69 -35 105 -30 l30 4 -30 13 c-43 19 -105 26
-105 13z"/>
<path d="M10720 7520 c0 -13 28 -25 38 -16 3 4 0 11 -8 16 -20 13 -30 12 -30
0z"/>
<path d="M11425 7510 c-27 -6 -28 -8 -10 -14 11 -4 29 -11 41 -16 12 -4 27 -4
35 1 12 8 11 12 -5 24 -11 8 -22 14 -25 14 -3 -1 -19 -5 -36 -9z"/>
<path d="M12005 7500 c-3 -5 -2 -10 4 -10 5 0 13 5 16 10 3 6 2 10 -4 10 -5 0
-13 -4 -16 -10z"/>
<path d="M11635 7490 c3 -5 10 -10 16 -10 5 0 9 5 9 10 0 6 -7 10 -16 10 -8 0
-12 -4 -9 -10z"/>
<path d="M44 6650 c0 -52 1 -74 3 -47 2 26 2 68 0 95 -2 26 -3 4 -3 -48z"/>
<path d="M12235 6670 c-3 -5 -1 -10 4 -10 6 0 11 5 11 10 0 6 -2 10 -4 10 -3
0 -8 -4 -11 -10z"/>
<path d="M12180 6656 c0 -15 24 -28 34 -19 7 7 -13 33 -25 33 -5 0 -9 -6 -9
-14z"/>
<path d="M12180 6535 c0 -8 9 -15 20 -15 24 0 27 15 4 24 -22 9 -24 8 -24 -9z"/>
<path d="M12327 6539 c-9 -6 -15 -14 -12 -18 7 -12 56 0 52 12 -5 16 -20 18
-40 6z"/>
<path d="M12440 6532 c0 -4 10 -13 21 -20 22 -14 119 -8 119 8 0 4 -24 10 -52
14 -70 8 -88 8 -88 -2z"/>
<path d="M11795 6440 c-25 -18 -39 -20 -90 -15 -33 4 -118 6 -190 5 -71 -1
-194 -3 -272 -4 -134 -1 -166 -6 -149 -23 4 -5 98 -10 209 -13 166 -4 201 -8
199 -19 -2 -12 15 -13 105 -7 75 5 119 3 142 -5 28 -10 36 -10 39 1 16 47 82
65 120 33 26 -23 62 -140 62 -203 0 -28 6 -52 14 -59 21 -17 26 87 9 158 -20
79 -21 97 -3 92 8 -2 82 -7 163 -12 112 -6 168 -14 231 -34 100 -30 138 -32
134 -8 -3 14 9 16 110 14 71 -2 112 1 112 8 0 12 -45 18 -275 37 -38 3 -113
10 -165 15 -217 23 -275 28 -301 22 -18 -3 -33 1 -46 13 -28 29 -119 30 -158
4z"/>
<path d="M568 6373 c7 -3 16 -2 19 1 4 3 -2 6 -13 5 -11 0 -14 -3 -6 -6z"/>
<path d="M1280 6325 c0 -8 7 -15 15 -15 9 0 12 6 9 15 -4 8 -10 15 -15 15 -5
0 -9 -7 -9 -15z"/>
<path d="M12550 6300 c20 -13 33 -13 25 0 -3 6 -14 10 -23 10 -15 0 -15 -2 -2
-10z"/>
<path d="M11265 6290 c-7 -12 2 -12 30 0 19 8 19 9 -2 9 -12 1 -25 -3 -28 -9z"/>
<path d="M12645 6265 c40 -19 67 -18 35 0 -14 8 -34 14 -45 14 -15 -1 -13 -4
10 -14z"/>
<path d="M11098 6202 c-16 -9 -28 -22 -28 -29 0 -22 28 -14 62 17 28 25 30 29
13 29 -11 0 -32 -7 -47 -17z"/>
<path d="M10963 6092 c-145 -96 -247 -195 -333 -327 -134 -204 -219 -412 -236
-578 -5 -49 -9 -59 -32 -71 -42 -22 -63 -51 -68 -93 -5 -37 1 -52 39 -105 10
-14 22 -51 27 -81 13 -82 64 -226 126 -356 40 -85 71 -133 119 -187 36 -39 82
-95 103 -123 34 -45 223 -215 298 -268 48 -34 263 -139 370 -182 104 -41 307
-95 402 -107 30 -4 59 -13 65 -21 50 -61 80 -73 141 -54 23 7 93 17 156 22
129 10 207 27 325 71 44 16 108 40 142 53 73 27 319 188 331 217 2 5 8 6 13 2
5 -3 8 53 7 138 -2 140 -2 141 -8 48 l-6 -95 -4 100 -4 100 -6 -85 -6 -85 -2
67 c-2 56 -5 66 -17 62 -11 -5 -15 -20 -13 -58 2 -44 -2 -55 -28 -81 -16 -17
-46 -44 -67 -59 -37 -27 -39 -27 -58 -10 -18 16 -20 16 -43 -9 -14 -15 -34
-27 -45 -27 -11 0 -33 -12 -50 -26 -18 -15 -38 -23 -46 -20 -9 3 -23 -2 -33
-10 -9 -9 -40 -31 -69 -49 -50 -32 -51 -32 -70 -14 -10 10 -50 27 -90 38 -61
16 -73 16 -85 4 -38 -37 -62 24 -37 95 7 22 8 46 1 78 -7 31 -7 56 -1 73 11
27 3 101 -11 101 -4 0 -11 -28 -15 -62 -4 -35 -13 -70 -20 -78 -7 -8 -15 -52
-17 -99 -4 -67 -9 -87 -23 -98 -11 -7 -22 -10 -27 -5 -12 12 13 202 29 218 13
12 12 19 -6 48 -13 21 -21 50 -21 79 0 47 -16 104 -26 94 -3 -3 -7 -34 -9 -69
-5 -104 -17 -212 -26 -236 -5 -13 -9 -35 -9 -50 0 -15 -8 -40 -19 -55 -17 -26
-19 -27 -35 -12 -9 9 -16 20 -16 24 0 12 -93 21 -105 10 -14 -14 -47 -11 -67
8 -14 13 -21 14 -30 5 -7 -7 -27 -12 -45 -12 -23 0 -33 -5 -33 -15 0 -8 -4
-15 -10 -15 -9 0 -30 61 -30 88 0 19 -18 14 -32 -8 -7 -11 -19 -20 -27 -20
-11 0 -11 -3 -1 -15 7 -8 8 -15 2 -15 -5 0 -12 -9 -15 -21 -5 -20 -10 -21 -69
-14 -71 8 -87 17 -68 40 11 13 8 15 -24 15 -30 0 -44 9 -91 55 -30 30 -60 55
-67 55 -10 0 -9 3 1 9 11 7 9 12 -10 22 -42 22 -99 72 -99 86 0 19 -28 27 -45
13 -16 -13 -25 2 -39 65 -4 17 -18 43 -31 60 -19 23 -27 27 -37 17 -17 -17
-52 -16 -44 3 6 17 -19 45 -39 45 -18 0 -49 46 -41 59 7 11 -32 81 -45 81 -5
0 -9 20 -9 45 0 42 -24 112 -44 127 -5 3 -10 20 -10 38 l-1 32 50 -7 c70 -8
272 -6 385 5 60 6 133 22 198 44 93 31 104 32 115 18 30 -39 130 -132 143
-132 24 0 16 18 -22 47 -34 27 -74 89 -74 115 0 8 8 30 19 51 19 36 18 44 -5
139 -9 37 20 115 59 162 17 21 46 54 62 74 38 45 103 92 127 92 10 0 32 -10
48 -21 35 -27 70 -20 118 22 32 28 37 29 95 23 63 -7 186 -43 237 -69 41 -21
85 -68 120 -130 30 -52 60 -72 60 -40 0 36 -52 125 -105 177 -71 71 -151 104
-298 123 -45 6 -48 8 -42 28 4 12 9 51 11 87 25 362 25 355 -6 419 -3 8 -12
17 -20 19 -10 4 -11 -1 -5 -19 10 -33 16 -161 8 -179 -4 -8 -7 -60 -8 -115 0
-95 -17 -175 -35 -175 -5 0 -17 -26 -26 -57 -22 -72 -32 -84 -62 -72 -35 13
-37 35 -12 131 18 70 23 113 21 196 -1 108 -15 207 -31 217 -9 6 -21 -106 -20
-187 1 -36 -5 -66 -14 -81 -9 -13 -13 -27 -10 -30 4 -4 -2 -10 -12 -14 -28
-11 -53 -45 -54 -73 0 -14 -1 -35 -1 -47 0 -13 -4 -23 -10 -23 -5 0 -9 -7 -9
-15 0 -9 -6 -15 -12 -13 -7 1 -34 -8 -60 -20 -36 -17 -51 -32 -68 -68 -13 -25
-34 -56 -47 -68 -49 -45 -90 -135 -98 -211 -4 -33 -13 -69 -20 -81 -29 -45
-260 -98 -404 -92 -71 3 -92 -13 -41 -31 18 -6 30 -16 28 -23 -8 -23 -74 -41
-123 -34 -53 8 -58 25 -19 61 22 21 25 27 14 40 -7 8 -23 15 -37 15 -56 0
-129 59 -148 120 -4 14 -18 35 -31 47 -13 12 -24 32 -24 45 -1 38 -27 99 -49
115 -12 8 -21 25 -21 39 0 14 -7 36 -16 49 -15 22 -14 29 5 85 12 33 21 67 21
75 0 27 112 246 132 258 11 7 32 37 48 67 15 31 59 89 96 130 65 70 89 93 158
152 41 35 19 42 -31 10z m-521 -1093 c34 -28 82 -60 106 -70 24 -11 55 -28 69
-39 13 -10 45 -22 71 -25 26 -4 56 -9 67 -12 18 -6 17 -8 -10 -19 -37 -16 -99
-8 -141 17 -17 10 -61 30 -98 44 -79 30 -131 62 -147 91 -12 23 -4 64 12 64 5
0 38 -23 71 -51z m1036 -101 c-6 -16 -78 -67 -95 -68 -29 0 -12 40 25 59 43
23 76 27 70 9z m-166 -78 c-18 -17 -43 -30 -56 -30 -14 0 -31 -3 -40 -6 -24
-9 -19 14 9 41 19 20 34 25 72 25 l48 -1 -33 -29z m-142 -6 c0 -31 -122 -64
-154 -41 -15 11 -17 17 -7 35 10 20 20 22 86 22 61 0 75 -3 75 -16z m-175
-594 c-5 -8 -11 -8 -17 -2 -6 6 -7 16 -3 22 5 8 11 8 17 2 6 -6 7 -16 3 -22z
m900 -400 c3 -5 1 -10 -4 -10 -6 0 -11 5 -11 10 0 6 2 10 4 10 3 0 8 -4 11
-10z m126 -162 c-14 -46 -50 -73 -86 -64 -14 4 -25 11 -25 16 0 5 26 36 58 69
49 51 57 56 60 38 2 -12 -1 -38 -7 -59z"/>
<path d="M12390 5065 c-7 -8 -10 -15 -6 -15 4 0 0 -13 -9 -30 -20 -40 -20 -44
17 -85 30 -35 31 -37 20 -86 -15 -62 -65 -141 -125 -197 -26 -23 -47 -45 -47
-47 0 -21 89 22 125 59 21 22 86 137 99 173 17 50 34 51 182 14 115 -29 165
-37 267 -45 42 -3 47 -2 47 18 0 20 -6 21 -86 24 -47 1 -96 8 -108 14 -11 6
-38 10 -59 9 -23 -2 -45 3 -55 12 -9 8 -36 17 -59 20 -79 10 -203 79 -203 114
0 20 72 16 123 -6 51 -22 206 -62 265 -69 33 -3 42 -8 42 -23 0 -23 1 -23 45
-5 19 8 44 13 55 11 15 -3 20 1 20 19 0 22 -4 23 -42 20 -70 -6 -328 54 -397
92 -50 27 -93 31 -111 9z"/>
<path d="M12952 4945 c0 -16 2 -22 5 -12 2 9 2 23 0 30 -3 6 -5 -1 -5 -18z"/>
<path d="M12780 4890 c-23 -7 -23 -8 -3 -9 12 -1 25 4 28 9 3 6 5 10 3 9 -2
-1 -14 -5 -28 -9z"/>
<path d="M10800 4650 c0 -5 5 -10 10 -10 6 0 10 5 10 10 0 6 -4 10 -10 10 -5
0 -10 -4 -10 -10z"/>
<path d="M10853 4593 c-15 -6 -17 -33 -3 -33 6 0 8 -12 4 -27 l-5 -28 26 29
c37 40 23 78 -22 59z"/>
<path d="M11970 4582 c-19 -9 -66 -19 -105 -22 l-70 -5 55 -17 c30 -9 71 -20
91 -23 35 -6 37 -5 56 34 12 23 18 43 14 45 -3 2 -22 -3 -41 -12z"/>
<path d="M12065 4570 c-7 -11 30 -50 48 -50 8 0 22 9 32 20 17 19 17 20 -9 30
-34 13 -63 13 -71 0z"/>
<path d="M12070 4482 c0 -12 44 -52 58 -52 16 0 15 33 0 48 -14 14 -58 16 -58
4z"/>
<path d="M12140 4281 c0 -27 11 -52 20 -46 9 6 1 53 -11 61 -5 3 -9 -4 -9 -15z"/>
<path d="M9150 3210 c0 -5 7 -10 15 -10 8 0 15 5 15 10 0 6 -7 10 -15 10 -8 0
-15 -4 -15 -10z"/>
<path d="M8784 3089 c-3 -6 -1 -16 5 -22 8 -8 11 -5 11 11 0 24 -5 28 -16 11z"/>
<path d="M11080 3078 c0 -15 75 -88 90 -88 22 0 8 30 -31 64 -44 38 -59 44
-59 24z"/>
<path d="M10790 3050 c0 -11 7 -20 15 -20 13 0 14 4 5 20 -6 11 -13 20 -15 20
-3 0 -5 -9 -5 -20z"/>
<path d="M10821 3010 c0 -8 6 -24 14 -34 11 -15 15 -16 15 -5 0 8 -7 24 -15
35 -11 14 -14 15 -14 4z"/>
<path d="M12045 2933 c7 -38 88 -190 111 -208 35 -27 115 -143 164 -238 30
-59 61 -107 68 -107 9 0 12 6 7 18 -3 9 -8 31 -10 48 -4 28 -39 95 -97 185
-13 20 -50 67 -83 104 -33 37 -69 83 -80 103 -41 74 -77 132 -82 132 -3 0 -2
-17 2 -37z"/>
<path d="M8890 2916 c0 -9 5 -16 10 -16 6 0 10 4 10 9 0 6 -4 13 -10 16 -5 3
-10 -1 -10 -9z"/>
<path d="M8960 2870 c-17 -40 -4 -178 14 -159 8 8 14 189 7 189 -5 0 -14 -14
-21 -30z"/>
<path d="M10313 2846 c-32 -15 -30 -96 2 -96 7 0 18 -7 25 -15 20 -24 32 -17
25 15 -4 19 -3 30 4 30 18 0 12 46 -7 63 -21 19 -19 19 -49 3z"/>
<path d="M10410 2593 c10 -65 19 -83 41 -83 11 0 19 7 19 18 0 25 -43 112 -56
112 -7 0 -8 -16 -4 -47z"/>
<path d="M11586 2593 c-9 -9 14 -43 29 -43 22 0 18 37 -4 43 -11 3 -22 2 -25
0z"/>
<path d="M11006 2452 c-3 -3 -1 -11 5 -19 14 -16 62 -18 57 -1 -5 13 -53 29
-62 20z"/>
<path d="M12481 2168 c0 -7 14 -33 29 -58 16 -25 41 -67 56 -95 46 -86 96
-158 154 -218 30 -32 58 -68 63 -80 4 -12 19 -27 33 -34 23 -11 24 -10 18 10
-4 12 -20 37 -37 56 -16 19 -36 48 -44 65 -31 69 -145 249 -214 339 -21 27
-60 37 -58 15z"/>
<path d="M10052 2000 c0 -14 2 -19 5 -12 2 6 2 18 0 25 -3 6 -5 1 -5 -13z"/>
<path d="M12375 1720 c-4 -13 0 -31 9 -45 9 -13 16 -42 16 -64 0 -22 5 -43 10
-46 15 -9 23 21 11 43 -6 11 -6 23 -1 28 11 11 -12 96 -28 102 -5 1 -13 -6
-17 -18z"/>
<path d="M12932 1540 c0 -19 2 -27 5 -17 2 9 2 25 0 35 -3 9 -5 1 -5 -18z"/>
<path d="M12953 1525 c0 -22 2 -30 4 -17 2 12 2 30 0 40 -3 9 -5 -1 -4 -23z"/>
<path d="M12606 1534 c-10 -27 -7 -42 18 -71 13 -15 26 -46 28 -68 11 -90 33
-162 60 -203 17 -27 30 -63 34 -95 4 -29 15 -63 25 -76 11 -13 19 -30 19 -37
0 -8 7 -14 16 -14 24 0 14 111 -14 172 -12 26 -22 53 -22 60 0 8 -4 18 -9 23
-5 6 -17 35 -26 65 -10 30 -33 83 -52 117 -18 34 -33 73 -33 87 0 34 -10 56
-25 56 -7 0 -16 -7 -19 -16z"/>
<path d="M12830 1416 c0 -9 5 -16 10 -16 6 0 10 4 10 9 0 6 -4 13 -10 16 -5 3
-10 -1 -10 -9z"/>
<path d="M12444 1356 c-9 -23 11 -66 31 -66 20 0 19 13 -5 52 -16 27 -20 29
-26 14z"/>
<path d="M12463 1264 c-9 -24 6 -107 22 -123 13 -14 15 -11 15 24 0 89 -20
142 -37 99z"/>
<path d="M12850 1100 c0 -43 3 -52 23 -59 30 -12 37 -6 37 34 0 26 -7 38 -30
55 l-30 21 0 -51z"/>
<path d="M12590 1056 c0 -22 4 -27 20 -24 28 4 29 18 3 36 -22 14 -23 13 -23
-12z"/>
<path d="M12400 1055 c-6 -8 -10 -20 -7 -27 4 -8 6 -7 6 5 1 9 6 16 12 15 6
-2 14 3 16 10 6 17 -12 15 -27 -3z"/>
<path d="M12377 957 c-22 -27 -22 -47 1 -47 35 0 45 15 30 43 l-13 26 -18 -22z"/>
<path d="M12440 910 c0 -5 5 -10 11 -10 5 0 7 5 4 10 -3 6 -8 10 -11 10 -2 0
-4 -4 -4 -10z"/>
<path d="M12827 834 c-4 -4 -7 -14 -7 -23 0 -11 3 -12 11 -4 6 6 10 16 7 23
-2 6 -7 8 -11 4z"/>
<path d="M12832 728 c-17 -17 -15 -58 4 -65 26 -10 36 10 21 45 -10 25 -16 29
-25 20z"/>
</g>
</svg>
