<?xml version="1.0" standalone="no"?>
<!DOCTYPE svg PUBLIC "-//W3C//DTD SVG 20010904//EN"
 "http://www.w3.org/TR/2001/REC-SVG-20010904/DTD/svg10.dtd">
<svg version="1.0" xmlns="http://www.w3.org/2000/svg"
 width="1296.000000pt" height="1080.000000pt" viewBox="0 0 1296.000000 1080.000000"
 preserveAspectRatio="xMidYMid meet">
<metadata>
Created by potrace 1.16, written by Peter Selinger 2001-2019
</metadata>
<g transform="translate(0.000000,1080.000000) scale(0.100000,-0.100000)"
fill="#000000" stroke="none">
<path d="M0 5400 l0 -5400 6480 0 6480 0 0 5400 0 5400 -6480 0 -6480 0 0
-5400z m4024 893 c65 -16 102 -36 117 -65 8 -15 5 -29 -16 -63 -37 -64 -53
-70 -117 -40 -29 13 -74 29 -100 36 -41 10 -52 9 -73 -5 -28 -18 -33 -47 -11
-65 7 -6 46 -22 86 -36 174 -59 250 -129 250 -230 0 -65 -30 -114 -97 -159
-73 -47 -117 -59 -238 -60 -93 -1 -106 1 -179 33 -43 18 -90 44 -104 56 l-25
22 18 46 c9 25 28 56 41 68 l24 23 28 -27 c15 -14 50 -36 77 -49 89 -41 265
-22 265 28 0 25 -43 60 -101 82 -227 85 -309 152 -293 237 8 44 82 129 137
157 74 38 188 42 311 11z m834 -11 c13 -18 16 -90 4 -110 -12 -18 -68 -32
-128 -32 -33 0 -53 -5 -56 -12 -2 -7 -3 -123 -3 -258 0 -152 -4 -248 -10 -252
-12 -9 -127 -10 -149 -2 -14 5 -16 34 -17 218 0 116 -4 231 -7 256 l-7 45
-100 10 c-55 6 -106 14 -112 18 -17 10 -17 119 -1 135 8 8 85 10 292 6 242 -5
283 -8 294 -22z m530 12 c45 -5 52 -9 53 -27 1 -12 3 -35 5 -52 2 -16 -3 -40
-12 -52 -14 -22 -20 -23 -149 -23 l-135 0 0 -60 0 -59 98 -3 97 -3 8 -55 c6
-36 5 -65 -2 -82 -10 -28 -11 -28 -106 -28 l-95 0 0 -45 c0 -55 3 -56 165 -53
91 2 120 0 119 -9 -1 -7 -2 -42 -2 -77 l-2 -65 -217 6 c-120 3 -222 9 -226 13
-5 4 -10 155 -11 335 -2 300 -1 328 15 339 18 12 281 12 397 0z m545 -5 c13
-6 31 -25 39 -42 45 -93 127 -248 136 -260 6 -7 30 -58 53 -112 23 -55 54
-131 71 -170 16 -38 28 -78 26 -90 -3 -18 -9 -20 -68 -17 -115 5 -118 6 -153
80 l-33 67 -132 3 -133 3 -30 -66 c-17 -36 -40 -70 -51 -76 -28 -15 -168 -1
-175 18 -3 8 24 74 61 148 36 73 66 136 66 139 0 17 164 344 182 363 17 18 33
23 69 23 27 0 59 -5 72 -11z m504 -56 c27 -38 82 -113 121 -168 40 -55 85
-116 102 -135 l31 -35 25 30 c14 17 43 53 64 81 21 27 69 86 106 130 38 44 80
96 94 117 33 49 50 54 78 22 l22 -26 -2 -327 -3 -327 -65 0 c-98 -1 -104 9
-98 150 3 62 2 119 -3 126 -9 15 -46 -22 -141 -143 l-61 -77 -54 46 c-30 26
-73 71 -96 102 -23 30 -47 54 -52 53 -6 -2 -10 -53 -10 -130 l0 -127 -85 4
c-47 2 -88 5 -92 8 -21 12 0 652 22 678 23 28 46 16 97 -52z m1171 33 c67 -24
102 -54 128 -110 34 -73 31 -92 -21 -142 l-44 -43 48 -34 c66 -48 94 -106 80
-167 -12 -52 -49 -113 -82 -135 -53 -34 -119 -45 -288 -45 -148 0 -169 2 -190
19 l-23 18 2 319 c1 293 3 320 19 332 25 19 310 10 371 -12z m810 -31 c72 -32
136 -96 172 -170 18 -37 25 -71 28 -135 6 -114 -16 -166 -98 -238 -99 -87
-204 -120 -328 -102 -87 12 -131 33 -199 94 -107 96 -133 267 -62 406 32 64
126 141 204 167 68 22 209 11 283 -22z m664 19 c22 -6 64 -76 171 -284 46 -91
100 -192 119 -225 82 -141 76 -124 53 -141 -15 -12 -36 -15 -88 -11 -37 3 -72
9 -77 12 -6 4 -24 34 -41 68 -17 34 -33 64 -36 67 -6 6 -293 0 -316 -6 -10 -3
-33 -37 -53 -75 -19 -39 -40 -72 -47 -74 -7 -3 -46 -2 -87 2 -68 7 -75 10 -78
31 -4 25 49 119 193 347 45 72 97 159 115 195 45 91 53 98 108 99 26 0 55 -2
64 -5z m896 -17 c13 -10 17 -124 4 -144 -4 -6 -41 -14 -82 -18 -130 -11 -116
7 -124 -167 -4 -86 -3 -186 3 -228 7 -56 7 -77 -2 -82 -7 -4 -49 -8 -94 -8
l-83 0 0 28 c-1 15 -1 92 -1 172 0 80 -3 174 -7 210 l-7 65 -40 2 c-110 7
-166 16 -178 28 -18 17 -15 128 3 150 12 14 45 15 304 9 166 -4 296 -11 304
-17z m-4098 -872 c0 -27 -167 -361 -248 -496 -29 -47 -52 -90 -52 -96 0 -5
-11 -22 -24 -36 -43 -46 -54 -34 -172 197 -39 77 -75 141 -81 143 -9 3 -63
-102 -63 -122 0 -18 -132 -235 -143 -235 -38 1 -96 98 -252 417 -84 171 -104
218 -94 229 8 10 34 14 85 14 73 0 75 -1 95 -32 26 -43 111 -220 134 -281 10
-26 22 -50 26 -53 5 -3 48 75 96 172 49 98 96 182 106 188 16 9 22 7 35 -13
32 -45 153 -275 171 -323 6 -16 15 -28 21 -28 14 0 96 167 129 265 16 47 34
92 41 100 9 11 34 15 101 15 88 0 89 0 89 -25z m239 -9 c8 -9 11 -101 9 -317
l-3 -304 -71 -3 c-106 -4 -100 -21 -107 324 -5 215 -3 294 5 302 17 17 153 16
167 -2z m337 -11 c15 -23 16 -49 9 -242 -5 -141 -4 -218 3 -222 6 -3 72 -3
148 0 76 4 144 5 150 2 17 -6 23 -41 15 -98 l-6 -50 -97 -9 c-55 -5 -159 -5
-240 0 l-143 9 -5 310 c-4 206 -2 312 5 317 5 4 40 8 77 8 61 0 69 -2 84 -25z
m1958 3 c9 -12 16 -41 16 -65 0 -61 -22 -73 -135 -73 -49 0 -120 -3 -157 -6
-64 -7 -67 -8 -73 -36 -12 -54 6 -62 124 -55 59 3 112 2 122 -3 21 -12 33 -60
24 -100 -9 -42 -46 -58 -146 -65 -128 -9 -131 -10 -127 -48 l3 -32 173 0 c141
-1 175 -3 182 -15 11 -17 11 -69 1 -115 l-6 -30 -253 -2 -253 -2 -9 23 c-6 18
-16 542 -11 613 2 24 64 31 283 32 224 1 227 1 242 -21z m-1323 2 c18 -10 19
-23 19 -235 l0 -224 54 -6 c29 -4 95 -2 145 5 121 16 125 13 119 -93 -5 -77
-18 -105 -43 -89 -5 4 -111 7 -234 7 l-224 0 -1 310 -1 309 25 13 c30 15 114
17 141 3z m619 -295 c3 -165 2 -308 -3 -317 -6 -15 -21 -18 -78 -18 -65 0 -70
2 -79 25 -5 14 -14 152 -19 308 -11 331 -18 309 99 305 l75 -3 5 -300z"/>
<path d="M5832 5971 c-11 -33 -18 -62 -14 -65 3 -3 25 -6 50 -6 44 0 44 0 39
29 -9 44 -35 101 -46 101 -5 0 -18 -27 -29 -59z"/>
<path d="M7401 6136 c-7 -8 -11 -32 -9 -53 l3 -38 71 0 c77 0 114 18 114 57 0
40 -151 68 -179 34z"/>
<path d="M7388 5824 c-2 -42 0 -81 3 -86 5 -7 44 -9 109 -6 115 6 134 16 134
72 0 66 -52 96 -168 96 l-74 0 -4 -76z"/>
<path d="M8235 6123 c-70 -9 -102 -24 -145 -68 -44 -45 -45 -47 -45 -113 1
-109 51 -182 143 -208 134 -39 282 48 282 165 0 51 -29 123 -63 159 -42 45
-114 72 -172 65z"/>
<path d="M8991 5966 c-17 -29 -31 -58 -31 -64 0 -13 35 -22 94 -22 46 0 48 1
42 23 -8 33 -56 117 -66 117 -5 0 -22 -24 -39 -54z"/>
</g>
</svg>
