<?xml version="1.0" standalone="no"?>
<!DOCTYPE svg PUBLIC "-//W3C//DTD SVG 20010904//EN"
 "http://www.w3.org/TR/2001/REC-SVG-20010904/DTD/svg10.dtd">
<svg version="1.0" xmlns="http://www.w3.org/2000/svg"
 width="1296.000000pt" height="1080.000000pt" viewBox="0 0 1296.000000 1080.000000"
 preserveAspectRatio="xMidYMid meet">
<metadata>
Created by potrace 1.16, written by Peter Selinger 2001-2019
</metadata>
<g transform="translate(0.000000,1080.000000) scale(0.100000,-0.100000)"
fill="#000000" stroke="none">
<path d="M0 5400 l0 -5400 6480 0 6480 0 -2 388 c-1 228 -4 342 -8 277 l-6
-110 -4 110 -4 110 -6 -100 c-4 -60 -7 -82 -9 -55 -2 25 -5 37 -8 28 -2 -10
-11 -18 -19 -18 -8 0 -14 -8 -15 -17 0 -15 -2 -15 -9 2 -7 17 -9 14 -10 -15
l-2 -35 -9 32 c-10 34 -20 35 -64 7 -11 -8 -30 -11 -41 -8 -11 3 -94 6 -185 7
-138 2 -164 4 -165 17 -2 27 -16 50 -31 50 -17 0 -42 -28 -43 -47 0 -7 -8 -22
-17 -33 -13 -15 -25 -18 -53 -14 -19 3 -64 1 -100 -4 -48 -7 -72 -6 -97 4 -28
12 -33 12 -41 -2 -8 -14 -13 -13 -47 6 -31 17 -43 19 -64 10 -14 -6 -48 -8
-76 -4 -115 14 -235 19 -303 12 -61 -5 -79 -11 -101 -32 -15 -15 -30 -24 -33
-21 -3 3 -19 7 -36 10 -17 2 -41 7 -53 10 -14 5 -19 3 -15 -3 15 -25 -37 -35
-154 -31 -8 0 -24 -2 -36 -6 -13 -4 -27 -1 -37 9 -8 9 -20 16 -26 16 -6 0 -11
6 -11 13 0 13 -47 37 -94 47 -17 3 -31 11 -31 18 0 6 -10 19 -23 28 -21 15
-24 15 -35 0 -10 -13 -19 -14 -54 -5 -24 7 -43 15 -43 20 0 17 -15 9 -30 -15
l-15 -24 -27 30 c-15 16 -27 32 -27 36 -1 4 -38 9 -83 12 -65 4 -93 1 -127
-13 -53 -21 -182 -28 -188 -9 -3 6 -11 12 -20 12 -19 0 -43 24 -43 44 0 9 -15
19 -40 26 -22 6 -51 21 -65 34 -19 18 -35 23 -61 21 -20 -2 -39 -6 -42 -10 -3
-3 -5 -28 -3 -55 3 -54 -4 -61 -70 -69 -4 -1 -6 -9 -5 -18 1 -16 -12 -18 -131
-19 -72 -1 -139 -4 -149 -8 -10 -4 -29 3 -50 19 -18 14 -37 25 -41 24 -23 -4
-32 4 -35 29 -2 19 -9 28 -25 30 -13 2 -23 9 -23 16 0 12 -79 14 -98 2 -6 -3
-17 -3 -26 0 -27 10 -33 -26 -7 -47 22 -18 14 -33 -13 -23 -9 3 -16 1 -16 -5
0 -6 -9 -11 -20 -11 -11 0 -19 -5 -17 -12 3 -16 -34 -23 -43 -9 -3 6 -30 13
-58 15 -41 3 -52 1 -52 -11 0 -12 -10 -14 -52 -8 -29 4 -57 11 -62 16 -6 5
-20 9 -33 9 -13 0 -23 4 -23 10 0 14 -82 47 -110 44 -14 -1 -50 -3 -80 -4 -43
-2 -50 -4 -30 -10 21 -7 19 -8 -17 -9 -34 -1 -43 -5 -43 -18 0 -11 -16 -25
-39 -35 -49 -23 -55 -23 -72 8 -20 38 -46 44 -180 44 -93 0 -124 -3 -135 -15
-21 -21 -85 -16 -111 8 -20 18 -23 18 -23 4 0 -9 -6 -17 -14 -17 -7 0 -16 -14
-20 -31 -6 -30 -6 -30 -53 -24 -27 3 -59 8 -73 11 -20 4 -22 2 -10 -6 12 -8 9
-10 -15 -8 -20 2 -29 8 -27 17 4 18 -20 33 -30 18 -5 -8 -12 -6 -26 6 -24 22
-38 22 -51 0 -8 -15 -24 -18 -93 -18 -82 0 -83 0 -86 26 -3 24 -7 26 -45 24
-34 -2 -75 7 -96 22 -7 5 22 33 35 33 7 0 16 -9 19 -20 7 -22 45 -28 45 -7 0
7 -9 18 -21 25 -11 7 -18 19 -15 27 7 20 -22 41 -36 27 -20 -20 -25 -14 -25
28 0 22 -2 43 -5 45 -10 10 -78 -26 -94 -50 -10 -15 -26 -25 -40 -25 -12 0
-26 -5 -29 -10 -4 -6 -34 -10 -69 -9 -34 1 -72 -3 -84 -10 -18 -10 -23 -9 -28
4 -3 8 -14 15 -23 15 -9 0 -29 7 -45 15 -16 9 -36 13 -44 10 -8 -3 -24 1 -36
8 -38 25 -65 27 -77 6 -7 -15 -16 -18 -32 -13 -12 4 -40 7 -62 6 -22 0 -34 2
-27 5 6 2 12 12 12 21 0 23 -85 29 -106 7 -22 -22 -43 -19 -66 10 -11 14 -28
25 -39 25 -11 0 -19 6 -17 12 1 7 -1 30 -5 51 -7 33 -11 37 -39 37 -23 0 -29
-4 -24 -15 4 -12 -2 -14 -29 -12 -32 2 -52 17 -23 17 6 0 8 3 5 7 -4 3 -30 8
-59 9 -46 2 -56 -1 -87 -29 l-36 -31 -5 30 c-5 26 -11 30 -55 40 -28 6 -58 14
-68 19 -10 4 -42 5 -71 2 -50 -5 -53 -4 -49 16 8 39 -14 77 -42 77 -15 0 -24
-4 -20 -10 3 -5 3 -10 0 -10 -3 0 -13 16 -21 36 -12 27 -20 35 -37 32 -14 -2
-23 -11 -25 -26 -3 -18 -10 -22 -43 -22 -27 0 -39 4 -39 14 0 18 -22 26 -50
19 -15 -4 -21 -2 -19 8 2 8 -1 25 -5 38 l-8 24 -24 -29 c-13 -16 -23 -23 -24
-16 0 6 -7 12 -15 12 -12 0 -15 13 -15 55 l0 55 -46 0 c-38 0 -45 -3 -42 -17
4 -20 -38 -43 -77 -43 -27 0 -48 22 -40 43 4 10 -7 21 -38 36 -53 26 -60 26
-52 2 3 -11 -1 -24 -12 -32 -15 -12 -16 -12 -10 3 5 15 2 16 -24 11 -27 -5
-31 -3 -27 13 2 13 15 21 41 25 47 8 85 39 65 54 -26 19 -46 87 -34 118 9 24
8 31 -9 43 -29 22 -40 3 -28 -49 9 -40 8 -46 -15 -66 -13 -11 -24 -21 -25 -21
-1 0 -1 31 1 70 2 46 0 70 -7 70 -7 0 -12 -27 -12 -67 -1 -38 -4 -58 -6 -46
-5 28 -11 28 -42 4 l-24 -18 21 -18 c11 -10 18 -24 15 -31 -8 -21 -53 5 -53
31 0 18 -7 24 -39 29 -21 3 -41 13 -45 21 -3 8 -17 20 -31 25 -14 5 -25 14
-25 19 0 5 -28 11 -63 15 -99 9 -102 10 -102 26 0 11 -13 16 -45 18 -25 2 -49
7 -55 13 -5 5 -17 9 -26 9 -18 0 -29 19 -29 51 0 14 -9 21 -30 26 -17 3 -33
10 -36 14 -3 5 -21 9 -40 9 -30 0 -34 3 -34 25 0 22 -4 25 -37 25 -63 0 -82
10 -91 44 -8 30 -11 31 -60 31 -37 0 -55 5 -64 17 -7 10 -31 19 -52 21 -34 3
-39 8 -42 30 -2 17 2 27 10 27 8 0 19 7 26 15 10 13 10 19 -5 35 -9 10 -14 24
-9 31 4 8 3 10 -4 5 -7 -4 -12 0 -13 11 0 16 -1 16 -9 -2 -8 -19 -9 -19 -9 3
-1 17 5 22 24 22 14 0 29 -8 35 -20 6 -10 16 -18 23 -16 6 1 9 1 5 -1 -14 -8
-9 -31 8 -37 27 -10 44 -7 44 10 0 10 6 14 14 11 8 -3 27 -2 43 3 24 7 25 8 6
9 -28 1 -31 31 -4 31 10 0 36 -6 57 -13 25 -8 56 -11 84 -6 48 7 62 6 210 -12
133 -16 376 -22 401 -9 25 14 26 65 2 75 -10 4 -47 9 -83 10 -36 1 -83 5 -105
8 -22 4 -34 4 -28 1 18 -8 16 -24 -2 -24 -8 0 -15 4 -15 10 0 5 -10 10 -22 9
-33 0 -138 10 -170 17 -18 3 -25 10 -21 20 3 8 0 20 -6 28 -15 17 11 41 35 32
12 -5 15 -14 10 -36 -5 -27 -3 -30 19 -30 20 0 25 5 25 24 0 13 -7 29 -16 37
-14 11 -13 14 8 25 36 20 98 16 176 -11 81 -28 102 -30 121 -12 11 10 13 9 8
-5 -8 -22 22 -31 97 -31 76 1 79 2 72 18 -3 8 -1 15 5 15 6 0 9 6 6 13 -2 6 3
17 12 24 11 8 12 12 4 13 -28 0 -11 20 17 20 22 0 30 -5 30 -18 0 -32 42 -62
86 -62 22 0 45 -5 51 -11 18 -18 3 -59 -24 -65 -16 -5 -21 -10 -14 -17 5 -5
18 -6 28 -2 10 5 21 7 26 7 4 -1 7 2 7 8 0 5 7 7 15 4 10 -4 15 0 15 14 0 11
-6 23 -12 25 -7 3 0 6 17 6 20 1 36 -7 51 -26 21 -26 26 -27 100 -26 44 1 120
-5 169 -14 50 -8 109 -12 133 -8 33 5 50 2 76 -14 41 -25 116 -28 199 -6 40
10 64 12 82 5 14 -5 89 -10 167 -11 114 -1 148 -5 182 -20 32 -15 63 -18 146
-18 122 1 154 8 159 34 6 35 -26 45 -139 45 -102 0 -108 1 -131 26 -21 22 -30
25 -66 20 -24 -3 -55 -1 -70 5 -20 8 -50 7 -104 -2 -73 -12 -78 -11 -104 9
-35 27 -57 28 -112 1 -65 -31 -122 -30 -155 4 -26 26 -32 27 -93 23 -86 -5
-103 0 -110 35 -4 16 -11 29 -16 29 -5 0 -9 5 -9 10 0 16 28 12 38 -6 8 -14
13 -13 46 7 27 16 36 27 33 40 -6 21 9 27 15 7 3 -9 14 -7 41 5 41 20 68 12
88 -24 11 -22 21 -23 142 -3 29 5 43 2 59 -12 16 -15 35 -19 89 -18 38 0 69
-3 69 -8 0 -5 16 -16 35 -24 41 -17 119 -12 208 13 41 12 64 14 75 7 20 -12
67 -10 145 6 31 7 65 9 73 6 15 -6 15 -8 0 -24 -22 -25 -20 -78 3 -101 21 -21
83 -42 122 -40 13 1 51 -11 84 -25 53 -22 74 -26 175 -26 128 0 156 5 165 28
11 30 -18 40 -130 46 -60 3 -120 8 -132 12 -29 8 -29 31 -2 60 21 23 22 23 48
4 34 -25 154 -45 181 -30 22 12 26 25 10 35 -12 7 -14 35 -2 35 4 0 20 -11 37
-24 25 -20 27 -26 17 -39 -10 -11 -11 -21 -3 -35 14 -27 34 -33 126 -39 92 -6
135 6 135 37 0 11 6 20 13 20 22 0 91 -27 137 -54 52 -30 112 -34 165 -12 21
9 73 15 132 16 127 2 119 3 138 -17 16 -16 18 -16 27 0 12 22 52 22 69 0 13
-15 11 -16 -13 -11 -17 3 -29 0 -32 -8 -3 -7 -24 -17 -48 -21 -36 -8 -47 -6
-70 11 -26 18 -32 18 -97 6 -38 -7 -79 -10 -92 -7 -27 7 -49 -8 -49 -33 0 -24
52 -44 94 -36 20 4 52 1 77 -8 81 -26 118 -28 194 -10 61 14 81 15 113 6 53
-16 103 -15 220 4 106 17 123 25 106 52 -15 24 -45 26 -155 12 -95 -12 -96
-12 -134 14 -21 14 -48 26 -61 26 -13 0 -24 4 -24 9 0 13 82 37 175 51 44 6
112 18 151 26 63 13 73 18 102 56 38 50 40 67 8 97 -33 31 -99 37 -146 14 -29
-15 -36 -25 -40 -58 l-5 -40 -67 -2 c-64 -2 -69 0 -89 28 -21 29 -21 31 -3 52
42 48 44 50 85 44 21 -3 41 -2 43 1 5 9 241 6 284 -3 19 -4 50 -3 70 3 21 6
82 13 138 16 92 5 103 4 119 -14 21 -24 57 -25 113 -6 22 8 74 14 114 14 40
-1 89 4 108 10 69 22 306 54 396 54 66 -1 102 -5 125 -18 25 -13 47 -15 95
-10 44 5 75 2 106 -9 59 -20 269 -20 368 1 41 9 127 19 190 23 123 8 135 11
192 49 35 23 44 24 185 22 476 -6 594 -3 610 13 9 8 13 23 10 31 -5 13 -26 16
-120 16 l-114 0 -7 111 c-6 109 -18 153 -65 247 -16 33 -149 167 -186 188 -18
10 -18 12 -1 48 23 48 16 122 -20 217 -34 92 -41 94 -274 93 -174 0 -483 -29
-595 -54 -22 -5 -80 -9 -130 -9 l-90 0 -30 47 c-16 26 -40 69 -54 95 -25 49
-40 64 -126 121 l-50 33 -3 81 -3 81 48 21 c46 21 51 21 119 6 53 -11 80 -13
107 -5 39 11 56 27 35 33 -50 15 -213 38 -247 34 -32 -3 -42 0 -47 14 -6 21 5
86 16 93 5 3 30 37 55 75 26 39 50 70 53 71 4 0 32 3 63 5 52 4 57 2 63 -18 3
-13 6 -32 6 -44 0 -24 49 -74 72 -74 29 0 39 -24 18 -43 -31 -26 -26 -56 11
-64 34 -7 47 -26 30 -47 -13 -15 3 -23 98 -50 63 -18 233 -14 396 10 95 14
222 24 309 24 22 0 47 -7 56 -15 20 -18 59 -19 112 -3 31 9 47 9 74 -1 29 -10
48 -10 97 -1 58 12 66 11 104 -9 38 -19 54 -20 196 -17 153 4 197 13 197 40 0
19 46 29 73 15 12 -7 37 -25 56 -41 34 -30 34 -30 126 -23 79 6 98 5 123 -10
21 -13 39 -16 66 -11 39 7 49 32 19 43 -10 4 -49 37 -88 74 -38 37 -91 84
-117 105 -52 40 -57 57 -29 91 22 27 34 29 51 8 15 -18 51 -20 67 -4 9 9 20 6
45 -9 45 -28 71 -58 99 -115 28 -58 47 -76 54 -53 3 9 7 23 10 31 2 8 11 15
20 15 16 0 59 -37 66 -58 2 -6 33 -22 69 -35 63 -22 65 -24 71 -62 l6 -40 3
35 c2 33 3 33 10 10 5 -16 8 14 9 83 1 70 -3 106 -9 102 -6 -3 -10 0 -10 7 0
8 -3 9 -8 3 -12 -17 -94 -16 -140 1 -35 13 -48 14 -72 4 -32 -13 -60 -1 -60
25 0 7 -7 26 -15 41 -17 34 -19 60 -5 69 6 4 9 1 8 -5 -3 -12 117 -49 159 -50
12 0 29 -7 38 -16 8 -9 22 -13 30 -10 8 3 17 1 21 -5 3 -6 12 -8 19 -5 8 3 16
-3 18 -12 3 -9 6 -1 7 18 l2 35 8 -30 c4 -16 7 263 6 620 l-1 650 -5 -565 -5
-565 -5 535 -5 535 -5 -405 c-4 -271 -7 -354 -10 -250 l-4 155 -6 -130 c-3
-92 -9 -131 -17 -133 -7 -1 -13 8 -14 20 -1 22 -1 22 -9 -2 -6 -19 -8 -20 -9
-6 -1 17 -3 17 -25 2 -18 -11 -40 -14 -77 -11 -63 5 -71 11 -33 25 51 18 59
26 62 63 2 19 10 41 19 49 15 12 16 10 9 -17 -5 -22 -4 -26 4 -15 8 13 10 13
10 1 0 -28 29 23 30 51 0 21 -5 26 -20 25 -11 -1 -20 -6 -20 -12 0 -5 -7 -2
-14 8 -9 12 -16 14 -21 7 -4 -6 -14 -8 -23 -6 -10 3 -37 8 -61 11 -36 5 -42 3
-37 -10 3 -9 0 -15 -9 -15 -8 0 -15 -4 -15 -10 0 -6 -23 -7 -60 -3 -39 4 -70
1 -90 -7 -26 -11 -33 -10 -50 5 -11 10 -26 15 -35 11 -13 -5 -16 0 -13 22 3
27 3 27 89 28 58 1 94 7 110 17 13 8 35 15 49 15 14 0 47 7 74 16 26 9 74 19
105 23 53 5 59 8 71 37 l13 31 7 -30 c5 -21 8 -8 7 45 0 61 -1 67 -6 30 l-6
-45 -15 32 c-11 24 -20 31 -35 28 -83 -19 -282 -40 -465 -49 -25 -1 -51 -5
-57 -9 -15 -9 -73 -5 -79 5 -3 4 -21 8 -40 8 -19 0 -61 11 -93 25 -48 20 -64
22 -94 14 -30 -8 -36 -15 -42 -47 -7 -36 -7 -36 -19 -13 -7 13 -22 29 -34 35
-25 14 -82 84 -82 102 0 7 12 26 26 43 14 17 28 46 31 65 5 32 2 36 -35 60
-45 28 -52 53 -42 155 7 70 21 92 48 73 9 -7 27 -16 39 -21 11 -6 24 -14 27
-20 15 -24 107 -44 289 -63 9 -1 17 -5 17 -8 0 -10 74 -34 94 -31 34 5 102
-20 137 -50 38 -32 54 -33 54 -1 0 11 4 24 8 29 10 10 170 4 177 -7 3 -4 21
-10 40 -12 30 -3 35 1 44 25 15 43 -8 58 -103 67 -44 5 -84 11 -88 13 -13 8
-231 35 -328 42 -79 5 -92 8 -110 30 -19 22 -28 24 -155 29 -74 3 -147 5 -162
6 -25 0 -28 3 -28 35 0 20 7 52 15 73 9 20 17 58 18 84 2 41 -2 50 -31 76 -19
17 -32 38 -32 53 0 48 -21 100 -43 108 -12 5 -49 14 -82 19 -106 19 -219 43
-250 54 -38 13 -248 70 -380 103 -55 13 -170 45 -255 70 -143 43 -276 79 -440
121 -71 19 -210 58 -279 80 -145 46 -219 -74 -180 -290 9 -45 8 -131 -1 -336
-6 -151 -11 -291 -11 -310 5 -188 4 -580 -1 -586 -4 -4 -13 -2 -21 4 -19 16
-144 -17 -139 -37 1 -6 -2 -11 -8 -11 -5 0 -10 5 -10 10 0 6 -22 10 -50 10
-27 0 -50 5 -50 10 0 14 -73 13 -104 -1 -18 -9 -29 -9 -38 -1 -8 7 -29 7 -58
2 -27 -5 -46 -5 -48 1 -8 20 -32 8 -32 -16 0 -14 -4 -25 -9 -25 -5 0 -17 -7
-26 -16 -9 -10 -27 -18 -40 -20 -13 -1 -28 -5 -33 -8 -6 -3 -13 1 -16 10 -8
21 -31 12 -31 -12 0 -15 -9 -20 -39 -24 -42 -5 -63 -30 -26 -30 16 0 21 -5 18
-18 -4 -15 2 -17 46 -17 28 1 57 4 64 9 16 10 69 -11 76 -29 7 -18 -17 -24
-84 -21 -42 2 -59 -2 -77 -17 -26 -23 -21 -41 9 -31 15 4 19 2 16 -7 -3 -8
-22 -15 -42 -17 -29 -3 -36 0 -30 10 5 7 9 19 11 27 1 8 8 18 15 22 10 6 10
11 1 20 -9 9 -16 9 -29 -2 -13 -11 -18 -11 -21 -1 -9 25 -23 11 -23 -22 0 -22
6 -36 17 -40 34 -14 -4 -28 -54 -21 -71 10 -245 5 -299 -8 -46 -12 -48 -14
-61 -62 -17 -67 -16 -75 6 -75 11 0 27 -13 37 -29 14 -24 21 -28 35 -20 10 5
33 9 53 9 19 0 46 4 59 9 16 6 38 6 59 1 66 -18 175 -14 201 9 12 9 51 13 147
12 72 -1 136 2 143 6 13 8 18 9 84 12 23 0 49 8 58 17 16 16 36 20 165 28 74
5 114 -10 124 -46 11 -44 8 -49 -31 -42 -44 6 -127 -25 -143 -56 -6 -11 -26
-21 -50 -25 -22 -4 -53 -18 -69 -31 -15 -13 -47 -28 -71 -33 -24 -5 -46 -15
-51 -22 -5 -9 -32 -12 -94 -10 -91 3 -135 -13 -162 -57 -8 -13 -28 -21 -60
-26 -26 -3 -65 -9 -85 -12 -33 -5 -38 -4 -38 13 0 34 -37 63 -80 63 -32 0 -43
5 -62 31 -15 19 -22 41 -19 61 3 32 -25 68 -54 68 -11 0 -14 -10 -13 -40 1
-26 6 -40 15 -40 7 0 13 -4 13 -9 0 -9 -68 -4 -79 5 -2 2 -11 -1 -20 -6 -9 -4
-73 -10 -141 -11 -69 -2 -130 -6 -136 -10 -5 -5 -23 -2 -38 6 -18 10 -34 12
-44 6 -10 -5 -53 -12 -96 -16 l-79 -8 8 69 c5 38 8 80 7 94 -1 14 -4 133 -6
265 -3 132 -7 301 -10 375 -6 145 -6 862 0 945 2 28 6 178 9 335 6 417 13 496
51 608 8 26 15 85 15 145 1 122 -21 203 -73 269 -54 69 -68 107 -61 175 3 32
11 65 18 73 46 56 38 97 -15 78 -16 -5 -34 -16 -41 -24 -32 -39 -73 -3 -74 64
0 41 -3 47 -22 50 -13 2 -33 -4 -45 -12 -12 -9 -37 -16 -56 -16 -18 0 -49 -7
-69 -15 -19 -8 -46 -15 -58 -15 -28 0 -42 -17 -47 -55 l-3 -30 -95 0 c-107 0
-153 -18 -180 -70 -8 -16 -23 -36 -32 -45 -10 -8 -21 -29 -24 -47 -5 -26 -1
-36 22 -59 l29 -26 -25 -17 c-88 -58 -119 -112 -146 -257 -9 -49 -17 -94 -19
-100 -2 -6 -43 -18 -92 -28 -48 -10 -110 -22 -138 -28 -27 -5 -79 -14 -115
-18 -36 -5 -153 -23 -260 -40 -107 -17 -222 -35 -255 -40 -33 -6 -85 -14 -115
-20 -30 -5 -106 -17 -167 -25 -103 -14 -118 -14 -170 0 -32 9 -76 21 -98 26
-22 5 -89 25 -150 44 -380 119 -539 147 -805 144 -122 -1 -176 -6 -255 -24
-55 -13 -161 -33 -235 -45 -171 -28 -184 -32 -188 -57 -3 -17 5 -22 48 -30 39
-8 54 -7 64 2 7 7 35 15 62 17 27 3 85 15 129 27 44 12 117 23 162 26 45 2 86
6 91 9 18 11 152 -7 152 -20 0 -7 6 -15 13 -17 9 -4 8 -8 -3 -16 -8 -5 -11
-13 -7 -18 5 -4 12 -1 17 7 7 11 13 12 35 2 32 -15 65 -15 65 -1 0 6 -9 13
-20 16 -11 3 -20 10 -20 15 0 6 10 8 23 4 12 -3 45 -11 73 -18 39 -9 53 -18
62 -38 8 -16 21 -26 37 -28 14 -1 71 -13 127 -27 57 -14 112 -27 124 -30 11
-2 26 -16 32 -30 6 -14 20 -25 30 -25 9 0 27 -7 40 -15 27 -20 108 -45 144
-45 45 0 55 -42 21 -81 -8 -9 -15 -41 -16 -70 l-2 -54 115 2 c63 1 143 2 177
2 44 1 66 6 79 18 13 13 19 14 22 5 5 -15 49 -16 54 0 6 17 28 0 28 -21 0 -10
-7 -24 -15 -31 -8 -7 -15 -21 -15 -30 0 -39 -11 -50 -52 -50 -31 0 -38 -3 -36
-16 2 -10 -3 -19 -11 -22 -10 -3 -13 2 -9 21 5 25 3 25 -53 29 -40 2 -60 -1
-63 -9 -3 -7 -1 -15 4 -18 6 -4 10 -1 10 4 0 6 5 11 11 11 7 0 8 -11 4 -30 -6
-26 -4 -30 14 -30 17 0 21 6 21 33 0 24 3 28 10 17 5 -8 7 -22 5 -30 -8 -27
10 -43 40 -36 19 5 35 1 54 -11 14 -10 40 -19 56 -19 64 -4 148 -16 173 -25
15 -6 70 -12 122 -14 52 -3 96 -9 98 -14 2 -6 15 -6 35 0 18 6 55 11 82 13 28
2 61 6 75 10 19 5 28 2 38 -14 12 -19 9 -22 -30 -39 -27 -12 -49 -15 -59 -10
-19 10 -89 0 -89 -12 0 -9 36 -13 73 -10 13 2 17 -5 17 -33 0 -34 2 -36 33
-38 17 0 42 0 55 1 12 1 22 -3 22 -9 0 -5 16 -10 35 -10 28 0 35 4 35 20 0 11
5 20 11 20 6 0 8 -8 4 -19 -9 -29 33 -51 51 -26 12 16 27 17 176 10 208 -10
264 -7 230 14 -10 6 -9 11 3 21 15 12 16 11 13 -16 -3 -25 -8 -29 -35 -32 -40
-4 -44 -22 -5 -22 15 0 32 -4 38 -8 22 -14 30 -186 27 -562 -2 -257 -7 -402
-15 -435 -6 -27 -12 -92 -12 -143 l0 -92 -35 6 c-51 10 -81 22 -81 34 0 5 -14
10 -31 10 -44 0 -27 17 26 24 37 6 46 12 51 32 9 36 -1 52 -46 71 -34 15 -40
22 -34 38 17 52 15 92 -7 141 -19 42 -32 56 -76 80 -30 16 -66 41 -80 57 -26
26 -26 30 -14 60 28 68 26 92 -11 121 -19 14 -41 26 -49 26 -8 0 -19 4 -25 9
-17 18 -168 49 -289 61 -66 6 -124 15 -129 20 -6 6 -23 10 -38 10 -18 0 -28 5
-28 14 0 23 -22 31 -32 12 -5 -10 -17 -15 -26 -12 -9 3 -30 -1 -46 -9 -26 -14
-31 -13 -62 6 -19 11 -34 24 -34 28 0 5 -16 3 -35 -3 -23 -7 -35 -17 -35 -28
0 -29 -36 -19 -86 25 -27 23 -66 25 -116 5 -32 -12 -38 -47 -13 -72 8 -8 12
-21 9 -29 -3 -8 -1 -18 5 -22 6 -3 11 -18 11 -33 0 -16 9 -35 21 -45 19 -17
20 -20 5 -36 -9 -10 -14 -24 -11 -32 3 -9 -5 -18 -25 -26 -16 -6 -30 -18 -30
-27 0 -13 11 -16 55 -16 43 0 55 -3 55 -16 0 -12 -10 -15 -52 -13 -52 3 -53 3
-53 -26 -1 -16 -6 -30 -13 -33 -7 -2 -12 7 -12 23 0 23 -2 26 -15 15 -8 -7
-16 -24 -16 -39 -1 -15 -3 -19 -6 -10 -5 20 -48 27 -156 25 l-77 -1 0 57 c0
34 5 62 13 68 6 5 24 19 39 30 17 13 28 32 30 53 2 23 8 31 19 29 12 -1 16 6
17 25 0 38 12 155 17 170 2 6 -3 17 -11 24 -10 8 -13 21 -8 42 5 26 4 29 -11
23 -16 -6 -17 5 -10 150 4 94 2 160 -3 167 -5 7 -18 38 -28 70 -18 58 -47 87
-87 87 -15 0 -97 -92 -97 -109 0 -6 -8 -15 -19 -20 -21 -12 -30 -51 -38 -165
-4 -70 -2 -82 17 -108 20 -27 20 -31 6 -47 -9 -10 -19 -39 -22 -65 -4 -25 -10
-49 -15 -51 -4 -3 -5 -52 -3 -110 4 -119 18 -156 65 -181 24 -12 30 -20 25
-37 -3 -12 -6 -32 -6 -44 0 -15 -6 -23 -17 -24 -11 0 -13 -3 -5 -6 6 -2 12
-11 12 -18 0 -20 -16 -22 -162 -17 l-138 4 0 27 c0 55 10 70 49 73 33 3 36 6
39 36 2 20 9 32 18 32 8 0 14 7 14 15 0 8 4 15 9 15 5 0 11 10 15 22 4 17 8
20 17 11 9 -9 15 -8 25 2 18 17 18 36 0 60 -9 12 -11 26 -6 35 8 15 6 117 -2
126 -3 2 -16 -1 -29 -8 -18 -10 -23 -20 -21 -40 2 -19 -1 -28 -11 -28 -10 0
-16 18 -21 63 -8 66 -53 169 -88 200 -30 25 -60 21 -118 -18 -29 -19 -55 -35
-59 -35 -16 -1 -44 -57 -49 -97 -4 -39 -8 -45 -33 -50 -16 -3 -26 -9 -24 -13
3 -5 14 -6 26 -3 16 5 20 2 17 -14 -1 -11 2 -26 8 -34 17 -21 26 -69 13 -69
-7 0 -8 -11 -4 -30 5 -22 3 -32 -9 -36 -17 -7 -22 -34 -6 -34 6 0 10 -18 10
-40 0 -43 -1 -42 93 -79 32 -13 35 -39 7 -72 -18 -23 -19 -23 -20 -4 0 14 -3
16 -8 8 -4 -7 -24 -15 -42 -19 l-35 -6 25 21 c26 21 21 28 -9 12 -12 -7 -26
-6 -42 3 -38 19 -79 28 -79 16 0 -5 -7 -10 -15 -10 -13 0 -13 3 -3 21 10 17
10 23 1 26 -24 9 -7 113 19 113 9 0 11 -9 12 -57 1 -18 4 -33 9 -33 4 0 13 0
21 0 11 0 14 18 12 90 -2 76 -6 93 -22 105 -19 14 -19 14 2 15 11 0 29 9 39
20 24 27 6 48 -35 42 -29 -4 -34 -11 -31 -39 1 -7 -3 -13 -9 -13 -5 0 -10 7
-10 15 0 8 -4 15 -10 15 -5 0 -10 7 -10 15 0 9 -9 15 -23 15 -27 0 -47 15 -70
53 -21 32 -45 34 -81 6 -14 -11 -30 -18 -34 -15 -5 3 -30 -15 -56 -39 -40 -37
-48 -50 -51 -87 -1 -24 -6 -55 -10 -69 -6 -23 -3 -27 22 -34 25 -6 26 -7 9
-17 -15 -8 -21 -7 -28 6 -11 20 -32 21 -52 1 -25 -25 -57 -3 -53 38 l2 32 -65
6 c-122 12 -180 10 -174 -5 4 -9 -6 -18 -30 -26 -20 -6 -38 -15 -41 -20 -8
-13 24 -40 40 -33 9 3 21 1 28 -5 16 -13 97 -42 120 -42 9 0 26 6 37 12 16 10
24 10 40 0 11 -6 43 -12 71 -12 43 0 52 3 56 20 5 19 6 19 19 -5 14 -28 4 -60
-24 -78 -6 -4 -12 -14 -12 -21 0 -8 -7 -16 -15 -20 -8 -3 -15 -12 -15 -19 0
-22 -21 -35 -65 -41 -36 -6 -38 -5 -15 6 14 6 26 13 28 14 1 1 4 10 7 22 3 16
-4 22 -40 31 -24 6 -53 11 -64 11 -12 0 -21 5 -21 10 0 6 10 10 22 10 15 0 19
3 12 10 -6 6 -34 8 -70 4 -48 -5 -62 -11 -70 -28 -7 -17 -18 -21 -53 -21 -44
0 -52 6 -66 50 -6 20 -7 20 -24 -1 -13 -17 -33 -22 -101 -28 -47 -4 -89 -11
-94 -16 -7 -7 -4 -10 7 -10 9 0 16 -6 15 -12 -2 -8 5 -12 17 -10 11 2 35 6 53
9 17 3 32 9 32 15 0 5 17 8 38 6 33 -3 38 -6 46 -40 8 -31 13 -36 35 -33 14 1
32 -2 39 -7 8 -7 16 -7 25 0 10 8 16 6 25 -9 7 -10 20 -19 30 -19 14 0 15 -2
2 -10 -8 -5 -25 -10 -38 -10 -39 0 -82 -60 -82 -115 0 -13 -5 -27 -10 -30 -18
-11 -11 -25 18 -36 25 -10 26 -12 7 -19 -24 -9 -34 -4 -46 24 -8 19 -9 18 -6
-6 3 -18 0 -28 -8 -28 -7 0 -12 -8 -10 -17 1 -10 0 -12 -2 -5 -3 7 -22 12 -48
12 -24 0 -47 4 -50 10 -8 13 -131 13 -187 1 -130 -29 -168 -35 -216 -35 -33 1
-57 6 -62 13 -9 16 -58 20 -123 10 -48 -8 -105 4 -119 25 -11 15 -10 38 1 32
5 -3 11 1 15 9 3 8 18 15 33 15 29 0 97 21 109 33 13 13 79 6 114 -11 26 -13
34 -23 32 -39 -2 -12 2 -24 8 -28 5 -3 10 -1 10 5 0 6 14 8 38 4 28 -4 41 -2
51 10 29 35 -19 106 -71 106 -15 0 -27 3 -27 8 8 51 -31 69 -147 66 -50 -1
-94 2 -102 8 -7 6 -32 8 -61 4 -38 -5 -50 -3 -54 8 -8 20 11 32 26 17 14 -14
57 -14 57 0 0 6 14 9 32 7 26 -2 33 1 36 16 7 32 -25 46 -105 46 -75 0 -207
-17 -233 -29 -8 -4 -30 -7 -49 -5 -19 1 -45 -5 -59 -14 -19 -13 -25 -13 -32
-2 -9 15 -2 39 16 58 7 6 32 12 56 12 24 0 49 5 56 12 9 9 16 7 32 -7 16 -15
22 -16 35 -5 8 7 34 14 58 17 23 2 44 8 45 13 2 6 21 10 43 10 21 0 39 5 39
10 0 6 7 10 16 10 8 0 12 5 9 10 -3 6 -17 10 -29 10 -29 0 -133 47 -156 70 -3
3 -23 11 -45 19 -21 8 -45 20 -53 27 -10 11 -18 11 -34 3 -11 -6 -33 -8 -49
-5 -20 4 -31 1 -37 -10 -13 -24 -47 -9 -62 26 -8 19 -22 31 -40 35 -34 7 -50
55 -19 55 12 0 16 -5 13 -14 -4 -11 3 -13 33 -10 34 4 284 20 401 27 23 1 46
-3 50 -8 4 -6 30 -16 57 -22 105 -24 131 -33 146 -52 13 -15 24 -18 55 -14 22
3 55 1 74 -4 34 -10 358 0 408 12 17 4 22 13 22 35 0 17 -4 30 -10 30 -5 0
-10 -5 -10 -11 0 -6 -12 -1 -26 10 -24 19 -35 20 -176 15 -129 -5 -152 -4
-167 10 -10 9 -34 19 -52 21 -156 21 -196 25 -265 29 -164 8 -214 17 -214 37
0 16 -36 31 -82 34 -4 0 -13 6 -20 13 -17 17 -49 15 -76 -4 -14 -10 -38 -14
-69 -12 -39 2 -47 6 -45 21 3 16 -12 22 -45 18 -7 -1 -13 3 -13 9 0 6 -10 10
-22 9 -13 -1 -30 1 -38 4 -28 10 -95 21 -117 19 -28 -3 -86 25 -78 38 7 11
-64 32 -78 23 -6 -3 -16 2 -23 12 -10 13 -51 24 -156 42 -79 14 -159 27 -178
28 -19 2 -53 10 -75 19 -22 8 -49 15 -61 16 -12 0 -39 12 -60 26 -21 15 -58
33 -81 41 -24 8 -43 20 -43 26 0 6 -3 8 -6 4 -4 -3 -13 0 -21 8 -17 18 -28
161 -13 170 5 3 10 15 10 25 0 11 10 22 23 26 12 4 58 27 102 52 73 41 151 69
262 92 24 5 67 16 97 25 30 9 76 20 103 25 26 5 66 14 88 20 22 6 63 15 90 20
28 5 59 14 70 19 52 24 129 51 145 51 9 0 33 10 51 22 65 44 117 68 142 68 14
0 29 5 32 11 8 13 -72 4 -153 -16 -31 -8 -100 -22 -152 -31 -52 -8 -120 -20
-150 -25 -30 -5 -93 -13 -140 -18 -47 -5 -170 -30 -275 -55 -104 -26 -212 -48
-240 -50 -27 -1 -60 -8 -72 -14 -12 -7 -39 -12 -60 -13 -85 -1 -113 -4 -113
-11 0 -5 -7 -8 -15 -8 -18 0 -18 4 -3 33 6 12 14 29 18 37 4 8 16 19 28 25 24
11 28 20 12 30 -6 3 -6 15 0 30 6 15 6 27 0 30 -7 4 -6 13 0 25 17 32 11 48
-27 67 -24 11 -37 24 -37 36 1 9 -2 17 -6 17 -4 0 -10 36 -13 80 -5 59 -12 88
-28 109 -18 24 -19 31 -8 49 10 16 10 26 1 47 -7 14 -12 34 -12 45 0 10 -5 20
-11 22 -7 2 -14 24 -16 48 -2 25 -8 49 -13 55 -4 5 -11 24 -15 42 -6 29 -11
33 -51 39 -27 4 -56 2 -73 -6 -16 -6 -39 -9 -50 -5 -12 3 -21 2 -21 -3 0 -6 5
-12 12 -14 15 -5 -29 -66 -55 -74 -11 -3 -16 -12 -13 -20 3 -8 1 -14 -3 -14
-5 0 -11 6 -14 13 -2 6 -8 8 -13 4 -4 -4 -3 -16 3 -27 14 -22 6 -85 -13 -101
-15 -12 -19 -49 -6 -49 5 0 7 -13 4 -30 -3 -20 -10 -30 -21 -30 -19 0 -51 -34
-51 -54 0 -7 -6 -19 -13 -25 -8 -6 -14 -33 -15 -63 -2 -70 -42 -200 -58 -194
-8 3 -11 -1 -7 -10 3 -8 2 -14 -3 -13 -25 6 -43 -14 -39 -43 3 -28 2 -29 -28
-28 -55 3 -69 0 -64 -12 2 -7 14 -12 27 -10 15 3 21 -1 18 -10 -3 -7 -13 -12
-22 -12 -9 1 -16 -4 -16 -12 0 -8 -7 -14 -15 -14 -11 0 -15 12 -15 50 0 37 -4
50 -14 50 -8 0 -18 -4 -21 -10 -3 -5 -18 -11 -33 -11 -27 -1 -27 -1 3 -8 20
-5 4 -8 -52 -9 -47 0 -83 3 -83 9 0 5 -13 9 -30 9 -20 0 -30 5 -30 15 0 10 -7
15 -18 13 -14 -3 -17 5 -16 50 1 32 -3 52 -10 53 -6 0 -35 0 -63 -1 -42 -1
-53 2 -53 14 0 11 -9 16 -28 16 -23 0 -32 7 -45 36 -16 32 -21 35 -55 33 -20
-1 -44 1 -52 4 -29 11 -100 12 -104 2 -2 -5 -4 604 -3 1355 1 912 3 1172 7
785 4 -407 7 -519 10 -375 4 135 6 28 8 -313 1 -326 6 -516 12 -512 5 3 7 131
4 335 -5 327 -5 330 16 330 17 0 20 6 20 49 0 41 -4 51 -20 56 -14 4 -20 15
-20 35 0 38 18 48 30 15 8 -21 14 -24 36 -19 21 5 25 3 24 -12 -1 -11 -2 -43
-1 -71 l1 -53 65 0 65 0 0 39 c0 34 -5 44 -35 67 -38 29 -45 45 -17 42 36 -3
52 2 52 17 0 8 7 15 15 15 18 0 20 16 3 22 -11 3 -84 3 -110 -1 -3 -1 -4 -10
-1 -21 7 -26 -13 -26 -27 -1 -7 13 -26 22 -56 27 -44 6 -45 7 -38 38 8 40 12
46 30 46 8 0 14 7 14 15 0 8 3 15 8 15 4 0 5 65 4 145 -3 99 0 145 7 145 6 0
10 -8 9 -17 -1 -10 0 -75 0 -145 l2 -128 45 0 c39 0 45 3 45 21 0 24 37 58 63
59 11 0 17 8 17 25 0 22 4 25 34 25 24 0 43 -9 70 -35 31 -29 42 -33 69 -28
18 3 33 7 34 8 7 5 -23 65 -33 65 -6 0 -11 17 -12 38 -1 34 0 35 13 18 22 -29
30 -13 30 56 0 62 -1 63 -28 63 -37 1 -47 -13 -44 -61 l2 -39 -50 0 c-33 0
-50 4 -51 13 -1 6 -2 28 -3 48 -1 28 -4 35 -16 30 -8 -3 -15 -1 -15 4 0 5 -18
16 -40 26 -22 10 -40 25 -41 33 0 9 -2 30 -4 48 -5 31 -4 31 48 37 28 3 121 9
205 12 l152 6 0 45 0 44 123 -1 c67 -1 132 -1 145 -1 19 1 22 6 22 41 l0 40
-85 0 -85 0 0 36 c0 32 9 45 65 100 54 54 69 64 100 64 19 0 35 -5 35 -11 0
-8 54 -10 193 -7 202 4 223 9 280 59 22 20 62 29 123 29 40 0 44 2 44 25 l0
25 140 0 140 0 0 26 c0 17 6 28 20 31 11 3 20 9 20 14 0 5 47 9 105 9 86 0
113 -4 145 -20 22 -11 49 -20 60 -20 23 0 92 33 129 61 13 11 30 19 38 19 9 0
32 18 52 40 25 27 47 41 74 46 24 4 37 2 37 -5 0 -7 21 -11 55 -11 48 0 55 2
55 20 0 11 6 20 13 20 8 0 11 14 9 45 -3 26 -9 45 -16 45 -7 0 -12 15 -13 34
-1 32 1 34 33 33 23 -1 34 -6 34 -16 0 -37 26 -121 37 -121 18 0 52 79 48 111
-4 27 -3 27 71 34 41 4 74 11 74 15 0 4 -15 12 -32 18 -29 10 -24 11 40 7 39
-2 72 0 72 4 0 5 11 12 24 15 13 3 31 9 40 12 12 5 16 0 16 -21 0 -21 4 -26
16 -21 9 3 18 6 20 6 2 0 4 11 4 24 0 17 7 26 26 30 14 4 152 6 307 6 155 0
297 -1 315 0 31 0 32 1 32 45 0 45 0 45 35 45 32 0 71 -15 85 -31 3 -3 27 -18
55 -33 64 -34 145 -37 145 -6 0 19 7 20 160 20 141 0 160 -2 160 -16 0 -14 10
-16 73 -12 96 6 129 29 132 93 0 6 26 11 58 13 l57 3 0 -46 0 -45 143 0 c151
1 177 8 177 49 0 17 6 21 35 21 25 0 43 7 59 25 13 14 31 25 40 25 10 0 19 11
22 28 11 52 72 102 130 105 33 2 38 7 35 35 -1 9 36 12 159 12 153 0 160 -1
160 -20 0 -11 7 -20 15 -20 8 0 15 -4 15 -10 0 -5 -7 -10 -15 -10 -8 0 -15 -9
-15 -20 0 -13 7 -20 19 -20 10 0 22 -7 25 -16 3 -8 10 -13 15 -10 16 10 39 -5
45 -30 5 -20 12 -24 47 -24 l41 0 -4 -154 c-1 -85 0 -157 4 -161 4 -4 13 -3
20 1 16 10 21 11 103 18 54 4 66 2 74 -12 13 -22 26 -7 26 29 0 16 5 29 10 29
11 0 14 -62 4 -70 -3 -3 -8 -28 -11 -57 -4 -38 -1 -53 9 -57 21 -8 44 5 39 23
-9 27 -9 104 -2 139 7 28 12 32 39 32 18 0 42 -8 54 -18 19 -14 23 -27 24 -87
1 -54 6 -74 20 -88 11 -10 19 -32 19 -50 1 -30 28 -77 47 -77 13 -1 59 -44 66
-64 5 -13 14 -17 30 -12 12 3 55 -2 94 -12 63 -15 73 -20 73 -39 0 -52 42
-131 93 -175 79 -67 146 -96 257 -108 52 -6 96 -14 98 -19 1 -5 13 -28 25 -52
19 -38 31 -47 82 -68 33 -13 93 -29 133 -34 70 -11 72 -12 72 -39 0 -40 35
-104 67 -125 24 -16 52 -18 253 -16 171 1 238 5 280 17 30 9 82 21 115 27 116
20 163 39 227 89 34 28 71 51 82 51 23 2 24 2 139 19 120 17 158 39 264 146
52 52 100 94 106 92 57 -10 218 54 269 109 43 44 98 142 109 191 11 52 -1 102
-34 133 -18 16 -19 22 -9 37 41 57 57 108 55 180 -2 45 1 71 7 67 6 -3 7 1 3
10 -4 13 -8 14 -14 4 -6 -10 -10 -9 -15 5 -5 14 0 26 19 42 16 14 35 49 48 88
12 36 27 66 34 66 20 0 25 38 9 68 -8 15 -14 33 -14 40 0 7 -9 31 -21 54 -21
41 -16 57 17 58 21 0 27 53 9 66 -10 8 -12 14 -6 19 6 3 11 15 11 26 0 14 7
19 30 19 17 0 30 4 30 9 0 10 90 32 101 25 4 -2 12 3 19 11 16 20 34 19 51 -2
11 -13 11 -17 2 -20 -20 -7 -15 -23 7 -23 10 0 28 9 38 20 25 27 82 38 82 16
0 -8 11 -23 25 -32 20 -13 31 -14 56 -5 18 6 43 11 55 11 24 0 32 14 14 25
-20 12 -10 27 16 22 19 -3 27 1 34 17 8 21 8 21 18 -4 5 -14 19 -34 31 -44 19
-17 23 -18 39 -4 22 20 90 22 119 3 20 -14 23 -13 42 12 12 14 21 30 21 34 0
5 18 9 40 9 29 0 40 4 40 15 0 11 4 13 18 6 9 -5 25 -12 35 -15 11 -4 17 -16
17 -37 0 -45 23 -32 34 20 9 42 10 43 48 39 21 -2 38 0 38 4 0 4 6 5 13 3 11
-4 60 55 63 77 1 4 2 13 3 20 1 7 8 4 20 -6 19 -17 20 -17 30 3 6 11 11 22 11
25 0 3 -2407 6 -5350 6 l-5350 0 0 -5400z m9850 5305 c0 -8 -2 -15 -4 -15 -2
0 -6 7 -10 15 -3 8 -1 15 4 15 6 0 10 -7 10 -15z m-20 -69 c0 -11 -19 -15 -25
-6 -3 5 1 10 9 10 9 0 16 -2 16 -4z m-410 -171 c0 -16 -27 -32 -36 -22 -7 6
17 36 29 37 4 0 7 -7 7 -15z m-3390 -111 c0 -9 -7 -14 -17 -12 -25 5 -28 28
-4 28 12 0 21 -6 21 -16z m392 -316 c-7 -7 -12 -8 -12 -2 0 14 12 26 19 19 2
-3 -1 -11 -7 -17z m-3632 -173 c0 -14 -4 -25 -10 -25 -11 0 -14 33 -3 43 11
11 13 8 13 -18z m-2773 -92 c-2 -21 -4 -4 -4 37 0 41 2 58 4 38 2 -21 2 -55 0
-75z m7936 20 c4 -2 7 -15 7 -28 0 -19 -8 -26 -37 -34 -58 -16 -71 -14 -68 12
1 12 3 30 4 39 2 24 58 31 94 11z m83 -16 c1 -9 -6 -22 -17 -27 -17 -10 -19
-7 -19 20 0 24 4 31 17 28 9 -2 17 -11 19 -21z m-238 -49 c4 -21 -27 -25 -46
-6 -20 20 -14 30 15 26 17 -2 29 -10 31 -20z m-7781 -2335 c-1 -428 -2 -78 -2
777 0 855 1 1205 2 778 2 -428 2 -1128 0 -1555z m150 1595 c-3 -8 -6 -5 -6 6
-1 11 2 17 5 13 3 -3 4 -12 1 -19z m-85 -42 c-5 -18 -7 -18 -10 -3 -2 9 -8 17
-13 17 -5 0 -9 9 -9 20 0 18 1 19 19 4 12 -11 16 -24 13 -38z m-25 -223 c-2
-32 -3 -8 -3 52 0 61 1 87 3 58 2 -29 2 -78 0 -110z m7166 -1907 c50 -54 85
-237 86 -461 1 -63 -4 -66 -89 -45 -41 10 -122 28 -180 40 -106 22 -230 53
-285 72 -16 5 -82 22 -145 38 -206 51 -230 57 -244 69 -8 6 -47 21 -87 32 -41
11 -78 25 -84 30 -15 15 23 39 61 39 18 0 36 5 39 10 3 6 20 10 36 10 17 0 38
4 48 10 10 5 56 18 102 29 46 11 111 26 144 34 33 8 96 23 140 32 44 9 98 21
120 26 22 5 91 18 153 28 63 11 116 22 119 25 14 13 45 5 66 -18z m-6070 -183
c-3 -7 0 -13 6 -13 6 0 11 -4 11 -8 0 -10 -70 -6 -79 4 -3 4 0 9 8 12 7 2 20
13 29 23 17 20 35 8 25 -18z m-913 -113 c0 -5 -4 -10 -10 -10 -5 0 -10 5 -10
10 0 6 5 10 10 10 6 0 10 -4 10 -10z m5956 -164 c19 -20 18 -23 -13 -29 -35
-7 -58 10 -42 29 15 18 37 18 55 0z m-5489 -11 c0 -16 -41 -21 -71 -9 -26 10
-7 24 33 24 27 0 38 -4 38 -15z m210 -7 c-3 -8 -6 -5 -6 6 -1 11 2 17 5 13 3
-3 4 -12 1 -19z m5513 0 c77 -20 97 -33 102 -66 6 -43 0 -52 -37 -52 -37 0
-54 14 -28 24 31 12 -2 26 -73 32 -153 11 -154 12 -154 47 l0 32 68 -1 c37 -1
92 -8 122 -16z m-5727 -25 c-13 -2 -33 -2 -45 0 -13 2 -3 4 22 4 25 0 35 -2
23 -4z m9338 -90 c20 -23 25 -451 10 -858 -7 -176 -16 -473 -21 -659 -8 -282
-12 -342 -24 -355 -9 -8 -19 -11 -23 -7 -23 23 -25 1834 -2 1879 12 22 42 22
60 0z m-3401 -9 c0 -17 -22 -14 -28 4 -2 7 3 12 12 12 9 0 16 -7 16 -16z
m3555 -19 c22 -8 78 -24 125 -34 116 -25 335 -84 450 -120 147 -46 190 -59
255 -74 89 -21 324 -85 370 -102 22 -7 58 -17 79 -20 22 -4 57 -13 78 -22 34
-13 36 -17 25 -34 -7 -10 -40 -40 -73 -67 -32 -27 -92 -81 -133 -120 -41 -40
-82 -74 -91 -77 -9 -3 -26 -22 -38 -43 -22 -39 -413 -440 -515 -527 -68 -58
-87 -70 -87 -55 0 18 -40 -9 -52 -36 -12 -25 -43 -33 -50 -12 -4 11 -42 13
-82 5 -10 -2 -29 -14 -42 -26 -28 -27 -144 -44 -144 -21 0 7 -8 10 -18 8 -10
-3 -26 0 -35 7 -18 13 -63 9 -83 -7 -8 -5 -14 -1 -18 14 -9 35 -7 143 3 153 5
6 5 39 -1 80 -5 39 -6 118 -2 180 5 61 7 229 5 375 -4 320 7 590 22 590 6 0
29 -7 52 -15z m-3415 -115 c0 -5 -4 -10 -9 -10 -6 0 -13 5 -16 10 -3 6 1 10 9
10 9 0 16 -4 16 -10z m-5700 -30 c-8 -5 -10 -10 -3 -10 17 0 64 -86 57 -104
-8 -20 -24 -21 -24 -2 0 8 -15 27 -34 43 -28 23 -33 33 -29 56 4 19 11 27 27
27 17 0 18 -2 6 -10z m5637 -87 c-11 -10 -27 8 -27 30 l0 21 16 -22 c9 -13 14
-26 11 -29z m183 7 c0 -5 -4 -10 -9 -10 -6 0 -13 5 -16 10 -3 6 1 10 9 10 9 0
16 -4 16 -10z m-1288 -340 c-1 -129 -5 -256 -8 -282 l-6 -48 -44 0 c-56 0 -64
15 -64 117 1 99 14 158 45 195 45 53 45 111 0 122 -22 6 -25 12 -25 52 0 69
13 86 63 82 l42 -3 -3 -235z m6089 132 c-14 -25 -69 -80 -327 -328 -361 -349
-418 -403 -426 -404 -20 0 -1 24 75 97 45 43 125 125 177 182 136 148 488 483
500 476 6 -4 7 -12 1 -23z m82 -183 c-14 -14 -93 -24 -93 -12 0 5 16 9 36 10
20 1 41 6 47 12 6 6 13 8 16 6 2 -3 0 -10 -6 -16z m-6083 -30 c0 -11 -4 -18
-10 -14 -5 3 -7 12 -3 20 7 21 13 19 13 -6z m-566 1 c21 -4 42 -14 47 -21 9
-15 -1 -228 -12 -250 -10 -19 -94 -26 -105 -8 -17 28 -4 81 31 123 46 56 45
71 -7 88 -45 15 -59 38 -38 63 14 17 30 18 84 5z m-2238 -25 c15 -11 16 -14 3
-15 -8 0 -24 7 -35 15 -15 11 -16 14 -3 15 8 0 24 -7 35 -15z m8818 -50 c10
-7 15 -19 11 -25 -4 -6 -1 -17 5 -25 8 -9 10 -38 6 -87 -3 -40 -8 -99 -10
-132 -2 -32 -9 -63 -15 -69 -20 -20 -12 -65 19 -100 17 -19 30 -46 30 -59 0
-14 11 -35 25 -48 30 -29 74 -100 86 -142 7 -26 6 -29 -9 -23 -43 17 -52 15
-52 -16 0 -19 5 -29 15 -29 8 0 15 5 15 11 0 5 5 7 10 4 6 -3 10 -17 10 -30 0
-33 -36 -43 -61 -18 -16 16 -17 23 -7 50 15 41 -2 63 -48 63 -26 0 -42 9 -69
38 -33 35 -34 41 -35 110 0 76 -14 117 -53 160 -11 12 -29 22 -40 22 -14 0
-17 4 -12 18 4 9 15 44 24 77 10 33 22 69 28 80 6 11 14 40 18 65 3 25 9 52
11 61 6 21 39 30 54 15 9 -8 11 -6 10 9 -4 40 2 44 34 20z m-5354 -35 c0 -5
-12 -10 -27 -10 -22 0 -25 2 -13 10 20 13 40 13 40 0z m5166 -12 c-4 -13 -16
-57 -27 -98 -11 -41 -26 -84 -33 -96 -8 -11 -18 -39 -21 -60 -10 -59 -83 -202
-106 -209 -11 -4 -27 -19 -37 -33 -22 -36 -38 -52 -50 -52 -6 0 -12 -5 -14
-11 -2 -6 -19 -12 -37 -13 -19 -1 -39 -10 -47 -21 -8 -10 -15 -17 -17 -14 -2
2 -11 17 -21 33 -16 25 -20 27 -28 13 -8 -15 -12 -15 -36 -3 -39 19 -99 29
-107 16 -3 -5 -16 -10 -28 -10 -17 0 17 39 144 163 254 249 416 401 436 408
30 12 36 10 29 -13z m-5429 0 c8 21 31 13 37 -13 4 -14 12 -25 18 -25 6 0 -21
-31 -61 -70 -40 -38 -75 -70 -77 -70 -2 0 -4 7 -4 15 0 9 -7 18 -15 21 -8 4
-15 10 -15 15 0 5 7 9 15 9 9 0 15 9 15 25 0 20 5 25 24 25 19 0 23 -4 19 -20
-3 -11 0 -20 6 -20 14 0 14 33 0 47 -8 8 -8 19 2 42 9 21 16 26 22 18 7 -9 10
-9 14 1z m-3437 -12 c0 -2 3 -11 6 -20 5 -12 0 -16 -18 -16 -24 0 -48 16 -48
32 0 4 14 8 30 8 17 0 30 -2 30 -4z m-831 -43 c0 -21 -4 -47 -8 -58 -7 -18 -8
-17 -13 7 -6 34 2 88 13 88 5 0 9 -17 8 -37z m3461 22 c0 -9 -6 -12 -15 -9 -8
4 -15 10 -15 15 0 5 7 9 15 9 8 0 15 -7 15 -15z m-585 -22 l47 -6 -5 -62 c-2
-35 -8 -68 -11 -74 -9 -14 -106 -15 -106 -1 0 6 9 24 21 39 17 23 19 32 10 50
-7 11 -18 21 -25 21 -17 0 -38 25 -29 33 8 9 37 9 98 0z m-2725 -13 c8 -5 11
-10 5 -10 -5 -1 1 -6 15 -11 20 -8 22 -12 10 -19 -23 -15 -86 -12 -100 5 -26
31 31 60 70 35z m900 -49 c0 -5 7 -8 16 -7 9 0 19 -5 21 -11 7 -20 -25 -15
-47 7 -16 16 -17 20 -5 20 8 0 15 -4 15 -9z m-771 -30 c20 -15 29 -17 48 -8
17 7 30 7 47 -3 13 -7 29 -9 34 -6 6 4 14 1 19 -7 13 -20 62 -38 88 -31 24 6
58 -8 84 -34 9 -8 25 -12 42 -8 18 3 31 1 36 -8 4 -7 22 -16 38 -20 102 -23
110 -24 144 -10 18 8 44 14 57 14 25 0 27 -7 27 -62 -1 -18 4 -28 13 -28 8 0
14 -7 14 -15 0 -18 -11 -19 -44 -4 -35 16 -40 38 -15 66 16 16 18 23 8 23 -28
0 -59 -12 -53 -21 3 -5 0 -9 -6 -9 -7 0 -21 -11 -32 -26 -21 -26 -53 -29 -53
-4 0 8 -10 16 -22 18 -25 4 -30 -7 -12 -25 9 -9 6 -13 -13 -18 -26 -7 -38 -36
-38 -90 0 -13 -6 -26 -12 -28 -8 -3 -6 -6 5 -6 9 -1 17 -6 17 -12 0 -8 -13
-10 -37 -5 -21 3 -46 6 -55 6 -11 0 -18 8 -18 19 0 16 -6 18 -38 14 -27 -4
-43 0 -54 11 -12 11 -35 16 -78 16 -34 0 -71 5 -83 12 -12 6 -66 13 -119 16
-78 4 -101 8 -114 23 -16 18 -16 19 4 19 26 0 29 15 6 24 -22 8 -34 -1 -34
-28 0 -12 -3 -26 -7 -29 -10 -11 -33 14 -34 37 0 19 -1 19 -11 4 -10 -14 -15
-14 -32 -3 -12 8 -34 16 -51 18 -28 3 -51 37 -26 37 6 0 11 7 11 15 0 11 11
15 38 15 38 0 71 13 56 23 -5 3 -28 4 -51 3 -30 -2 -43 2 -43 11 0 13 -36 18
-92 14 -35 -3 -35 2 -2 24 18 11 29 13 38 6 6 -6 61 -11 122 -11 60 -1 143 -2
184 -3 41 -1 82 1 90 5 8 3 23 9 33 12 25 8 12 26 -19 26 -14 0 -27 7 -30 15
-4 8 -12 15 -19 15 -8 0 -17 5 -20 10 -11 17 39 10 64 -9z m2413 -156 c0 -5
-5 -11 -11 -13 -6 -2 -11 4 -11 13 0 9 5 15 11 13 6 -2 11 -8 11 -13z m254 -2
c-4 -9 -1 -20 6 -25 10 -6 8 -8 -4 -8 -11 0 -18 8 -18 20 0 14 -5 18 -17 13
-11 -4 -14 -3 -9 5 4 7 16 12 28 12 15 0 18 -4 14 -17z m-3163 -37 c-4 -6 -6
-23 -5 -38 3 -31 0 -33 -28 -18 -23 12 -23 76 0 90 17 11 43 -16 33 -34z
m10225 17 c-4 -22 -48 -31 -48 -10 0 19 10 27 32 27 13 0 18 -6 16 -17z
m-7271 -9 c-3 -3 -12 -4 -19 -1 -8 3 -5 6 6 6 11 1 17 -2 13 -5z m6993 -56
c15 -24 20 -51 20 -100 0 -62 2 -69 35 -104 52 -55 53 -120 1 -173 -67 -70
-49 -136 39 -143 35 -3 40 -6 40 -28 0 -21 -4 -25 -28 -22 -23 2 -28 -1 -25
-15 2 -11 14 -19 31 -21 35 -4 63 -43 49 -69 -6 -10 -27 -27 -47 -37 l-36 -20
-25 27 c-14 15 -34 27 -46 27 l-21 0 20 -22 c11 -13 28 -38 37 -56 9 -18 21
-30 26 -27 9 5 40 -21 40 -33 0 -4 -9 -18 -20 -32 l-20 -25 0 28 c0 35 -14 34
-42 -3 -26 -36 -35 -37 -77 -6 -19 14 -48 28 -65 32 -17 3 -43 15 -58 26 -21
15 -45 19 -103 19 -67 0 -77 3 -90 22 -8 12 -14 31 -13 42 0 11 -3 28 -7 38
-4 10 -3 17 5 17 8 0 9 10 5 30 -4 17 -2 30 3 30 10 0 22 27 31 75 5 25 10 29
31 27 14 -2 33 -11 42 -19 26 -23 41 -7 23 27 -8 16 -15 40 -15 53 0 14 -7 30
-15 37 -23 19 -19 32 36 106 28 38 53 75 56 82 11 28 23 9 23 -37 0 -52 16
-75 47 -69 14 3 20 17 26 68 5 44 15 72 29 87 19 20 20 27 10 60 -18 62 -22
87 -15 111 8 33 40 27 63 -10z m-7327 -3 c1 -5 -6 -11 -15 -13 -11 -2 -18 3
-18 13 0 17 30 18 33 0z m-2884 -30 c50 -35 112 -47 126 -26 8 15 66 -21 62
-39 -1 -8 -12 -15 -23 -15 -11 0 -29 -8 -39 -19 -15 -14 -16 -22 -7 -36 6 -10
8 -28 5 -40 -4 -13 0 -25 7 -30 8 -5 17 -34 20 -65 5 -49 4 -59 -12 -68 -28
-18 -22 -27 17 -27 41 0 46 -16 10 -30 -14 -5 -25 -12 -25 -15 0 -21 93 -75
130 -75 11 0 20 -6 20 -12 0 -25 -18 -40 -46 -40 -31 0 -79 -42 -69 -59 4 -5
-10 -9 -29 -9 -26 0 -36 -5 -41 -20 -3 -11 -14 -24 -24 -29 -20 -11 -61 -4
-61 11 0 5 -5 6 -10 3 -11 -7 -31 37 -27 58 1 8 -13 11 -45 10 -39 -2 -50 2
-63 20 -14 20 -13 23 10 45 17 15 25 32 23 50 -1 15 4 37 10 49 10 19 8 25
-18 47 -26 22 -28 26 -14 34 9 5 12 12 7 15 -16 10 -48 -3 -61 -24 -11 -16 -9
-19 9 -19 11 0 17 -4 14 -10 -3 -5 -1 -10 4 -10 13 0 14 -40 2 -59 -7 -11 -14
-9 -35 13 -13 15 -27 33 -29 39 -3 9 -8 9 -18 0 -22 -22 -39 -15 -55 22 -17
42 -18 94 -1 99 56 18 79 15 103 -11 22 -24 24 -24 24 -6 0 18 5 20 56 16 43
-3 55 -1 52 9 -3 7 -20 14 -39 14 -19 1 -42 2 -51 3 -18 1 -55 47 -46 57 3 3
27 0 53 -7 38 -10 49 -9 60 2 12 12 12 17 -1 33 -13 18 -14 18 -14 2 0 -10 -6
-16 -12 -13 -16 5 -17 29 -3 40 5 4 -1 5 -15 2 -21 -4 -29 1 -47 30 -13 19
-23 42 -23 51 0 9 -9 18 -20 21 -13 3 -20 12 -17 22 2 9 10 14 18 12 51 -12
97 -11 109 3 18 23 32 20 89 -19z m3686 3 c431 -9 675 -22 770 -41 54 -11 60
-14 60 -37 l0 -25 -120 3 c-66 2 -153 7 -193 12 -40 6 -180 10 -310 10 -235 0
-606 15 -692 29 -36 5 -45 11 -45 26 0 35 1 35 530 23z m-3128 -50 c-3 -7 -5
-2 -5 12 0 14 2 19 5 13 2 -7 2 -19 0 -25z m8963 -3 c-13 -14 -28 -25 -33 -25
-6 0 0 11 13 25 13 14 28 25 33 25 6 0 0 -11 -13 -25z m-6506 9 c29 -11 -25
-41 -112 -62 -82 -19 -92 -19 -92 3 0 16 39 32 120 49 36 8 66 15 67 15 1 1 8
-2 17 -5z m-2224 -14 c0 -5 -7 -10 -15 -10 -8 0 -15 5 -15 10 0 6 7 10 15 10
8 0 15 -4 15 -10z m1128 -7 c-2 -11 -14 -19 -31 -21 -22 -3 -27 1 -27 17 0 17
6 21 31 21 24 0 30 -4 27 -17z m1177 -301 c-4 -84 -9 -151 -12 -149 -7 8 -3
349 5 361 12 19 14 -51 7 -212z m1275 138 c0 -5 -4 -10 -10 -10 -5 0 -10 5
-10 10 0 6 5 10 10 10 6 0 10 -4 10 -10z m-1650 -21 c0 -5 -4 -9 -10 -9 -5 0
-10 7 -10 16 0 8 5 12 10 9 6 -3 10 -10 10 -16z m1593 3 c-10 -10 -24 -16 -32
-14 -17 6 -34 -20 -19 -29 19 -12 -1 -30 -21 -19 -10 5 -21 6 -25 3 -3 -3 -6
3 -6 14 0 14 12 25 38 36 74 31 88 33 65 9z m-4113 -7 c0 -8 -7 -15 -15 -15
-8 0 -15 7 -15 15 0 8 7 15 15 15 8 0 15 -7 15 -15z m10770 5 c0 -5 9 -10 21
-10 16 0 20 -5 17 -27 -2 -20 -8 -28 -20 -27 -16 2 -18 -8 -18 -76 l0 -78 -47
-10 c-46 -10 -85 -3 -97 17 -4 6 -12 8 -20 5 -7 -3 -13 2 -13 10 0 8 20 23 45
33 57 23 81 63 58 97 -13 20 -13 26 0 44 12 18 23 23 67 31 4 0 7 -3 7 -9z
m-7041 -56 c2 -2 -10 -4 -27 -4 -18 0 -32 -4 -32 -10 0 -5 9 -10 21 -10 11 0
17 -4 14 -10 -3 -5 -1 -10 5 -10 6 0 8 -4 5 -10 -3 -5 -15 -10 -25 -10 -28 0
-32 -15 -14 -47 14 -24 23 -28 65 -29 38 0 49 3 49 15 0 20 39 46 51 34 5 -5
6 -32 2 -61 l-8 -51 -253 -4 c-139 -1 -255 0 -258 5 -8 13 27 58 46 58 10 0
23 7 30 16 19 22 86 15 84 -8 -1 -10 6 -19 15 -19 9 -1 0 -5 -19 -9 -30 -6
-27 -8 25 -9 42 0 56 2 45 9 -12 8 -12 10 5 10 12 0 16 3 8 8 -14 9 18 52 41
52 27 0 28 20 1 30 -60 23 -67 66 -11 73 34 4 128 -2 135 -9z m-294 -4 c-28
-12 -45 -12 -45 0 0 6 15 10 33 9 27 0 29 -2 12 -9z m405 0 c0 -5 -4 -10 -9
-10 -6 0 -13 5 -16 10 -3 6 1 10 9 10 9 0 16 -4 16 -10z m0 -30 c0 -5 -4 -10
-10 -10 -5 0 -10 5 -10 10 0 6 5 10 10 10 6 0 10 -4 10 -10z m6614 -24 c21
-45 21 -46 -13 -46 -17 0 -33 -4 -36 -10 -8 -13 -52 -13 -60 0 -4 6 10 17 29
25 23 10 36 22 36 33 0 19 8 32 21 32 3 0 14 -15 23 -34z m-8280 -25 c25 -21
42 -42 39 -45 -4 -3 14 -7 38 -7 33 -2 37 -3 14 -6 -16 -3 -36 -13 -45 -23 -8
-10 -33 -23 -55 -29 -52 -14 -58 -14 -51 4 6 16 -3 19 -44 15 -20 -2 -22 0
-12 13 9 11 10 22 2 41 -15 41 -12 47 15 34 19 -9 28 -9 37 0 8 8 7 13 -5 18
-23 8 -21 24 2 24 11 0 40 -18 65 -39z m1846 13 c0 -19 4 -25 15 -20 9 3 15 0
15 -9 0 -8 5 -15 11 -15 5 0 9 -10 7 -22 -2 -16 2 -22 11 -20 8 2 18 -3 23
-10 6 -10 10 -10 17 2 6 8 13 11 17 7 4 -4 -3 -17 -15 -29 -18 -16 -37 -21
-80 -22 l-56 -1 3 44 c1 25 7 50 13 57 5 7 7 24 3 38 -4 16 -2 26 5 26 6 0 11
-12 11 -26z m6198 -61 c-9 -11 -13 -12 -19 -1 -5 7 -9 10 -9 6 0 -13 -60 14
-60 27 0 22 43 22 72 1 22 -15 25 -22 16 -33z m-7781 -5 l-2 -43 -44 0 c-42 0
-44 2 -47 30 -2 17 -1 24 2 18 3 -7 16 -13 30 -13 17 0 25 7 30 25 11 43 32
30 31 -17z m-147 22 c0 -5 -4 -10 -10 -10 -5 0 -10 5 -10 10 0 6 5 10 10 10 6
0 10 -4 10 -10z m30 -6 c0 -8 -5 -12 -10 -9 -6 4 -8 11 -5 16 9 14 15 11 15
-7z m180 -8 c0 -8 -7 -17 -16 -20 -8 -3 -12 -2 -9 4 3 6 -1 10 -9 10 -9 0 -16
5 -16 10 0 6 11 10 25 10 15 0 25 -6 25 -14z m1737 -73 c-3 -10 -5 -2 -5 17 0
19 2 27 5 18 2 -10 2 -26 0 -35z m6238 24 c19 -14 13 -37 -9 -37 -7 0 -21 -9
-31 -20 -29 -32 -49 -26 -41 13 10 51 45 70 81 44z m-2458 -79 c-3 -8 -6 -5
-6 6 -1 11 2 17 5 13 3 -3 4 -12 1 -19z m2403 -27 c5 -11 24 -22 41 -26 37 -8
46 -28 25 -58 -9 -12 -23 -32 -32 -44 -15 -21 -14 -24 11 -47 15 -14 31 -23
36 -20 5 3 12 -3 16 -13 9 -25 34 -53 48 -53 14 0 35 42 35 70 0 13 9 22 25
26 20 5 31 0 51 -21 14 -15 23 -34 20 -42 -3 -8 -6 -25 -6 -37 0 -19 -4 -22
-29 -18 -44 6 -91 -13 -140 -58 -49 -45 -54 -46 -107 -23 -22 9 -43 18 -49 19
-5 1 -23 7 -38 13 l-28 11 7 74 c5 58 3 83 -11 119 -21 56 -15 77 22 77 36 0
49 9 62 43 12 32 26 35 41 8z m-6176 -31 c11 -69 7 -188 -8 -203 -12 -12 -116
-15 -621 -19 -362 -4 -620 -2 -641 3 -40 12 -47 35 -42 154 3 73 5 80 28 92
20 10 158 13 652 11 l626 -3 6 -35z m-1481 19 c84 -2 89 -3 98 -26 5 -13 9
-62 9 -109 0 -82 -1 -85 -26 -94 -28 -11 -156 -13 -191 -4 -12 3 -24 11 -26
18 -3 7 -3 61 0 120 6 103 7 107 27 102 12 -3 61 -6 109 -7z m1629 -85 c13
-23 30 -37 49 -41 33 -6 44 -27 24 -47 -19 -18 -51 -10 -74 21 -19 23 -20 23
-26 3 -11 -34 -26 -11 -19 27 5 26 4 34 -5 29 -7 -5 -11 2 -11 18 0 40 36 34
62 -10z m6213 23 c10 -11 9 -17 -10 -35 -22 -21 -24 -22 -33 -5 -7 11 -7 24
-1 35 11 21 26 23 44 5z m-10230 -7 c-3 -5 -12 -10 -18 -10 -7 0 -6 4 3 10 19
12 23 12 15 0z m-510 -21 c12 -19 -5 -23 -22 -6 -16 16 -16 17 -1 17 9 0 20
-5 23 -11z m1060 -39 c3 -5 -1 -10 -10 -10 -9 0 -13 5 -10 10 3 6 8 10 10 10
2 0 7 -4 10 -10z m7641 -10 c18 -12 36 -30 39 -41 15 -47 -19 -124 -65 -149
-28 -15 -97 15 -115 51 -31 59 -15 108 43 138 47 25 57 25 98 1z m-6192 -45
c3 -8 3 -28 0 -44 -5 -23 -2 -29 15 -34 11 -2 22 0 25 7 2 6 5 1 5 -12 1 -13
-3 -20 -9 -17 -5 3 -10 2 -10 -3 0 -22 -63 -33 -295 -53 -181 -15 -304 -18
-339 -7 -17 5 -69 11 -116 14 -111 7 -148 39 -68 58 18 4 32 1 44 -11 21 -21
38 -26 84 -24 19 1 76 3 125 5 50 2 146 11 215 20 106 14 128 20 142 39 11 13
18 17 18 8 0 -9 8 -11 25 -7 17 4 31 1 42 -9 22 -22 42 -3 22 21 -11 13 -11
18 -1 21 6 3 12 13 12 24 0 14 7 19 29 19 17 0 31 -6 35 -15z m8442 -6 c7 -12
-15 -31 -31 -26 -5 2 -11 11 -13 20 -4 19 32 24 44 6z m-11442 -21 c17 -24 22
-103 7 -113 -13 -7 -81 34 -80 48 0 7 4 21 8 32 5 11 4 28 -1 38 -14 28 46 23
66 -5z m-789 -35 c3 -27 8 -58 11 -70 6 -29 -20 -52 -54 -48 -15 2 -30 4 -34
4 -11 1 -9 83 2 101 7 11 10 5 11 -25 l2 -40 7 45 8 45 -1 -55 c-2 -82 18 -66
21 18 3 82 18 95 27 25z m2785 37 c0 -5 -2 -10 -4 -10 -3 0 -8 5 -11 10 -3 6
-1 10 4 10 6 0 11 -4 11 -10z m30 0 c0 -5 -2 -10 -4 -10 -3 0 -8 5 -11 10 -3
6 -1 10 4 10 6 0 11 -4 11 -10z m-2933 -152 c-2 -29 -3 -8 -3 47 0 55 1 79 3
53 2 -26 2 -71 0 -100z m2903 124 c0 -5 -13 -9 -30 -9 -16 0 -27 4 -24 9 7 11
54 11 54 0z m-2883 -124 c-2 -24 -4 -7 -4 37 0 44 2 63 4 43 2 -21 2 -57 0
-80z m2778 92 c3 -5 1 -10 -4 -10 -6 0 -11 5 -11 10 0 6 2 10 4 10 3 0 8 -4
11 -10z m245 -26 c0 -2 -7 -4 -15 -4 -8 0 -15 4 -15 10 0 5 7 7 15 4 8 -4 15
-8 15 -10z m1188 -10 c33 -5 41 -21 20 -42 -28 -28 -198 -5 -198 28 0 9 2 19
5 21 5 6 124 1 173 -7z m2252 3 c300 -2 698 -9 885 -16 187 -7 558 -13 825
-14 l485 -2 -3 -35 c-1 -19 -8 -40 -15 -47 -27 -27 -201 -33 -1047 -35 -789
-3 -870 -2 -920 14 -60 18 -344 26 -1210 33 -610 5 -1070 18 -1127 32 -29 6
-31 48 -5 62 11 6 150 10 337 11 175 0 321 3 324 6 3 4 213 3 466 0 253 -4
705 -8 1005 -9z m4798 -17 c80 -20 104 -32 156 -77 42 -35 72 -91 58 -105 -5
-5 -51 -4 -103 2 -56 7 -147 9 -225 5 -106 -6 -147 -4 -208 10 -42 9 -76 20
-76 24 0 11 50 61 62 61 18 0 48 31 48 50 0 47 153 63 288 30z m-1505 -50 c20
-11 37 -25 37 -31 0 -7 21 -10 56 -7 51 3 55 2 49 -17 -3 -11 -7 -30 -9 -43
-2 -12 -6 -26 -10 -29 -12 -12 -75 -6 -124 12 -47 17 -50 17 -121 -5 -76 -23
-104 -22 -142 9 l-23 18 42 29 c23 16 44 37 47 47 4 10 17 17 33 17 15 0 41
11 57 24 27 22 32 23 50 10 11 -8 37 -23 58 -34z m-8724 -9 c33 -18 33 -18 10
-24 -52 -14 -119 -1 -119 23 0 23 67 24 109 1z m-335 -11 c42 -15 30 -30 -24
-30 -35 0 -50 4 -50 13 0 28 28 35 74 17z m9321 -154 c-8 -176 -13 -216 -31
-223 -9 -3 -19 -2 -24 3 -11 12 8 335 21 351 6 6 17 9 26 6 12 -5 14 -25 8
-137z m-8865 88 c58 -17 163 -15 214 5 23 9 38 8 75 -5 67 -25 70 -31 55 -116
-7 -40 -13 -73 -14 -74 0 -1 -17 -9 -39 -18 -21 -10 -45 -29 -52 -42 -14 -27
-17 -127 -5 -161 7 -19 4 -23 -29 -29 -21 -4 -47 -17 -58 -30 -11 -13 -26 -24
-32 -24 -15 0 -85 -96 -85 -118 0 -10 -5 -23 -11 -29 -6 -6 -11 -36 -11 -67
-1 -59 12 -87 63 -139 26 -28 27 -32 22 -105 -3 -43 -9 -84 -13 -92 -8 -15
-14 -75 -10 -95 1 -5 3 -14 4 -20 1 -5 7 -27 15 -48 7 -21 10 -45 7 -54 -4 -8
0 -21 8 -27 19 -16 70 -106 59 -106 -5 0 -14 5 -21 12 -9 9 -12 9 -12 0 0 -14
-55 -15 -85 -2 -16 7 -14 9 15 10 35 1 35 1 13 17 -13 8 -23 22 -23 30 0 7 -7
16 -15 19 -22 9 -18 19 10 32 18 8 25 19 25 40 0 29 0 29 -52 24 -99 -9 -148
-63 -148 -162 0 -27 8 -41 37 -67 20 -18 46 -34 57 -34 17 -1 18 -2 4 -6 -10
-2 -18 -11 -18 -19 0 -16 -8 -16 -68 -5 -31 6 -61 4 -100 -6 -43 -11 -65 -12
-92 -4 -24 7 -49 7 -79 0 -24 -5 -52 -7 -62 -4 -25 8 -63 45 -72 68 -3 9 -11
17 -17 17 -5 0 -10 14 -10 30 0 22 -5 30 -17 30 -19 0 -76 64 -66 74 4 3 21 6
40 6 34 0 73 28 73 53 0 22 -39 47 -75 47 -28 0 -35 4 -35 20 0 17 -7 20 -45
20 l-45 0 -2 43 c0 23 -2 69 -3 102 -3 98 -2 95 -35 95 -16 0 -30 4 -30 9 0 5
-10 11 -22 13 -20 3 -23 9 -24 52 -1 56 -19 76 -69 76 -24 0 -31 5 -32 20 -1
11 7 25 18 30 23 13 26 40 4 40 -10 0 -15 10 -15 28 0 38 -9 45 -37 27 -19
-13 -26 -13 -43 -3 -15 10 -20 24 -20 60 0 47 -1 48 -30 48 -28 0 -30 2 -30
40 l0 40 40 0 c47 0 50 10 14 39 -33 26 -50 26 -66 1 -18 -28 -28 -25 -28 9 0
17 -4 33 -10 36 -6 4 -11 -83 -13 -242 -1 -144 -3 -73 -4 167 0 228 3 404 7
390 4 -14 8 -20 9 -13 1 12 64 11 164 -3 26 -3 55 -3 65 2 9 4 75 9 147 10
290 7 362 12 414 27 46 13 67 14 126 5 59 -9 78 -8 116 5 56 20 47 20 109 1z
m3101 -1 c4 -4 3 -60 -3 -123 -6 -63 -12 -236 -13 -385 -2 -267 -10 -390 -25
-400 -8 -5 -119 64 -157 98 -25 22 -25 11 -1 560 l11 267 90 -4 c49 -2 93 -8
98 -13z m1657 1 c33 -5 33 -6 16 -25 -9 -10 -22 -19 -29 -19 -24 0 -46 -37
-39 -64 6 -26 6 -26 -43 -25 -28 1 -55 -1 -61 -5 -18 -11 -15 -66 4 -73 21 -8
85 15 100 35 9 13 12 13 20 1 14 -22 51 -112 104 -254 45 -120 86 -215 192
-448 59 -131 46 -142 -85 -76 -185 94 -214 108 -255 120 -34 10 -47 20 -60 48
-15 32 -21 36 -52 34 -19 0 -48 -4 -63 -8 -27 -7 -104 21 -208 76 -20 10 -44
19 -53 19 -8 0 -44 14 -78 30 -84 41 -99 36 -125 -44 -12 -35 -19 -73 -16 -85
7 -26 45 -47 127 -71 82 -24 235 -88 265 -111 13 -11 38 -19 55 -19 38 -1 84
-24 67 -34 -10 -7 -375 9 -456 19 -16 2 -169 7 -340 10 -170 4 -375 12 -455
18 l-145 12 3 285 c3 263 14 509 28 621 l6 47 771 -5 c425 -2 787 -6 805 -9z
m-2696 -24 c52 -30 128 -36 187 -14 46 16 60 17 150 6 87 -11 108 -11 162 3
51 13 71 14 110 5 28 -7 70 -9 103 -5 l56 7 -5 -208 c-9 -375 -15 -478 -25
-484 -6 -4 -23 -5 -38 -3 -113 13 -277 25 -382 27 -143 3 -368 21 -420 34 -19
5 -66 7 -104 6 -38 -2 -73 -1 -78 2 -5 3 -68 8 -141 10 -73 2 -143 7 -157 11
-22 5 -98 12 -165 14 -11 0 -56 7 -100 14 -44 8 -127 17 -185 20 -58 4 -147
13 -199 21 -52 8 -109 14 -128 14 -31 0 -33 2 -33 33 0 25 9 42 35 67 32 31
35 39 35 92 0 53 -2 59 -27 71 -16 8 -71 20 -123 27 -154 20 -174 34 -151 106
5 16 12 50 16 76 l6 47 168 -1 c93 0 173 2 178 5 5 3 59 9 119 12 60 4 111 8
113 10 2 3 226 2 497 0 464 -5 495 -7 526 -25z m-3235 -1697 c-1 -318 -2 -60
-2 572 0 633 1 893 2 578 2 -314 2 -832 0 -1150z m6518 1697 c17 -7 68 -16
115 -19 101 -7 101 -7 75 -126 -70 -319 -150 -608 -168 -603 -14 4 -150 274
-262 523 -83 184 -102 209 -164 221 -17 4 -34 11 -37 16 -10 16 404 5 441 -12z
m1653 -15 c270 -5 425 -11 429 -18 6 -10 17 -165 29 -425 7 -133 -3 -401 -16
-421 -17 -28 -560 -95 -731 -91 -30 1 -97 -4 -150 -11 -143 -19 -170 1 -56 41
76 27 141 64 145 84 6 26 -60 155 -82 162 -12 4 -79 22 -151 40 l-130 32 -65
-25 c-36 -14 -76 -34 -89 -44 -21 -17 -251 -132 -328 -165 -33 -14 -33 -14
-33 13 1 16 7 44 15 63 7 19 29 78 48 130 19 52 48 127 64 165 17 39 34 80 38
93 4 13 18 27 32 33 19 7 24 16 23 37 -3 43 -1 52 13 52 19 0 43 -30 51 -63 9
-37 30 -29 36 13 4 26 11 36 30 40 16 4 26 14 28 28 4 25 -21 40 -41 24 -18
-15 -81 0 -85 21 -2 9 4 24 12 33 28 27 20 60 -16 74 -18 6 -57 23 -87 37 -41
18 -51 27 -40 34 8 5 84 9 169 10 85 1 218 4 295 8 77 3 158 6 180 5 22 -1
230 -5 463 -9z m-2118 -35 c11 -7 7 -10 -17 -10 -18 0 -33 5 -33 10 0 13 30
13 50 0z m904 -20 c43 -14 66 -26 66 -36 0 -8 -13 -45 -28 -82 -16 -37 -34
-88 -42 -114 -14 -52 -20 -55 -84 -37 -49 13 -83 5 -92 -23 -9 -29 21 -53 78
-62 23 -4 45 -12 49 -17 8 -14 -49 -200 -101 -329 -24 -58 -47 -115 -51 -127
-10 -26 -26 -28 -99 -12 -66 14 -66 3 3 269 14 52 31 109 37 125 6 17 27 107
45 200 30 153 53 237 71 267 8 13 59 5 148 -22z m2566 -20 c52 -1 160 1 238 2
79 2 145 1 147 -2 2 -3 -2 -46 -7 -95 l-11 -90 -57 -60 c-32 -33 -64 -77 -71
-99 -8 -21 -19 -40 -25 -43 -6 -2 -40 25 -76 60 l-66 64 -86 -5 c-77 -4 -86
-3 -92 14 -4 11 -20 33 -37 51 l-30 32 17 65 c9 36 16 77 16 91 0 21 4 25 23
20 12 -3 65 -5 117 -5z m-677 -27 c20 -12 -14 -18 -87 -15 -61 3 -76 7 -76 19
0 14 11 15 77 9 42 -4 81 -10 86 -13z m-2608 -155 c43 -90 109 -226 146 -304
37 -77 75 -158 82 -180 8 -21 29 -73 46 -114 33 -77 37 -115 11 -115 -9 0 -48
67 -105 180 -111 221 -214 438 -228 479 -5 17 -13 36 -17 41 -15 20 -60 157
-54 166 3 5 13 9 23 9 13 0 38 -43 96 -162z m2902 135 c15 -19 11 -139 -5
-155 -13 -13 -208 -24 -213 -12 -3 5 -3 48 -1 96 4 100 -4 95 121 90 63 -3 89
-8 98 -19z m-3088 -9 c11 -14 23 -35 26 -47 14 -48 88 -222 158 -373 41 -88
78 -171 82 -184 4 -14 30 -69 58 -123 27 -54 47 -101 44 -103 -9 -10 -91 32
-113 57 -11 13 -44 78 -73 144 -29 66 -68 152 -86 190 -55 115 -175 421 -175
448 0 28 54 22 79 -9z m3243 14 c3 -7 3 -41 0 -76 -5 -69 -20 -86 -70 -80 -27
3 -27 4 -26 72 1 55 5 72 19 82 24 17 71 18 77 2z m-2156 -12 c3 -8 -6 -36
-20 -62 -14 -27 -43 -96 -66 -154 -22 -58 -45 -114 -50 -125 -5 -11 -25 -65
-44 -119 -33 -93 -56 -137 -56 -108 0 7 18 72 41 144 22 73 51 174 65 223 13
50 31 106 39 125 8 19 19 47 25 63 7 20 16 27 35 27 14 0 28 -6 31 -14z m1702
-61 c7 -3 12 -22 12 -50 0 -56 -9 -61 -98 -49 l-67 9 -3 44 c-2 27 1 47 9 51
11 7 119 3 147 -5z m-7158 -91 c63 -14 118 -28 122 -30 13 -8 9 -32 -9 -49
-14 -15 -28 -16 -87 -10 -39 4 -83 7 -99 6 -29 -1 -111 32 -122 50 -11 17 4
57 23 62 19 6 18 6 172 -29z m8436 -77 c102 -70 120 -140 58 -222 -39 -51 -83
-75 -137 -75 -28 0 -43 9 -80 49 -57 61 -64 86 -41 148 32 84 78 132 130 133
12 0 44 -15 70 -33z m-778 -42 c3 -52 -12 -100 -34 -109 -8 -3 -97 -8 -199
-12 l-185 -7 0 76 c0 42 4 78 9 81 5 4 69 9 143 12 73 3 151 9 173 13 22 4 51
4 65 1 22 -6 25 -13 28 -55z m-496 36 c18 -16 21 -27 20 -80 -1 -35 -4 -67 -7
-72 -4 -5 -40 -9 -80 -9 -63 0 -76 3 -85 19 -10 20 -14 143 -4 153 3 3 34 6
69 6 48 0 70 -4 87 -17z m-8782 -86 c0 -8 -4 -15 -8 -15 -5 0 -6 -14 -4 -31 3
-20 1 -30 -5 -26 -17 11 -14 87 3 87 8 0 14 -7 14 -15z m1460 0 c-7 -9 -15
-13 -17 -11 -7 7 7 26 19 26 6 0 6 -6 -2 -15z m214 -60 c-10 -56 6 -72 76 -74
33 0 90 -5 128 -11 37 -5 93 -10 124 -10 31 0 78 -4 105 -10 152 -30 586 -63
1308 -100 220 -11 419 -23 441 -26 34 -4 51 -15 93 -59 29 -30 64 -63 78 -75
14 -11 23 -23 20 -27 -9 -8 -178 -7 -305 1 -104 8 -303 27 -522 51 -74 8 -209
22 -300 30 -242 23 -652 83 -750 110 -47 13 -125 30 -175 39 -112 18 -269 52
-315 68 -19 7 -38 11 -41 11 -15 -4 -124 34 -122 43 1 5 19 11 40 15 51 7 83
26 83 48 0 25 11 33 27 20 9 -8 11 -23 7 -44z m7886 15 c31 -17 60 -194 35
-219 -6 -6 -46 -13 -91 -17 -107 -9 -115 -1 -107 99 5 68 4 74 -21 104 -14 17
-26 34 -26 37 0 10 190 7 210 -4z m-8095 -20 c20 -22 10 -25 -30 -10 -14 5
-23 14 -20 20 10 16 30 12 50 -10z m-134 -50 c28 -11 81 -29 117 -40 37 -10
119 -34 182 -53 63 -19 178 -47 255 -61 77 -15 182 -38 234 -52 52 -14 148
-33 215 -44 67 -10 144 -23 171 -29 44 -9 192 -23 650 -61 72 -6 209 -20 305
-32 138 -16 247 -21 520 -23 656 -5 1022 -18 1475 -50 121 -9 279 -19 350 -24
102 -6 142 -12 185 -31 73 -31 74 -32 63 -77 -11 -47 -26 -54 -158 -83 -174
-37 -531 -49 -735 -25 -19 2 -226 9 -460 14 -444 11 -711 25 -770 41 -49 13
-290 38 -440 45 -236 13 -571 49 -722 79 -115 23 -241 44 -398 66 -80 11 -183
26 -230 34 -262 45 -379 67 -415 76 -40 11 -137 34 -267 63 -112 25 -167 47
-205 83 -35 33 -36 35 -29 90 7 57 20 93 40 106 14 10 8 11 67 -12z m9904 0
c0 -41 -387 -119 -765 -154 -141 -13 -156 -13 -167 2 -17 21 -16 57 1 75 8 8
45 18 83 21 37 4 163 20 278 36 258 36 268 37 435 36 113 -1 135 -3 135 -16z
m-1488 -40 c63 -68 148 -110 225 -110 79 0 115 17 181 85 33 34 57 52 61 46 4
-6 10 -42 13 -80 4 -52 2 -70 -8 -77 -8 -5 -59 -11 -114 -15 -55 -4 -168 -12
-252 -19 -84 -7 -158 -10 -166 -7 -11 4 -16 32 -19 109 -3 56 -4 106 -1 111
10 18 37 3 80 -43z m-415 6 c4 -6 5 -47 2 -91 -3 -45 0 -93 5 -108 12 -32 15
-31 -142 -51 -131 -16 -154 -13 -161 23 -9 46 -11 219 -3 228 11 10 188 21
247 15 25 -3 48 -10 52 -16z m-374 -8 c8 -8 12 -50 12 -124 0 -91 -3 -114 -16
-125 -23 -19 -298 -27 -319 -9 -13 11 -15 32 -10 129 4 64 8 122 10 129 6 17
306 17 323 0z m2379 -76 c5 -47 3 -53 -24 -80 -18 -18 -53 -37 -89 -47 -32
-10 -93 -28 -134 -41 -408 -125 -913 -205 -1710 -268 -107 -9 -285 -25 -395
-37 -110 -11 -240 -25 -290 -30 -49 -5 -157 -13 -240 -19 -82 -5 -202 -16
-265 -25 -137 -18 -210 -19 -244 -4 -20 10 -31 8 -60 -11 -29 -17 -56 -23
-134 -26 l-98 -5 -16 48 c-50 148 -56 157 -80 148 -14 -5 -29 -56 -53 -170 -3
-17 -19 -24 -82 -37 -90 -19 -218 -30 -251 -21 -19 4 -22 10 -17 27 15 47 17
76 5 76 -21 0 -80 -52 -80 -71 0 -13 -12 -21 -39 -29 -40 -11 -55 -29 -45 -55
5 -11 -1 -15 -19 -15 -14 0 -33 -3 -43 -7 -14 -5 -16 -3 -10 18 5 13 14 61 20
107 7 45 15 84 17 87 3 2 50 20 104 39 55 19 143 51 195 72 l95 37 185 1 185
1 2 -44 c2 -48 21 -75 45 -66 17 7 38 47 38 73 0 10 7 27 15 39 16 22 10 21
280 42 77 6 210 18 295 27 111 11 198 13 305 8 125 -5 174 -3 295 15 285 41
444 60 750 91 58 6 146 15 195 20 89 10 178 18 470 45 276 26 349 36 520 72
94 19 190 39 215 43 25 5 70 17 100 28 67 24 78 17 87 -56z m-6051 13 c47 -19
44 -49 -6 -53 -45 -4 -72 15 -64 46 7 26 22 27 70 7z m2237 -20 c31 -9 57 -21
57 -26 0 -6 -44 -30 -97 -55 -54 -25 -116 -53 -138 -63 -22 -10 -53 -23 -70
-29 -16 -5 -38 -13 -49 -17 -16 -7 -17 -6 -7 13 12 23 5 51 -18 69 -15 11 -15
13 0 28 8 8 55 36 105 60 98 49 114 51 217 20z m-2023 -73 c60 -30 62 -32 50
-47 -9 -10 -19 -11 -43 -3 -100 32 -159 87 -79 75 20 -4 53 -15 72 -25z m2176
-17 c32 -48 25 -53 -156 -122 -36 -14 -112 -40 -170 -58 -58 -19 -139 -48
-180 -65 -99 -41 -200 -74 -207 -66 -5 5 477 246 492 246 3 0 47 20 97 45 51
25 96 45 100 45 4 0 15 -11 24 -25z m-862 -17 c-14 -45 -35 -90 -40 -85 -3 3
4 28 17 56 22 52 36 69 23 29z m336 -27 c-6 -12 -15 -21 -21 -21 -6 0 -9 -10
-7 -22 2 -16 12 -24 33 -28 29 -5 27 -6 -35 -37 -36 -18 -76 -39 -90 -47 -14
-8 -49 -23 -77 -35 l-53 -20 -30 25 c-16 14 -30 31 -30 38 0 20 31 43 90 66
30 11 93 40 140 64 47 23 86 42 88 40 2 -1 -1 -12 -8 -23z m-1339 -52 c63 -27
125 -57 137 -65 13 -9 49 -24 80 -35 30 -10 76 -32 101 -48 25 -16 62 -34 81
-40 50 -17 108 -50 88 -51 -9 0 -20 5 -23 10 -3 6 -16 10 -27 10 -12 0 -29 6
-37 14 -9 7 -88 37 -176 66 -171 57 -354 126 -369 141 -8 7 18 49 29 49 2 0
54 -23 116 -51z m5572 -116 c-1 -38 -8 -71 -18 -87 -36 -54 -44 -22 -24 91 9
51 15 63 28 61 13 -3 16 -15 14 -65z m-4627 -34 c23 -12 61 -41 84 -64 46 -46
59 -97 46 -169 -9 -45 -96 -143 -151 -167 -76 -35 -192 -18 -280 40 -49 32
-65 62 -65 121 0 81 96 216 173 243 63 23 142 21 193 -4z m4757 -26 c15 -20
27 -45 27 -55 0 -16 -6 -19 -42 -16 -38 3 -43 6 -46 29 -3 28 13 79 25 79 5
-1 20 -17 36 -37z m-11556 -180 c-2 -21 -4 -4 -4 37 0 41 2 58 4 38 2 -21 2
-55 0 -75z m6308 55 c34 -17 45 -28 45 -45 0 -29 -11 -29 -101 -1 -72 23 -86
35 -75 64 8 21 67 13 131 -18z m-116 -101 c20 -7 36 -16 36 -21 0 -5 -25 -17
-55 -27 -189 -61 -339 -114 -430 -149 -131 -52 -132 -52 -172 -39 -24 8 -61
10 -105 5 -37 -4 -79 -8 -92 -9 -13 -1 -26 3 -28 9 -6 19 59 53 149 79 46 13
97 28 113 34 17 6 131 39 255 75 230 66 250 69 329 43z m5178 -42 c7 -23 -24
-45 -69 -51 -55 -8 -62 5 -26 43 17 18 31 23 57 21 19 -2 36 -8 38 -13z m247
-5 c6 -6 5 -19 -2 -34 -12 -28 -53 -40 -117 -34 -33 2 -41 8 -49 30 -7 20 -6
31 5 44 11 14 25 15 84 10 38 -4 74 -11 79 -16z m-3834 -35 c0 -28 -15 -34
-24 -9 -10 25 -7 34 9 34 9 0 15 -9 15 -25z m-6247 -46 c-25 -10 -73 -11 -73
-1 0 14 64 29 78 18 11 -8 10 -11 -5 -17z m103 0 c59 -15 59 -39 0 -39 -46 0
-76 19 -34 21 l23 2 -22 4 c-13 2 -23 9 -23 14 0 11 2 11 56 -2z m5540 -23 c3
-7 -8 -58 -23 -112 -26 -89 -31 -99 -53 -102 -14 -1 -32 2 -40 7 -12 8 -7 17
28 49 44 41 53 74 30 112 -10 15 -9 23 6 39 22 24 44 27 52 7z m189 -6 c11
-10 48 -29 83 -42 56 -20 66 -21 111 -9 64 16 86 9 141 -48 53 -55 102 -72
195 -70 61 2 69 -1 98 -28 45 -41 78 -60 120 -68 22 -4 39 -14 42 -25 3 -9 14
-25 25 -35 11 -10 20 -22 20 -27 0 -12 -68 -10 -92 3 -16 9 -24 7 -42 -10 -28
-27 -37 -26 -65 2 -13 15 -45 29 -79 37 -31 7 -75 22 -96 33 -29 14 -51 18
-82 13 -39 -5 -43 -4 -54 24 -13 32 -45 46 -79 35 -18 -5 -21 -2 -21 19 0 31
-36 70 -56 62 -8 -3 -21 -9 -29 -12 -10 -4 -18 3 -25 20 -11 30 -12 30 -65 12
-34 -12 -41 -20 -50 -53 -18 -68 -38 -80 -75 -43 -17 17 -20 33 -20 119 0 86
2 100 18 104 36 10 56 6 77 -13z m-1260 0 c-3 -5 -13 -10 -21 -10 -8 0 -12 5
-9 10 3 6 13 10 21 10 8 0 12 -4 9 -10z m256 -37 c27 -16 49 -32 49 -37 0 -6
-12 -27 -26 -48 -29 -41 -55 -48 -88 -23 -11 8 -37 15 -58 15 -21 0 -38 3 -38
6 0 4 10 23 22 43 49 82 63 86 139 44z m-5098 -10 c-6 -2 -9 -13 -6 -23 6 -23
-11 -26 -52 -10 -29 11 -25 30 6 30 10 0 19 4 19 9 0 5 10 7 22 3 12 -3 17 -7
11 -9z m350 0 c-7 -2 -19 -2 -25 0 -7 3 -2 5 12 5 14 0 19 -2 13 -5z m-1616
-350 c-1 -65 -3 -12 -3 117 0 129 2 182 3 118 2 -65 2 -171 0 -235z m5962 342
c-13 -12 -79 -34 -79 -26 0 5 12 14 28 19 29 11 58 15 51 7z m-4064 -14 c3 -5
1 -12 -5 -16 -5 -3 -10 1 -10 9 0 18 6 21 15 7z m-487 -30 c3 -8 -1 -12 -9 -9
-7 2 -15 10 -17 17 -3 8 1 12 9 9 7 -2 15 -10 17 -17z m4457 10 c-3 -5 -22
-15 -43 -21 -20 -7 -53 -22 -72 -35 -45 -28 -77 -38 -84 -26 -9 13 6 21 109
57 50 17 91 32 93 33 2 0 1 -3 -3 -8z m-4532 -43 c-5 -10 -47 -10 -56 -1 -4 3
5 15 20 25 26 17 28 17 34 0 4 -9 5 -20 2 -24z m652 32 c-3 -5 -11 -10 -16
-10 -6 0 -7 5 -4 10 3 6 11 10 16 10 6 0 7 -4 4 -10z m6510 -20 c4 -7 -3 -8
-22 -4 -38 9 -42 14 -10 14 14 0 29 -5 32 -10z m-6995 -10 c0 -5 -4 -10 -10
-10 -5 0 -10 5 -10 10 0 6 5 10 10 10 6 0 10 -4 10 -10z m-755 -10 c12 -5 14
-9 6 -9 -8 -1 -12 -4 -8 -7 3 -3 19 2 35 12 29 17 31 17 83 -13 48 -26 65 -30
143 -31 63 -1 94 -6 105 -16 32 -29 89 -47 131 -40 34 6 43 3 58 -16 l19 -23
23 23 c22 22 67 30 79 14 21 -29 54 -34 176 -28 l125 7 0 -26 c0 -27 1 -27 70
-27 53 0 70 3 70 14 0 8 6 16 14 19 11 4 16 -3 18 -26 2 -26 8 -32 34 -38 24
-4 34 -2 43 13 8 12 8 18 0 18 -14 0 -7 52 9 58 8 2 12 -7 12 -25 0 -20 7 -31
25 -40 14 -6 25 -7 25 -2 0 5 -4 9 -10 9 -5 0 -10 7 -10 15 0 9 9 15 25 15 20
0 25 -5 25 -25 0 -28 21 -33 40 -10 8 9 22 12 41 8 18 -3 29 -1 29 6 0 6 11
11 25 11 15 0 25 -6 25 -15 0 -8 9 -19 21 -25 16 -9 24 -8 38 4 22 20 37 20
45 1 8 -22 24 -18 51 11 28 30 25 44 -10 44 -13 0 -27 5 -31 11 -5 9 1 10 22
5 16 -4 40 -9 54 -10 14 -2 28 -4 33 -5 4 0 7 -8 7 -16 0 -8 6 -15 14 -15 24
0 30 -21 8 -27 -25 -6 -53 -64 -34 -71 7 -2 12 -10 12 -18 0 -9 11 -14 30 -14
26 0 30 -3 30 -29 0 -27 -3 -29 -47 -36 -26 -4 -56 -13 -67 -21 -29 -20 -61
-17 -107 9 -37 21 -56 48 -51 75 3 14 17 14 -193 12 -96 -1 -171 -5 -173 -11
-2 -5 -39 -9 -83 -9 -64 0 -79 -3 -79 -15 0 -13 -23 -15 -145 -15 -130 0 -146
-2 -143 -16 4 -25 -22 -29 -29 -5 -10 38 -33 25 -33 -19 l0 -40 -65 0 c-63 0
-65 1 -65 25 0 23 -4 25 -44 25 -38 0 -48 -5 -74 -34 -17 -19 -34 -41 -39 -48
-4 -7 -25 -22 -45 -32 -21 -11 -38 -23 -38 -28 0 -4 -9 -8 -20 -8 -11 0 -20 5
-20 10 0 6 -17 10 -38 10 -37 0 -38 1 -38 36 l1 37 -125 1 -125 1 -5 29 c-4
22 -11 30 -28 31 -12 1 -35 13 -50 26 -38 34 -92 90 -92 97 0 5 5 12 54 65 14
15 26 34 26 42 0 8 6 15 14 15 28 0 74 53 71 81 -3 24 -1 25 44 23 25 0 38 1
29 3 -10 2 -18 9 -18 14 0 11 38 11 65 -1z m844 3 c-9 -2 -21 -14 -26 -26 -10
-21 -10 -21 -10 6 0 23 3 27 26 26 14 -1 19 -3 10 -6z m123 -7 c13 -10 15 -15
6 -24 -14 -14 -38 -16 -38 -3 0 5 -3 16 -6 25 -7 20 14 21 38 2z m4768 4 c0
-5 -5 -10 -11 -10 -5 0 -7 5 -4 10 3 6 8 10 11 10 2 0 4 -4 4 -10z m1993 -7
c9 -3 17 -10 17 -15 0 -6 -7 -7 -16 -4 -9 3 -27 9 -40 12 -13 3 -21 10 -18 16
3 5 13 6 23 3 9 -4 24 -10 34 -12z m-6512 -75 c41 -14 31 -20 -13 -7 -29 8
-38 16 -43 41 -5 21 -3 33 6 39 11 6 15 0 17 -27 3 -29 9 -37 33 -46z m6199
42 c0 -13 -33 -17 -62 -7 -42 14 -34 23 17 19 25 -2 45 -8 45 -12z m-5310 0
c0 -5 -8 -10 -17 -10 -15 0 -16 2 -3 10 19 12 20 12 20 0z m2264 -6 c4 -10 1
-14 -6 -12 -15 5 -23 28 -10 28 5 0 13 -7 16 -16z m-2194 -40 c0 -19 -5 -24
-25 -24 -14 0 -25 5 -25 11 0 6 8 9 18 7 15 -4 18 -1 14 20 -3 17 -1 23 7 18
6 -4 11 -18 11 -32z m2577 10 c-3 -3 -12 -4 -19 -1 -8 3 -5 6 6 6 11 1 17 -2
13 -5z m2871 -25 c3 -30 23 -39 85 -39 20 0 37 -4 37 -9 0 -20 -30 -29 -110
-32 -67 -2 -93 1 -122 16 -51 25 -48 36 7 28 36 -5 45 -3 45 9 0 9 -7 21 -15
28 -26 22 -16 31 28 28 37 -3 42 -6 45 -29z m-5228 1 l35 -8 -42 -1 c-47 -1
-73 6 -73 21 0 6 9 7 23 3 12 -4 38 -10 57 -15z m-1070 6 c0 -2 -7 -6 -15 -10
-8 -3 -15 -1 -15 4 0 6 7 10 15 10 8 0 15 -2 15 -4z m70 -6 c-20 -13 -63 -13
-55 0 3 6 21 10 38 10 24 0 28 -3 17 -10z m675 0 c3 -5 -3 -10 -15 -10 -12 0
-18 5 -15 10 3 6 10 10 15 10 5 0 12 -4 15 -10z m2335 -10 c0 -5 -2 -10 -4
-10 -3 0 -8 5 -11 10 -3 6 -1 10 4 10 6 0 11 -4 11 -10z m-1517 -20 c-6 -22
-18 -26 -29 -9 -3 6 0 15 7 20 22 14 28 11 22 -11z m-1038 -22 c-11 -6 -22
-14 -25 -18 -8 -11 -51 -19 -44 -9 3 5 -1 9 -8 9 -27 1 38 29 67 29 27 0 28
-1 10 -11z m489 -4 c9 -22 8 -24 -9 -18 -8 4 -15 12 -15 20 0 19 16 18 24 -2z
m1996 6 c0 -5 -2 -10 -4 -10 -3 0 -8 5 -11 10 -3 6 -1 10 4 10 6 0 11 -4 11
-10z m-1924 -37 c-3 -3 -13 -2 -23 1 -17 7 -17 8 2 22 18 13 20 13 23 -1 2 -9
1 -19 -2 -22z m3902 13 c3 -12 -1 -17 -10 -14 -7 3 -15 13 -16 22 -3 12 1 17
10 14 7 -3 15 -13 16 -22z m-3498 10 c0 -8 -61 -12 -66 -4 -3 4 11 8 30 8 20
0 36 -2 36 -4z m-88 -15 c-7 -4 -12 -14 -10 -21 5 -21 -19 -22 -25 -1 -6 24 0
31 27 31 15 0 17 -3 8 -9z m458 5 c0 -9 -30 -14 -35 -6 -4 6 3 10 14 10 12 0
21 -2 21 -4z m-3740 -30 c0 -19 4 -23 20 -19 18 5 20 2 14 -33 -7 -46 -12 -53
-23 -35 -6 9 -10 4 -14 -16 -3 -16 0 -31 6 -35 8 -5 4 -8 -9 -8 -18 0 -21 6
-22 67 -2 71 4 103 19 103 5 0 9 -11 9 -24z m4257 18 c-3 -3 -12 -4 -19 -1 -8
3 -5 6 6 6 11 1 17 -2 13 -5z m-1077 -34 c0 -5 -15 -10 -34 -10 -19 0 -38 5
-41 10 -4 6 10 10 34 10 23 0 41 -4 41 -10z m864 -11 c-3 -5 -10 -7 -15 -3 -5
3 -7 10 -3 15 3 5 10 7 15 3 5 -3 7 -10 3 -15z m223 -5 c-3 -3 -12 -4 -19 -1
-8 3 -5 6 6 6 11 1 17 -2 13 -5z m-567 -14 c0 -5 -5 -10 -11 -10 -5 0 -7 5 -4
10 3 6 8 10 11 10 2 0 4 -4 4 -10z m-650 -35 c0 -18 -5 -25 -20 -25 -15 0 -20
7 -20 25 0 18 5 25 20 25 15 0 20 -7 20 -25z m828 18 c-16 -2 -40 -2 -55 0
-16 2 -3 4 27 4 30 0 43 -2 28 -4z m-1197 -48 c-1 -15 -24 -12 -29 3 -3 9 2
13 12 10 10 -1 17 -7 17 -13z m209 -10 c0 -16 -35 -21 -44 -6 -8 12 4 21 26
21 10 0 18 -7 18 -15z m1185 -15 c-3 -5 -13 -10 -21 -10 -8 0 -12 5 -9 10 3 6
13 10 21 10 8 0 12 -4 9 -10z m-968 -6 c-3 -3 -12 -4 -19 -1 -8 3 -5 6 6 6 11
1 17 -2 13 -5z m123 2 c0 -3 -4 -8 -10 -11 -5 -3 -10 -1 -10 4 0 6 5 11 10 11
6 0 10 -2 10 -4z m470 -36 c0 -4 -7 -13 -15 -20 -13 -11 -15 -8 -15 13 0 19 4
25 15 21 8 -4 15 -10 15 -14z m-107 -47 c-7 -2 -19 -2 -25 0 -7 3 -2 5 12 5
14 0 19 -2 13 -5z m184 -75 c-2 -13 -4 -3 -4 22 0 25 2 35 4 23 2 -13 2 -33 0
-45z m1373 -552 c0 -3 -4 -8 -10 -11 -5 -3 -10 -1 -10 4 0 6 5 11 10 11 6 0
10 -2 10 -4z m270 -131 c0 -8 -4 -15 -10 -15 -5 0 -10 7 -10 15 0 8 5 15 10
15 6 0 10 -7 10 -15z m197 -82 c-3 -10 -5 -4 -5 12 0 17 2 24 5 18 2 -7 2 -21
0 -30z m1119 -320 c-8 -8 -36 5 -36 17 0 7 6 7 21 0 11 -7 18 -14 15 -17z
m136 -18 c6 -28 -6 -34 -16 -9 -5 14 0 34 8 34 2 0 6 -11 8 -25z m312 9 c8
-21 -73 -57 -109 -48 -33 8 -32 19 3 31 101 37 99 37 106 17z m2026 -24 c0 -5
-7 -7 -15 -4 -8 4 -15 8 -15 10 0 2 7 4 15 4 8 0 15 -4 15 -10z m-1950 -80 c0
-5 -6 -10 -14 -10 -8 0 -18 5 -21 10 -3 6 3 10 14 10 12 0 21 -4 21 -10z m320
0 c0 -5 -4 -10 -9 -10 -6 0 -13 5 -16 10 -3 6 1 10 9 10 9 0 16 -4 16 -10z
m1331 -10 c28 -16 25 -50 -5 -50 -17 0 -29 9 -40 30 -14 28 -13 30 5 30 11 0
29 -5 40 -10z m399 -30 c0 -5 -4 -10 -10 -10 -5 0 -10 5 -10 10 0 6 5 10 10
10 6 0 10 -4 10 -10z m807 4 c-3 -3 -12 -4 -19 -1 -8 3 -5 6 6 6 11 1 17 -2
13 -5z m-1087 -13 c0 -5 -7 -12 -16 -15 -22 -9 -24 -8 -24 9 0 8 9 15 20 15
11 0 20 -4 20 -9z m3687 -208 c-2 -16 -4 -5 -4 22 0 28 2 40 4 28 2 -13 2 -35
0 -50z"/>
<path d="M2220 5236 c0 -2 7 -7 16 -10 8 -3 12 -2 9 4 -6 10 -25 14 -25 6z"/>
<path d="M1778 5113 c6 -2 18 -2 25 0 6 3 1 5 -13 5 -14 0 -19 -2 -12 -5z"/>
<path d="M2185 5021 c-8 -14 10 -22 30 -15 13 5 14 8 3 15 -17 11 -26 11 -33
0z"/>
<path d="M1395 4730 c-3 -5 -1 -10 4 -10 6 0 11 5 11 10 0 6 -2 10 -4 10 -3 0
-8 -4 -11 -10z"/>
<path d="M1240 4720 c0 -5 5 -10 10 -10 6 0 10 5 10 10 0 6 -4 10 -10 10 -5 0
-10 -4 -10 -10z"/>
<path d="M1456 4716 c3 -9 11 -16 16 -16 13 0 5 23 -10 28 -7 2 -10 -2 -6 -12z"/>
<path d="M1090 4656 c0 -8 5 -18 10 -21 6 -3 10 -1 10 4 0 6 10 11 22 11 27 0
21 5 -14 14 -21 5 -28 3 -28 -8z"/>
<path d="M10018 4219 c-26 -15 -23 -64 4 -83 30 -21 61 -20 81 2 48 53 -22
118 -85 81z"/>
<path d="M41 3827 c-1 -36 3 -56 9 -52 12 7 12 49 0 85 -6 19 -8 11 -9 -33z"/>
<path d="M41 3724 c0 -11 3 -14 6 -6 3 7 2 16 -1 19 -3 4 -6 -2 -5 -13z"/>
<path d="M1212 2770 c-11 -17 -10 -20 7 -20 14 0 18 5 14 20 -3 11 -6 20 -7
20 -1 0 -7 -9 -14 -20z"/>
<path d="M1250 2676 c0 -20 27 -69 43 -77 19 -11 20 -9 13 21 -3 18 -14 39
-24 46 -16 13 -32 18 -32 10z"/>
<path d="M908 2612 c-16 -9 -28 -22 -28 -29 0 -7 -5 -13 -11 -13 -6 0 -9 -16
-7 -37 3 -33 7 -39 33 -44 53 -10 65 4 65 76 0 71 -6 76 -52 47z"/>
<path d="M4602 3808 c-10 -13 -16 -69 -28 -239 -6 -79 -5 -88 15 -108 15 -15
35 -21 69 -22 85 -3 277 2 294 7 31 9 41 72 33 208 -4 74 -12 129 -18 134 -11
9 -249 32 -324 32 -17 0 -35 -6 -41 -12z m329 -124 c13 -118 10 -163 -11 -184
-21 -21 -37 -25 -58 -12 -10 7 -9 29 4 113 9 57 20 114 25 127 15 39 34 19 40
-44z"/>
<path d="M5720 3590 c-25 -25 -25 -46 -1 -59 29 -16 80 5 87 36 11 44 -49 60
-86 23z"/>
<path d="M5337 3472 c-32 -33 -36 -78 -8 -87 43 -13 115 44 109 87 -2 18 -10
24 -38 26 -28 2 -41 -3 -63 -26z"/>
<path d="M2993 3323 c9 -2 23 -2 30 0 6 3 -1 5 -18 5 -16 0 -22 -2 -12 -5z"/>
<path d="M6433 3600 c-19 -8 -43 -38 -43 -54 0 -3 9 -10 21 -16 24 -14 114 12
123 36 15 39 -40 58 -101 34z"/>
<path d="M8136 3744 c-39 -7 -75 -19 -80 -25 -7 -6 -10 -63 -9 -152 2 -132 1
-142 -19 -155 -18 -13 -20 -22 -15 -72 8 -74 13 -85 44 -99 21 -9 30 -9 49 4
19 12 24 24 24 60 0 58 7 60 169 68 84 3 128 9 136 19 8 8 15 66 19 169 6 143
5 157 -12 172 -10 9 -31 16 -48 16 -16 0 -65 2 -109 5 -50 3 -106 -1 -149 -10z
m260 -59 c4 -8 2 -68 -4 -131 -10 -113 -20 -139 -47 -130 -26 8 5 276 32 276
7 0 16 -7 19 -15z m-308 -378 c2 -10 -3 -17 -12 -17 -10 0 -16 9 -16 21 0 24
23 21 28 -4z"/>
<path d="M7630 3431 c0 -5 7 -11 15 -15 8 -3 15 -12 15 -20 0 -7 -7 -16 -15
-20 -25 -9 -17 -26 14 -26 35 0 48 33 25 67 -14 22 -54 32 -54 14z"/>
<path d="M10025 3456 c-32 -32 -32 -70 -1 -101 34 -34 70 -41 102 -21 41 28
50 58 28 103 -17 34 -23 38 -61 41 -35 3 -48 -2 -68 -22z"/>
<path d="M7329 2756 c-16 -35 -18 -49 -9 -65 25 -49 90 -10 90 54 0 68 -51 75
-81 11z"/>
<path d="M6664 2805 c-49 -22 -104 -89 -104 -129 0 -41 50 -113 85 -122 31 -8
102 3 132 19 71 39 97 144 48 193 -28 28 -84 54 -112 53 -10 0 -32 -7 -49 -14z"/>
<path d="M945 1860 c3 -5 8 -10 11 -10 2 0 4 5 4 10 0 6 -5 10 -11 10 -5 0 -7
-4 -4 -10z"/>
<path d="M10720 10790 c0 -5 6 -10 14 -10 8 0 18 5 21 10 3 6 -3 10 -14 10
-12 0 -21 -4 -21 -10z"/>
<path d="M10783 10793 c9 -2 23 -2 30 0 6 3 -1 5 -18 5 -16 0 -22 -2 -12 -5z"/>
<path d="M10940 10788 c1 -21 26 -48 46 -49 40 -4 54 2 69 31 l16 30 -66 0
c-45 0 -65 -4 -65 -12z"/>
<path d="M12348 10790 c31 -13 36 -31 17 -66 -30 -57 -13 -120 44 -161 16 -13
39 -23 50 -23 24 0 36 -27 13 -33 -9 -3 -4 -5 12 -6 24 -1 27 -4 22 -23 -31
-106 13 -198 95 -198 21 0 48 -4 61 -9 13 -5 75 -5 143 -1 89 7 122 6 127 -3
4 -7 8 -7 9 -2 0 6 4 1 9 -10 5 -12 9 95 9 263 l1 282 -317 -1 c-202 0 -310
-4 -295 -9z"/>
<path d="M10655 10700 c-4 -6 4 -19 17 -30 30 -24 49 -8 23 20 -20 22 -31 25
-40 10z"/>
<path d="M9647 10544 c-6 -35 2 -64 19 -64 8 0 14 5 14 10 0 6 -5 10 -11 10
-8 0 -10 12 -6 35 7 40 -8 48 -16 9z"/>
<path d="M10146 10531 c-4 -7 -5 -15 -2 -18 9 -9 19 4 14 18 -4 11 -6 11 -12
0z"/>
<path d="M9870 10514 c0 -17 22 -14 28 4 2 7 -3 12 -12 12 -9 0 -16 -7 -16
-16z"/>
<path d="M9640 10449 c0 -10 -3 -24 -6 -33 -9 -24 23 -31 62 -13 26 13 34 23
34 42 0 24 -3 26 -45 24 -35 -2 -45 -7 -45 -20z"/>
<path d="M5543 10272 c-13 -2 -23 -7 -23 -12 0 -5 -8 -11 -17 -13 -10 -3 30
-5 90 -6 64 -1 107 3 107 9 0 17 -96 31 -157 22z"/>
<path d="M2830 9801 l0 -40 58 -6 c65 -7 97 -9 130 -7 23 2 23 2 -8 47 l-31
45 -74 0 -75 0 0 -39z"/>
<path d="M6321 9646 c-1 -42 1 -47 14 -36 10 8 12 17 6 24 -5 6 -11 22 -14 36
-2 14 -5 4 -6 -24z"/>
<path d="M545 8820 c3 -5 8 -10 11 -10 2 0 4 5 4 10 0 6 -5 10 -11 10 -5 0 -7
-4 -4 -10z"/>
<path d="M260 8470 c0 -5 5 -10 10 -10 6 0 10 5 10 10 0 6 -4 10 -10 10 -5 0
-10 -4 -10 -10z"/>
<path d="M7942 7978 c-7 -7 -12 -31 -12 -55 0 -35 3 -43 19 -43 10 0 23 6 28
13 38 48 6 126 -35 85z"/>
<path d="M7670 7919 c-14 -26 -3 -96 16 -103 41 -16 56 22 38 102 -6 28 -39
29 -54 1z"/>
<path d="M45 7520 c0 -223 1 -314 2 -202 2 111 2 293 0 405 -1 111 -2 20 -2
-203z"/>
<path d="M7461 7896 c-31 -37 13 -97 46 -63 13 13 15 22 7 44 -11 32 -35 41
-53 19z"/>
<path d="M7925 7816 c-24 -17 -26 -84 -3 -99 24 -16 44 6 53 55 6 30 3 38 -13
47 -14 7 -24 7 -37 -3z"/>
<path d="M7453 7765 c-3 -9 1 -35 10 -58 8 -23 17 -61 20 -85 6 -52 21 -72 54
-72 32 0 38 23 19 73 -9 24 -16 55 -16 70 0 45 -27 87 -56 87 -13 0 -27 -7
-31 -15z"/>
<path d="M7670 7730 c-35 -35 -21 -90 22 -90 39 0 50 90 13 104 -9 3 -24 -3
-35 -14z"/>
<path d="M9715 7020 c3 -5 10 -10 16 -10 5 0 9 5 9 10 0 6 -7 10 -16 10 -8 0
-12 -4 -9 -10z"/>
<path d="M9786 7021 c-4 -6 -2 -11 3 -11 6 0 11 -11 11 -24 0 -22 6 -26 53
-35 28 -6 106 -15 172 -21 66 -6 142 -18 169 -26 27 -8 71 -14 97 -14 26 0 60
-5 76 -11 15 -6 49 -11 74 -10 25 1 66 -5 90 -14 42 -16 99 -26 254 -44 39 -4
90 -14 115 -21 25 -7 56 -14 70 -15 26 -2 178 -52 195 -64 13 -10 76 -28 152
-45 35 -8 78 -24 97 -35 19 -12 72 -30 118 -41 137 -31 158 -37 173 -50 9 -7
38 -14 65 -15 29 -2 66 -12 86 -24 19 -12 40 -21 46 -21 6 0 20 -7 29 -16 10
-9 35 -20 56 -25 117 -25 140 -31 155 -39 10 -6 23 -10 30 -10 7 0 25 -6 39
-13 14 -8 45 -17 69 -21 24 -4 49 -11 55 -16 6 -5 69 -11 140 -13 72 -3 138
-8 148 -12 13 -5 17 -2 16 11 0 11 -3 14 -6 7 -3 -10 -7 -10 -18 0 -7 7 -11
15 -8 20 2 4 -15 7 -38 7 -23 0 -50 6 -58 14 -9 8 -41 19 -71 24 -30 6 -77 21
-105 34 -33 15 -64 21 -92 19 -26 -2 -50 3 -66 14 -17 11 -27 13 -32 5 -7 -11
-55 18 -85 51 -8 9 -42 24 -75 32 -33 9 -80 22 -105 31 -25 8 -63 19 -85 24
-22 6 -80 22 -130 37 -49 14 -119 33 -155 41 -36 8 -135 37 -220 63 -85 27
-218 63 -295 81 -77 18 -161 39 -186 46 -26 8 -85 21 -130 29 -46 8 -131 23
-189 33 -58 11 -148 25 -200 32 -52 6 -120 16 -150 22 -30 6 -95 14 -145 19
-49 5 -115 11 -146 15 -37 4 -59 2 -63 -5z"/>
<path d="M4693 6783 c4 -3 2 -12 -4 -20 -9 -10 -3 -13 32 -12 24 1 34 4 22 6
-13 2 -23 11 -23 19 0 8 -7 14 -17 14 -9 0 -13 -3 -10 -7z"/>
<path d="M4000 6760 c0 -5 13 -10 29 -10 17 0 33 5 36 10 4 6 -8 10 -29 10
-20 0 -36 -4 -36 -10z"/>
<path d="M3414 6653 c-6 -22 -2 -31 22 -49 24 -20 31 -21 42 -10 11 11 9 19
-8 49 -26 44 -47 47 -56 10z"/>
<path d="M3150 6638 c-36 -11 -71 -22 -77 -24 -7 -2 -13 -9 -13 -15 0 -16 107
-2 144 19 28 16 37 34 19 39 -4 1 -37 -7 -73 -19z"/>
<path d="M2920 6580 c-8 -5 -12 -12 -8 -15 9 -9 48 4 48 16 0 12 -21 11 -40
-1z"/>
<path d="M820 6487 c0 -20 5 -37 10 -37 16 0 16 47 -1 65 -5 5 -9 -5 -9 -28z"/>
<path d="M12948 6368 l-2 -73 -6 70 -6 70 -2 -58 c-2 -56 -2 -57 -24 -46 -13
7 -26 17 -30 22 -10 16 -80 -41 -76 -61 2 -10 13 -18 25 -20 17 -3 21 -10 21
-33 -1 -16 -5 -32 -10 -35 -5 -4 0 -13 11 -21 12 -8 25 -12 30 -9 5 3 11 -1
15 -9 10 -28 26 -15 28 23 1 34 2 33 8 -13 l7 -50 3 50 3 50 7 -50 c5 -33 7 3
8 108 1 86 0 157 -3 157 -3 0 -6 -33 -7 -72z"/>
<path d="M12663 6337 c-22 -30 -9 -42 46 -42 35 0 56 -5 59 -12 6 -20 22 -15
22 7 0 14 -7 20 -21 20 -12 0 -23 8 -26 18 -5 22 -66 29 -80 9z"/>
<path d="M5751 5634 c0 -11 3 -14 6 -6 3 7 2 16 -1 19 -3 4 -6 -2 -5 -13z"/>
<path d="M4770 5510 c0 -6 7 -10 15 -10 8 0 15 2 15 4 0 2 -7 6 -15 10 -8 3
-15 1 -15 -4z"/>
<path d="M6410 5479 c0 -5 5 -7 10 -4 6 3 10 8 10 11 0 2 -4 4 -10 4 -5 0 -10
-5 -10 -11z"/>
<path d="M3980 5336 c0 -30 3 -61 6 -70 9 -23 50 -20 68 6 14 20 14 24 -5 44
-12 13 -27 20 -35 17 -8 -3 -14 1 -14 10 0 8 6 17 12 19 8 3 4 9 -10 17 -22
11 -22 11 -22 -43z"/>
<path d="M4930 5189 c0 -5 5 -7 10 -4 6 3 10 8 10 11 0 2 -4 4 -10 4 -5 0 -10
-5 -10 -11z"/>
<path d="M12578 5193 c-10 -2 -18 -8 -18 -11 1 -15 78 -42 118 -42 38 0 42 2
42 25 0 17 -4 23 -14 19 -8 -3 -17 -1 -21 5 -6 11 -73 13 -107 4z"/>
<path d="M3569 5084 c-9 -59 -7 -62 47 -74 28 -7 36 -5 45 11 8 16 21 19 82
19 66 0 73 2 74 20 2 19 -4 20 -107 20 -60 0 -115 3 -124 6 -9 3 -17 2 -17 -2z"/>
<path d="M3886 5050 c-16 -5 -15 -8 12 -19 27 -11 37 -11 69 2 21 9 31 17 23
18 -44 5 -87 5 -104 -1z"/>
<path d="M9247 4963 c-17 -16 -4 -24 31 -19 20 3 40 5 45 6 4 0 7 5 7 10 0 11
-73 14 -83 3z"/>
<path d="M8952 4918 c5 -15 48 -18 48 -3 0 6 -11 11 -26 13 -18 3 -25 0 -22
-10z"/>
<path d="M9225 4751 c-3 -5 -1 -12 5 -16 5 -3 10 1 10 9 0 18 -6 21 -15 7z"/>
<path d="M12873 4655 c0 -38 2 -53 4 -32 2 20 2 52 0 70 -2 17 -4 1 -4 -38z"/>
<path d="M10458 3873 c7 -3 16 -2 19 1 4 3 -2 6 -13 5 -11 0 -14 -3 -6 -6z"/>
<path d="M12723 3807 c-9 -15 18 -35 59 -41 46 -7 138 18 138 37 0 14 -189 17
-197 4z"/>
<path d="M12335 2724 c-11 -3 -47 -10 -80 -16 -63 -12 -77 -22 -68 -45 5 -12
26 -14 102 -12 53 1 161 -3 241 -10 133 -12 347 -11 395 2 11 3 23 6 28 6 4 1
7 10 7 20 0 15 -6 19 -22 16 -95 -14 -130 -15 -151 -3 -21 13 -113 18 -283 18
-61 -1 -84 3 -94 15 -12 15 -33 17 -75 9z"/>
<path d="M12321 2511 c-22 -14 -4 -48 31 -55 39 -8 173 -8 181 0 12 12 -6 33
-36 43 -48 14 -160 22 -176 12z"/>
<path d="M9142 2298 c-7 -7 -12 -27 -12 -45 0 -24 -8 -41 -26 -58 -16 -15 -24
-32 -22 -47 5 -35 67 -31 106 8 57 57 66 98 29 132 -26 24 -57 28 -75 10z"/>
<path d="M11625 2254 c-33 -7 -82 -17 -110 -21 -37 -6 -51 -13 -53 -27 -7 -37
51 -46 146 -25 42 10 57 9 89 -4 33 -13 77 -15 264 -12 232 4 302 14 323 47 8
13 7 21 -2 30 -9 9 -30 9 -95 0 -103 -15 -142 -15 -169 -1 -16 9 -48 8 -126
-1 -100 -12 -105 -11 -133 9 -32 24 -49 24 -134 5z"/>
<path d="M5940 2211 c0 -5 7 -12 16 -15 24 -9 28 -7 14 9 -14 17 -30 20 -30 6z"/>
<path d="M5248 2173 c7 -3 16 -2 19 1 4 3 -2 6 -13 5 -11 0 -14 -3 -6 -6z"/>
<path d="M5380 2100 c0 -5 7 -10 16 -10 8 0 12 5 9 10 -3 6 -10 10 -16 10 -5
0 -9 -4 -9 -10z"/>
<path d="M11134 2049 c-8 -14 7 -36 32 -48 14 -6 57 -11 97 -11 53 0 79 -5 97
-17 22 -16 53 -18 245 -19 121 -1 249 -4 285 -8 59 -7 289 13 343 30 23 7 22
31 -2 44 -26 13 -179 14 -214 1 -41 -16 -105 -13 -137 6 -26 15 -35 15 -85 3
-31 -7 -71 -13 -88 -11 -60 3 -152 4 -209 0 -48 -3 -60 -1 -77 18 -19 20 -29
22 -152 20 -72 -1 -132 -4 -135 -8z"/>
<path d="M4378 1963 c7 -3 16 -2 19 1 4 3 -2 6 -13 5 -11 0 -14 -3 -6 -6z"/>
<path d="M4920 1960 c0 -5 9 -10 20 -10 11 0 20 5 20 10 0 6 -9 10 -20 10 -11
0 -20 -4 -20 -10z"/>
<path d="M4240 1940 c0 -5 5 -10 10 -10 6 0 10 5 10 10 0 6 -4 10 -10 10 -5 0
-10 -4 -10 -10z"/>
<path d="M9668 1933 c-26 -2 -52 -11 -59 -20 -21 -24 23 -55 66 -47 23 4 45
-1 76 -17 25 -12 61 -22 84 -21 373 4 474 3 548 -7 48 -6 91 -9 96 -7 4 3 76
8 159 12 168 6 294 24 300 42 7 21 -46 25 -231 17 -276 -11 -323 -9 -364 15
-43 25 -64 25 -131 0 -57 -22 -118 -19 -159 6 -29 18 -72 18 -116 -1 -55 -23
-100 -19 -125 10 -23 26 -29 27 -144 18z"/>
<path d="M5180 1625 c0 -9 5 -15 11 -13 6 2 11 8 11 13 0 5 -5 11 -11 13 -6 2
-11 -4 -11 -13z"/>
<path d="M5684 1625 c-3 -8 -3 -19 1 -25 11 -18 25 -11 25 15 0 27 -17 34 -26
10z"/>
<path d="M5360 1424 c0 -8 5 -12 10 -9 6 3 10 10 10 16 0 5 -4 9 -10 9 -5 0
-10 -7 -10 -16z"/>
<path d="M6040 1422 c0 -13 -6 -22 -15 -22 -8 0 -15 -6 -15 -14 0 -21 38 -8
46 16 3 11 1 25 -5 31 -8 8 -11 5 -11 -11z"/>
<path d="M5656 1378 c10 -64 24 -70 24 -10 0 40 -4 52 -15 52 -12 0 -14 -8 -9
-42z"/>
<path d="M5420 1340 c0 -5 5 -10 10 -10 6 0 10 5 10 10 0 6 -4 10 -10 10 -5 0
-10 -4 -10 -10z"/>
<path d="M5849 1295 c-1 -3 -2 -8 -3 -12 -1 -5 -5 -14 -10 -22 -6 -9 -5 -12 2
-7 5 3 13 0 15 -6 8 -20 26 10 20 33 -5 17 -21 27 -24 14z"/>
<path d="M5905 1270 c3 -5 8 -10 11 -10 2 0 4 5 4 10 0 6 -5 10 -11 10 -5 0
-7 -4 -4 -10z"/>
<path d="M5720 1190 c0 -5 5 -10 11 -10 5 0 7 5 4 10 -3 6 -8 10 -11 10 -2 0
-4 -4 -4 -10z"/>
<path d="M5788 1153 c7 -3 16 -2 19 1 4 3 -2 6 -13 5 -11 0 -14 -3 -6 -6z"/>
<path d="M6077 1059 c7 -7 15 -10 18 -7 3 3 -2 9 -12 12 -14 6 -15 5 -6 -5z"/>
<path d="M6120 1062 c0 -14 11 -21 26 -15 8 3 11 9 8 14 -7 11 -34 12 -34 1z"/>
<path d="M6790 970 c0 -5 4 -10 9 -10 6 0 13 5 16 10 3 6 -1 10 -9 10 -9 0
-16 -4 -16 -10z"/>
<path d="M6728 903 c6 -2 18 -2 25 0 6 3 1 5 -13 5 -14 0 -19 -2 -12 -5z"/>
<path d="M7300 870 c0 -5 5 -10 10 -10 6 0 10 5 10 10 0 6 -4 10 -10 10 -5 0
-10 -4 -10 -10z"/>
<path d="M12932 855 c0 -16 2 -22 5 -12 2 9 2 23 0 30 -3 6 -5 -1 -5 -18z"/>
<path d="M9365 820 c-10 -16 4 -30 31 -30 22 0 23 3 14 20 -11 21 -35 27 -45
10z"/>
<path d="M9160 797 c0 -8 8 -21 18 -30 16 -14 21 -15 37 -3 17 12 17 14 -6 29
-28 20 -49 22 -49 4z"/>
<path d="M7630 757 c0 -21 11 -27 31 -16 27 14 23 29 -6 29 -14 0 -25 -6 -25
-13z"/>
<path d="M7635 680 c-4 -6 7 -10 25 -10 18 0 29 4 25 10 -3 6 -15 10 -25 10
-10 0 -22 -4 -25 -10z"/>
</g>
</svg>
