<?xml version="1.0" standalone="no"?>
<!DOCTYPE svg PUBLIC "-//W3C//DTD SVG 20010904//EN"
 "http://www.w3.org/TR/2001/REC-SVG-20010904/DTD/svg10.dtd">
<svg version="1.0" xmlns="http://www.w3.org/2000/svg"
 width="1296.000000pt" height="1080.000000pt" viewBox="0 0 1296.000000 1080.000000"
 preserveAspectRatio="xMidYMid meet">
<metadata>
Created by potrace 1.16, written by Peter Selinger 2001-2019
</metadata>
<g transform="translate(0.000000,1080.000000) scale(0.100000,-0.100000)"
fill="#000000" stroke="none">
<path d="M2 8968 c1 -1008 5 -1732 8 -1608 l6 225 4 -235 4 -235 6 225 5 225
95 3 c52 1 129 5 170 9 41 3 133 0 204 -7 84 -8 130 -9 135 -3 3 6 37 16 74
23 55 10 76 10 107 0 22 -7 56 -10 81 -6 117 16 150 18 161 8 18 -14 205 -52
223 -46 8 4 15 11 15 16 0 15 91 3 129 -16 32 -17 126 -22 135 -7 8 12 140 29
264 35 81 3 104 1 110 -10 13 -23 84 -54 124 -54 21 0 61 9 90 20 29 11 54 20
56 20 1 0 2 -34 2 -75 0 -41 5 -96 11 -122 14 -58 59 -156 93 -202 14 -19 26
-40 26 -46 0 -6 22 -38 48 -71 61 -76 122 -176 122 -201 0 -16 -11 -22 -57
-32 -102 -22 -176 -40 -243 -56 -103 -26 -183 -45 -210 -49 -14 -2 -36 -8 -50
-14 -14 -6 -61 -18 -105 -28 -44 -9 -84 -20 -90 -24 -5 -4 -41 -13 -80 -19
-38 -7 -89 -19 -113 -27 -50 -16 -86 -18 -77 -4 3 6 0 10 -8 10 -8 0 -17 -8
-20 -19 -3 -14 -23 -22 -78 -35 -41 -9 -84 -13 -97 -10 -14 4 -29 0 -41 -10
-22 -20 -46 -26 -131 -31 -35 -2 -66 -8 -68 -13 -1 -5 -20 -6 -42 -2 -25 5
-51 2 -77 -8 -37 -14 -62 -18 -123 -21 -23 -1 -30 -6 -30 -21 0 -14 -7 -20
-23 -20 -13 0 -27 -4 -33 -9 -12 -11 -135 -24 -133 -14 4 23 -3 25 -17 5 -15
-21 -74 -32 -74 -14 0 5 -13 7 -30 4 -43 -6 -71 3 -108 38 -45 41 -75 46 -139
25 -49 -17 -70 -35 -40 -35 8 0 7 -4 -3 -10 -13 -8 -12 -10 3 -10 10 0 15 -5
12 -10 -3 -6 4 -14 17 -19 15 -7 18 -10 7 -10 -9 -1 -20 -12 -23 -26 -5 -20
-13 -25 -38 -25 -17 0 -36 -7 -42 -15 -6 -8 -23 -16 -39 -17 -15 -1 -28 -9
-29 -18 -2 -8 -5 120 -8 285 l-5 300 -4 -305 c-2 -168 -7 -291 -11 -275 -4 17
-8 -1382 -9 -3107 l-1 -3138 6480 0 6480 0 -1 63 c0 44 -3 56 -9 42 -6 -14 -9
-15 -10 -5 -1 11 -3 10 -9 -3 -6 -17 -8 -17 -29 1 -30 26 -30 69 1 68 12 -1
25 -8 29 -16 5 -12 7 -10 8 5 l1 20 9 -20 c5 -12 8 121 7 315 0 202 -3 293 -7
230 -4 -74 -7 -10 -10 215 l-4 320 -6 -245 c-3 -135 -7 -210 -8 -168 -2 79
-19 118 -50 118 -11 0 -13 -16 -8 -82 14 -175 15 -250 4 -276 l-11 -27 -8 40
c-4 22 -5 52 -2 68 3 16 1 27 -6 27 -6 0 -11 7 -11 15 0 8 -4 15 -10 15 -5 0
-10 9 -10 20 0 11 5 20 10 20 6 0 10 22 10 49 0 28 -4 53 -10 56 -5 3 -10 30
-10 60 0 30 -5 78 -11 107 -23 105 -90 291 -129 356 -30 48 -40 77 -40 107 0
32 -6 46 -25 63 -14 12 -25 33 -25 47 0 13 -9 40 -20 60 -11 20 -20 42 -20 50
0 8 -7 15 -16 15 -12 0 -15 -6 -10 -22 3 -13 11 -52 18 -88 6 -36 15 -69 20
-75 4 -5 8 -17 8 -27 0 -10 16 -47 35 -83 26 -49 33 -73 28 -95 -3 -17 -1 -36
5 -43 11 -13 32 -87 34 -117 1 -8 7 -24 14 -35 20 -28 17 -35 -14 -35 -15 0
-35 9 -45 20 -14 16 -26 19 -64 16 -62 -6 -76 5 -67 59 4 27 2 45 -5 49 -6 4
-11 18 -11 32 0 27 -49 139 -57 130 -9 -9 -12 -106 -3 -111 4 -3 11 -40 15
-83 10 -115 10 -115 57 -107 30 5 44 3 59 -11 29 -26 7 -44 -54 -44 l-50 0 6
-35 c3 -19 2 -35 -3 -35 -9 0 -20 25 -20 48 0 9 -23 37 -51 61 -39 33 -53 41
-62 32 -9 -9 -8 -15 6 -22 19 -11 23 -44 6 -54 -20 -13 -48 25 -47 66 0 25
-11 60 -32 101 -26 50 -34 81 -41 153 -11 122 -24 192 -44 245 -9 25 -24 77
-34 116 -20 82 -27 94 -48 94 -12 0 -14 -8 -9 -42 7 -51 7 -58 0 -126 -6 -51
-7 -53 -21 -32 -11 16 -23 20 -51 18 -39 -3 -36 2 -45 -120 -1 -13 -10 -18
-34 -18 -18 0 -32 3 -32 8 4 22 -4 33 -34 45 -18 8 -34 22 -35 33 -1 10 -5 46
-8 79 -3 33 -10 64 -15 70 -5 5 -9 19 -9 31 0 13 -4 26 -10 29 -5 3 -10 15
-10 26 0 10 -4 19 -9 19 -5 0 -12 12 -15 28 -4 15 -13 41 -20 57 -35 77 -46
107 -46 126 0 12 -14 39 -31 60 -17 21 -28 39 -25 39 4 0 0 10 -8 23 -7 12
-17 36 -21 52 -12 52 -95 184 -126 199 -30 15 -48 5 -31 -17 5 -7 17 -47 26
-89 10 -43 21 -80 27 -83 5 -4 9 -14 9 -24 0 -9 6 -23 12 -29 12 -12 40 -176
40 -231 0 -14 7 -25 18 -28 26 -7 22 -53 -6 -53 -14 0 -25 12 -38 40 -10 23
-30 48 -44 57 -46 28 -82 66 -82 85 0 10 -6 18 -14 18 -20 0 -28 30 -25 101 2
58 2 61 -31 80 -18 11 -39 27 -47 34 -22 23 -43 8 -33 -23 8 -31 -5 -76 -20
-67 -5 3 -10 13 -10 21 0 8 -4 14 -10 14 -12 0 -29 31 -33 62 -3 17 -11 24
-31 26 -27 3 -95 -22 -97 -36 0 -4 -2 -47 -3 -97 -5 -181 -36 -175 -42 9 -2
61 -6 121 -9 134 -6 25 -45 31 -45 7 0 -21 -29 -19 -37 3 -4 9 -18 33 -31 52
-13 19 -30 49 -39 67 -8 18 -22 33 -29 33 -8 0 -14 6 -14 13 0 21 -51 122 -66
130 -8 4 -14 15 -14 23 0 9 -11 30 -25 48 -14 18 -25 40 -25 49 0 8 -6 22 -13
29 -8 7 -16 31 -20 53 -3 22 -9 50 -13 62 -6 21 -4 22 25 17 22 -5 32 -2 36 9
7 17 -22 124 -36 132 -5 4 -9 17 -9 29 0 18 6 25 28 28 38 5 62 -1 62 -17 0
-7 7 -18 15 -25 8 -7 15 -25 15 -40 0 -15 7 -34 16 -41 9 -8 25 -33 35 -56 13
-31 24 -43 39 -43 11 0 20 7 20 15 0 22 -45 108 -64 124 -24 20 -19 46 9 59
14 6 25 18 25 26 0 16 94 41 112 30 14 -9 441 -5 705 6 130 5 214 5 227 -1 12
-6 36 -33 54 -60 43 -66 66 -59 51 16 -4 18 2 20 48 23 29 2 79 -2 110 -9 67
-13 56 -13 196 3 59 6 107 15 107 19 0 18 -30 22 -159 25 -292 7 -371 12 -384
23 -10 8 -49 7 -148 -3 -218 -21 -687 -7 -948 30 -58 7 -150 14 -205 14 -56 0
-136 7 -178 15 -167 32 -612 48 -898 33 -138 -7 -275 -41 -275 -68 0 -23 39
-23 92 -1 71 29 301 46 424 31 52 -6 159 -15 239 -20 80 -5 155 -12 168 -16
28 -8 25 -35 -6 -49 -12 -5 -22 -13 -22 -16 0 -16 79 -15 130 2 30 10 82 19
115 21 l60 3 6 -45 c3 -25 11 -58 17 -73 7 -16 12 -39 12 -52 0 -13 7 -30 15
-39 8 -8 22 -43 31 -78 9 -35 23 -75 30 -90 8 -15 14 -36 14 -47 0 -11 16 -57
36 -103 37 -87 58 -208 35 -208 -6 0 -11 6 -11 13 0 7 -9 23 -20 35 -11 12
-23 35 -26 51 -4 17 -15 38 -25 47 -12 11 -19 31 -19 53 0 27 -7 43 -30 64
-23 22 -30 37 -30 67 0 37 -37 116 -65 140 -17 14 -19 1 -16 -95 1 -46 0 -49
-14 -31 -8 11 -15 25 -15 32 0 7 -19 32 -42 57 -45 47 -41 46 -129 38 -17 -2
-16 -42 1 -51 28 -15 38 -12 44 12 3 13 3 -10 0 -51 -4 -66 -2 -78 21 -117 29
-50 37 -53 57 -22 8 12 19 18 26 14 26 -16 3 -122 -24 -112 -17 7 -21 -19 -13
-75 4 -26 3 -64 -2 -85 -4 -22 -9 -56 -9 -76 0 -20 -5 -40 -10 -43 -6 -4 -8
-10 -6 -14 10 -15 14 -88 6 -100 -14 -24 -33 -1 -27 34 4 22 0 36 -11 46 -10
8 -28 29 -42 46 -14 18 -30 29 -35 25 -26 -17 -65 -131 -65 -186 0 -78 -29
-129 -43 -76 -7 26 -35 26 -63 -1 -21 -20 -51 -19 -39 2 4 5 -10 9 -30 9 -24
0 -34 -4 -29 -11 11 -18 -164 -5 -202 15 -17 9 -63 22 -103 30 -40 7 -76 18
-80 23 -3 6 -18 13 -32 16 -14 4 -36 16 -49 27 -13 11 -35 23 -49 27 -14 3
-42 14 -61 25 -19 10 -49 21 -67 24 -26 5 -33 11 -33 30 0 13 -9 28 -21 35
-17 9 -25 7 -43 -10 -27 -25 -44 -26 -74 -5 -29 20 -28 34 2 34 28 0 49 22 44
47 -5 26 -50 39 -95 27 -30 -7 -37 -14 -35 -29 2 -11 10 -25 18 -31 18 -15 18
-24 -1 -24 -9 0 -30 -7 -47 -16 l-30 -16 6 89 c3 48 8 135 11 193 3 58 8 149
11 202 4 53 3 114 -1 134 l-7 38 -21 -37 c-11 -20 -25 -37 -30 -37 -14 0 2
195 19 235 19 45 90 80 142 70 48 -10 104 -7 116 5 16 16 4 19 -105 25 -57 3
-153 10 -214 14 -60 5 -114 6 -118 4 -4 -3 -66 1 -138 7 -104 10 -155 10 -254
0 -104 -11 -127 -11 -140 0 -10 8 -57 16 -116 21 -55 3 -103 9 -106 13 -4 3 0
21 9 38 15 32 14 32 -19 55 -19 13 -39 23 -45 23 -17 0 -82 -24 -88 -32 -3 -4
-18 -12 -34 -18 -28 -10 -28 -11 -11 -36 9 -14 15 -27 13 -28 -6 -5 -133 -23
-137 -20 -2 2 7 16 20 32 13 15 35 52 47 82 13 30 32 73 43 95 23 49 42 248
29 315 -5 25 -8 100 -8 166 1 81 -3 126 -12 140 -8 13 -10 34 -6 57 8 41 21
54 39 38 16 -12 31 -2 35 24 6 44 26 66 71 79 33 9 47 19 49 33 3 21 26 33 74
38 22 2 28 -2 33 -26 8 -36 27 -51 61 -47 30 3 37 13 56 77 12 39 18 45 63 62
28 11 57 19 66 19 9 0 22 7 29 15 7 8 8 15 3 15 -17 0 -37 48 -25 62 14 18 17
48 9 81 -6 22 -1 37 23 72 34 49 39 101 18 179 -9 35 -9 56 0 97 8 33 9 56 3
63 -7 8 -4 16 8 23 12 7 21 30 26 59 6 41 16 57 79 123 40 42 102 108 137 146
64 70 103 91 115 61 3 -9 15 -16 25 -16 10 0 54 -18 98 -40 92 -47 152 -60
266 -60 167 0 332 69 443 185 65 68 78 86 112 150 8 17 28 44 44 62 24 27 33
31 62 26 22 -4 34 -2 34 6 0 6 6 11 14 11 19 0 25 18 32 110 7 77 10 85 54
137 14 17 13 32 -4 49 -19 18 -26 18 -26 -3 0 -12 -3 -14 -10 -7 -12 12 -2 47
11 38 5 -3 9 4 9 15 0 11 8 24 17 30 13 7 18 29 22 100 4 57 2 91 -4 92 -24 3
-41 -4 -62 -27 -34 -37 -61 -29 -77 23 -6 19 -2 23 26 28 18 3 251 7 518 10
459 4 560 10 560 34 0 15 -51 31 -68 22 -17 -8 -148 1 -158 12 -11 11 68 20
127 14 43 -4 61 -1 70 9 14 17 41 18 56 3 20 -20 53 0 53 32 0 34 22 48 47 28
10 -9 35 -13 73 -11 45 3 59 0 63 -12 7 -17 52 -22 62 -7 3 5 -5 12 -17 14
-13 2 -3 5 22 6 25 0 56 8 68 17 16 11 27 12 39 5 15 -8 16 -10 3 -14 -55 -18
-57 -19 -30 -27 14 -5 42 -8 62 -9 20 -1 40 -6 43 -12 4 -6 19 -9 33 -8 15 2
32 1 37 -3 28 -16 86 -17 130 -3 35 12 50 13 60 5 8 -7 28 -9 52 -4 34 6 37 6
25 -9 -25 -30 -73 -38 -153 -27 -43 7 -110 8 -159 4 -47 -4 -164 -8 -260 -9
-251 -3 -250 -3 -250 -13 0 -16 213 -31 345 -25 115 5 133 4 148 -11 14 -15
40 -18 162 -19 104 -1 146 1 149 10 3 6 16 19 31 29 36 23 76 5 98 -44 33 -76
39 -98 42 -155 3 -71 29 -109 41 -62 6 25 -3 115 -22 210 l-6 30 94 -3 c135
-4 247 -18 319 -41 35 -11 89 -22 119 -25 50 -5 53 -4 27 8 -15 7 -24 15 -21
19 4 4 59 7 121 7 116 0 145 13 55 24 -26 3 -67 9 -92 12 -25 3 -81 7 -125 9
-44 2 -118 9 -165 15 -47 6 -121 14 -164 19 -47 4 -81 12 -84 19 -4 14 -32 16
-32 3 0 -16 -55 -20 -78 -5 -27 18 -20 34 14 34 13 0 24 5 24 10 0 6 7 10 15
10 8 0 15 5 15 10 0 18 46 11 65 -10 14 -15 31 -20 72 -20 35 0 52 4 48 10 -4
6 -15 8 -25 5 -27 -8 -34 12 -15 41 19 30 72 32 67 3 -2 -13 10 -18 53 -24
103 -12 129 23 53 72 -52 34 -59 43 -54 65 6 25 -7 30 -73 32 -55 2 -128 29
-144 54 -11 16 -51 15 -122 -4 -81 -21 -104 -20 -121 5 -14 19 -24 21 -98 20
-46 -1 -88 1 -94 5 -23 14 -139 8 -172 -9 -28 -14 -49 -16 -134 -10 -66 4
-110 12 -126 23 -17 11 -42 16 -80 14 -53 -3 -56 -2 -78 33 -24 38 -36 39
-106 12 -24 -9 -31 -8 -42 7 -7 10 -17 15 -23 12 -11 -7 -81 32 -81 45 0 16
-97 11 -104 -6 -7 -19 -57 -19 -109 0 -32 11 -47 11 -85 1 -85 -24 -167 -36
-236 -36 -41 0 -79 -6 -97 -16 -23 -12 -34 -13 -44 -4 -17 14 -106 5 -145 -14
-14 -7 -38 -19 -55 -28 -27 -13 -33 -13 -67 4 -27 14 -42 17 -56 9 -13 -7 -25
-6 -43 4 -51 29 -72 35 -134 35 -47 0 -64 4 -69 15 -3 8 -15 15 -27 15 -23 0
-81 16 -109 30 -19 9 -95 -2 -133 -20 -15 -7 -30 -11 -33 -8 -16 17 96 138
127 138 7 0 23 12 34 27 l22 26 224 -2 c123 -1 305 -6 404 -11 253 -13 949
-11 1057 4 48 7 93 9 101 5 13 -8 1007 -25 1312 -23 456 3 455 3 455 29 0 20
-4 23 -27 18 -54 -10 -699 -6 -828 5 -193 17 -725 18 -875 3 -100 -11 -152
-11 -260 -1 -84 7 -368 13 -745 14 -680 3 -743 8 -570 51 132 33 215 89 279
190 27 42 36 69 45 141 6 49 16 101 22 115 8 20 7 38 -5 73 -9 25 -19 64 -22
87 l-7 40 54 -3 c46 -3 58 1 77 20 18 19 23 20 28 8 9 -24 0 -61 -16 -61 -9 0
-16 -11 -18 -27 -3 -23 5 -33 46 -63 41 -29 48 -39 44 -60 -5 -29 30 -64 64
-65 11 0 24 -4 30 -9 5 -5 29 -11 54 -14 25 -3 65 -10 90 -17 79 -21 255 -20
340 3 60 16 91 18 155 12 147 -12 369 -14 455 -3 97 12 95 12 210 2 112 -10
432 -6 444 6 5 5 -9 17 -33 29 -22 12 -41 25 -41 30 0 10 -69 31 -103 31 -14
0 -29 5 -32 10 -4 6 -28 20 -53 32 -58 26 -122 85 -122 112 0 11 12 30 27 42
25 20 26 24 15 48 -16 36 -15 88 3 112 14 19 15 19 55 -4 39 -22 41 -22 77 -6
l36 18 43 -50 c32 -35 44 -58 44 -81 0 -17 4 -34 9 -37 5 -4 9 -31 9 -62 -1
-67 18 -96 46 -69 9 9 18 27 21 41 3 13 7 35 10 48 3 17 19 29 56 45 28 11 57
21 65 21 7 0 20 7 28 16 13 13 15 28 10 80 -8 79 9 114 56 114 33 0 40 10 61
95 16 66 30 92 78 144 30 32 45 41 58 36 10 -4 43 -12 73 -17 61 -10 77 -24
85 -77 3 -20 10 -57 16 -83 6 -26 11 -68 11 -94 0 -43 -4 -51 -47 -92 -26 -25
-53 -59 -61 -77 -7 -17 -20 -37 -28 -44 -9 -7 -22 -25 -30 -40 -7 -14 -23 -44
-35 -66 -12 -21 -21 -49 -21 -61 0 -24 66 -94 88 -94 7 0 28 16 46 36 36 39
59 40 101 5 35 -30 99 -69 125 -76 14 -4 40 -16 58 -27 29 -18 36 -19 65 -7
18 8 35 13 40 11 4 -1 7 4 7 10 0 9 4 8 10 -2 6 -10 9 42 9 155 -1 94 -3 162
-6 152 -2 -9 -9 -15 -14 -12 -5 4 -9 1 -9 -4 0 -6 -10 -23 -22 -37 -64 -74
-83 -78 -140 -29 -68 58 -85 102 -48 128 23 16 41 86 33 132 -4 23 5 57 32
121 51 122 51 122 26 154 -23 31 -28 56 -10 44 7 -4 10 -1 7 7 -2 8 -14 18
-26 24 -29 13 -28 45 2 121 16 41 25 89 28 152 5 92 6 92 47 133 28 29 50 42
71 43 l30 1 -1 95 c0 62 -3 88 -9 75 -8 -18 -9 -18 -10 5 -1 23 -2 23 -10 5
-5 -11 -9 -14 -9 -7 -1 7 -6 10 -11 7 -6 -3 -10 -2 -10 3 0 5 -11 7 -24 5 -31
-6 -41 12 -21 39 14 21 14 24 -6 38 -20 16 -20 18 -4 57 12 29 26 45 48 54 18
8 35 13 40 11 4 -1 7 4 7 10 0 9 4 8 10 -2 6 -10 9 270 9 800 -1 448 -5 804
-9 790 l-8 -25 -2 25 -2 25 -8 -25 c-4 -14 -8 -22 -9 -17 -3 24 -136 -63 -193
-127 -26 -29 -78 -127 -78 -147 0 -21 -58 -89 -87 -103 -18 -9 -33 -22 -33
-31 0 -8 -11 -21 -24 -30 -68 -45 -141 -278 -110 -352 22 -51 18 -114 -10
-151 -13 -18 -29 -54 -36 -80 -7 -26 -21 -56 -30 -67 -25 -29 -40 -81 -40
-140 0 -42 5 -56 25 -75 14 -13 25 -29 25 -36 0 -7 9 -22 21 -33 27 -25 20
-35 -38 -55 -25 -9 -71 -33 -101 -53 -45 -31 -63 -38 -101 -37 -88 2 -177 21
-219 48 -23 14 -49 26 -57 26 -9 0 -26 7 -39 15 -12 8 -43 18 -68 21 -38 5
-52 3 -76 -14 -35 -26 -42 -21 -42 29 0 21 -7 44 -15 53 -15 15 -30 18 -120
30 -72 10 -155 40 -155 57 0 20 -39 56 -65 61 -11 2 -26 16 -33 31 -8 16 -20
31 -28 34 -8 3 -14 8 -14 12 0 10 67 41 88 41 17 0 191 74 282 120 25 12 83
48 130 79 47 32 110 65 140 75 56 18 224 111 315 174 170 119 234 182 280 272
10 19 43 60 74 90 116 115 281 287 281 293 0 4 -23 7 -50 7 -39 0 -56 -5 -78
-24 -81 -72 -73 -68 -94 -47 -22 24 -23 37 -3 45 34 13 12 26 -44 26 -59 0
-60 -1 -108 -51 -64 -69 -62 -67 -193 -175 -63 -52 -128 -107 -145 -122 -37
-35 -99 -79 -190 -138 -38 -25 -79 -53 -90 -62 -25 -21 -48 -34 -160 -92 -50
-26 -99 -52 -110 -58 -120 -69 -435 -199 -615 -252 -58 -18 -125 -38 -150 -45
-25 -8 -76 -21 -115 -30 -38 -9 -88 -20 -110 -26 -22 -6 -80 -18 -130 -25 -49
-8 -130 -21 -180 -29 -210 -34 -938 -24 -1110 15 -22 5 -57 10 -77 10 -21 0
-57 4 -80 9 -24 6 -103 19 -176 31 -73 11 -141 25 -150 29 -9 5 -53 17 -97 26
-112 23 -234 53 -245 60 -5 3 -28 9 -52 15 -80 16 -133 30 -153 39 -11 5 -72
21 -135 36 -63 15 -125 33 -137 41 -12 8 -31 14 -42 14 -11 0 -30 4 -43 9 -13
6 -57 20 -98 32 -41 12 -82 26 -90 30 -28 16 -224 89 -237 89 -7 0 -52 18
-100 41 -49 22 -115 53 -148 68 -33 16 -82 38 -110 51 -86 38 -139 63 -160 73
-91 47 -111 57 -121 57 -6 0 -40 19 -75 43 -35 23 -90 55 -121 71 -55 28 -82
56 -53 56 7 0 17 -4 20 -10 10 -17 44 -11 57 10 14 22 83 29 90 9 2 -7 18 -5
46 8 43 18 43 18 38 61 -4 36 -2 42 13 42 16 0 18 -7 14 -60 -4 -50 -2 -60 11
-60 10 0 19 -12 23 -30 7 -39 16 -44 38 -21 16 19 15 20 -12 37 -15 10 -30 20
-33 22 -3 2 2 9 11 16 10 6 24 28 32 47 16 39 40 51 75 38 32 -12 27 -27 -11
-34 -35 -7 -34 -2 -28 -98 1 -4 18 -7 39 -5 34 3 37 1 40 -25 2 -16 8 -26 15
-24 7 2 11 11 9 21 -2 9 2 16 8 16 6 0 3 11 -6 26 -9 14 -23 23 -29 20 -12 -4
-24 22 -25 49 0 6 27 11 64 11 59 0 64 -1 55 -17 -6 -11 -6 -20 0 -24 6 -3 15
3 21 14 7 13 7 22 0 26 -15 9 -12 25 5 25 21 0 19 20 -2 21 -10 1 -22 1 -27 0
-15 -3 -46 10 -46 20 0 12 88 2 145 -16 39 -12 155 -13 174 -1 5 3 7 15 4 26
-5 20 -14 20 -3614 20 l-3609 0 2 -1832z m6314 1758 c10 -8 17 -16 14 -19 -8
-8 -50 11 -50 23 0 14 13 13 36 -4z m324 -26 c0 -5 -4 -10 -10 -10 -5 0 -10 5
-10 10 0 6 5 10 10 10 6 0 10 -4 10 -10z m6307 -62 c-2 -13 -4 -3 -4 22 0 25
2 35 4 23 2 -13 2 -33 0 -45z m-438 10 c-17 -31 -20 -18 -10 42 1 3 5 -2 10
-9 6 -9 6 -22 0 -33z m-6139 13 c0 -6 -4 -13 -10 -16 -5 -3 -10 1 -10 9 0 9 5
16 10 16 6 0 10 -4 10 -9z m6490 -11 c0 -13 -37 -50 -50 -50 -6 0 -1 14 12 30
22 30 38 39 38 20z m-7029 -19 c-17 -11 -5 -32 14 -25 25 10 57 -15 51 -39 -6
-27 7 -52 23 -43 6 4 11 1 11 -6 0 -8 13 -13 30 -14 23 -1 30 3 30 17 0 23 8
23 34 4 11 -8 30 -15 42 -15 12 0 24 -7 28 -15 3 -8 13 -15 23 -15 10 0 30
-11 45 -25 15 -14 32 -25 38 -25 5 0 10 -4 10 -10 0 -5 10 -10 23 -10 12 0 33
-7 47 -15 14 -8 36 -19 48 -25 13 -5 26 -19 29 -30 4 -14 14 -20 33 -20 16 0
41 -11 57 -24 15 -13 46 -29 68 -36 22 -7 59 -23 83 -36 23 -13 52 -24 62 -24
17 0 120 -42 173 -71 10 -6 37 -19 60 -30 23 -11 51 -26 62 -31 87 -48 314
-148 334 -148 6 0 13 -5 17 -12 5 -8 -7 -9 -47 -4 -217 27 -475 54 -619 65
-109 8 -149 16 -160 32 -3 3 -34 3 -69 -2 -50 -7 -70 -6 -93 6 -20 10 -36 12
-47 5 -24 -12 -211 9 -232 27 -8 7 -32 13 -51 13 -20 0 -41 7 -48 15 -7 8 -19
15 -27 15 -7 0 -16 7 -19 15 -8 19 -25 9 -22 -13 2 -11 -3 -16 -14 -16 -10 1
-18 -2 -18 -6 0 -16 -94 -28 -145 -20 -27 5 -56 9 -62 9 -27 2 -13 31 15 31
21 0 24 2 12 10 -8 5 -45 10 -82 10 -54 0 -68 3 -68 15 0 8 -7 15 -15 15 -8 0
-15 -7 -15 -15 0 -8 -9 -15 -20 -15 -12 0 -17 5 -14 14 6 16 -18 27 -69 31
-51 3 -60 15 -12 15 32 0 36 2 25 15 -10 12 -40 15 -149 15 -124 0 -138 -2
-154 -20 -9 -11 -24 -20 -32 -20 -8 0 -15 -4 -15 -10 0 -14 -76 -12 -88 3 -6
7 -11 94 -13 205 -4 212 -5 212 57 212 18 0 45 -7 60 -15 16 -8 37 -15 47 -15
13 0 17 -9 17 -40 l0 -40 160 0 c128 0 160 3 160 14 0 10 25 15 92 20 65 5 95
11 101 22 5 8 23 14 44 14 20 0 53 5 75 12 29 9 41 9 50 0 9 -9 9 -12 -1 -12
-7 0 -9 -4 -6 -10 3 -5 12 -10 20 -10 16 0 14 41 -2 62 -29 38 -24 78 11 78
16 0 18 -2 7 -9z m-944 -368 c-1 -43 -3 -10 -3 72 0 83 2 118 3 78 2 -40 2
-107 0 -150z m8060 115 c-2 -18 -4 -6 -4 27 0 33 2 48 4 33 2 -15 2 -42 0 -60z
m-8967 -8 c0 -27 -4 -50 -10 -50 -5 0 -10 23 -10 50 0 28 5 50 10 50 6 0 10
-22 10 -50z m8328 28 c-4 -31 -25 -34 -25 -3 0 15 5 25 14 25 9 0 13 -8 11
-22z m-68 -17 c0 -11 -6 -22 -12 -24 -10 -4 -10 -8 0 -15 11 -7 11 -10 -2 -15
-9 -4 -21 -18 -26 -33 -6 -14 -19 -28 -30 -31 -11 -3 -20 -9 -20 -13 0 -17
-90 -60 -124 -60 -20 0 -36 -5 -36 -11 0 -5 4 -8 9 -4 5 3 12 1 16 -5 11 -18
-23 -22 -47 -6 -23 15 -38 13 -38 -5 0 -5 7 -6 15 -3 10 4 15 0 15 -11 0 -11
-5 -15 -15 -11 -8 3 -22 9 -30 12 -8 3 -15 1 -15 -5 0 -6 -9 -11 -19 -11 -23
0 -34 -23 -18 -40 10 -10 7 -12 -10 -7 -15 3 -31 -3 -48 -19 -22 -20 -33 -23
-63 -18 -48 8 -56 17 -32 32 17 10 21 10 26 -3 7 -17 54 -21 54 -4 0 6 -7 8
-16 5 -9 -3 -12 -2 -9 5 4 5 15 7 26 4 13 -4 19 -2 19 9 0 9 6 16 13 17 6 0
-1 5 -17 11 -24 9 -31 8 -41 -6 -17 -23 -28 -20 -15 4 6 11 19 20 29 20 10 0
26 9 36 20 23 25 29 25 44 -2 11 -22 11 -22 6 4 -3 15 -1 30 5 33 5 3 10 1 10
-4 0 -6 5 -11 10 -11 6 0 10 9 10 20 0 13 10 24 28 30 15 6 36 15 47 20 11 5
30 10 43 10 52 0 62 2 62 10 0 5 7 7 15 4 10 -4 18 3 26 22 10 27 12 28 23 12
16 -22 20 -22 40 -2 28 27 20 44 -21 44 -28 0 -34 -3 -23 -10 17 -11 10 -13
-42 -12 -16 0 -28 -4 -28 -10 0 -6 -3 -8 -7 -5 -9 9 27 43 55 51 12 4 22 11
22 16 0 8 29 15 78 19 16 1 22 -5 22 -18z m460 -16 c0 -8 -7 -15 -15 -15 -8 0
-15 7 -15 15 0 8 7 15 15 15 8 0 15 -7 15 -15z m-8724 -262 c-3 -16 -2 -35 4
-43 7 -11 10 -6 10 23 0 20 5 37 11 37 8 0 10 -46 9 -147 -3 -167 14 -566 25
-600 5 -15 3 -23 -4 -23 -7 0 -11 -26 -11 -72 0 -51 3 -68 10 -58 6 10 10 -48
10 -174 0 -104 3 -186 7 -182 4 4 6 24 4 44 -1 20 0 34 3 31 3 -3 10 -54 15
-114 5 -61 14 -111 20 -113 6 -2 11 -27 12 -55 l1 -52 12 37 c20 66 43 20 52
-106 3 -32 1 -63 -4 -70 -5 -6 -12 -51 -16 -101 -3 -49 -12 -132 -18 -182 -8
-69 -9 -99 0 -115 6 -13 12 -36 14 -53 l3 -30 -112 -3 -111 -2 -3 117 c-4 167
0 364 11 538 13 200 15 333 11 755 -2 310 0 359 14 387 10 21 21 30 30 26 8
-3 15 0 15 6 0 6 -6 11 -14 11 -19 0 -37 105 -29 170 4 34 2 50 -6 50 -15 0
-14 57 2 75 19 23 29 17 23 -12z m7749 -3 c-3 -5 -10 -10 -16 -10 -5 0 -9 5
-9 10 0 6 7 10 16 10 8 0 12 -4 9 -10z m-6790 -20 c-3 -5 -18 -10 -33 -9 -24
0 -25 1 -7 9 28 12 47 12 40 0z m490 1 c29 -12 -66 -26 -102 -15 -26 7 -25 8
17 14 63 10 63 10 85 1z m-328 -7 c-3 -3 -12 -4 -19 -1 -8 3 -5 6 6 6 11 1 17
-2 13 -5z m6475 -120 c40 -7 42 -24 3 -24 -12 0 -37 -13 -55 -30 -34 -31 -60
-39 -60 -17 0 8 -13 12 -40 10 -36 -2 -40 0 -40 23 0 20 5 24 30 24 17 0 30
-4 30 -9 0 -5 14 -16 30 -25 28 -14 30 -13 30 5 0 19 -10 23 -40 19 -22 -3 0
17 25 23 30 7 47 7 87 1z m-244 -89 c27 -24 29 -45 3 -45 -35 0 -53 11 -41 25
8 9 6 14 -7 19 -13 5 -25 -1 -40 -21 -21 -25 -25 -27 -22 -7 0 4 -5 11 -13 15
-10 7 -9 9 5 9 10 0 25 6 33 14 18 19 54 15 82 -9z m1546 -46 c14 -12 -32 -58
-55 -56 -28 2 -37 46 -13 64 18 13 50 9 68 -8z m-1804 -19 c0 -5 -4 -10 -9
-10 -6 0 -13 5 -16 10 -3 6 1 10 9 10 9 0 16 -4 16 -10z m60 -4 c0 -8 -4 -17
-9 -21 -12 -7 -24 12 -16 25 9 15 25 12 25 -4z m110 -5 c0 -5 -10 -11 -22 -14
-13 -3 -33 -9 -45 -12 -19 -6 -23 -4 -23 15 0 17 4 20 20 15 11 -3 27 -2 37 4
18 10 33 6 33 -8z m-295 -71 c3 -5 -1 -10 -9 -10 -9 0 -16 -4 -16 -10 0 -5 5
-10 11 -10 5 0 7 -5 4 -10 -4 -6 -14 -10 -23 -9 -16 2 -77 -20 -115 -42 -10
-5 -38 -12 -63 -14 -24 -3 -63 -14 -86 -25 -52 -25 -169 -36 -225 -21 -24 7
-43 15 -43 19 0 19 25 29 60 25 30 -4 42 -1 56 16 22 25 34 27 34 6 0 -8 9
-15 21 -15 15 0 19 5 14 19 -5 16 6 22 77 44 46 14 99 30 118 35 53 12 177 14
185 2z m1482 -66 c19 -5 21 -12 19 -48 -3 -48 -21 -86 -41 -86 -8 0 -15 8 -15
19 0 10 -7 36 -16 57 -15 35 -15 39 2 51 20 15 21 15 51 7z m-1962 -24 c-3 -5
-11 -10 -16 -10 -6 0 -7 5 -4 10 3 6 11 10 16 10 6 0 7 -4 4 -10z m2045 -44
c0 -8 -35 -8 -43 0 -3 3 -1 12 6 19 9 9 14 9 24 -1 7 -7 13 -15 13 -18z
m-3230 4 c0 -5 -7 -10 -15 -10 -8 0 -15 5 -15 10 0 6 7 10 15 10 8 0 15 -4 15
-10z m330 -13 c0 10 6 13 16 9 9 -3 33 -6 55 -6 21 0 39 -5 39 -11 0 -6 -18
-9 -47 -8 -28 2 -47 -1 -45 -6 1 -6 9 -10 16 -10 8 0 18 -4 22 -8 17 -17 -50
-5 -86 16 -49 27 -52 42 -5 23 31 -13 35 -13 35 1z m1293 -57 c-39 -39 -76
-70 -81 -70 -5 0 -16 10 -24 22 -14 21 -17 22 -59 8 -24 -8 -56 -27 -71 -42
-31 -31 -67 -35 -159 -17 -30 5 -84 10 -121 10 -38 1 -70 4 -73 9 -6 10 45 20
106 20 70 0 272 45 408 90 64 21 123 39 131 39 8 1 -17 -31 -57 -69z m-988 50
c3 -5 1 -10 -4 -10 -6 0 -11 -7 -11 -15 0 -11 7 -14 24 -9 13 3 27 1 30 -4 11
-17 -173 -26 -191 -9 -3 4 16 7 43 7 27 0 56 5 64 10 10 7 -7 10 -57 10 -66 0
-100 11 -71 23 24 10 167 7 173 -3z m55 0 c0 -5 -7 -10 -15 -10 -8 0 -15 5
-15 10 0 6 7 10 15 10 8 0 15 -4 15 -10z m180 -24 c0 -28 -11 -39 -33 -30 -16
6 -29 39 -19 48 3 3 16 6 29 6 18 0 23 -6 23 -24z m-867 -3 c-7 -2 -19 -2 -25
0 -7 3 -2 5 12 5 14 0 19 -2 13 -5z m466 -19 c2 -2 -10 -4 -27 -4 -18 0 -32 5
-32 10 0 9 47 4 59 -6z m-4941 -140 c8 -14 31 -17 157 -18 109 -1 149 -4 152
-13 3 -7 19 -13 36 -13 63 0 301 -32 321 -42 13 -7 131 -14 306 -19 331 -9
335 -9 335 -29 0 -13 24 -15 159 -15 155 0 159 0 167 23 7 18 16 22 53 22 25
0 47 4 50 8 7 12 64 14 71 2 3 -5 44 -10 91 -10 77 0 84 2 84 20 0 11 -7 20
-15 20 -8 0 -19 8 -24 19 -9 16 -6 20 16 24 37 7 53 -1 53 -28 0 -13 6 -25 14
-28 17 -7 76 13 76 25 0 4 7 8 15 8 8 0 15 -9 15 -20 0 -15 7 -20 29 -20 28 0
57 21 45 33 -15 15 90 24 141 11 17 -4 35 -13 40 -19 6 -7 71 -16 165 -23 88
-6 156 -16 158 -22 2 -5 21 -10 41 -10 25 0 44 -7 56 -20 14 -16 26 -19 49
-15 79 15 116 16 150 5 32 -10 39 -10 49 4 9 13 23 15 57 11 25 -3 73 -8 107
-11 34 -4 68 -13 74 -20 13 -16 59 -19 59 -4 0 13 37 13 45 0 4 -6 27 -10 51
-9 32 2 52 -3 74 -19 36 -27 61 -28 78 -2 10 17 16 18 32 10 19 -10 19 -13 5
-39 -8 -16 -12 -31 -9 -34 3 -3 76 -3 163 0 l157 6 18 -27 c20 -31 39 -23 50
19 8 32 51 35 59 5 3 -11 12 -23 21 -26 18 -7 46 17 46 40 0 22 19 20 27 -1
13 -34 33 -44 91 -48 124 -9 181 -6 281 14 132 27 156 26 212 -3 43 -23 59
-25 260 -31 186 -6 270 -12 354 -28 11 -2 43 -7 70 -11 28 -4 64 -9 80 -12 17
-2 131 -7 255 -10 124 -3 247 -9 273 -15 26 -5 62 -9 80 -9 18 0 52 -8 77 -16
30 -11 91 -18 185 -20 124 -4 146 -7 194 -30 29 -14 51 -27 49 -29 -10 -10
-109 -18 -218 -17 -126 1 -220 -12 -220 -32 0 -7 -9 -22 -20 -34 -24 -26 -26
-77 -4 -120 8 -17 16 -42 16 -54 1 -13 8 -31 16 -40 8 -9 11 -21 8 -27 -4 -5
-1 -13 5 -16 6 -4 9 -25 7 -48 l-3 -40 52 -4 c45 -4 56 -1 79 21 15 14 31 23
36 20 4 -3 8 4 8 15 0 12 7 21 15 21 19 0 51 18 83 47 20 17 28 19 43 10 11
-7 19 -18 19 -25 0 -9 10 -12 28 -10 22 2 28 8 30 36 2 24 11 36 33 47 28 15
31 14 63 -10 20 -15 40 -23 50 -19 9 3 16 2 16 -3 0 -6 11 -22 25 -37 14 -15
25 -38 25 -52 0 -16 8 -28 25 -36 14 -6 25 -17 25 -25 0 -13 27 -16 115 -14
37 1 41 -1 58 -39 25 -54 19 -71 -28 -89 -22 -8 -47 -23 -57 -33 -10 -12 -19
-15 -23 -8 -3 5 -18 10 -33 10 -15 0 -36 7 -46 15 -29 22 -108 19 -139 -5 -24
-19 -32 -19 -158 -9 -99 8 -144 8 -178 -1 -45 -12 -65 -14 -251 -24 -206 -12
-260 -19 -260 -31 0 -8 -30 -19 -77 -29 -43 -9 -100 -23 -127 -31 -26 -8 -58
-15 -71 -15 -12 0 -29 -7 -36 -16 -19 -23 -161 -14 -191 12 -11 11 -41 30 -66
44 -26 14 -46 30 -46 35 2 16 -67 44 -108 45 -20 0 -44 -7 -52 -16 -22 -21
-32 -12 -66 61 -16 35 -44 87 -61 116 -31 54 -29 68 12 69 9 0 19 7 23 15 8
21 30 19 51 -5 29 -32 140 -23 151 13 4 12 2 23 -5 25 -6 2 -11 10 -11 17 0
27 -44 38 -160 40 -135 2 -160 -2 -160 -24 -1 -14 -2 -14 -11 1 -10 19 -34 30
-144 72 -132 49 -205 57 -309 31 -69 -18 -125 -43 -144 -65 -8 -8 -11 -10 -8
-4 4 8 -10 10 -49 7 -40 -3 -61 0 -80 13 -22 14 -63 17 -279 22 -140 3 -262 2
-271 -2 -14 -5 -7 -12 31 -31 53 -27 89 -37 149 -41 22 -2 56 -6 75 -9 19 -2
106 -7 193 -9 87 -2 161 -7 164 -10 3 -3 -4 -20 -16 -39 -11 -19 -21 -42 -21
-52 0 -14 -32 -69 -50 -85 -13 -11 -30 -63 -30 -90 0 -16 -5 -32 -11 -36 -14
-8 -4 -168 12 -211 5 -14 7 -34 4 -43 -3 -10 -45 -51 -92 -92 -48 -40 -96 -82
-107 -94 -43 -43 -118 -94 -140 -94 -13 0 -25 -3 -29 -6 -3 -4 -39 -7 -79 -7
l-74 -1 -49 53 c-74 77 -101 91 -176 91 -35 0 -89 -7 -119 -16 -30 -8 -73 -20
-95 -27 -22 -6 -52 -23 -67 -39 -14 -15 -31 -28 -37 -28 -25 0 -202 -93 -220
-116 -18 -23 -18 -23 -70 -7 -41 14 -62 15 -111 7 -49 -8 -65 -7 -81 4 -15 11
-26 12 -42 4 l-22 -10 25 -10 c25 -9 25 -9 -34 -70 -33 -33 -64 -58 -70 -56
-6 2 -42 0 -81 -5 -38 -4 -83 -4 -99 0 -16 5 -36 5 -44 0 -12 -7 -9 -12 16
-25 36 -18 94 -21 123 -5 17 8 27 5 55 -16 27 -21 34 -33 34 -61 0 -37 33
-145 54 -179 25 -39 35 -83 23 -93 -17 -13 -678 2 -703 16 -12 6 -33 42 -49
84 -30 77 -99 159 -150 178 -39 15 -122 12 -155 -5 -50 -26 -81 -93 -96 -205
-3 -25 -8 -47 -11 -50 -7 -8 -692 -3 -940 6 -177 7 -225 12 -236 24 -8 8 -26
47 -41 85 -14 39 -44 106 -66 149 -22 43 -37 82 -34 87 3 5 27 7 52 3 33 -4
64 0 101 12 52 17 57 17 127 -1 62 -15 79 -16 116 -6 37 10 54 10 105 -3 76
-20 142 -20 167 -1 25 19 45 19 66 0 26 -24 81 -29 105 -11 20 16 20 16 -4 37
-20 16 -33 19 -63 14 -32 -6 -46 -2 -78 19 -22 14 -45 26 -51 26 -6 0 -38 14
-71 30 -32 17 -67 30 -76 30 -25 0 -58 33 -82 80 -11 21 -28 41 -37 44 -10 2
-71 8 -135 11 -98 6 -120 5 -139 -9 -24 -17 -59 -22 -59 -8 0 4 14 61 31 127
40 154 52 240 46 342 -6 101 -26 139 -112 210 l-62 52 3 158 c5 246 12 387 22
413 6 16 5 36 -1 54 -9 27 -3 194 9 205 3 3 9 -1 14 -9 8 -13 10 -12 10 3 0 9
6 17 13 17 6 0 4 5 -6 11 -9 5 -22 7 -29 3 -8 -5 -9 0 -5 17 4 13 7 30 7 37 0
17 17 15 28 -4z m7752 -23 c0 -12 -20 -25 -27 -18 -7 7 6 27 18 27 5 0 9 -4 9
-9z m-8703 -74 c-8 -22 -87 -32 -194 -26 -27 1 -31 25 -5 33 48 14 90 16 117
6 27 -10 32 -9 50 13 19 22 21 23 29 6 5 -10 6 -24 3 -32z m-357 3 c0 -13 -7
-20 -19 -20 -11 0 -22 -4 -26 -10 -7 -12 -35 -1 -35 14 0 7 9 22 20 34 17 18
25 20 40 12 11 -6 20 -20 20 -30z m-3483 -112 c-2 -13 -4 -5 -4 17 -1 22 1 32
4 23 2 -10 2 -28 0 -40z m3638 18 c22 -13 55 -10 55 5 0 5 14 9 31 9 16 0 28
-4 25 -9 -4 -5 3 -7 14 -4 11 3 33 0 49 -6 l28 -12 6 -172 c3 -95 1 -280 -3
-412 -5 -132 -11 -323 -15 -424 -3 -102 -7 -186 -9 -188 -3 -4 -104 -17 -216
-28 -45 -5 -45 -4 -88 50 -23 31 -47 67 -52 80 -12 32 -66 65 -106 65 -32 0
-103 -46 -104 -67 0 -7 -9 -17 -20 -23 -11 -6 -20 -18 -20 -27 0 -9 -5 -31
-12 -49 -6 -17 -8 -39 -4 -49 6 -17 8 -16 31 5 14 13 25 29 25 35 0 7 14 28
31 48 32 38 69 49 69 22 0 -8 5 -15 11 -15 7 0 0 -11 -15 -25 -20 -18 -26 -35
-28 -67 0 -24 -2 -48 -2 -54 -1 -12 -95 -94 -108 -94 -9 0 -4 78 7 103 5 11 3
17 -7 17 -25 0 -38 -23 -38 -65 0 -29 -6 -47 -20 -60 -19 -17 -20 -17 -39 6
-17 21 -27 24 -83 23 -36 0 -77 -7 -94 -16 -16 -8 -42 -22 -59 -31 -16 -8 -63
-31 -104 -51 l-74 -36 -48 35 c-49 37 -124 65 -171 65 -48 0 -132 -38 -186
-86 l-53 -47 -164 27 c-90 14 -179 26 -198 26 -20 0 -42 7 -51 15 -17 17 -67
20 -82 5 -26 -26 -136 -32 -259 -14 -66 10 -131 25 -144 33 -44 28 -154 54
-236 57 -122 4 -157 18 -167 69 -6 37 -112 49 -135 15 -19 -28 -40 -25 -47 6
-6 21 -11 25 -31 20 -21 -5 -25 -2 -34 30 -5 19 -21 46 -34 58 -13 12 -26 29
-29 37 -3 10 -21 13 -67 12 -45 -1 -64 3 -68 13 -3 8 -11 14 -19 14 -8 0 -14
5 -14 10 0 6 -7 10 -16 10 -8 0 -20 14 -26 30 -9 29 -13 30 -51 26 -32 -4 -44
-1 -59 16 -10 12 -19 19 -21 17 -2 -2 -10 -16 -19 -30 -17 -27 -34 -29 -80
-11 -20 8 -28 19 -28 37 0 20 -5 25 -24 25 -13 0 -29 7 -36 15 -7 8 -19 15
-28 15 -10 0 -7 7 11 24 l26 24 -25 6 c-13 4 -24 14 -24 24 -1 10 -6 6 -15
-13 -12 -28 -14 -22 -16 85 l-3 115 -6 -125 c-4 -85 -6 -35 -6 160 0 180 2
244 6 175 3 -60 7 -101 8 -91 2 18 3 18 20 3 23 -21 62 -22 62 -2 0 8 5 15 10
15 6 0 13 -7 16 -15 7 -17 53 -20 102 -6 22 7 73 5 161 -6 l129 -16 56 26 c31
15 61 27 66 27 6 0 10 4 10 8 0 8 82 35 115 38 11 0 28 2 38 3 9 0 17 8 17 16
0 12 15 15 74 15 72 0 77 -2 113 -35 42 -39 46 -40 65 -22 31 28 66 40 127 43
60 3 70 6 104 38 21 20 43 36 48 36 28 0 77 84 72 122 -2 19 2 30 16 38 11 6
18 16 16 23 -6 14 39 37 74 37 29 0 91 21 91 31 0 23 103 19 223 -9 36 -9 35
-28 -1 -24 -15 1 -46 0 -69 -3 -42 -6 -43 -7 -43 -46 0 -22 -4 -48 -9 -57 -5
-9 -11 -43 -13 -74 -4 -55 -4 -58 19 -58 28 0 29 -7 2 -31 -11 -10 -18 -23
-14 -28 10 -17 164 -13 210 6 22 9 59 17 83 17 47 1 55 17 17 34 -29 13 -33
32 -7 32 13 0 14 2 4 9 -10 6 -5 16 20 42 17 19 31 38 30 42 -1 5 5 23 13 42
13 26 24 34 53 39 20 4 51 9 69 12 18 4 38 12 44 20 6 8 18 14 25 14 8 0 14 4
14 9 0 14 -129 22 -195 12 -42 -6 -67 -5 -84 3 -39 18 -27 30 40 42 35 5 73
15 84 21 63 32 155 46 415 62 69 4 132 10 140 14 32 13 632 23 652 11 11 -7
68 15 68 27 0 12 192 -1 215 -15z m5570 -66 c3 -5 -1 -10 -9 -10 -9 0 -16 5
-16 10 0 6 4 10 9 10 6 0 13 -4 16 -10z m3329 -61 c-4 -8 0 -8 15 0 17 10 22
9 27 -3 19 -49 -40 -77 -78 -37 -16 18 -17 22 -4 27 9 3 13 10 10 15 -3 5 4 9
16 9 13 0 19 -4 14 -11z m-12537 -636 c-1 -109 -2 -22 -2 192 0 215 1 304 2
198 2 -105 2 -281 0 -390z m4040 535 c-3 -8 -6 -5 -6 6 -1 11 2 17 5 13 3 -3
4 -12 1 -19z m8715 -85 c23 -21 23 -24 -7 -86 -23 -49 -89 -112 -137 -130 -18
-6 -38 -64 -38 -112 0 -36 -30 -88 -64 -110 -40 -27 -62 -8 -90 79 -4 13 5 29
34 55 40 36 50 67 29 88 -9 9 -3 23 23 55 19 24 41 58 48 76 14 37 50 65 106
86 53 19 74 19 96 -1z m-12557 -73 c3 -5 19 -7 35 -3 23 4 30 2 30 -11 0 -9
-5 -16 -12 -16 -6 0 -21 -8 -32 -19 -12 -10 -33 -26 -48 -35 -26 -17 -26 -17
-21 6 l6 23 -20 -22 c-13 -15 -24 -19 -33 -13 -12 7 -12 12 3 27 9 11 19 30
21 44 2 13 5 24 5 24 12 6 61 2 66 -5z m-130 -76 c12 -10 14 -14 5 -12 -8 3
-20 -2 -27 -11 -11 -14 -12 -12 -13 12 0 31 7 33 35 11z m12268 -64 c22 0 27
-4 27 -25 0 -14 -5 -34 -12 -45 -11 -17 -8 -23 15 -48 24 -25 27 -34 22 -73
-14 -106 -15 -109 -45 -124 -16 -8 -37 -24 -47 -34 -22 -23 -69 -35 -79 -20
-4 7 -26 8 -64 4 -65 -8 -74 -1 -61 41 23 73 22 81 -14 118 -43 44 -86 49
-103 11 -6 -13 -22 -27 -36 -31 -13 -3 -28 -13 -31 -22 -6 -15 -8 -15 -15 3
-4 11 -15 20 -25 20 -34 0 -27 23 12 40 21 9 46 21 56 26 9 5 28 7 41 3 18 -4
27 0 36 15 6 12 18 21 26 21 8 0 13 4 10 8 -7 12 39 36 52 28 5 -3 12 1 16 9
3 8 17 15 31 15 20 0 29 8 41 36 l15 37 52 -7 c29 -3 64 -6 80 -6z m-7651
-290 c20 -6 47 -22 60 -36 13 -14 31 -33 40 -43 31 -31 39 -108 22 -223 -9
-56 -19 -108 -24 -113 -5 -6 -12 -26 -15 -45 -8 -45 -23 -94 -45 -145 -23 -54
-37 -94 -45 -130 l-7 -29 -36 44 c-58 72 -132 138 -205 187 -38 24 -71 51 -74
60 -14 36 65 307 107 368 38 56 123 112 170 114 8 1 32 -4 52 -9z m8076 -112
c3 -33 1 -36 -21 -34 -42 5 -48 14 -31 47 21 42 48 35 52 -13z m-544 -50 c2
-2 0 -25 -3 -52 -5 -41 -11 -52 -35 -66 -17 -9 -40 -34 -52 -55 -33 -60 -49
-52 -49 22 0 50 4 66 23 85 12 14 22 28 22 32 0 18 41 43 66 40 14 -1 27 -4
28 -6z m-551 -75 c-3 -7 -9 -13 -13 -13 -17 0 -21 20 -9 42 12 22 12 22 19 3
4 -11 5 -26 3 -32z m-1631 10 c21 -9 37 -21 35 -27 -4 -11 -103 -45 -135 -46
-15 0 -26 8 -33 27 -17 46 -10 51 80 61 8 1 32 -6 53 -15z m-707 -57 c62 -28
126 -98 184 -200 70 -124 118 -291 106 -369 -30 -178 -114 -301 -315 -458 -41
-32 -120 -95 -175 -140 -199 -162 -281 -226 -335 -260 -67 -43 -99 -64 -126
-84 -20 -15 -27 -9 -165 128 -79 79 -172 163 -207 186 -62 42 -196 153 -239
200 -31 32 -29 44 11 75 19 14 40 31 48 38 82 79 81 78 196 78 127 0 201 22
322 96 150 90 210 162 210 250 0 41 -34 78 -80 88 -42 8 -37 29 18 73 26 21
79 65 117 98 85 75 257 202 288 215 39 15 90 11 142 -14z m2308 -26 c5 -19 -5
-36 -33 -57 -14 -10 -16 -6 -18 33 -1 40 0 44 22 44 15 0 26 -7 29 -20z
m-1236 -56 c40 -42 45 -51 39 -82 -4 -30 -1 -39 26 -63 28 -27 29 -31 18 -58
-18 -45 0 -71 50 -71 30 0 40 -4 45 -21 4 -11 20 -25 36 -31 16 -5 29 -17 29
-25 0 -26 -97 -12 -145 20 -34 23 -50 27 -110 27 -63 1 -73 3 -102 30 -18 16
-36 43 -41 61 -4 18 -20 41 -34 52 -24 18 -27 18 -50 3 -22 -15 -27 -15 -38
-1 -10 12 -9 16 6 21 39 12 50 23 67 70 22 60 54 93 98 104 56 13 59 12 106
-36z m-9990 -56 c-3 -8 -6 -5 -6 6 -1 11 2 17 5 13 3 -3 4 -12 1 -19z m9703
14 c0 -12 -30 -36 -63 -50 -31 -13 -69 -16 -51 -4 6 4 13 13 15 21 7 21 99 51
99 33z m545 -76 c22 -8 52 -12 67 -9 23 5 29 1 38 -21 12 -31 49 -49 69 -32
11 8 17 6 29 -12 15 -23 46 -30 57 -12 9 15 34 12 51 -5 9 -8 29 -15 45 -15
19 0 40 -11 61 -30 23 -23 40 -30 69 -30 33 0 40 -4 45 -26 5 -18 1 -31 -12
-45 -19 -18 -20 -18 -67 6 -35 17 -59 23 -85 19 -102 -13 -156 -9 -189 15 -19
15 -51 26 -82 29 -41 4 -50 8 -55 27 -3 13 -26 41 -51 63 -41 36 -55 68 -38
85 3 4 7 7 7 7 1 0 19 -7 41 -14z m-10071 -5 c7 -11 -25 -37 -44 -37 -16 1
-21 13 -13 34 6 14 49 17 57 3z m3628 -25 c62 -14 110 -39 188 -101 55 -44
193 -194 239 -261 27 -39 66 -104 86 -145 21 -41 41 -75 46 -77 5 -2 9 -13 9
-23 0 -11 4 -28 9 -37 10 -19 77 -268 120 -447 53 -222 78 -353 86 -460 2 -22
8 -80 14 -130 11 -86 20 -222 21 -294 0 -18 5 -39 10 -46 19 -23 32 -116 37
-269 3 -102 2 -146 -6 -142 -15 10 -4 -55 19 -109 19 -44 19 -394 1 -462 -1
-2 -1 -6 -2 -10 0 -5 -8 -16 -17 -27 -13 -14 -27 -17 -65 -13 -26 2 -51 7 -54
11 -4 4 -11 120 -15 259 -8 284 -14 382 -29 447 -5 25 -11 68 -14 95 -5 57
-20 164 -34 245 -5 30 -17 107 -26 170 -9 63 -32 189 -51 280 -19 91 -42 197
-49 235 -35 170 -71 255 -171 400 -38 55 -76 113 -84 129 -19 37 -122 130
-167 151 -57 27 -155 40 -195 25 -18 -7 -51 -19 -73 -27 -21 -8 -72 -42 -111
-76 -57 -48 -77 -73 -93 -114 -11 -28 -35 -75 -54 -105 -18 -29 -55 -105 -82
-168 -26 -63 -54 -128 -61 -145 -14 -32 -69 -212 -78 -256 -3 -14 -13 -43 -22
-65 -21 -47 -19 -41 -34 -134 -6 -41 -16 -84 -20 -95 -10 -22 -16 -55 -31
-160 -5 -38 -16 -88 -25 -110 -9 -25 -14 -65 -12 -100 1 -33 1 -91 0 -129 -2
-67 -2 -68 -27 -64 -20 4 -25 1 -25 -16 0 -23 20 -60 20 -38 0 6 5 12 11 12 6
0 9 -12 7 -27 -2 -16 -8 -27 -15 -25 -7 1 -13 -3 -13 -9 0 -8 -4 -8 -12 -1
-24 20 -33 17 -38 -12 -6 -36 -30 -47 -31 -14 l0 23 -11 -22 c-8 -17 -21 -22
-64 -25 -53 -3 -73 9 -58 33 3 5 -6 13 -19 18 -26 10 -67 60 -67 81 0 7 7 10
14 7 9 -4 17 2 21 13 8 26 3 110 -7 116 -4 3 -8 14 -8 25 0 10 -4 19 -9 19
-10 0 -21 -73 -21 -136 0 -24 -4 -44 -9 -44 -14 0 -20 39 -11 71 5 17 14 81
19 143 6 62 18 157 26 212 8 54 20 131 25 169 6 39 14 86 19 105 5 19 19 91
31 160 23 129 63 296 81 340 6 14 20 59 31 100 28 111 88 281 108 310 9 14 33
63 52 110 36 87 155 294 202 352 15 18 45 58 67 88 64 86 158 167 239 204 65
30 155 34 262 12z m7246 -13 c-4 -32 -17 -38 -43 -18 -20 15 -20 15 -1 30 31
23 48 19 44 -12z m-7725 0 c-6 -2 -9 -12 -7 -21 3 -9 -8 -30 -23 -47 -54 -58
-148 -179 -173 -221 -14 -23 -44 -73 -66 -111 -74 -122 -155 -286 -174 -353
-10 -36 -30 -99 -43 -140 -39 -113 -90 -283 -92 -300 -1 -8 -6 -31 -13 -50 -6
-19 -23 -96 -37 -170 -14 -74 -35 -175 -46 -225 -12 -49 -25 -126 -30 -170 -5
-43 -13 -104 -19 -135 -5 -30 -15 -100 -20 -155 -6 -55 -15 -136 -20 -180 -34
-281 -46 -635 -31 -880 4 -66 7 -122 5 -124 -2 -2 -7 12 -12 30 -6 27 -14 35
-35 37 -21 3 -27 -1 -27 -17 0 -11 7 -24 16 -29 10 -5 14 -18 12 -33 -4 -23
-5 -23 -13 -4 -13 33 -48 66 -85 82 -32 13 -33 15 -17 27 32 24 17 34 -61 41
l-78 7 0 44 c-1 25 4 44 10 44 6 0 3 5 -7 11 -9 6 -15 14 -12 19 3 4 -2 10
-10 14 -20 7 -19 26 1 26 14 0 14 1 0 16 -11 11 -15 27 -11 55 4 31 2 39 -11
39 -10 0 -13 6 -10 18 5 13 -1 22 -19 30 l-25 12 20 37 c24 45 26 79 5 87 -11
4 -15 21 -14 73 1 72 15 152 18 103 1 -14 6 -32 11 -40 7 -10 10 12 10 73 0
69 3 89 15 93 30 12 7 84 -27 84 -23 0 39 467 73 553 7 15 12 39 12 54 0 15 8
39 18 53 16 20 17 33 11 70 -7 39 -5 52 17 93 23 41 24 49 11 58 -11 8 -12 12
-2 16 6 2 12 20 12 40 0 19 9 48 20 63 15 21 17 29 8 33 -23 8 1 19 47 23 102
6 224 101 251 193 15 49 15 61 -1 140 -11 56 -34 123 -66 191 l-50 105 26 59
c14 32 39 78 56 102 16 23 29 47 29 52 0 5 6 15 14 21 8 7 24 31 36 54 12 23
32 51 44 63 11 12 36 40 54 63 19 23 54 51 79 63 25 12 47 26 49 33 3 7 24 18
47 26 23 8 50 22 59 31 22 22 38 23 38 3 0 -8 3 -15 8 -15 14 0 34 17 30 26
-1 5 8 10 22 12 14 2 36 8 49 15 19 9 25 9 28 0 3 -7 13 -13 23 -13 9 0 23 -7
30 -15 7 -8 9 -15 5 -15 -5 0 -6 -3 -2 -6 8 -8 37 21 37 36 0 6 -5 8 -11 5
-12 -8 -64 3 -56 12 10 9 71 20 86 14 9 -3 10 -6 4 -8z m-3233 -3 c0 -18 -13
-40 -24 -40 -6 0 -16 11 -22 24 -10 21 -8 23 18 24 15 0 28 -3 28 -8z m114
-16 c9 -3 16 -13 16 -21 0 -10 -6 -13 -16 -9 -9 3 -22 6 -30 6 -8 0 -14 7 -14
15 0 16 17 19 44 9z m51 -24 c3 -5 1 -10 -4 -10 -6 0 -11 5 -11 10 0 6 2 10 4
10 3 0 8 -4 11 -10z m7523 -30 c1 0 -1 -19 -4 -42 -13 -83 -63 -110 -249 -131
-112 -13 -265 -11 -280 4 -3 4 15 15 42 24 47 16 67 26 183 85 50 26 112 50
165 63 15 4 116 2 143 -3z m-5660 -116 c20 -4 50 -24 75 -49 47 -47 177 -268
177 -301 0 -12 7 -27 15 -34 29 -24 122 -174 155 -250 25 -56 34 -94 38 -150
4 -75 4 -76 -29 -109 -53 -52 -121 -82 -168 -75 -47 7 -77 27 -120 76 -36 41
-56 116 -28 105 28 -10 40 17 26 58 -7 19 -16 35 -20 35 -4 0 -9 9 -12 21 -3
13 -10 18 -17 14 -8 -5 -11 1 -9 16 4 36 -10 69 -26 62 -9 -3 -18 3 -22 13 -3
9 -15 26 -26 37 -10 10 -16 25 -13 32 2 7 -4 21 -15 31 -10 9 -19 23 -19 29 0
7 -9 24 -20 37 -10 14 -17 28 -14 31 3 3 0 21 -7 41 -11 29 -19 36 -51 41 -40
7 -52 18 -53 50 0 23 -34 33 -46 13 -6 -9 -9 -3 -9 19 0 17 7 39 16 47 8 9 17
24 19 35 14 72 92 145 145 135 14 -2 40 -7 58 -10z m6233 -13 c23 -19 24 -20
9 -62 -13 -38 -28 -53 -119 -116 -116 -81 -186 -111 -278 -120 -85 -8 -83 5
15 93 124 113 225 199 247 212 32 18 100 15 126 -7z m-5741 -95 c0 -2 -7 -7
-16 -10 -8 -3 -12 -2 -9 4 6 10 25 14 25 6z m4519 -38 c97 -54 172 -121 269
-238 25 -30 63 -73 83 -95 21 -22 39 -51 41 -65 2 -18 10 -26 28 -28 14 -2 47
-22 73 -46 45 -42 59 -66 37 -66 -35 0 -220 36 -318 61 -83 22 -150 33 -231
36 -111 6 -116 7 -141 35 -32 34 -88 174 -96 240 -8 59 -1 89 33 129 65 77
132 88 222 37z m-4732 -10 c-3 -8 -6 -5 -6 6 -1 11 2 17 5 13 3 -3 4 -12 1
-19z m63 -32 c25 -7 51 -11 59 -8 10 3 12 0 7 -14 -5 -11 -13 -32 -18 -49 -21
-59 -33 -61 -57 -8 -13 26 -27 56 -32 65 -17 32 -18 32 41 14z m-534 -77 c13
-22 -12 -30 -31 -9 -18 19 -18 20 3 20 11 0 24 -5 28 -11z m14 -74 c0 -2 -7
-5 -15 -9 -9 -3 -15 0 -15 9 0 9 6 12 15 9 8 -4 15 -7 15 -9z m1939 -180 c102
-72 132 -115 59 -84 -52 22 -173 17 -207 -9 -36 -26 -79 -17 -101 21 -21 37
-6 56 61 85 68 29 136 24 188 -13z m1303 -78 c185 -3 342 -8 350 -13 7 -5 46
-11 86 -15 45 -3 79 -12 88 -21 16 -15 32 -128 20 -128 -4 0 -16 5 -27 11 -16
8 -36 5 -87 -11 -56 -18 -96 -23 -237 -26 -93 -2 -195 -6 -225 -9 -30 -3 -71
0 -90 6 -19 6 -80 12 -135 14 -63 2 -114 9 -137 19 -21 9 -53 22 -70 30 -36
14 -78 6 -78 -16 0 -7 -4 -19 -9 -26 -12 -20 -58 30 -87 95 -41 91 -40 92 79
95 56 2 129 2 162 1 33 -1 211 -4 397 -6z m1633 -16 c3 -5 -5 -13 -17 -16 -13
-4 -98 -43 -191 -87 l-168 -79 -47 25 c-61 33 -159 66 -193 66 -29 0 -35 11
-38 62 l-1 27 103 4 c246 7 546 6 552 -2z m342 -33 c23 -18 14 -44 -27 -81
-22 -19 -40 -40 -40 -46 0 -17 47 -13 88 8 92 47 273 70 399 51 78 -12 215
-62 289 -105 50 -29 142 -128 161 -172 17 -42 17 -115 -1 -156 -20 -47 -119
-139 -200 -186 -53 -30 -86 -42 -131 -46 -103 -10 -100 -32 9 -70 105 -37 172
-93 279 -234 153 -201 173 -402 63 -619 -32 -64 -136 -171 -192 -200 -40 -20
-42 -20 -58 -3 -9 10 -16 21 -16 26 0 4 -20 29 -45 56 l-45 48 40 81 c67 134
89 227 90 367 0 98 -43 204 -71 176 -8 -8 -7 -29 6 -80 33 -129 6 -287 -70
-427 -49 -87 -54 -91 -112 -76 -84 21 -329 -6 -520 -56 -54 -14 -120 -30 -148
-35 -27 -4 -99 -17 -160 -28 -123 -23 -190 -26 -232 -10 -95 36 -258 192 -235
225 4 5 21 17 39 27 31 17 32 17 60 -7 35 -29 87 -56 108 -56 31 0 16 39 -22
59 -51 26 -101 80 -113 122 -6 19 -15 90 -20 158 -14 191 17 337 96 455 31 47
35 59 23 67 -22 14 -25 12 -62 -38 -48 -67 -57 -86 -84 -183 -42 -152 -41
-281 3 -497 5 -28 3 -33 -24 -47 -66 -34 -205 -13 -281 42 -81 59 -121 137
-131 258 -5 67 -12 88 -37 125 -41 60 -86 208 -86 282 1 76 33 126 100 157 26
13 49 24 51 25 1 1 0 10 -4 19 -4 9 -17 16 -35 16 -24 0 -31 7 -49 47 -38 87
-37 118 7 241 18 49 32 52 79 15 67 -50 187 -25 224 48 11 20 17 39 14 42 -3
3 -3 24 1 46 6 38 9 41 38 41 90 -1 199 -52 216 -102 6 -16 17 -28 25 -28 25
0 80 -55 108 -107 15 -26 39 -84 53 -128 15 -44 34 -92 41 -107 14 -27 37 -37
48 -20 3 4 -12 58 -33 120 -21 61 -36 114 -33 117 3 3 36 5 74 5 108 0 250 41
225 66 -3 3 -46 -1 -94 -10 -104 -19 -157 -20 -204 -5 -37 13 -99 66 -99 85 0
7 15 25 34 39 44 33 256 150 329 181 93 39 258 52 294 22z m-3553 -55 c95 -85
99 -115 15 -102 -33 5 -69 4 -96 -3 -24 -6 -46 -9 -48 -6 -2 2 2 15 9 29 7 14
21 47 31 72 10 27 24 47 33 47 8 0 33 -17 56 -37z m375 7 c44 -17 82 -38 85
-46 12 -31 5 -109 -15 -177 -29 -99 -69 -299 -89 -447 -6 -47 -21 -130 -32
-185 -11 -55 -22 -111 -25 -125 -11 -59 -76 -327 -85 -352 -6 -16 -15 -28 -20
-28 -5 0 -4 -10 3 -21 21 -40 -2 -66 -63 -72 -64 -7 -134 4 -130 21 8 40 15
93 17 137 7 110 22 231 32 250 6 11 18 90 27 175 9 85 25 218 36 295 18 130
28 223 36 335 8 119 31 252 45 261 28 17 100 9 178 -21z m221 -251 c12 -29 32
-103 45 -164 14 -60 36 -157 49 -215 29 -118 46 -231 76 -500 11 -102 25 -207
30 -233 12 -58 13 -117 2 -117 -4 0 -19 8 -32 18 -39 27 -172 24 -225 -6 -22
-12 -45 -22 -51 -22 -7 0 -13 45 -18 128 -8 150 -28 304 -54 420 l-19 84 23
156 c31 214 76 418 114 516 11 29 11 29 25 9 8 -11 24 -44 35 -74z m-2037 15
c12 -15 37 -41 55 -57 38 -36 39 -43 10 -101 l-21 -45 -66 0 c-140 -1 -271
-12 -304 -26 -19 -8 -59 -14 -90 -14 -76 1 -100 -7 -91 -33 6 -19 3 -21 -35
-15 -22 3 -48 12 -56 21 -12 11 -35 16 -78 16 -33 0 -75 5 -92 11 -34 13 -90
5 -80 -11 4 -6 -10 -11 -32 -12 -37 -1 -37 -1 -5 -5 39 -5 43 -23 5 -23 -22 0
-25 -2 -13 -10 13 -9 13 -10 0 -11 -8 -1 -18 -1 -22 0 -5 0 -8 -4 -8 -9 0 -6
-13 -10 -29 -10 -24 0 -29 -5 -35 -32 l-7 -33 -16 33 c-16 33 -29 40 -35 20
-3 -7 -28 -11 -72 -9 -57 2 -68 0 -63 -13 8 -19 -19 -29 -45 -15 -15 8 -26 8
-44 -1 -12 -7 -36 -10 -52 -7 -22 5 -34 1 -47 -13 -14 -16 -31 -20 -83 -20
-47 0 -71 -5 -91 -19 -24 -17 -132 -40 -216 -46 -16 -1 -37 -3 -46 -3 -9 -1
-19 -11 -22 -22 -4 -16 -14 -20 -50 -20 -25 0 -48 4 -51 8 -6 10 -74 3 -82 -9
-3 -5 -14 -9 -25 -9 -11 0 -23 -10 -29 -24 -8 -22 -14 -24 -74 -22 -36 1 -66
-2 -66 -5 0 -11 -60 -21 -127 -23 -47 -1 -65 -5 -75 -19 -11 -14 -96 -37 -140
-37 -4 0 -9 -19 -11 -42 -2 -24 -4 -4 -5 45 -2 85 9 114 23 60 3 -15 9 -23 13
-17 4 5 14 9 22 9 8 0 22 15 30 33 9 18 19 29 24 25 10 -11 116 -13 116 -3 0
5 -6 11 -12 13 -7 3 1 6 18 6 17 1 34 4 38 8 3 4 29 6 56 4 58 -3 123 17 116
36 -4 9 11 12 60 11 54 -2 69 1 79 16 17 22 155 54 208 48 29 -3 37 -1 37 12
0 18 36 22 42 4 3 -7 11 -9 24 -4 19 8 19 8 -1 16 -29 11 52 23 98 15 25 -5
37 -3 43 8 15 24 64 43 147 57 43 7 80 17 83 21 3 5 20 9 39 9 48 0 136 19
162 36 12 8 32 14 43 14 11 0 28 4 38 9 27 14 110 38 192 56 41 9 95 23 120
31 43 13 89 25 240 62 36 9 80 16 98 16 17 0 32 4 32 9 0 5 7 7 15 3 8 -3 30
1 50 10 19 8 65 21 103 29 37 7 78 18 92 24 39 15 50 13 73 -15z m1468 -284
c-7 -36 -9 -39 -10 -15 -1 33 11 85 16 70 1 -6 -1 -30 -6 -55z m-25 1 c-4 -50
-10 -58 -41 -58 l-26 0 20 21 c23 25 27 51 9 62 -8 5 -6 10 8 14 28 11 34 3
30 -39z m7850 8 c3 -5 -11 -9 -30 -9 -33 0 -44 8 -31 22 8 7 54 -3 61 -13z
m-1263 -26 c-13 -2 -33 -2 -45 0 -13 2 -3 4 22 4 25 0 35 -2 23 -4z m-4426
-36 c2 -2 -21 -30 -51 -61 -48 -49 -60 -56 -93 -56 -21 0 -56 7 -78 14 -24 9
-58 12 -87 9 -33 -4 -54 -1 -70 9 -17 11 -30 13 -48 6 -23 -9 -75 -7 -213 5
-26 2 -50 0 -53 -4 -3 -5 -18 -9 -33 -9 -15 0 -33 -6 -40 -12 -10 -11 -15 -10
-25 5 -15 19 -46 23 -46 6 0 -7 -10 -5 -25 5 -26 17 -55 21 -55 7 0 -16 -50
-62 -61 -56 -5 4 -17 -11 -26 -34 -19 -49 -37 -49 -41 0 -2 19 -9 41 -16 49
-15 17 -36 117 -27 126 6 6 1081 -3 1088 -9z m-2433 -24 c14 -2 26 1 26 7 0 5
5 10 10 10 6 0 10 -9 10 -20 0 -13 -7 -20 -19 -20 -10 0 -21 -7 -24 -14 -3 -8
-22 -18 -41 -21 -40 -8 -64 1 -47 18 6 6 11 19 11 28 0 10 5 21 12 25 7 5 9 2
6 -8 -4 -8 -2 -21 3 -29 6 -10 9 -3 9 21 0 25 3 31 9 21 5 -8 21 -16 35 -18z
m136 -4 c0 -5 -16 -9 -35 -9 -22 0 -35 5 -35 13 0 9 11 12 35 9 19 -2 35 -8
35 -13z m-3665 -49 c-3 -5 -10 -10 -16 -10 -5 0 -9 5 -9 10 0 6 7 10 16 10 8
0 12 -4 9 -10z m3804 -184 c-11 -88 -24 -176 -30 -195 -6 -20 -19 -81 -29
-136 -30 -159 -43 -215 -50 -215 -3 0 -15 19 -27 43 -11 23 -62 110 -114 192
-115 185 -169 289 -169 324 0 46 71 93 161 107 24 4 53 12 64 18 28 15 102 36
155 44 35 6 46 4 51 -8 4 -8 -2 -87 -12 -174z m-4022 -168 c-2 -35 -3 -7 -3
62 0 69 1 97 3 63 2 -35 2 -91 0 -125z m3615 -56 c20 -31 44 -75 53 -96 9 -22
28 -54 41 -71 24 -31 29 -49 26 -93 -2 -18 -6 -22 -21 -17 -29 9 -35 -11 -9
-29 l22 -16 -22 0 c-12 0 -22 -5 -22 -11 0 -6 -22 -9 -57 -8 -53 3 -58 1 -61
-19 -5 -35 -20 -26 -33 21 -11 39 -9 118 6 300 5 58 19 97 33 97 4 -1 24 -27
44 -58z m2558 6 c23 -37 35 -72 41 -118 12 -92 11 -120 -3 -120 -17 0 -75 71
-89 107 -14 36 -2 183 15 183 2 0 18 -24 36 -52z m-3670 -205 c-13 -116 -22
-145 -44 -141 -11 2 -77 -29 -86 -41 -6 -7 -131 -56 -170 -67 -14 -3 -32 -12
-40 -18 -21 -17 -192 -86 -212 -86 -10 0 -28 -5 -40 -11 -25 -11 -186 -3 -478
25 -85 8 -212 16 -282 18 -71 2 -128 6 -128 9 0 3 26 14 58 24 31 10 98 32
147 47 50 16 110 36 135 44 25 8 58 14 73 14 15 0 41 7 57 15 17 9 40 12 58 9
22 -5 40 1 68 20 28 19 52 26 85 26 32 0 62 8 94 27 26 14 68 30 93 35 25 4
53 14 61 21 9 8 35 21 59 31 33 13 48 14 64 5 31 -17 137 16 164 51 10 12 14
12 28 1 13 -11 19 -11 31 -1 8 6 34 13 57 15 24 2 46 4 51 4 4 1 7 8 7 16 0
11 12 15 45 15 28 0 45 5 45 12 0 6 3 8 7 5 3 -4 0 -60 -7 -124z m1247 -95
c-3 -8 -6 -5 -6 6 -1 11 2 17 5 13 3 -3 4 -12 1 -19z m33 -25 c0 -7 -6 -13
-14 -13 -9 0 -12 8 -8 26 3 19 7 22 13 12 5 -7 9 -19 9 -25z m560 -14 c0 -43
-3 -50 -17 -47 -18 3 -19 20 -7 76 8 41 24 23 24 -29z m-526 -49 c8 -16 11
-30 6 -30 -5 0 -12 9 -15 21 -4 11 -13 18 -20 15 -7 -2 -16 2 -19 10 -11 29
32 14 48 -16z m-247 -42 c-3 -8 -6 -5 -6 6 -1 11 2 17 5 13 3 -3 4 -12 1 -19z
m-990 -80 c-2 -13 -4 -5 -4 17 -1 22 1 32 4 23 2 -10 2 -28 0 -40z m482 10 c0
-18 -4 -42 -8 -53 -7 -17 -9 -14 -13 14 -3 19 -3 43 0 53 7 30 22 20 21 -14z
m1279 13 c70 -36 88 -71 127 -253 32 -151 33 -194 3 -201 -12 -4 -23 -5 -25
-3 -1 1 -6 26 -10 56 -5 30 -14 55 -22 58 -10 3 -11 -2 -6 -19 8 -23 7 -23
-20 4 -15 15 -36 27 -46 27 -10 0 -21 5 -24 10 -3 6 -15 10 -26 10 -22 0 -52
24 -42 33 3 4 -8 22 -25 41 -19 22 -33 30 -36 23 -2 -7 -5 -4 -5 6 -1 9 -5 17
-10 17 -5 0 -12 -8 -14 -17 -4 -14 -5 -13 -6 4 -3 56 65 184 112 210 29 16 32
16 75 -6z m406 -2 c59 -47 93 -168 62 -226 -18 -35 -52 -58 -148 -98 -79 -32
-98 -29 -98 18 0 19 -7 54 -15 77 -8 23 -15 55 -15 71 0 15 -4 31 -10 34 -5 3
-10 18 -10 31 0 49 87 99 196 113 6 0 23 -8 38 -20z m-714 -4 c7 -9 17 -12 24
-7 6 4 24 9 40 11 33 3 32 -11 -7 -59 -23 -29 -62 -34 -77 -11 -5 9 -9 8 -14
-5 -10 -25 -23 -6 -31 44 -7 41 -6 42 23 42 16 0 35 -7 42 -15z m2365 6 c-11
-19 47 -51 91 -51 52 0 57 -13 13 -29 -44 -15 -66 -14 -73 4 -4 11 -20 15 -57
15 -45 0 -50 -2 -39 -15 10 -13 10 -19 -2 -33 -18 -19 -13 -42 8 -42 8 0 14
-5 14 -11 0 -6 14 -24 31 -40 26 -24 29 -32 19 -44 -12 -14 -15 -14 -30 0 -19
17 -40 20 -40 5 0 -5 -7 -10 -15 -10 -8 0 -15 -4 -15 -10 0 -5 -7 -10 -15 -10
-15 0 -55 -19 -65 -31 -5 -6 -47 -16 -110 -27 -14 -2 -67 -5 -117 -5 -65 -1
-93 -5 -93 -13 0 -7 6 -15 13 -17 6 -3 1 -6 -13 -6 -41 -2 -54 -15 -35 -35 9
-9 21 -16 26 -16 6 0 7 -5 3 -11 -4 -7 -21 -9 -40 -6 -28 5 -34 3 -34 -12 0
-22 -17 -37 -45 -43 -11 -2 -20 -10 -20 -18 -1 -8 -6 -14 -12 -13 -7 2 -27 4
-45 5 -18 1 -38 9 -44 16 -9 12 -15 12 -42 -2 -18 -9 -32 -21 -32 -26 0 -6
-15 -10 -33 -10 -18 0 -42 -6 -53 -14 -10 -8 -29 -12 -41 -9 -14 3 -23 1 -23
-6 0 -6 -7 -11 -15 -11 -8 0 -14 3 -14 8 3 17 -2 32 -10 32 -5 0 -11 -9 -13
-20 -2 -13 -7 -17 -16 -11 -11 6 -17 28 -21 74 -1 4 -13 7 -27 7 -19 0 -25 -4
-21 -14 4 -9 -2 -17 -14 -21 -10 -4 -17 -10 -14 -15 3 -5 -2 -15 -11 -24 -8
-9 -13 -20 -10 -25 3 -5 -3 -11 -14 -14 -16 -4 -20 1 -25 27 -2 17 -4 49 -3
71 0 22 -1 89 -3 148 -3 60 -2 110 1 112 4 2 19 -2 33 -10 15 -8 71 -19 126
-26 91 -11 106 -10 202 11 108 24 176 55 266 121 58 43 77 49 68 20 -4 -13 0
-20 14 -24 16 -4 21 1 26 24 4 16 4 33 0 39 -3 5 -1 18 4 27 9 16 10 16 11 -4
0 -28 17 -38 36 -23 8 7 28 14 46 16 40 5 50 14 14 14 -16 0 -25 4 -21 10 3 6
-3 10 -14 10 -29 0 -36 19 -9 24 13 3 41 9 63 14 52 13 338 15 330 3z m-3295
-78 c0 -26 -4 -33 -20 -33 -23 0 -25 11 -8 57 14 38 28 26 28 -24z m274 -1
c-4 -18 -10 -29 -14 -27 -5 3 -3 18 3 35 14 37 19 33 11 -8z m3216 28 c0 -5
-2 -10 -4 -10 -3 0 -8 5 -11 10 -3 6 -1 10 4 10 6 0 11 -4 11 -10z m-3070 -57
c0 -7 -4 -13 -10 -13 -5 0 -10 12 -10 28 0 21 2 24 10 12 5 -8 10 -21 10 -27z
m-2320 -10 c101 -4 165 -11 182 -20 26 -13 105 -19 138 -12 10 3 14 -2 12 -13
-3 -20 30 -40 53 -32 10 4 15 16 13 33 -3 24 -1 26 32 23 19 -2 44 -9 55 -16
21 -13 55 -10 55 4 0 5 8 6 17 3 15 -6 15 -7 0 -12 -16 -6 -16 -8 -2 -29 18
-25 35 -29 35 -7 0 8 4 15 8 15 15 0 12 -102 -3 -133 -8 -16 -15 -41 -15 -54
0 -27 -8 -29 -26 -5 -12 15 -14 11 -12 -33 2 -27 7 -48 12 -47 8 4 26 -16 26
-29 0 -3 -11 -18 -25 -33 -14 -15 -25 -31 -25 -37 0 -5 -11 -14 -25 -19 -14
-5 -25 -16 -25 -25 0 -8 -4 -15 -10 -15 -5 0 -10 -7 -10 -15 0 -8 -6 -15 -13
-15 -7 0 -19 -16 -26 -36 -10 -28 -10 -41 -1 -65 7 -16 18 -28 24 -26 6 2 16
-2 23 -9 15 -15 17 -64 3 -64 -5 0 -11 -17 -12 -37 l-1 -38 -7 45 c-8 54 -12
31 -14 -90 -1 -75 -4 -85 -19 -84 -12 1 -25 -13 -40 -42 -13 -28 -28 -44 -39
-44 -12 0 -18 -8 -18 -24 0 -73 -46 -73 -64 -1 -19 77 -18 101 7 213 2 8 10
18 18 23 8 5 10 9 4 9 -5 0 -4 5 3 12 21 21 8 161 -16 177 -5 3 -9 20 -10 36
0 17 -6 44 -12 60 -11 29 -12 29 -26 11 -8 -11 -14 -43 -14 -73 0 -29 -4 -53
-10 -53 -5 0 -10 4 -10 10 0 6 -9 6 -22 1 -25 -9 -35 -39 -37 -111 -2 -68 -9
-74 -91 -74 l-72 -1 0 75 0 75 46 3 c25 2 46 7 46 12 0 4 12 12 28 18 25 9 27
13 24 56 l-4 46 -74 0 c-72 0 -74 1 -74 25 0 14 -9 30 -19 37 -15 9 -17 17
-10 35 12 31 12 30 -11 36 -12 3 -20 14 -20 26 0 12 -4 21 -9 21 -4 0 -11 -35
-14 -79 -5 -77 -28 -138 -48 -125 -5 3 -9 -45 -9 -110 l0 -116 -29 0 c-33 0
-37 8 -47 82 -4 29 -13 59 -21 66 -7 7 -13 33 -13 58 0 37 -3 44 -20 44 -14 0
-20 7 -21 23 -15 264 -12 242 -39 242 -15 0 -25 6 -25 15 -1 20 -15 41 -24 36
-9 -6 -10 -1 -17 75 -6 55 -5 56 27 69 27 12 29 15 14 20 -16 5 -12 10 21 28
34 18 51 20 129 16 50 -2 160 -7 245 -11z m2150 -33 c0 -18 5 -30 13 -30 17 0
21 -59 7 -95 -16 -42 -30 -28 -26 25 1 28 -1 50 -5 50 -4 0 -7 18 -7 40 0 22
4 40 9 40 5 0 9 -13 9 -30z m-321 -277 c-1 -137 -4 -199 -9 -168 -7 47 -1 385
7 385 1 0 2 -98 2 -217z m-2639 163 c0 -3 -4 -8 -10 -11 -5 -3 -10 -1 -10 4 0
6 5 11 10 11 6 0 10 -2 10 -4z m-32 -40 c3 -15 1 -16 -17 -6 -12 6 -19 16 -15
21 9 15 28 5 32 -15z m2989 -28 c-3 -8 -6 -5 -6 6 -1 11 2 17 5 13 3 -3 4 -12
1 -19z m1502 -100 c-1 -57 -5 -114 -9 -128 -4 -14 -9 -18 -9 -10 -1 13 -2 13
-11 0 -9 -13 -12 -13 -21 3 -5 9 -16 17 -23 17 -8 0 -16 7 -20 15 -3 8 -12 15
-21 15 -8 0 -25 10 -37 22 -12 12 -34 23 -48 23 -33 0 -38 19 -5 23 14 2 23 7
21 11 -3 4 29 24 69 45 41 21 80 45 86 52 24 29 29 11 28 -88z m-4491 73 c35
-30 28 -44 -19 -38 -51 7 -66 20 -48 41 19 20 39 19 67 -3z m-361 -614 c-1
-111 -2 -17 -2 208 0 226 1 316 2 202 2 -115 2 -299 0 -410z m20 480 c-2 -23
-3 -1 -3 48 0 50 1 68 3 42 2 -26 2 -67 0 -90z m27 108 c3 -8 1 -15 -4 -15 -6
0 -10 7 -10 15 0 8 2 15 4 15 2 0 6 -7 10 -15z m3286 -45 c0 -24 -5 -40 -12
-40 -6 0 -4 -8 7 -20 13 -14 16 -28 11 -52 -13 -60 -14 -93 -3 -106 7 -9 12
-96 15 -225 2 -117 8 -213 13 -215 13 -5 11 -159 -2 -168 -8 -5 -8 -8 0 -13
12 -7 18 -107 8 -118 -4 -3 -7 1 -7 10 0 9 -4 17 -10 17 -12 0 -12 -7 -1 -46
7 -24 6 -31 -5 -31 -8 0 -14 10 -14 24 0 17 -6 23 -21 23 -16 0 -20 5 -16 20
3 13 0 20 -8 20 -7 0 -16 -13 -20 -30 -7 -32 -19 -39 -29 -15 -3 8 -10 15 -16
15 -12 0 -50 37 -50 49 0 5 -9 7 -20 4 -17 -5 -20 -1 -18 23 3 49 -2 84 -12
84 -24 0 -37 -56 -32 -140 2 -47 2 -83 -1 -80 -7 6 -44 431 -51 588 -4 70 -2
112 4 112 6 0 10 -43 10 -104 0 -57 4 -106 9 -108 6 -1 11 -57 12 -123 3 -153
15 -201 20 -82 2 49 1 91 -3 94 -15 8 -8 25 7 19 29 -11 45 4 38 37 -7 37 -20
57 -36 54 -8 -1 -13 22 -15 67 -3 62 -1 68 13 56 16 -13 19 0 20 110 0 43 1
45 33 48 l32 3 0 140 0 139 75 0 75 0 0 -40z m-3010 -144 c0 -3 -4 -8 -10 -11
-5 -3 -10 -1 -10 4 0 6 5 11 10 11 6 0 10 -2 10 -4z m2767 -168 c-3 -7 -5 -2
-5 12 0 14 2 19 5 13 2 -7 2 -19 0 -25z m-374 -19 c-8 -8 -19 -8 -40 -1 -28
10 -28 10 12 11 28 1 36 -2 28 -10z m15 -109 c12 -11 28 -20 37 -20 12 0 15
-7 11 -30 -3 -24 -1 -30 15 -30 12 0 16 5 13 15 -4 8 -3 15 0 15 4 0 16 -21
26 -46 16 -37 18 -55 11 -92 -8 -41 -9 -43 -10 -14 -1 26 -5 32 -23 32 -21 0
-23 -5 -25 -62 -2 -46 -8 -67 -23 -83 -24 -26 -25 -35 -4 -35 8 0 12 -5 9 -10
-4 -6 -14 -8 -24 -5 -24 7 -76 -10 -102 -34 -14 -13 -36 -21 -56 -21 -18 0
-33 -3 -32 -7 1 -5 -2 -18 -6 -30 -8 -26 -33 -37 -50 -23 -13 10 -49 -2 -65
-21 -3 -3 -16 -12 -30 -19 -13 -7 -33 -24 -43 -37 -10 -12 -24 -23 -32 -23 -7
0 -15 -6 -18 -12 -3 -10 -7 -10 -18 -2 -8 6 -37 14 -65 17 -31 3 -66 16 -90
32 -22 15 -52 29 -67 32 -17 3 -33 16 -39 29 -8 18 -17 22 -33 18 -16 -4 -24
0 -29 12 -6 16 -8 16 -16 4 -22 -34 -9 77 14 126 40 87 136 164 203 164 19 0
36 10 53 29 18 21 37 31 69 35 24 3 50 11 57 17 7 6 18 8 23 4 6 -3 21 1 35
10 21 14 25 14 39 0 9 -8 19 -15 23 -15 4 0 5 3 1 6 -13 13 31 45 88 63 112
36 143 38 173 11z m3207 0 c-3 -5 -23 -10 -44 -10 -21 0 -40 -3 -44 -6 -9 -10
4 -34 19 -34 8 0 14 -6 14 -14 0 -8 7 -17 16 -20 9 -4 14 -13 10 -21 -3 -8 -1
-15 4 -15 6 0 10 5 10 10 0 6 5 10 10 10 17 0 11 -13 -20 -49 -32 -36 -117
-207 -140 -281 -7 -25 -17 -50 -22 -56 -13 -18 -42 -213 -42 -294 -1 -41 2
-120 5 -174 6 -93 10 -106 52 -186 59 -113 62 -149 18 -260 -26 -66 -32 -93
-27 -123 10 -62 51 -122 112 -162 30 -20 54 -38 54 -40 0 -3 -32 -42 -87 -105
-18 -21 -33 -42 -33 -48 0 -6 -18 -30 -40 -54 -22 -23 -40 -46 -40 -50 0 -7
-16 -28 -65 -84 -11 -13 -38 -44 -60 -70 -76 -89 -83 -94 -120 -96 -19 0 -41
-1 -47 -2 -17 -1 -48 -40 -48 -60 0 -28 -43 -63 -85 -69 -64 -8 -142 -33 -125
-39 8 -4 -9 -7 -38 -7 -38 -1 -54 3 -58 14 -4 8 -12 15 -19 15 -21 0 -28 19
-15 35 10 12 10 18 0 30 -11 14 -16 14 -39 -1 -14 -10 -30 -23 -34 -31 -11
-18 -43 -16 -78 4 -31 18 -35 28 -19 38 6 3 10 14 10 24 0 10 9 30 21 45 26
33 16 50 -26 43 -34 -6 -77 15 -62 29 4 4 13 2 19 -4 18 -18 58 -15 65 5 4 10
1 19 -6 21 -7 2 -17 10 -24 17 -9 9 -14 9 -25 -2 -37 -36 -30 15 11 85 15 26
22 30 33 21 8 -6 14 -17 14 -23 1 -18 88 -88 128 -102 21 -7 56 -13 79 -14 46
0 158 38 202 69 44 31 88 125 96 204 7 62 9 67 31 67 13 0 24 5 24 11 0 11
-24 39 -34 39 -22 0 -116 124 -116 154 0 7 73 88 163 179 l162 167 53 -7 c68
-8 70 13 3 45 -62 28 -85 28 -108 -3 -16 -23 -21 -24 -49 -13 -27 10 -40 8
-89 -10 -49 -19 -68 -21 -142 -15 -71 5 -85 4 -81 -8 4 -11 32 -14 133 -15 91
0 130 -4 133 -12 2 -7 -32 -49 -77 -95 -44 -45 -90 -95 -102 -110 -36 -47 -56
-34 -116 72 -30 52 -56 105 -59 118 -6 21 -3 23 31 23 42 0 45 23 4 28 -66 7
-71 11 -66 45 3 18 12 59 21 92 9 33 16 88 16 122 0 34 4 84 9 110 9 45 22
328 25 558 1 97 24 265 35 265 71 2 409 43 557 68 128 22 177 25 169 12z
m-2980 -114 c16 -206 38 -404 62 -551 40 -254 42 -263 58 -398 8 -71 17 -133
20 -137 3 -5 -1 -11 -7 -13 -10 -4 -10 -7 -1 -14 22 -16 51 -115 32 -111 -7 2
-15 -9 -19 -24 -6 -21 -4 -30 8 -38 10 -5 15 -10 12 -10 -3 -1 -14 -3 -24 -5
-11 -2 -30 -6 -42 -9 -13 -4 -27 0 -34 9 -7 8 -18 15 -24 15 -11 0 -36 45 -36
66 0 6 -7 14 -15 18 -10 3 -15 19 -15 44 0 48 -4 52 -40 42 -31 -9 -39 0 -46
50 -1 13 -8 26 -13 28 -6 2 -11 10 -11 18 0 8 -4 14 -10 14 -5 0 -10 7 -10 16
0 36 -35 113 -53 118 -11 2 -16 9 -12 15 3 6 1 11 -6 11 -7 0 -9 10 -7 25 3
14 -1 30 -8 36 -8 6 -14 22 -14 35 0 12 -4 25 -8 28 -5 3 -9 44 -11 92 -1 48
-4 91 -7 96 -11 18 -24 6 -24 -22 0 -47 -18 -35 -21 14 -4 42 -3 43 19 35 12
-5 22 -5 22 0 0 23 -53 27 -74 6 -9 -9 -17 -11 -21 -5 -5 9 56 54 93 67 26 10
178 139 200 170 18 27 42 76 57 118 10 30 6 199 -5 203 -6 2 -10 10 -10 18 0
9 5 12 10 9 6 -3 10 2 10 12 0 14 2 15 9 4 5 -8 12 -51 16 -95z m5008 58 c9
-10 -12 -46 -24 -39 -14 9 -11 45 4 45 8 0 17 -3 20 -6z m-1985 -16 c-6 -18
-28 -21 -28 -4 0 9 7 16 16 16 9 0 14 -5 12 -12z m-885 -25 c10 -19 -22 -575
-33 -568 -13 8 -18 57 -9 89 7 22 5 34 -5 44 -18 18 -39 6 -31 -17 3 -11 -3
-25 -15 -36 -11 -10 -20 -31 -20 -47 0 -19 -4 -27 -11 -22 -9 5 -9 44 1 79 1
6 2 30 1 55 l-2 45 -14 -34 c-9 -18 -20 -59 -26 -90 -28 -152 -60 -340 -62
-371 -4 -43 -45 -208 -59 -234 -5 -10 -12 -43 -15 -73 -5 -50 -17 -73 -30 -60
-3 3 2 27 10 54 8 26 23 91 32 143 9 52 20 109 25 125 12 44 37 177 50 275 7
47 22 139 35 205 19 92 24 154 24 265 0 80 0 150 1 157 0 17 144 32 153 16z
m2797 -8 c0 -8 -7 -15 -16 -15 -14 0 -14 3 -4 15 7 8 14 15 16 15 2 0 4 -7 4
-15z m-3545 -15 c-22 -4 -32 -8 -22 -9 12 -1 17 -10 17 -30 0 -17 5 -33 10
-36 15 -9 12 -25 -4 -25 -8 0 -16 8 -18 17 -2 10 -12 18 -22 18 -11 0 -21 6
-24 14 -3 10 1 12 16 9 14 -4 19 -2 15 8 -2 7 -11 10 -19 7 -8 -3 -14 1 -14
10 0 20 15 26 65 25 l40 -1 -40 -7z m513 -163 c2 -141 -1 -181 -17 -240 -10
-40 -27 -116 -37 -169 -9 -54 -21 -98 -25 -98 -12 0 -29 35 -29 59 0 12 -4 21
-9 21 -9 0 -105 168 -126 220 -6 14 -21 45 -33 68 -26 49 -25 65 10 214 24
101 16 96 173 94 l90 -1 3 -168z m-468 128 c0 -8 -4 -15 -10 -15 -5 0 -7 7 -4
15 4 8 8 15 10 15 2 0 4 -7 4 -15z m-120 -43 c0 -13 -12 -22 -22 -16 -10 6 -1
24 13 24 5 0 9 -4 9 -8z m-1430 -57 c0 -8 -4 -15 -10 -15 -5 0 -7 7 -4 15 4 8
8 15 10 15 2 0 4 -7 4 -15z m3132 -260 c46 -124 59 -147 112 -200 64 -65 94
-80 266 -138 215 -72 277 -81 519 -74 171 5 222 10 302 30 221 55 389 168 439
295 37 93 57 85 100 -42 29 -85 29 -306 0 -394 -30 -92 -76 -168 -157 -261
-40 -46 -73 -89 -73 -96 0 -6 9 -20 19 -29 23 -21 42 -69 32 -83 -3 -5 -103
-57 -221 -115 -298 -146 -297 -146 -333 -153 -18 -4 -39 -9 -48 -11 -25 -7
-49 23 -49 59 0 43 9 53 50 61 62 13 70 17 70 38 0 20 -4 20 -72 14 -40 -4
-99 -12 -131 -18 -84 -16 -285 -4 -372 22 -38 12 -105 36 -148 55 -67 29 -107
36 -107 18 0 -17 26 -46 58 -62 43 -22 216 -81 238 -81 8 0 14 -8 14 -18 0
-40 -156 -60 -250 -34 -19 6 -71 18 -115 28 -102 23 -196 66 -246 113 -32 32
-39 45 -39 77 0 51 47 174 67 174 8 0 29 -11 48 -25 40 -31 88 -38 93 -13 2
10 -11 24 -38 39 -65 37 -169 190 -194 287 -16 63 -6 90 17 45 29 -54 112 -71
162 -31 42 33 75 112 75 181 0 89 -36 143 -104 154 -29 5 -44 0 -77 -23 -39
-27 -79 -87 -79 -119 0 -8 -4 -15 -10 -15 -13 0 -13 88 1 187 13 97 81 305
117 358 l27 40 6 -85 c3 -54 15 -110 31 -155z m-1546 173 c9 -18 26 -43 38
-54 12 -12 33 -46 47 -75 63 -128 152 -305 159 -314 3 -5 17 -38 30 -72 23
-66 29 -138 11 -156 -6 -6 -11 -19 -11 -29 0 -10 -6 -18 -14 -18 -9 0 -12 9
-8 28 4 26 4 26 -11 7 -8 -11 -13 -23 -11 -27 3 -5 1 -8 -5 -8 -5 0 -11 10
-13 22 -5 34 -38 37 -38 4 0 -23 -3 -26 -35 -23 l-34 2 39 36 c44 40 52 69 19
69 -11 0 -17 -4 -14 -10 5 -9 -1 -11 -32 -10 -5 0 -8 12 -8 25 0 14 -4 24 -10
24 -5 0 -12 9 -17 20 -4 12 -16 21 -26 21 -15 0 -22 12 -31 54 -12 55 -23 66
-66 66 -15 0 -29 9 -36 23 -7 12 -15 24 -20 27 -4 3 -24 37 -45 75 -21 39 -47
84 -60 100 -39 53 -65 115 -62 147 3 28 8 32 53 44 28 7 68 14 90 14 22 1 49
5 60 10 34 15 44 11 61 -22z m-1022 -108 c3 -36 11 -108 16 -160 19 -189 24
-273 13 -267 -9 6 -15 47 -28 192 -2 22 -9 85 -14 140 -6 55 -10 118 -11 140
0 61 17 29 24 -45z m-679 50 c-10 -11 -22 -17 -28 -13 -8 5 -7 8 1 11 7 2 10
8 6 13 -3 5 5 9 17 9 21 0 22 -1 4 -20z m1389 -125 c22 -38 63 -110 91 -160
29 -49 80 -143 114 -208 57 -110 61 -122 61 -185 0 -121 -30 -174 -125 -218
-27 -12 -75 -38 -105 -57 -30 -20 -89 -57 -130 -83 -41 -26 -105 -68 -142 -92
-38 -25 -70 -44 -72 -41 -7 7 31 221 47 264 19 53 51 217 77 395 22 149 58
312 90 410 10 30 22 69 26 85 l7 30 11 -35 c6 -19 29 -66 50 -105z m-520 99
c9 -3 16 -16 16 -28 0 -31 -40 -146 -51 -146 -5 0 -9 41 -9 90 0 93 3 100 44
84z m327 -4 c25 0 24 -16 -6 -131 -14 -51 -35 -143 -46 -204 -11 -60 -24 -126
-29 -145 -5 -19 -14 -68 -20 -107 -13 -81 -23 -96 -38 -56 -10 26 -11 24 -12
-22 -1 -27 -4 -43 -8 -35 -4 9 -14 15 -22 15 -11 0 -14 -10 -12 -42 2 -24 -1
-50 -7 -60 -9 -16 -10 -14 -11 10 0 15 -4 27 -10 27 -12 0 -24 -45 -15 -59 3
-6 -1 -11 -11 -11 -14 0 -15 7 -10 41 6 37 5 39 -9 26 -8 -9 -15 -20 -15 -26
0 -6 -4 -11 -10 -11 -5 0 -10 10 -10 23 0 13 -4 27 -9 33 -13 12 -51 128 -51
153 0 25 54 255 80 341 11 36 27 96 36 133 20 81 33 97 82 98 20 0 55 4 77 8
22 5 46 7 53 5 8 -2 22 -4 33 -4z m-1251 -20 c-24 -15 -37 -11 -16 5 11 8 22
12 25 9 3 -3 -1 -9 -9 -14z m-2673 -62 c-2 -13 -4 -5 -4 17 -1 22 1 32 4 23 2
-10 2 -28 0 -40z m2605 32 c-12 -11 -24 -20 -27 -20 -3 0 -5 9 -5 20 0 15 7
20 27 20 l27 0 -22 -20z m608 -84 c0 -2 -3 -11 -6 -20 -9 -23 -24 -20 -24 4 0
11 7 20 15 20 8 0 15 -2 15 -4z m40 -6 c0 -5 -4 -10 -10 -10 -5 0 -10 5 -10
10 0 6 5 10 10 10 6 0 10 -4 10 -10z m-143 -117 c-3 -10 -5 -2 -5 17 0 19 2
27 5 18 2 -10 2 -26 0 -35z m31 -158 l-1 -70 -7 67 c-5 37 -11 82 -14 100 l-6
33 15 -30 c8 -18 14 -58 13 -100z m1799 68 c-3 -10 -5 -4 -5 12 0 17 2 24 5
18 2 -7 2 -21 0 -30z m1053 -15 c29 -48 26 -114 -7 -163 -14 -22 -31 -43 -37
-47 -61 -42 -119 77 -80 163 20 45 57 79 85 79 11 0 28 -14 39 -32z m-2531
-148 c6 -28 11 -63 11 -78 1 -15 8 -45 16 -67 9 -22 19 -53 24 -70 5 -16 25
-73 45 -125 39 -102 58 -168 45 -154 -11 13 -70 156 -70 171 0 8 -4 21 -9 31
-20 35 -67 206 -88 315 -10 50 15 28 26 -23z m1481 14 c0 -2 -7 -4 -15 -4 -8
0 -15 4 -15 10 0 5 7 7 15 4 8 -4 15 -8 15 -10z m46 -61 c-10 -10 -19 5 -10
18 6 11 8 11 12 0 2 -7 1 -15 -2 -18z m-401 -113 c3 -5 -1 -10 -9 -10 -8 0
-18 5 -21 10 -3 6 1 10 9 10 8 0 18 -4 21 -10z m-804 -83 c-8 -8 -11 -7 -11 4
0 20 13 34 18 19 3 -7 -1 -17 -7 -23z m792 -35 c41 -6 59 -5 73 5 52 38 56 2
13 -117 -16 -47 -33 -96 -36 -110 -3 -14 -14 -37 -24 -52 -11 -14 -19 -34 -19
-43 0 -10 -5 -15 -13 -12 -7 3 -27 -1 -45 -9 -25 -10 -32 -19 -32 -41 0 -16
-4 -23 -8 -17 -4 6 -21 10 -37 9 -31 -2 -31 -2 -32 51 -1 35 3 57 13 65 7 6
11 15 8 21 -3 5 -11 5 -19 -2 -10 -8 -15 -8 -20 0 -10 16 3 76 19 89 7 6 11
22 8 36 -2 14 -2 32 2 40 3 8 4 17 3 19 -5 9 38 46 55 46 24 0 23 17 -1 25
-13 4 -18 12 -14 21 5 13 8 13 28 0 13 -9 48 -19 78 -24z m3267 -53 c0 -5 -4
-9 -10 -9 -5 0 -10 7 -10 16 0 8 5 12 10 9 6 -3 10 -10 10 -16z m80 2 c0 -15
-16 -22 -34 -15 -25 9 -19 24 9 24 14 0 25 -4 25 -9z m-3650 -169 c-25 -48
-60 -112 -79 -142 -45 -72 -169 -195 -205 -204 -34 -8 -45 -1 -25 17 27 22 50
68 47 93 l-3 24 -57 -34 c-63 -38 -84 -32 -44 11 15 15 26 34 26 42 0 7 16 29
36 47 19 19 34 40 32 46 -10 28 289 211 311 191 3 -2 -15 -43 -39 -91z m701
19 c-5 -20 -16 -54 -23 -76 l-13 -40 -3 32 c-2 18 6 53 17 79 12 26 22 56 22
68 2 18 2 18 6 -3 3 -14 0 -41 -6 -60z m2859 49 c7 -14 8 -26 0 -39 -5 -11
-10 -39 -10 -63 0 -39 -3 -45 -27 -53 -30 -11 -146 -5 -159 8 -5 4 -8 25 -9
46 0 22 -3 37 -6 35 -11 -7 -19 40 -9 50 7 7 10 6 10 -2 0 -9 5 -10 19 -2 11
5 31 10 44 10 14 0 38 7 53 15 41 21 81 19 94 -5z m502 4 c82 -17 99 -27 71
-42 -14 -8 -25 -35 -38 -94 -13 -57 -27 -90 -42 -104 -13 -12 -23 -26 -23 -33
0 -6 -10 -31 -22 -56 -16 -31 -29 -44 -43 -43 -11 0 -27 -1 -35 -3 -26 -7 -24
67 4 147 33 91 35 154 6 154 -11 0 -20 -4 -20 -10 0 -5 -16 -27 -35 -49 -24
-26 -35 -48 -35 -69 0 -34 -16 -50 -32 -34 -8 8 -6 18 6 36 21 34 21 66 -1 66
-30 -1 -55 -26 -49 -48 7 -20 -11 -72 -25 -72 -16 0 -17 16 -2 60 15 43 15 45
-8 62 -51 38 -59 50 -48 69 5 11 16 19 24 19 8 0 15 9 15 20 0 24 -22 26 -55
4 -27 -18 -31 -13 -15 17 10 17 23 19 170 18 102 0 186 -5 232 -15z m393 -4
c22 -8 26 -15 21 -33 -23 -81 -17 -193 10 -204 27 -10 36 13 39 98 2 46 4 87
4 91 1 13 39 28 55 22 18 -7 22 -49 6 -59 -36 -22 -66 -219 -39 -249 33 -36
39 -46 39 -63 0 -10 9 -24 20 -31 20 -12 27 -53 14 -87 -6 -14 -9 -14 -30 6
l-23 21 -7 -37 c-3 -20 -13 -39 -20 -42 -9 -3 -14 -20 -14 -44 0 -70 -52 -120
-66 -64 -6 26 -44 56 -44 35 0 -22 -17 -8 -34 26 -12 25 -18 72 -22 153 -6
127 -12 186 -21 178 -3 -3 -6 -43 -7 -89 -1 -63 -4 -82 -14 -80 -7 1 -22 -8
-32 -20 -15 -19 -20 -20 -34 -9 -9 7 -16 20 -16 27 0 8 -9 14 -20 14 -11 0
-23 7 -26 15 -4 8 -12 15 -19 15 -8 0 -15 12 -17 28 l-4 27 -11 -25 c-10 -25
-11 -25 -21 11 -8 30 -5 52 14 118 13 44 26 103 30 131 6 43 11 53 41 71 85
53 186 73 248 49z m-3974 -33 c-5 -18 -15 -48 -24 -67 -8 -19 -18 -45 -22 -57
-6 -23 -25 -32 -25 -13 0 24 61 170 70 170 5 0 5 -15 1 -33z m3167 -40 c-7
-14 -13 -17 -16 -9 -6 19 6 44 18 37 7 -4 6 -14 -2 -28z m-2828 -12 c6 -7 13
-20 14 -28 1 -8 14 -31 29 -50 15 -20 27 -39 27 -42 0 -4 15 -28 33 -54 18
-25 40 -66 47 -91 8 -25 23 -58 35 -73 29 -41 27 -112 -5 -155 -21 -28 -28
-32 -55 -26 -16 3 -37 12 -45 18 -20 16 -100 39 -108 31 -4 -4 2 -12 13 -18
22 -12 26 -13 69 -15 24 -2 27 -4 16 -17 -7 -8 -21 -15 -31 -15 -10 0 -23 -8
-29 -17 -11 -17 -11 -17 -6 -1 3 12 -2 22 -17 29 -12 7 -26 18 -30 25 -4 8
-15 14 -22 14 -8 0 -15 4 -15 9 0 18 -32 41 -56 41 -27 0 -30 11 -10 43 8 12
17 42 21 67 4 24 27 101 51 171 24 70 44 137 44 148 0 24 13 27 30 6z m-410
-121 c0 -8 -5 -12 -10 -9 -6 4 -8 11 -5 16 9 14 15 11 15 -7z m223 -77 c-14
-48 -30 -87 -34 -87 -8 0 7 75 21 105 5 11 14 33 20 49 6 16 13 27 15 24 3 -3
-7 -44 -22 -91z m-381 21 c-9 -9 -12 -7 -12 12 0 19 3 21 12 12 9 -9 9 -15 0
-24z m-671 -21 c-16 -16 -26 0 -10 19 9 11 15 12 17 4 2 -6 -1 -17 -7 -23z
m571 -16 c14 -16 14 -20 3 -25 -8 -3 -25 1 -39 8 -22 11 -23 13 -8 24 23 15
25 15 44 -7z m88 10 c0 -6 -4 -13 -10 -16 -5 -3 -10 1 -10 9 0 9 5 16 10 16 6
0 10 -4 10 -9z m117 -13 c-3 -8 -6 -5 -6 6 -1 11 2 17 5 13 3 -3 4 -12 1 -19z
m-36 -71 c-8 -8 -11 -7 -11 4 0 20 13 34 18 19 3 -7 -1 -17 -7 -23z m2201 19
c12 -17 -12 -60 -54 -99 -53 -48 -72 -45 -76 11 -4 49 -19 54 -57 16 -26 -25
-57 -25 -35 1 8 9 8 15 0 20 -13 8 -3 26 13 24 34 -4 77 2 77 12 0 6 -12 10
-27 9 -39 -3 -45 -1 -38 9 7 12 188 9 197 -3z m-2342 -10 c0 -3 -4 -8 -10 -11
-5 -3 -10 -1 -10 4 0 6 5 11 10 11 6 0 10 -2 10 -4z m-50 -28 c0 -19 -2 -20
-10 -8 -13 19 -13 30 0 30 6 0 10 -10 10 -22z m154 -29 c-28 -31 -37 -22 -13
13 13 18 25 26 27 19 2 -7 -4 -21 -14 -32z m1453 26 c8 -22 -6 -33 -17 -15
-13 20 -12 30 0 30 6 0 13 -7 17 -15z m485 -67 c-7 -7 -12 -8 -12 -2 0 14 12
26 19 19 2 -3 -1 -11 -7 -17z m352 -17 c17 -19 16 -21 -22 -60 -36 -37 -40
-39 -45 -21 -3 11 0 26 7 33 7 7 16 25 20 40 8 32 17 34 40 8z m-894 -28 c0
-5 -33 -57 -41 -63 -3 -3 -24 -33 -47 -67 -24 -35 -51 -67 -62 -73 -11 -6 -20
-17 -20 -24 0 -8 -11 -24 -25 -37 -14 -13 -32 -35 -40 -49 -14 -27 -61 -58
-71 -48 -5 6 15 48 56 116 11 17 28 45 38 61 36 61 97 147 130 183 33 36 35
37 58 22 13 -9 24 -18 24 -21z m596 22 c-8 -8 -19 -15 -25 -15 -6 0 -11 7 -11
15 0 9 10 15 26 15 23 0 24 -2 10 -15z m876 -55 c7 -16 17 -30 22 -30 5 0 6
-15 3 -34 -5 -32 -3 -34 26 -40 28 -6 30 -8 14 -17 -18 -11 -18 -12 1 -25 11
-8 26 -12 34 -9 8 3 17 -8 25 -32 11 -34 10 -40 -7 -55 -11 -9 -15 -18 -10
-20 6 -2 1 -14 -11 -27 -18 -19 -19 -25 -8 -32 8 -5 9 -9 3 -9 -16 0 -32 -46
-33 -95 -1 -32 4 -46 24 -63 15 -13 25 -28 22 -35 -7 -21 -34 -19 -64 7 -16
13 -44 28 -63 33 -31 8 -35 13 -35 44 -1 19 -4 44 -8 55 -9 26 -71 94 -85 94
-5 0 -22 -16 -38 -35 l-28 -36 -18 23 c-10 13 -18 29 -18 36 0 19 37 55 49 48
5 -4 12 -2 16 4 3 5 -11 17 -32 26 -21 9 -46 21 -57 26 -10 5 -21 6 -25 1 -8
-11 -62 -35 -67 -30 -3 2 2 17 11 33 8 16 18 44 21 62 4 23 14 36 30 42 13 5
24 14 24 19 0 6 11 22 25 37 22 24 25 25 26 8 4 -51 7 -66 18 -77 6 -6 11 -18
11 -27 0 -19 36 -55 43 -43 2 4 12 35 21 68 22 75 30 90 48 90 7 0 25 10 38
23 31 29 36 28 52 -8z m-363 4 c2 -2 -2 -4 -10 -4 -13 0 -30 -17 -82 -83 -15
-20 -27 -26 -40 -22 -24 10 -21 21 13 45 19 13 30 30 30 45 0 14 7 25 18 28
16 4 63 -2 71 -9z m3389 -19 c14 -30 16 -135 3 -135 -10 0 -40 130 -33 148 7
19 18 14 30 -13z m-4497 -116 c-10 -23 -10 -23 -10 7 -1 17 2 34 7 38 11 12
14 -18 3 -45z m-731 32 c0 -10 -78 -26 -87 -18 -3 3 -2 10 2 16 8 13 85 15 85
2z m700 -92 c-7 -16 -19 -29 -26 -29 -8 0 -14 -5 -14 -10 0 -15 -78 -95 -86
-88 -6 7 67 116 105 157 29 30 39 15 21 -30z m4840 6 c0 -8 -4 -15 -10 -15 -5
0 -10 7 -10 15 0 8 5 15 10 15 6 0 10 -7 10 -15z m-272 -63 c2 -22 -2 -33 -15
-40 -24 -13 -71 -12 -81 2 -14 18 -23 48 -12 41 6 -3 10 1 10 9 0 18 16 21 25
6 4 -7 14 -5 28 5 29 20 41 14 45 -23z m-4474 -24 c25 -56 26 -69 2 -49 -12
10 -16 8 -21 -8 -4 -14 -14 -19 -33 -18 -32 2 -42 13 -42 45 0 19 4 22 21 17
16 -6 20 -3 17 13 -2 16 17 52 28 52 2 0 14 -24 28 -52z m4649 -19 c22 -67 21
-77 -3 -51 -21 23 -39 102 -22 102 5 0 16 -23 25 -51z m-3593 29 c0 -6 -7 -8
-15 -5 -8 4 -17 2 -20 -3 -9 -15 -35 -12 -35 3 0 8 13 13 35 14 19 1 35 -4 35
-9z m537 -64 c-3 -3 -12 -4 -19 -1 -8 3 -5 6 6 6 11 1 17 -2 13 -5z m-2807 -8
c0 -3 -4 -8 -10 -11 -5 -3 -10 -1 -10 4 0 6 5 11 10 11 6 0 10 -2 10 -4z
m1225 -16 c-3 -5 -12 -10 -18 -10 -7 0 -6 4 3 10 19 12 23 12 15 0z m-740
-179 c-9 -8 -40 15 -37 28 1 6 -4 11 -10 12 -7 0 -4 4 7 8 15 6 22 2 32 -17 8
-14 11 -28 8 -31z m-217 12 c-10 -2 -26 -2 -35 0 -10 3 -2 5 17 5 19 0 27 -2
18 -5z m5846 -102 c-2 -14 -6 -42 -7 -61 -4 -57 -22 -30 -24 35 0 33 1 67 4
75 8 26 33 -19 27 -49z m-3819 19 c3 -5 2 -10 -4 -10 -5 0 -13 5 -16 10 -3 6
-2 10 4 10 5 0 13 -4 16 -10z m1780 -30 c3 -5 1 -10 -4 -10 -6 0 -11 5 -11 10
0 6 2 10 4 10 3 0 8 -4 11 -10z m-1931 -30 c55 -11 120 -60 124 -92 2 -20 -4
-30 -30 -46 -39 -23 -120 -42 -184 -42 -83 0 -68 -51 19 -65 23 -4 51 -13 63
-20 47 -30 138 -224 119 -255 -23 -37 -203 -79 -335 -80 -104 0 -405 27 -515
46 -49 9 -121 20 -158 25 -38 5 -72 11 -76 13 -4 3 -45 12 -91 20 -153 29
-174 34 -251 69 -87 40 -129 83 -129 130 1 40 20 107 48 170 12 27 22 52 22
57 0 5 19 25 43 45 l42 37 95 -5 c82 -5 125 -15 305 -72 116 -37 240 -81 277
-98 97 -42 128 -22 69 45 -37 43 -54 76 -47 94 9 23 37 16 101 -22 101 -61
213 -94 322 -94 88 0 94 2 124 28 38 34 33 51 -27 91 -52 36 -55 52 -7 39 21
-5 55 -13 77 -18z m4633 -137 c-3 -10 -5 -4 -5 12 0 17 2 24 5 18 2 -7 2 -21
0 -30z m-7928 -27 c0 -7 -2 -7 -5 1 -10 23 -71 -63 -66 -93 1 -6 -11 -11 -28
-10 -17 1 -30 7 -30 14 0 6 5 12 10 12 6 0 10 6 10 14 0 8 9 18 20 21 19 6 42
37 46 60 0 6 2 14 2 19 3 13 42 -24 41 -38z m7796 -47 c7 -33 3 -45 -14 -34
-12 7 -11 65 0 65 4 0 10 -14 14 -31z m-718 -41 c-3 -8 -6 -5 -6 6 -1 11 2 17
5 13 3 -3 4 -12 1 -19z m273 -33 c0 -8 -4 -15 -10 -15 -5 0 -10 7 -10 15 0 8
5 15 10 15 6 0 10 -7 10 -15z m470 -4 c0 -5 -6 -24 -14 -42 -12 -29 -16 -31
-22 -16 -8 21 10 67 26 67 5 0 10 -4 10 -9z m-3548 -60 c11 -63 32 -88 95
-116 61 -27 98 -31 157 -14 42 11 40 3 21 102 -7 34 -6 37 15 37 46 0 156 -40
193 -70 62 -52 48 -111 -32 -130 -53 -13 -87 -40 -78 -64 5 -12 21 -15 84 -11
338 17 440 18 514 1 95 -21 162 -59 212 -119 39 -46 41 -51 45 -132 7 -139 6
-142 -111 -232 -98 -75 -120 -87 -217 -119 -89 -30 -325 7 -485 76 -28 12 -77
31 -110 42 -227 78 -489 254 -511 344 -9 35 23 130 56 167 l25 28 60 -30 c67
-33 168 -51 180 -32 10 17 -12 39 -48 47 -88 19 -174 87 -183 145 -10 59 47
133 96 126 9 -1 17 -19 22 -46z m4148 -113 c0 -16 -4 -28 -8 -28 -16 0 -32 51
-26 77 l7 26 13 -24 c7 -13 13 -36 14 -51z m-570 31 c0 -5 -4 -9 -10 -9 -5 0
-10 7 -10 16 0 8 5 12 10 9 6 -3 10 -10 10 -16z m-5916 -54 c63 -31 135 -59
166 -64 30 -5 84 -16 120 -24 124 -30 276 -57 380 -68 58 -6 107 -12 109 -14
12 -13 -75 -17 -242 -12 -159 4 -227 11 -397 41 -113 19 -220 40 -239 45 -72
22 -92 75 -46 125 13 14 27 26 31 26 4 0 57 -25 118 -55z m6292 -30 c9 -14 19
-23 22 -20 9 9 32 -17 32 -38 0 -11 -8 -26 -17 -33 -17 -12 -17 -14 2 -28 19
-14 19 -15 -12 -14 -30 1 -32 4 -42 52 -5 28 -13 63 -17 79 -8 35 10 36 32 2z
m91 -57 c-3 -8 -6 -5 -6 6 -1 11 2 17 5 13 3 -3 4 -12 1 -19z m13 -50 c0 -5
-4 -8 -10 -8 -5 0 -10 10 -10 23 0 18 2 19 10 7 5 -8 10 -18 10 -22z m-4920
-16 c0 -11 -45 -32 -69 -32 -31 0 -33 13 -4 26 33 15 73 18 73 6z m-350 -52
c0 -5 -9 -10 -20 -10 -11 0 -20 5 -20 10 0 6 9 10 20 10 11 0 20 -4 20 -10z
m5570 -274 c0 -17 -14 -29 -23 -20 -8 8 3 34 14 34 5 0 9 -6 9 -14z m430 -26
c5 0 10 -11 10 -25 0 -27 -9 -32 -27 -14 -7 7 -19 9 -28 5 -13 -5 -15 -13 -10
-37 6 -26 4 -30 -10 -27 -9 1 -24 15 -33 31 -14 22 -14 31 -4 47 6 11 12 28
12 39 0 19 1 19 40 0 21 -10 44 -19 50 -19z m-362 -26 c-5 -28 -28 -29 -28 -1
0 13 3 27 7 31 10 10 25 -10 21 -30z m103 -4 c5 0 9 -4 9 -8 0 -5 -13 -7 -30
-4 -16 2 -27 9 -24 14 3 5 13 7 21 4 8 -3 19 -6 24 -6z m-3234 -65 c-10 -7
-17 -17 -17 -23 0 -12 -39 -36 -46 -29 -9 9 58 77 69 70 6 -4 4 -10 -6 -18z
m3543 -44 c0 -30 -12 -81 -19 -81 -14 1 -60 49 -63 66 -2 15 2 18 24 16 14 -1
29 2 33 8 10 16 25 11 25 -9z m0 -122 c0 -24 -16 -25 -30 0 -7 14 -6 21 3 24
18 6 27 -2 27 -24z m0 -194 c0 -62 -11 -84 -24 -49 -8 21 -8 99 1 107 17 17
23 2 23 -58z m-24 -369 c9 -9 13 -29 11 -54 -6 -59 -12 -64 -52 -41 -26 16
-35 28 -35 47 0 31 9 47 30 55 24 9 31 8 46 -7z"/>
<path d="M6180 10380 c0 -5 5 -10 10 -10 6 0 10 5 10 10 0 6 -4 10 -10 10 -5
0 -10 -4 -10 -10z"/>
<path d="M6234 10354 c9 -8 16 -20 16 -25 0 -5 5 -9 10 -9 6 0 10 11 10 25 0
20 -5 25 -26 25 -23 0 -24 -1 -10 -16z"/>
<path d="M12006 10225 c-4 -11 2 -15 25 -15 18 0 28 4 24 10 -4 6 -11 8 -16 5
-5 -4 -9 -1 -9 4 0 16 -17 13 -24 -4z"/>
<path d="M4021 9184 c0 -11 3 -14 6 -6 3 7 2 16 -1 19 -3 4 -6 -2 -5 -13z"/>
<path d="M4104 8440 c0 -69 1 -97 3 -62 2 34 2 90 0 125 -2 34 -3 6 -3 -63z"/>
<path d="M4122 8290 c0 -19 2 -27 5 -17 2 9 2 25 0 35 -3 9 -5 1 -5 -18z"/>
<path d="M10808 9703 c7 -3 16 -2 19 1 4 3 -2 6 -13 5 -11 0 -14 -3 -6 -6z"/>
<path d="M10760 9680 c0 -13 11 -13 30 0 12 8 11 10 -7 10 -13 0 -23 -4 -23
-10z"/>
<path d="M10670 9640 c0 -5 9 -10 21 -10 11 0 17 5 14 10 -3 6 -13 10 -21 10
-8 0 -14 -4 -14 -10z"/>
<path d="M10570 9595 c0 -9 5 -15 11 -13 6 2 11 8 11 13 0 5 -5 11 -11 13 -6
2 -11 -4 -11 -13z"/>
<path d="M6472 9258 c-16 -16 -15 -45 2 -51 9 -4 16 3 18 18 6 32 -4 49 -20
33z"/>
<path d="M6653 9263 c-23 -9 -14 -33 11 -33 20 0 36 16 36 36 0 5 -32 4 -47
-3z"/>
<path d="M10160 8694 c-67 -12 -99 -26 -105 -45 -11 -34 16 -52 85 -54 33 -1
64 -5 67 -9 11 -11 -14 -28 -40 -28 -39 0 -42 -35 -6 -57 32 -19 60 -20 239
-4 47 4 94 8 105 9 11 1 31 2 45 3 l25 2 -23 10 c-13 5 -20 13 -17 19 4 6 11
8 16 5 5 -4 9 -1 9 4 0 6 14 11 30 11 27 0 30 2 24 25 -5 21 -3 25 16 25 13 0
19 -4 14 -11 -5 -9 6 -10 39 -7 26 3 50 1 56 -5 8 -8 14 -8 23 1 7 7 19 12 28
12 20 0 70 23 70 32 0 4 -10 14 -21 22 -19 13 -24 13 -45 -1 -28 -18 -56 -11
-48 12 5 13 -2 16 -42 16 -27 0 -89 2 -139 4 -264 10 -383 13 -405 9z"/>
<path d="M11318 8513 c7 -3 16 -2 19 1 4 3 -2 6 -13 5 -11 0 -14 -3 -6 -6z"/>
<path d="M11160 8356 c0 -24 42 -27 120 -9 25 6 25 6 -5 13 -55 14 -115 11
-115 -4z"/>
<path d="M8520 8070 c-13 -9 -12 -13 8 -30 21 -18 25 -18 39 -5 12 12 13 19 3
30 -14 17 -29 19 -50 5z"/>
<path d="M8800 8046 c0 -9 5 -16 10 -16 6 0 10 4 10 9 0 6 -4 13 -10 16 -5 3
-10 -1 -10 -9z"/>
<path d="M6735 7920 c-3 -5 6 -20 20 -32 26 -23 26 -23 9 -58 -9 -19 -26 -45
-36 -57 -24 -26 -20 -55 9 -68 17 -7 21 -17 20 -44 -2 -44 23 -53 64 -22 38
28 57 26 65 -6 3 -16 7 -34 10 -40 5 -19 43 -15 71 7 14 11 31 20 37 20 6 0
19 -9 29 -20 16 -19 47 -28 47 -13 0 15 -43 51 -56 46 -12 -4 -119 31 -181 59
-12 6 -33 8 -47 4 -15 -4 -26 -2 -26 4 0 5 6 10 14 10 18 0 23 16 31 106 8 84
-4 114 -47 114 -15 0 -30 -4 -33 -10z"/>
<path d="M6591 7907 c-33 -13 -76 -55 -66 -65 3 -3 18 7 34 22 39 37 66 32 66
-13 0 -48 29 -65 56 -32 10 13 19 34 19 46 0 13 6 25 13 28 22 8 -1 19 -45 23
-24 2 -58 -2 -77 -9z"/>
<path d="M6392 7798 c5 -15 28 -23 28 -10 0 5 -7 13 -16 16 -10 4 -14 1 -12
-6z"/>
<path d="M6473 7795 c-32 -23 -39 -105 -8 -105 21 0 32 22 37 73 6 51 3 54
-29 32z"/>
<path d="M6287 7763 c-10 -10 -8 -33 3 -33 5 0 14 9 20 20 8 15 8 20 -3 20 -8
0 -17 -3 -20 -7z"/>
<path d="M6240 7644 c0 -14 4 -23 10 -19 6 3 10 15 10 26 0 10 -4 19 -10 19
-5 0 -10 -12 -10 -26z"/>
<path d="M5884 7575 c-4 -8 -17 -15 -30 -15 -13 0 -28 -9 -34 -20 -8 -15 -19
-19 -43 -17 -48 3 -44 -30 6 -50 48 -20 63 -13 78 36 12 39 13 40 68 46 79 9
97 15 80 26 -24 15 -119 11 -125 -6z"/>
<path d="M6230 7520 c0 -12 28 -25 36 -17 3 3 -4 10 -15 17 -15 7 -21 7 -21 0z"/>
<path d="M6422 7519 c10 -31 98 -53 114 -28 11 18 -13 32 -67 37 -41 4 -51 2
-47 -9z"/>
<path d="M6013 7503 c-7 -18 4 -30 34 -36 38 -7 75 9 71 31 -3 13 -14 17 -52
17 -29 0 -50 -5 -53 -12z"/>
<path d="M6745 7501 l-50 -7 38 -11 c37 -12 100 -2 122 18 10 10 -29 10 -110
0z"/>
<path d="M3460 9290 c0 -5 5 -10 11 -10 5 0 7 5 4 10 -3 6 -8 10 -11 10 -2 0
-4 -4 -4 -10z"/>
<path d="M2769 9073 c-6 -6 -29 -13 -52 -15 -34 -2 -44 -8 -57 -33 -20 -39
-50 -64 -77 -65 -14 0 -23 -6 -23 -15 0 -8 -7 -15 -15 -15 -8 0 -15 -4 -15 -9
0 -14 27 -20 38 -9 12 12 35 1 27 -13 -4 -5 1 -9 9 -9 8 0 18 -9 21 -20 5 -16
15 -20 51 -20 40 0 44 -2 44 -24 0 -21 4 -23 33 -21 29 2 33 6 41 44 9 39 12
41 45 40 35 0 86 -16 66 -20 -5 -1 6 -5 25 -8 34 -7 46 -3 132 40 29 15 48 10
71 -17 28 -33 92 -45 167 -33 30 5 73 9 96 9 33 0 43 4 52 24 11 25 6 67 -11
77 -12 8 -2 39 12 39 5 0 15 -16 21 -35 6 -19 12 -35 13 -35 1 0 42 -5 92 -10
121 -13 223 11 192 45 -9 9 -16 9 -29 1 -13 -8 -21 -7 -30 2 -6 6 -27 12 -45
12 -26 0 -33 4 -33 19 0 27 72 46 116 30 29 -10 52 6 39 27 -9 14 -36 17 -175
22 -199 6 -219 6 -390 3 -74 -1 -204 0 -288 1 -111 3 -156 0 -163 -9z"/>
<path d="M3832 8975 c-10 -12 -10 -20 -1 -36 6 -12 8 -34 5 -50 -3 -16 -1 -29
4 -29 6 0 10 29 10 65 0 36 -1 65 -2 65 -2 -1 -9 -7 -16 -15z"/>
<path d="M1508 8943 c-4 -74 -4 -76 26 -86 31 -10 38 -6 77 53 14 21 19 23 32
12 10 -9 17 -10 22 -2 3 6 10 8 15 5 5 -3 14 3 19 14 14 25 -8 31 -111 31 -78
0 -78 0 -80 -27z"/>
<path d="M1481 8894 c0 -11 3 -14 6 -6 3 7 2 16 -1 19 -3 4 -6 -2 -5 -13z"/>
<path d="M12222 8638 c5 -15 28 -18 29 -3 0 6 -7 12 -17 13 -10 3 -15 -1 -12
-10z"/>
<path d="M12740 8265 c0 -14 5 -25 10 -25 6 0 10 11 10 25 0 14 -4 25 -10 25
-5 0 -10 -11 -10 -25z"/>
<path d="M3165 5990 c-8 -13 4 -32 16 -25 12 8 12 35 0 35 -6 0 -13 -4 -16
-10z"/>
<path d="M3140 5805 c0 -14 2 -25 4 -25 2 0 6 11 8 25 3 14 1 25 -3 25 -5 0
-9 -11 -9 -25z"/>
<path d="M3140 5759 c0 -5 5 -7 10 -4 6 3 10 8 10 11 0 2 -4 4 -10 4 -5 0 -10
-5 -10 -11z"/>
<path d="M3122 5710 c0 -14 2 -19 5 -12 2 6 2 18 0 25 -3 6 -5 1 -5 -13z"/>
<path d="M3160 5620 c0 -5 5 -10 10 -10 6 0 10 5 10 10 0 6 -4 10 -10 10 -5 0
-10 -4 -10 -10z"/>
<path d="M3152 5473 c2 -31 7 -39 26 -41 17 -3 22 2 22 18 0 30 -18 60 -36 60
-11 0 -14 -9 -12 -37z"/>
<path d="M3150 7510 c0 -5 5 -10 10 -10 6 0 10 5 10 10 0 6 -4 10 -10 10 -5 0
-10 -4 -10 -10z"/>
<path d="M2730 6310 c0 -5 4 -10 9 -10 6 0 13 5 16 10 3 6 -1 10 -9 10 -9 0
-16 -4 -16 -10z"/>
<path d="M2740 7360 c0 -11 5 -20 10 -20 6 0 10 9 10 20 0 11 -4 20 -10 20 -5
0 -10 -9 -10 -20z"/>
<path d="M2708 6793 c6 -2 10 -9 7 -14 -4 -5 1 -6 9 -3 24 9 19 24 -6 23 -13
0 -17 -3 -10 -6z"/>
<path d="M2740 6750 c0 -5 5 -10 10 -10 6 0 10 5 10 10 0 6 -4 10 -10 10 -5 0
-10 -4 -10 -10z"/>
<path d="M7417 6674 c-11 -12 34 -82 72 -112 119 -95 353 -172 523 -172 77 0
198 27 205 47 10 25 -17 31 -66 15 -69 -23 -246 -19 -342 6 -142 38 -290 120
-335 185 -23 35 -43 45 -57 31z"/>
<path d="M6377 6373 c-15 -14 -5 -24 52 -53 77 -39 150 -114 191 -196 33 -67
53 -85 73 -65 13 13 -46 139 -89 191 -30 35 -112 91 -168 114 -43 18 -50 19
-59 9z"/>
<path d="M7980 6152 c0 -15 150 -162 165 -162 20 0 19 9 -4 46 -37 61 -161
150 -161 116z"/>
<path d="M6340 6090 c-11 -7 -15 -28 -15 -78 0 -59 5 -79 38 -146 63 -127 122
-176 176 -146 17 8 21 20 21 59 0 48 -21 114 -40 126 -5 3 -26 37 -46 75 -57
108 -92 137 -134 110z"/>
<path d="M728 6263 c6 -2 18 -2 25 0 6 3 1 5 -13 5 -14 0 -19 -2 -12 -5z"/>
<path d="M5750 5039 c-13 -8 -13 -10 0 -19 21 -14 30 -12 30 4 0 20 -13 27
-30 15z"/>
<path d="M977 5010 c-25 -29 -24 -153 3 -214 10 -25 17 -54 13 -64 -4 -12 -1
-11 10 4 9 12 16 34 16 50 0 16 0 62 0 103 2 77 -7 141 -18 141 -4 0 -14 -9
-24 -20z"/>
<path d="M1532 4593 c3 -41 6 -48 26 -51 12 -2 22 -10 22 -17 0 -18 15 -26 34
-19 12 5 16 21 16 70 l0 64 -51 0 -50 0 3 -47z"/>
<path d="M1000 4583 c0 -13 5 -23 10 -23 13 0 13 11 0 30 -8 12 -10 11 -10 -7z"/>
<path d="M1641 4574 c0 -11 3 -14 6 -6 3 7 2 16 -1 19 -3 4 -6 -2 -5 -13z"/>
<path d="M2728 4543 c7 -3 16 -2 19 1 4 3 -2 6 -13 5 -11 0 -14 -3 -6 -6z"/>
<path d="M5650 3705 c0 -17 5 -25 13 -22 6 2 12 12 12 22 0 10 -6 20 -12 23
-8 2 -13 -6 -13 -23z"/>
<path d="M5536 3631 c-3 -5 -23 -11 -43 -14 -21 -3 -54 -9 -73 -14 -31 -8 -32
-10 -13 -15 13 -3 26 -14 30 -25 10 -28 23 -33 95 -33 42 0 68 -4 70 -12 2 -6
12 -9 21 -5 15 6 15 9 1 44 -26 63 -72 101 -88 74z"/>
<path d="M5338 3593 c7 -3 16 -2 19 1 4 3 -2 6 -13 5 -11 0 -14 -3 -6 -6z"/>
<path d="M5159 2250 c-15 -16 -15 -19 3 -35 17 -14 25 -15 49 -5 27 12 27 13
12 36 -18 28 -41 30 -64 4z"/>
<path d="M3070 3340 c0 -5 5 -10 10 -10 6 0 10 5 10 10 0 6 -4 10 -10 10 -5 0
-10 -4 -10 -10z"/>
<path d="M4991 4258 c-1 -21 4 -38 9 -38 12 0 12 27 0 55 -7 16 -9 13 -9 -17z"/>
<path d="M5007 4183 c-4 -3 -7 -18 -7 -32 1 -25 1 -25 15 -7 23 30 15 63 -8
39z"/>
<path d="M5045 4150 c-8 -12 13 -52 24 -46 10 7 2 56 -10 56 -4 0 -11 -4 -14
-10z"/>
<path d="M6523 3520 c-49 -36 -67 -80 -67 -160 2 -149 150 -258 255 -187 54
36 79 90 79 173 0 63 -4 76 -32 119 -58 87 -159 111 -235 55z m137 -30 c51
-26 80 -68 86 -127 10 -85 -42 -163 -109 -163 -44 0 -93 35 -116 83 -17 35
-19 52 -12 99 8 62 20 82 66 110 37 22 37 22 85 -2z"/>
<path d="M4660 3601 c0 -12 5 -21 10 -21 6 0 10 6 10 14 0 8 -4 18 -10 21 -5
3 -10 -3 -10 -14z"/>
<path d="M4477 3254 c-4 -4 -7 -17 -7 -28 1 -19 1 -20 11 -3 11 19 8 43 -4 31z"/>
<path d="M4642 3190 c0 -14 2 -19 5 -12 2 6 2 18 0 25 -3 6 -5 1 -5 -13z"/>
<path d="M4451 3183 c0 -5 4 -17 9 -28 8 -18 9 -17 9 8 1 15 -3 27 -9 27 -5 0
-10 -3 -9 -7z"/>
<path d="M4480 3084 c0 -9 5 -14 12 -12 18 6 21 28 4 28 -9 0 -16 -7 -16 -16z"/>
<path d="M4457 3013 c-13 -12 -7 -43 8 -43 16 0 38 34 28 44 -8 8 -28 8 -36
-1z"/>
<path d="M4082 2975 c-11 -14 -25 -25 -31 -25 -6 0 -11 -7 -11 -15 0 -27 35
-15 57 20 26 41 14 57 -15 20z"/>
<path d="M7680 10776 l0 -25 228 -3 c125 -2 233 -1 240 1 16 4 15 19 -2 37
-12 11 -58 14 -240 14 l-226 0 0 -24z"/>
<path d="M9112 10786 c7 -7 19 -11 25 -9 22 9 14 23 -12 23 -21 0 -24 -2 -13
-14z"/>
<path d="M6540 10620 c0 -5 5 -10 10 -10 6 0 10 5 10 10 0 6 -4 10 -10 10 -5
0 -10 -4 -10 -10z"/>
<path d="M6866 10531 c-4 -7 -5 -15 -2 -18 9 -9 19 4 14 18 -4 11 -6 11 -12 0z"/>
<path d="M12933 8405 c0 -22 2 -30 4 -17 2 12 2 30 0 40 -3 9 -5 -1 -4 -23z"/>
<path d="M12953 8395 c0 -27 2 -38 4 -22 2 15 2 37 0 50 -2 12 -4 0 -4 -28z"/>
<path d="M12950 8045 c0 -8 -4 -15 -10 -15 -5 0 -10 -7 -10 -15 0 -8 -5 -24
-12 -34 -9 -15 -8 -26 5 -52 9 -19 17 -27 17 -19 1 10 4 9 10 -5 6 -13 9 9 9
68 1 48 -1 87 -4 87 -3 0 -5 -7 -5 -15z"/>
<path d="M10030 7655 c-10 -11 -10 -19 -2 -27 15 -15 44 -2 40 19 -4 23 -22
27 -38 8z"/>
<path d="M10190 7510 c0 -5 11 -10 25 -10 14 0 25 5 25 10 0 6 -11 10 -25 10
-14 0 -25 -4 -25 -10z"/>
<path d="M24 6945 c0 -55 1 -76 3 -47 2 29 2 74 0 100 -2 26 -3 2 -3 -53z"/>
<path d="M4 6945 c0 -49 1 -71 3 -48 2 23 2 64 0 90 -2 26 -3 8 -3 -42z"/>
<path d="M4 6580 c0 -146 2 -205 3 -132 2 72 2 192 0 265 -1 72 -3 13 -3 -133z"/>
<path d="M12428 6543 c-25 -6 -22 -35 4 -52 28 -17 140 -24 150 -8 4 6 10 9
13 5 10 -10 -14 -48 -30 -48 -28 0 -15 -16 15 -18 26 -2 30 1 30 23 0 16 6 25
15 25 8 0 15 9 15 19 0 27 -76 64 -103 50 -18 -10 -40 -9 -77 4 -8 2 -23 3
-32 0z"/>
<path d="M525 6499 c-8 -11 25 -40 37 -33 10 6 -9 44 -22 44 -5 0 -12 -5 -15
-11z"/>
<path d="M11239 6274 c-11 -14 -10 -15 11 -12 13 1 25 9 28 16 5 17 -23 15
-39 -4z"/>
<path d="M12625 6255 c40 -19 67 -18 35 0 -14 8 -34 14 -45 14 -15 -1 -13 -4
10 -14z"/>
<path d="M11067 6185 c-44 -31 -49 -50 -9 -40 38 9 72 33 72 50 0 22 -20 18
-63 -10z"/>
<path d="M10875 6039 c-122 -95 -176 -150 -241 -241 -31 -43 -63 -85 -72 -94
-9 -9 -17 -23 -18 -31 -2 -8 -31 -72 -65 -141 -69 -140 -95 -220 -109 -332 -7
-52 -14 -78 -26 -85 -76 -46 -100 -104 -68 -167 9 -18 23 -36 30 -41 7 -4 18
-33 24 -65 31 -156 134 -418 191 -485 20 -24 76 -93 159 -197 192 -241 560
-447 955 -536 151 -34 174 -42 208 -71 42 -37 92 -44 150 -19 19 8 75 14 139
14 68 1 121 7 145 17 21 8 56 19 78 24 22 5 63 18 90 29 28 11 85 34 127 50
70 27 218 117 310 189 20 16 45 35 57 43 16 11 21 24 20 60 0 34 -2 40 -9 25
-7 -16 -9 -12 -11 20 l-2 40 -7 -35 c-7 -32 -7 -33 -9 -7 0 16 -5 26 -11 22
-6 -3 -10 5 -10 19 0 14 5 28 10 31 6 3 10 24 10 45 0 35 -2 38 -22 35 -12 -3
-25 -10 -30 -17 -11 -19 -10 -80 2 -73 6 3 10 -1 10 -10 0 -9 -4 -13 -10 -10
-5 3 -10 -3 -10 -13 0 -24 -20 -42 -44 -38 -10 1 -29 -7 -42 -19 -20 -18 -32
-22 -69 -17 l-44 5 -7 -42 c-6 -39 -8 -41 -40 -41 -19 0 -34 -5 -34 -11 0 -7
-11 -8 -29 -4 -17 3 -32 2 -36 -4 -3 -6 -23 -11 -45 -11 -32 0 -37 -3 -33 -19
4 -15 -3 -19 -41 -24 -46 -7 -57 -5 -111 18 -54 23 -82 26 -95 10 -7 -8 -21
-15 -31 -15 -16 0 -19 8 -19 41 0 22 5 49 11 60 7 14 7 35 0 69 -7 33 -7 58 0
78 10 30 3 125 -24 307 -14 93 -20 105 -53 105 -31 0 -30 -7 2 -41 29 -30 48
-107 38 -152 -3 -16 -1 -40 5 -55 13 -32 2 -184 -14 -189 -20 -6 -58 70 -60
122 -2 58 -25 155 -37 155 -8 0 -9 -10 -12 -156 0 -56 -6 -97 -13 -106 -7 -8
-15 -51 -16 -94 -4 -83 -18 -124 -41 -124 -8 0 -17 11 -20 25 -6 24 -10 25
-80 25 -44 0 -89 6 -111 15 -28 12 -40 13 -50 5 -20 -16 -55 -2 -65 26 -5 13
-16 24 -24 24 -22 0 -83 -42 -97 -67 -6 -12 -18 -24 -25 -27 -18 -7 -74 25
-74 42 0 7 -13 12 -31 12 -40 0 -115 53 -128 91 -6 16 -21 33 -35 39 -19 7
-26 17 -26 35 0 21 -5 25 -28 25 -23 0 -33 8 -51 40 -23 41 -36 49 -43 28 -8
-22 -26 2 -33 44 -9 49 -24 78 -42 78 -7 0 -22 9 -33 20 -15 15 -28 19 -51 15
l-31 -6 7 83 c4 46 11 87 16 93 5 5 9 27 9 48 0 28 -6 44 -22 58 -22 18 -22
20 -5 33 10 8 16 19 15 26 -4 19 36 27 150 28 112 2 210 19 327 57 l75 25 77
-75 c42 -41 83 -75 90 -75 25 0 13 28 -26 62 -64 55 -85 113 -56 152 18 24 19
75 4 110 -29 62 36 193 149 303 58 56 91 67 128 42 44 -29 87 -25 121 11 25
27 34 30 90 30 41 0 85 -8 131 -25 38 -14 75 -25 81 -25 29 0 94 -58 141 -126
73 -105 107 -99 55 11 -40 83 -134 165 -227 198 -42 15 -87 27 -100 27 -12 0
-39 3 -59 6 l-36 6 8 42 c4 22 13 121 19 218 12 197 5 250 -36 289 -32 30 -41
18 -20 -28 12 -28 15 -56 12 -103 -3 -36 -6 -125 -8 -198 -3 -123 -5 -134 -25
-150 -12 -10 -28 -43 -38 -79 -15 -54 -21 -63 -40 -63 -46 0 -51 23 -24 123
20 77 23 111 21 212 -3 121 -19 206 -40 213 -12 4 -16 -44 -17 -175 0 -45 -5
-56 -37 -94 -21 -24 -38 -50 -38 -59 0 -30 -30 -60 -60 -60 -29 0 -30 -1 -27
-47 2 -44 0 -48 -23 -51 -15 -2 -31 -14 -40 -32 -29 -56 -58 -115 -64 -132 -3
-11 -15 -18 -31 -18 -37 0 -71 -73 -80 -175 -4 -44 -12 -86 -18 -93 -37 -46
-277 -96 -407 -85 -50 4 -69 2 -75 -8 -5 -7 -4 -14 3 -17 28 -9 57 -41 47 -51
-11 -11 -130 -19 -140 -9 -11 10 13 46 35 53 11 3 20 13 20 20 0 19 -39 45
-67 45 -37 0 -87 30 -110 67 -13 19 -23 39 -23 45 0 5 -8 22 -18 36 -10 15
-26 62 -36 104 -10 45 -24 82 -33 87 -9 4 -14 14 -11 21 2 7 -6 23 -19 36 -34
34 -39 70 -14 104 11 16 21 42 21 57 0 15 16 59 35 97 19 39 35 77 35 86 0 9
16 34 36 56 19 21 44 55 54 74 40 77 185 239 253 283 27 18 38 57 15 57 -7 0
-53 -32 -103 -71z m-445 -1063 c37 -30 84 -61 104 -70 33 -14 51 -46 25 -46
-24 0 -176 73 -201 98 -27 25 -35 51 -21 65 13 13 27 6 93 -47z m1004 -113
c-42 -36 -99 -45 -79 -13 10 16 87 50 98 43 5 -3 -3 -16 -19 -30z m-789 -17
c12 -9 32 -12 52 -9 34 6 48 -12 16 -19 -29 -6 -106 11 -122 27 -14 13 -12 15
10 15 14 0 34 -6 44 -14z m655 -24 c0 -14 -57 -42 -85 -42 -25 0 -14 32 15 47
31 15 70 13 70 -5z m-160 -16 c0 -25 -102 -63 -139 -51 -26 8 -27 40 -3 54 27
16 142 14 142 -3z m-400 -116 c12 -8 11 -10 -7 -10 -13 0 -23 5 -23 10 0 13
11 13 30 0z m77 -6 c-3 -3 -12 -4 -19 -1 -8 3 -5 6 6 6 11 1 17 -2 13 -5z
m-11 -109 c-2 -14 -7 -30 -13 -36 -16 -16 -43 1 -43 28 0 17 4 23 13 20 8 -3
20 -1 28 4 8 5 15 9 16 9 1 0 0 -11 -1 -25z m1278 -561 c18 -46 -2 -161 -31
-185 -15 -13 -16 -6 -10 84 4 54 9 102 12 108 9 14 22 11 29 -7z m406 -184 c0
-5 -2 -10 -4 -10 -3 0 -8 5 -11 10 -3 6 -1 10 4 10 6 0 11 -4 11 -10z m-484
-152 c-3 -13 -15 -38 -26 -55 -15 -26 -27 -33 -50 -33 -16 0 -30 5 -30 11 0 6
21 35 47 64 48 54 71 59 59 13z"/>
<path d="M9892 5721 c2 -7 7 -12 11 -12 12 1 9 15 -3 20 -7 2 -11 -2 -8 -8z"/>
<path d="M12375 5062 c-13 -9 -35 -72 -35 -99 0 -12 10 -30 23 -40 36 -28 38
-37 21 -93 -21 -70 -72 -148 -128 -194 -47 -38 -57 -56 -33 -56 26 0 132 77
147 106 8 16 26 47 41 69 15 22 30 54 34 72 3 18 14 34 23 37 9 3 55 -4 102
-15 189 -44 278 -60 333 -58 52 2 57 4 57 25 0 18 -4 22 -22 18 -38 -8 -178 7
-191 21 -7 8 -26 11 -50 7 -25 -3 -43 0 -55 10 -9 9 -41 18 -70 21 -30 4 -76
19 -108 37 -65 35 -84 52 -84 74 0 21 55 21 95 0 28 -14 155 -51 265 -76 25
-6 50 -15 57 -20 7 -6 35 -6 70 -2 32 4 61 7 66 6 4 -1 7 10 6 25 0 16 -3 22
-6 15 -2 -6 -9 -10 -13 -7 -5 3 -53 10 -107 15 -54 5 -127 18 -163 28 -36 10
-87 24 -113 31 -26 6 -58 20 -69 31 -22 20 -74 27 -93 12z"/>
<path d="M12952 4930 c0 -14 2 -19 5 -12 2 6 2 18 0 25 -3 6 -5 1 -5 -13z"/>
<path d="M12758 4873 c7 -3 16 -2 19 1 4 3 -2 6 -13 5 -11 0 -14 -3 -6 -6z"/>
<path d="M11935 4569 c-26 -17 -40 -19 -97 -14 -40 4 -68 2 -68 -3 0 -10 38
-27 85 -37 77 -16 105 -27 105 -40 0 -8 4 -17 10 -20 7 -4 7 3 0 19 -10 27 2
75 22 87 13 8 2 29 -15 29 -7 0 -25 -9 -42 -21z"/>
<path d="M12050 4552 c0 -11 9 -27 20 -37 19 -17 21 -17 43 1 12 10 24 20 27
22 11 8 -36 32 -62 32 -21 0 -28 -5 -28 -18z"/>
<path d="M11640 4420 c0 -5 7 -10 15 -10 8 0 15 5 15 10 0 6 -7 10 -15 10 -8
0 -15 -4 -15 -10z"/>
<path d="M11980 4410 c6 -11 12 -20 14 -20 2 0 2 9 -1 20 -3 11 -9 20 -15 20
-5 0 -4 -9 2 -20z"/>
<path d="M12933 4295 c0 -44 2 -61 4 -37 2 23 2 59 0 80 -2 20 -4 1 -4 -43z"/>
<path d="M12952 4280 c0 -19 2 -27 5 -17 2 9 2 25 0 35 -3 9 -5 1 -5 -18z"/>
<path d="M12933 4130 c0 -41 2 -58 4 -37 2 20 2 54 0 75 -2 20 -4 3 -4 -38z"/>
<path d="M12953 4135 c0 -22 2 -30 4 -17 2 12 2 30 0 40 -3 9 -5 -1 -4 -23z"/>
<path d="M11236 4071 c-4 -7 -5 -15 -2 -18 9 -9 19 4 14 18 -4 11 -6 11 -12 0z"/>
<path d="M8221 3611 c-20 -20 -20 -41 2 -69 8 -10 3 -19 -19 -37 -28 -22 -28
-24 -11 -42 9 -11 14 -22 11 -26 -7 -7 25 -15 81 -20 22 -2 -1 -4 -52 -5 -83
-2 -94 -5 -122 -28 -17 -14 -31 -29 -31 -33 0 -3 15 -14 33 -24 24 -12 66 -18
172 -21 77 -2 158 -7 181 -11 33 -5 50 -2 85 16 34 18 61 23 118 24 46 0 76 4
78 11 4 11 -68 35 -113 38 -27 2 -101 71 -108 102 -4 14 0 37 8 53 13 24 13
31 2 46 -10 14 -27 18 -77 18 -35 0 -68 3 -74 7 -5 4 -40 11 -77 15 -59 6 -69
4 -87 -14z m223 -79 c11 -13 14 -28 10 -49 -4 -19 -1 -33 6 -38 8 -5 6 -12 -6
-26 -21 -23 -42 -24 -66 -2 -25 22 -25 108 0 122 25 15 37 13 56 -7z"/>
<path d="M11046 3103 c-9 -22 -7 -63 2 -63 5 0 27 -19 50 -41 27 -28 46 -40
57 -35 26 10 14 48 -22 71 -18 11 -32 24 -33 29 0 5 -11 19 -24 31 -20 19 -26
20 -30 8z"/>
<path d="M10232 3071 c-8 -32 -7 -43 4 -52 8 -6 19 -29 24 -51 14 -50 36 -45
33 8 -5 122 -40 176 -61 95z"/>
<path d="M10368 3102 c-34 -4 -37 -32 -9 -68 11 -13 18 -36 16 -49 -1 -16 3
-25 11 -25 8 0 14 9 14 21 0 11 5 29 11 40 7 13 7 24 1 32 -6 7 -12 21 -14 32
-2 15 -9 19 -30 17z"/>
<path d="M9075 2995 c-18 -58 -29 -202 -15 -210 12 -7 28 42 39 122 21 142 8
189 -24 88z"/>
<path d="M12260 3040 c0 -5 5 -10 11 -10 5 0 7 5 4 10 -3 6 -8 10 -11 10 -2 0
-4 -4 -4 -10z"/>
<path d="M12000 2971 c0 -11 5 -23 10 -26 6 -3 10 -19 10 -34 0 -32 92 -182
159 -261 42 -48 92 -130 153 -252 18 -36 48 -52 48 -25 0 23 -28 102 -55 157
-41 80 -81 137 -149 211 -61 65 -121 156 -142 213 -12 35 -34 46 -34 17z"/>
<path d="M11360 2921 c0 -16 38 -56 46 -49 11 12 -13 58 -31 58 -8 0 -15 -4
-15 -9z"/>
<path d="M11180 2887 c0 -16 32 -47 48 -47 7 0 12 -9 12 -20 0 -10 9 -24 20
-30 16 -9 20 -8 20 5 0 8 -3 15 -7 15 -11 0 -43 58 -43 76 0 8 -10 14 -25 14
-14 0 -25 -6 -25 -13z"/>
<path d="M9060 2709 c0 -5 5 -7 10 -4 6 3 10 8 10 11 0 2 -4 4 -10 4 -5 0 -10
-5 -10 -11z"/>
<path d="M11559 2658 c-5 -22 -3 -89 3 -108 10 -31 46 -56 60 -42 15 15 0 80
-23 103 -10 10 -19 23 -19 28 0 9 -19 26 -21 19z"/>
<path d="M11086 2623 c-9 -24 9 -39 29 -23 8 7 15 19 15 26 0 20 -37 17 -44
-3z"/>
<path d="M10961 2426 l-24 -25 24 -5 c91 -19 99 -18 99 8 0 24 -3 26 -61 42
-8 2 -26 -7 -38 -20z"/>
<path d="M11185 2339 c-12 -19 5 -23 22 -6 16 16 16 17 1 17 -9 0 -20 -5 -23
-11z"/>
<path d="M10017 2206 c-7 -18 1 -26 26 -26 13 0 17 5 13 16 -3 9 -6 18 -6 20
0 11 -29 2 -33 -10z"/>
<path d="M12030 2206 c0 -8 11 -28 25 -43 l25 -28 -5 34 c-3 19 -8 38 -11 43
-9 14 -34 9 -34 -6z"/>
<path d="M9920 2166 c0 -26 15 -43 24 -28 7 12 -4 52 -15 52 -5 0 -9 -11 -9
-24z"/>
<path d="M12450 2172 c0 -10 21 -53 46 -97 25 -44 55 -98 67 -120 32 -61 77
-125 129 -182 27 -28 48 -56 48 -62 0 -13 59 -71 72 -71 16 0 0 50 -34 103
-17 27 -44 74 -59 105 -28 56 -75 125 -124 184 -14 17 -32 45 -40 64 -27 64
-105 121 -105 76z"/>
<path d="M12933 1780 c0 -36 2 -50 4 -32 2 17 2 47 0 65 -2 17 -4 3 -4 -33z"/>
<path d="M12350 1725 c-9 -25 3 -123 19 -155 4 -8 14 -40 21 -70 l14 -55 9 45
c5 25 13 50 17 55 18 21 1 121 -27 164 -31 48 -40 50 -53 16z"/>
<path d="M12933 1485 c0 -38 2 -53 4 -32 2 20 2 52 0 70 -2 17 -4 1 -4 -38z"/>
<path d="M12912 1515 c0 -16 2 -22 5 -12 2 9 2 23 0 30 -3 6 -5 -1 -5 -18z"/>
<path d="M12953 1475 c0 -33 2 -45 4 -27 2 18 2 45 0 60 -2 15 -4 0 -4 -33z"/>
<path d="M12795 1419 c-4 -5 -4 -21 -1 -35 6 -22 8 -23 21 -10 19 19 19 56 1
56 -8 0 -18 -5 -21 -11z"/>
<path d="M12820 1130 c0 -77 4 -129 9 -126 5 4 12 0 14 -6 3 -8 6 -6 6 5 1 9
6 17 11 17 6 0 10 28 10 64 0 36 -4 68 -10 71 -5 3 -10 22 -10 41 0 20 -7 42
-15 50 -13 14 -15 1 -15 -116z"/>
<path d="M12951 1144 c0 -11 3 -14 6 -6 3 7 2 16 -1 19 -3 4 -6 -2 -5 -13z"/>
</g>
</svg>
