<?xml version="1.0" standalone="no"?>
<!DOCTYPE svg PUBLIC "-//W3C//DTD SVG 20010904//EN"
 "http://www.w3.org/TR/2001/REC-SVG-20010904/DTD/svg10.dtd">
<svg version="1.0" xmlns="http://www.w3.org/2000/svg"
 width="1296.000000pt" height="1080.000000pt" viewBox="0 0 1296.000000 1080.000000"
 preserveAspectRatio="xMidYMid meet">
<metadata>
Created by potrace 1.16, written by Peter Selinger 2001-2019
</metadata>
<g transform="translate(0.000000,1080.000000) scale(0.100000,-0.100000)"
fill="#000000" stroke="none">
<path d="M4 10495 c0 -170 2 -242 3 -158 2 83 2 223 0 310 -1 87 -3 19 -3
-152z"/>
<path d="M22 10368 l3 -433 5 405 c5 342 6 373 9 195 3 -115 6 -189 8 -162 3
29 8 45 14 41 6 -3 16 1 22 9 14 17 76 12 82 -7 13 -46 16 -49 28 -37 7 7 12
29 13 50 0 24 8 45 22 59 30 30 39 28 56 -13 16 -37 24 -39 87 -29 31 5 38 13
59 58 25 52 45 75 67 76 7 0 40 18 73 39 34 22 67 38 75 35 7 -3 32 0 56 6 41
11 43 11 71 -19 15 -16 28 -34 28 -39 0 -5 12 -17 26 -27 30 -20 54 -6 54 31
0 17 4 22 15 18 8 -4 15 -12 15 -19 0 -7 7 -18 15 -25 8 -7 13 -16 10 -20 -3
-4 1 -13 9 -19 11 -9 15 -9 18 0 6 17 27 2 38 -27 6 -14 18 -24 28 -24 15 0
18 -5 14 -25 -3 -20 0 -25 16 -25 21 0 47 32 35 44 -3 3 1 6 10 6 19 0 41 35
32 50 -4 6 1 17 10 26 9 9 19 30 22 46 4 20 17 37 39 50 21 12 34 28 34 40 0
18 4 20 31 14 17 -3 38 -6 45 -6 8 0 14 -7 14 -15 0 -28 42 -39 150 -38 58 1
120 5 139 9 26 5 32 4 29 -7 -7 -20 30 -69 52 -69 9 0 20 9 23 20 5 20 40 24
44 6 3 -17 33 -27 51 -17 9 6 14 11 9 11 -4 0 0 11 9 24 19 30 75 50 119 43
50 -8 85 39 53 71 -19 19 5 30 60 28 49 -1 70 -23 33 -33 -28 -7 -22 -26 10
-33 15 -4 23 -12 21 -22 -3 -20 48 -39 71 -27 9 5 14 15 11 22 -8 21 117 17
136 -5 8 -9 33 -18 55 -20 35 -3 40 0 43 21 3 19 8 22 28 17 13 -3 35 -9 49
-12 32 -8 58 18 57 57 -1 45 10 46 326 23 58 -4 87 -3 97 6 11 10 22 10 42 1
20 -8 50 -8 99 -2 221 28 91 30 -1508 31 l-1618 0 2 -432z m1950 391 c-2 -7
-4 -22 -5 -31 -1 -13 -10 -17 -34 -16 -38 1 -40 6 -15 24 9 7 18 17 18 23 3
21 4 22 22 19 9 -2 16 -11 14 -19z m-312 -55 c0 -8 -4 -14 -10 -14 -5 0 -10 9
-10 21 0 11 5 17 10 14 6 -3 10 -13 10 -21z"/>
<path d="M3298 10788 c17 -8 26 -8 34 0 9 9 4 12 -22 11 -33 0 -34 -1 -12 -11z"/>
<path d="M3440 10789 c97 -19 194 -21 230 -6 33 15 27 15 -120 15 -117 0 -144
-3 -110 -9z"/>
<path d="M3810 10789 c13 -6 27 -12 29 -15 10 -10 20 -345 27 -885 7 -516 6
-538 -12 -562 -27 -37 -44 -34 -44 7 0 42 -18 98 -38 113 -10 8 -12 20 -7 40
4 15 9 49 12 74 4 39 1 50 -22 77 -34 41 -81 44 -115 7 -31 -33 -42 -32 -65 7
-10 18 -37 49 -59 70 -36 33 -47 38 -89 38 -43 0 -51 -4 -87 -42 -36 -39 -80
-114 -80 -137 0 -19 -20 -22 -42 -7 -31 22 -65 20 -123 -9 -27 -13 -55 -25
-62 -25 -10 0 -52 -40 -101 -97 -11 -13 -23 -23 -28 -23 -4 0 -18 10 -32 23
-34 32 -108 30 -193 -6 l-65 -28 -85 15 c-46 8 -118 26 -159 40 -41 13 -127
36 -190 51 -63 15 -126 31 -140 36 -14 5 -43 11 -65 14 -99 12 -127 19 -149
36 -13 11 -31 19 -39 19 -29 0 -47 12 -47 31 0 17 -8 19 -75 19 -51 0 -92 6
-127 20 -57 22 -98 26 -98 10 0 -16 -38 -12 -66 6 -21 15 -29 15 -50 4 -21
-12 -30 -11 -59 3 -20 9 -50 17 -68 17 -18 1 -50 7 -72 15 -22 8 -50 15 -62
15 -12 0 -25 5 -28 10 -3 6 -22 10 -41 10 -35 0 -46 13 -19 24 8 3 15 10 15
16 0 17 -24 11 -37 -8 -9 -16 -25 -19 -90 -21 -43 -1 -134 -8 -203 -17 -69 -8
-186 -19 -260 -23 -74 -5 -142 -11 -150 -14 -19 -7 -123 -20 -172 -21 -21 -1
-39 -5 -40 -11 -1 -5 -5 42 -8 105 l-6 115 -4 -130 -4 -130 -6 120 c-5 91 -6
64 -6 -115 0 -159 2 -203 6 -135 l6 100 4 -110 4 -110 6 105 c4 74 7 90 10 55
3 -47 4 -47 7 -12 4 32 8 37 29 37 16 0 24 6 25 18 0 14 2 14 9 -3 7 -15 9
-16 9 -4 2 31 27 38 149 42 96 4 124 2 133 -9 15 -18 33 -18 49 1 7 8 23 15
37 15 13 0 26 7 29 15 4 10 20 15 44 15 22 0 42 5 45 10 3 6 31 10 62 10 46 0
56 -3 60 -20 7 -26 43 -27 43 -1 0 14 6 19 20 18 23 -1 25 -8 8 -26 -10 -11
-10 -13 0 -7 17 10 16 -22 -2 -40 -18 -17 -78 -12 -122 11 -36 19 -44 18 -69
-3 -29 -24 -35 -45 -19 -66 10 -15 25 -18 74 -17 33 0 69 -4 79 -11 16 -10 25
-9 45 2 32 17 41 8 41 -37 0 -34 2 -36 55 -51 30 -8 73 -14 95 -14 22 1 92 -5
155 -14 63 -8 126 -16 140 -17 14 -1 30 -8 36 -16 9 -11 27 -13 83 -8 78 6
101 2 101 -18 0 -25 72 -29 167 -9 16 3 30 -5 49 -26 15 -16 33 -30 40 -30 7
0 21 -11 32 -25 11 -14 30 -25 43 -25 59 0 142 -17 150 -32 7 -12 19 -14 53
-11 36 4 50 1 72 -16 15 -12 35 -19 44 -16 18 6 70 -29 70 -46 0 -6 7 -17 15
-25 12 -13 15 -13 15 -2 0 11 13 13 63 7 99 -12 122 -21 125 -52 3 -24 0 -27
-26 -27 -16 0 -37 -9 -47 -20 -15 -17 -16 -24 -6 -46 10 -23 15 -25 51 -19 38
6 41 5 51 -22 9 -29 11 -29 72 -25 92 6 126 31 72 52 -30 11 -33 30 -5 30 11
0 20 7 20 15 0 20 19 19 57 -5 27 -16 32 -25 31 -55 -1 -31 -4 -35 -29 -35
-15 0 -29 -5 -31 -12 -7 -21 4 -56 19 -62 22 -9 33 2 33 30 0 13 5 24 12 24 6
0 20 8 31 18 13 11 42 19 90 22 44 3 72 10 75 18 2 7 -6 12 -22 12 -19 0 -26
5 -26 20 0 11 7 20 15 20 8 0 15 -6 15 -14 0 -8 10 -16 23 -20 38 -9 81 8 102
42 17 27 26 31 61 32 38 0 41 2 40 28 -1 26 1 27 49 27 l51 0 -3 31 -2 32 74
-2 c63 -2 80 -6 115 -31 27 -19 39 -33 35 -43 -5 -14 10 -31 26 -32 16 0 16
39 0 45 -14 6 -13 8 4 15 41 17 104 11 145 -15 22 -14 40 -32 40 -40 0 -8 7
-15 15 -15 8 0 15 -6 15 -14 0 -8 7 -17 16 -20 22 -9 24 -8 24 10 0 10 -6 14
-15 10 -8 -3 -15 -1 -15 3 0 5 6 12 13 14 10 4 10 6 0 6 -24 2 -13 29 14 36
30 7 153 -14 153 -27 0 -4 -4 -8 -10 -8 -5 0 -10 -5 -10 -11 0 -5 4 -8 9 -5
15 9 21 -21 21 -102 0 -78 -5 -96 -27 -98 -38 -3 -43 -5 -43 -17 0 -7 9 -18
20 -24 37 -24 50 -64 40 -129 -5 -32 -11 -185 -13 -339 -3 -154 -5 -292 -6
-306 -1 -26 -4 -27 -73 -34 -70 -6 -118 -16 -278 -55 -91 -22 -186 -77 -292
-171 l-77 -68 -50 6 c-48 5 -50 5 -53 -21 -4 -34 -22 -35 -26 -1 -6 48 -72
102 -72 60 0 -8 -4 -15 -9 -15 -5 0 -11 -27 -13 -60 -3 -53 4 -78 14 -49 2 7
13 5 32 -5 17 -9 37 -12 50 -7 21 7 56 4 56 -5 0 -3 -21 -41 -46 -86 -26 -45
-53 -97 -61 -115 -7 -18 -17 -33 -22 -33 -13 0 -69 106 -82 155 -6 22 -19 49
-29 60 -25 28 -50 80 -50 105 0 21 14 27 25 10 18 -29 95 10 95 49 0 11 5 23
11 26 7 5 5 15 -5 30 -14 21 -14 29 4 81 11 31 25 63 31 70 6 7 9 28 7 46 -3
28 -7 34 -31 36 -25 3 -27 1 -19 -15 11 -21 7 -35 -24 -81 -14 -19 -24 -50
-24 -68 0 -19 -4 -34 -9 -34 -18 0 -64 -50 -80 -85 l-16 -35 -70 37 c-58 30
-82 37 -145 40 -41 2 -92 11 -113 20 -38 16 -66 10 -34 -8 28 -16 20 -36 -41
-102 -97 -104 -103 -120 -96 -223 3 -49 12 -111 20 -139 18 -63 102 -210 169
-295 72 -92 131 -200 114 -210 -7 -5 -56 -18 -108 -29 -103 -23 -225 -53 -386
-96 -108 -29 -128 -34 -248 -59 -44 -10 -118 -28 -165 -42 -48 -14 -118 -32
-157 -41 -38 -8 -86 -19 -105 -23 -19 -5 -100 -22 -179 -39 -80 -17 -150 -36
-157 -42 -7 -6 -57 -17 -111 -25 -54 -8 -116 -18 -138 -23 -22 -5 -105 -24
-185 -41 -80 -18 -156 -34 -170 -35 -14 -1 -45 -8 -69 -15 -25 -6 -65 -15 -90
-20 -26 -4 -89 -20 -141 -35 -52 -15 -101 -27 -107 -28 -8 0 -13 -15 -12 -41
0 -23 3 -34 7 -26 4 8 18 16 32 17 14 1 65 11 115 23 50 11 126 27 170 35 144
27 189 36 295 61 118 27 265 67 355 94 33 11 101 26 150 35 50 9 119 25 155
35 36 10 76 20 90 23 14 2 149 37 300 77 151 39 302 78 335 85 33 7 114 25
180 39 66 14 182 40 258 57 l138 32 54 -59 c30 -32 55 -65 55 -73 0 -26 -53
-131 -66 -131 -15 0 -24 -12 -29 -42 -6 -32 -24 -39 -77 -33 -35 4 -54 1 -73
-11 -17 -11 -35 -14 -60 -10 -41 8 -111 -8 -118 -28 -3 -8 -33 -15 -85 -20
-44 -3 -93 -13 -109 -21 -15 -8 -47 -15 -71 -15 -24 0 -51 -4 -61 -10 -10 -5
-50 -11 -89 -13 -39 -2 -77 -9 -85 -15 -8 -7 -76 -17 -153 -22 -99 -8 -151
-16 -179 -30 -22 -10 -56 -21 -75 -24 -57 -8 -154 -37 -170 -51 -18 -16 -228
-26 -233 -11 -2 5 -9 6 -16 2 -11 -7 -11 -10 0 -17 24 -14 1 -22 -78 -26 -43
-2 -90 -6 -105 -9 -20 -5 -29 -2 -34 10 -9 22 -36 20 -58 -5 -11 -13 -21 -18
-25 -11 -17 27 -95 5 -107 -30 -4 -15 -12 -18 -29 -14 -13 3 -41 -4 -71 -19
-27 -14 -59 -25 -71 -25 -31 0 -73 -21 -73 -36 0 -16 -53 -31 -102 -28 -26 1
-47 -5 -64 -19 -25 -19 -27 -19 -55 -3 -29 17 -29 17 -31 -6 0 -13 -4 0 -8 27
-7 48 -7 47 -10 -30 l-4 -80 -6 75 c-4 41 -7 -130 -8 -380 -1 -251 2 -449 7
-442 4 8 10 13 12 11 2 -1 21 3 42 10 20 7 43 11 50 8 6 -2 17 2 22 9 11 14
133 59 215 79 92 23 124 32 150 43 26 11 170 56 182 57 6 0 21 -895 22 -1332
1 -99 4 -185 8 -189 9 -8 -1 -84 -13 -99 -4 -6 -11 -56 -15 -112 -6 -87 -4
-106 10 -128 9 -14 14 -26 11 -26 -3 -1 -9 -2 -14 -3 -17 -2 -22 -14 -23 -54
0 -31 -7 -47 -27 -65 -14 -13 -34 -34 -44 -46 -16 -20 -24 -22 -70 -16 -52 8
-76 25 -77 57 0 9 -16 24 -35 34 -19 9 -35 20 -35 24 0 4 -13 13 -29 19 -24
10 -30 20 -35 58 -9 66 -8 83 7 83 6 0 21 7 31 15 45 34 -36 54 -96 23 -15 -7
-18 -4 -18 17 0 24 2 25 62 25 58 0 61 1 46 17 -9 9 -27 17 -40 18 -16 1 -24
10 -30 33 -8 28 -11 31 -28 22 -11 -6 -20 -15 -20 -21 0 -6 -12 -9 -27 -7 -24
3 -28 7 -25 31 2 17 -2 27 -11 27 -7 0 -22 6 -33 14 -19 14 -19 15 3 38 21 22
22 28 13 83 -5 33 -10 61 -10 63 0 8 -49 0 -52 -9 -3 -9 -10 -9 -26 0 l-22 12
-2 -423 c-2 -331 -4 -261 -8 322 l-5 745 -5 -1060 -5 -1060 -5 1040 c-4 784
-6 483 -8 -1222 l-2 -2263 6313 0 6312 0 2 28 c1 15 -5 43 -14 62 -48 108 -59
129 -70 130 -19 0 -16 14 12 46 29 34 27 50 -6 46 -13 -2 -21 -1 -17 3 4 4 3
16 -2 26 -8 13 -6 20 6 27 18 10 11 32 -11 32 -24 0 -26 28 -2 32 24 3 31 33
7 33 -8 0 -19 6 -23 13 -4 6 -14 12 -21 12 -7 0 -23 27 -35 59 -16 46 -30 65
-56 81 -19 12 -35 26 -35 31 0 5 -9 9 -20 9 -16 0 -20 -6 -18 -28 1 -15 -2
-34 -7 -42 -5 -8 -10 -27 -11 -43 -1 -15 -7 -41 -14 -58 -16 -37 -29 -22 -29
32 0 19 1 52 1 74 0 66 -12 176 -26 235 -8 31 -11 80 -9 112 5 51 3 58 -20 78
-24 21 -25 24 -11 45 8 12 11 25 7 29 -4 4 -8 15 -8 23 0 9 -6 18 -13 21 -9 3
-11 -3 -6 -24 5 -20 4 -25 -6 -19 -10 6 -11 -7 -6 -61 11 -115 14 -336 4 -383
-6 -28 -5 -48 2 -56 8 -9 6 -23 -7 -49 -29 -61 -58 -37 -33 28 7 18 5 33 -5
53 -10 19 -13 42 -9 70 3 24 3 51 -1 60 -5 10 -9 34 -11 53 -24 324 -40 459
-59 521 -9 28 -23 23 -27 -8 -3 -27 9 -199 17 -258 3 -16 7 -76 9 -133 3 -82
1 -104 -11 -110 -12 -7 -12 -13 3 -39 10 -16 14 -37 11 -47 -6 -15 -12 -12
-43 17 -20 19 -40 39 -46 43 -5 5 -26 36 -47 69 -33 52 -38 69 -40 124 -1 36
-7 73 -12 84 -6 10 -8 25 -5 33 3 8 1 14 -4 14 -6 0 -10 9 -10 20 0 11 -6 20
-14 20 -20 0 -24 27 -15 99 8 70 5 87 -17 95 -17 7 -38 -40 -47 -107 -4 -27
-15 -68 -25 -90 -10 -23 -19 -45 -20 -50 -1 -4 -8 -20 -17 -37 -8 -16 -14 -39
-12 -52 3 -31 -22 -33 -63 -6 -31 21 -36 31 -48 98 -8 41 -14 83 -13 93 0 10
-7 21 -15 24 -8 3 -14 14 -14 24 0 10 -6 19 -14 19 -8 0 -17 14 -21 32 -3 18
-12 49 -19 68 -8 19 -22 62 -32 95 -10 33 -22 64 -26 70 -4 5 -8 17 -8 27 0
10 -4 18 -9 18 -13 0 -21 -84 -9 -91 13 -8 19 -147 8 -154 -16 -10 -32 27 -32
70 1 25 -3 45 -8 45 -6 0 -10 15 -10 33 0 17 -9 47 -20 65 -11 18 -20 39 -20
47 0 8 -4 15 -9 15 -13 0 -18 18 -41 160 -32 203 -37 225 -62 273 -31 62 -48
61 -48 -4 0 -28 4 -58 9 -68 10 -18 25 -152 36 -316 3 -49 10 -126 16 -170 12
-103 12 -162 -1 -170 -13 -8 -43 26 -70 77 -11 21 -26 38 -34 38 -19 0 -39 45
-32 74 3 13 15 28 26 31 22 7 26 34 8 68 -6 12 -14 29 -18 37 -4 8 -15 16 -24
18 -13 3 -16 -5 -16 -36 0 -22 -7 -59 -16 -83 -8 -24 -15 -73 -15 -109 0 -72
-5 -100 -20 -100 -6 0 -8 19 -5 47 6 63 -16 220 -34 233 -4 3 -19 30 -34 62
-33 68 -36 71 -52 57 -9 -7 -20 -6 -37 6 -24 15 -26 15 -32 -3 -3 -11 -1 -40
4 -64 20 -90 21 -108 6 -108 -9 0 -15 10 -15 25 0 19 -5 25 -20 25 -18 0 -20
-4 -14 -35 5 -30 2 -38 -25 -61 -34 -29 -43 -74 -14 -74 9 0 25 -7 35 -16 14
-14 20 -14 33 -4 8 7 15 21 15 31 0 28 18 23 39 -12 17 -28 18 -70 2 -69 -3 1
-49 11 -101 24 l-95 24 -16 -20 c-10 -12 -29 -21 -48 -22 -34 -1 -42 -15 -12
-23 22 -6 35 -29 21 -38 -6 -4 -10 -14 -10 -25 0 -10 -7 -21 -16 -24 -13 -5
-15 -2 -11 15 5 20 5 20 -14 3 -18 -16 -19 -16 -19 9 0 15 -4 27 -10 27 -5 0
-10 8 -10 18 0 10 -5 23 -11 29 -5 5 -11 21 -13 34 -3 31 -27 69 -43 69 -14 0
-17 16 -14 67 2 29 0 33 -22 33 -14 0 -39 12 -56 26 -17 14 -31 22 -31 18 0
-4 -9 1 -20 11 -11 10 -17 22 -13 28 4 7 0 8 -11 4 -13 -5 -17 -3 -13 6 3 8
-3 20 -14 28 -10 7 -19 19 -19 26 0 8 -12 13 -29 13 -17 0 -32 4 -35 9 -3 4
-17 6 -31 4 -28 -6 -94 30 -76 41 30 19 -13 41 -44 23 -13 -7 -27 -5 -49 6
-82 42 -206 95 -249 107 -26 7 -50 17 -53 21 -3 5 -14 9 -25 9 -10 0 -19 4
-19 9 0 4 -18 11 -40 14 -22 3 -70 16 -107 30 -37 13 -106 34 -153 46 -47 12
-121 33 -165 46 -44 14 -102 31 -130 39 -136 38 -164 47 -173 59 -6 8 -6 39 0
87 10 81 4 140 -14 140 -7 0 -22 -10 -35 -21 -17 -17 -25 -19 -36 -10 -21 17
-49 3 -45 -23 2 -16 11 -22 41 -24 33 -3 39 -7 44 -35 4 -18 6 -36 4 -42 -2
-5 -3 -18 -3 -27 1 -23 -33 -24 -90 -2 -53 21 -68 34 -72 65 -10 69 -20 110
-28 115 -17 11 -31 -15 -34 -62 -1 -25 -4 -48 -7 -50 -2 -2 -22 5 -45 16 -32
15 -46 31 -58 60 -13 33 -20 38 -45 38 -16 -1 -29 -5 -29 -9 0 -5 -11 -3 -25
3 -14 6 -25 14 -25 19 0 4 -18 14 -40 23 -33 13 -40 20 -36 38 11 54 16 110
11 118 -7 12 -45 -11 -45 -26 0 -7 -8 -21 -18 -33 l-17 -22 -49 50 -50 50 17
83 c15 81 9 128 -11 77 -6 -13 -18 -44 -28 -68 l-18 -43 -23 26 c-28 33 -29
52 -4 66 64 34 68 97 16 257 -19 59 -35 114 -35 122 0 7 10 30 22 50 46 73
118 261 118 306 0 19 5 45 11 59 20 43 -5 335 -35 421 -54 153 -78 211 -95
230 -50 55 -56 111 -18 143 20 17 143 261 205 408 28 66 56 146 62 180 7 34
15 66 19 71 3 6 31 25 61 42 139 82 288 217 373 340 21 30 67 129 67 143 0 5
13 29 30 51 26 36 32 59 46 162 8 66 19 124 24 129 6 6 38 -4 82 -26 279 -136
658 -56 803 169 20 32 46 70 56 85 11 15 19 33 19 40 0 21 49 115 50 96 0 -43
54 2 56 46 1 31 -2 34 -25 33 -19 -2 -26 3 -26 17 0 17 10 19 100 22 55 2 219
4 365 5 515 0 622 24 155 34 -137 2 -259 5 -271 5 -11 0 -28 6 -38 13 -16 12
-16 15 -2 42 11 20 16 24 16 13 0 -24 8 -23 65 8 41 21 53 24 73 14 22 -10 29
-7 61 25 40 38 57 43 87 20 10 -8 29 -15 41 -15 12 0 25 -5 28 -10 4 -6 14 -8
23 -6 22 7 39 -4 43 -28 5 -25 23 -23 27 3 2 11 14 22 29 26 15 3 32 13 37 20
9 11 20 12 50 5 21 -4 46 -5 55 0 9 4 29 13 45 19 l29 12 -22 23 c-25 26 -27
49 -6 66 8 7 15 16 15 21 0 12 -57 11 -80 -1 -20 -11 -39 3 -20 15 5 3 10 15
10 26 0 22 -31 26 -74 9 -19 -7 -27 -6 -33 4 -4 8 -23 16 -42 18 -32 3 -35 1
-42 -30 -4 -18 -9 -36 -13 -39 -9 -10 -36 18 -36 38 0 11 -7 19 -15 19 -8 0
-15 4 -15 10 0 5 -7 7 -15 3 -9 -3 -15 -2 -14 3 5 30 -3 34 -65 30 -51 -4 -66
-1 -70 11 -6 13 -9 13 -31 -1 -14 -9 -31 -16 -38 -15 -6 1 -49 1 -94 0 -60 -1
-86 -5 -97 -17 -15 -14 -19 -13 -47 10 -17 14 -39 26 -49 26 -10 0 -21 4 -24
9 -3 4 -17 6 -31 3 -16 -3 -33 2 -44 12 -16 15 -25 16 -59 6 -33 -11 -43 -10
-65 5 -20 13 -50 18 -117 19 -55 0 -94 5 -98 12 -4 6 -32 23 -62 36 -30 14
-75 35 -100 46 -44 20 -119 34 -249 48 -46 4 -78 2 -115 -10 -97 -30 -171 -54
-188 -61 -27 -11 -21 7 15 46 18 19 41 46 50 59 16 23 26 25 110 30 50 3 214
-3 362 -13 265 -17 1457 -32 1548 -20 57 8 44 23 -21 23 -31 0 -73 5 -92 10
-21 7 -257 12 -610 15 -316 2 -647 9 -735 15 -88 6 -226 13 -307 17 -121 5
-148 8 -148 20 0 8 26 42 58 75 l57 59 69 -12 c95 -16 155 -6 250 41 85 43
127 77 214 178 45 51 61 63 109 77 51 15 59 15 109 -1 39 -12 70 -15 110 -10
65 7 99 21 74 30 -17 6 -248 26 -296 26 -27 0 -32 4 -38 31 -3 17 -6 58 -6 90
0 52 -8 86 -42 169 -21 51 -42 92 -59 111 -11 13 -19 48 -24 112 -8 101 -41
220 -80 282 -13 22 -34 60 -46 84 -30 59 -141 170 -211 209 -59 34 -120 53
-251 78 -95 18 -156 9 -274 -40 -95 -39 -107 -47 -184 -120 -98 -93 -157 -222
-146 -317 7 -57 60 -177 87 -196 11 -8 20 -21 20 -29 0 -23 -288 -298 -315
-302 -24 -3 -62 16 -100 49 -11 10 -38 22 -60 28 -22 5 -58 16 -80 24 -118 43
-291 26 -430 -43 -45 -22 -84 -40 -89 -40 -4 0 -5 18 -1 39 5 28 2 50 -10 75
-29 62 -58 71 -67 21 -2 -15 2 -20 20 -19 30 1 29 -29 -3 -50 -13 -9 -30 -16
-37 -16 -15 0 -92 -50 -131 -85 -15 -14 -40 -26 -55 -27 -76 -4 -88 -5 -103
-12 -11 -5 -24 2 -40 21 -14 17 -31 27 -42 25 -10 -2 -30 8 -44 22 -28 28 -40
31 -63 16 -10 -6 -20 -3 -33 11 -10 10 -31 19 -48 19 -23 0 -34 7 -47 30 -13
23 -23 30 -39 27 -22 -4 -33 9 -33 41 0 9 -15 27 -33 40 -47 31 -125 31 -164
-2 -21 -18 -33 -21 -51 -15 -23 9 -23 9 -47 -59 -3 -8 -13 -12 -22 -10 -15 3
-18 13 -16 56 3 61 -14 69 -59 25 -22 -21 -30 -24 -42 -14 -30 25 -29 50 1 79
36 34 65 124 61 188 -3 46 -6 50 -40 67 -21 9 -38 22 -38 27 0 102 -9 279 -14
292 -16 36 -106 30 -106 -8 0 -8 -7 -17 -15 -20 -8 -4 -15 -18 -15 -33 l1 -26
24 30 c21 25 27 28 35 15 14 -21 12 -79 -4 -136 -8 -27 -19 -80 -26 -119 -32
-192 -39 -210 -79 -202 -14 3 -38 3 -53 0 -25 -5 -28 -10 -28 -45 0 -21 9 -56
20 -78 11 -22 20 -48 20 -60 0 -13 7 -20 19 -20 29 0 36 -32 11 -52 -32 -26
-19 -62 31 -94 23 -14 44 -35 47 -46 2 -11 15 -24 28 -29 13 -4 24 -15 24 -23
0 -9 12 -16 32 -18 26 -2 35 -9 42 -33 6 -16 11 -32 13 -34 2 -2 21 2 44 9 38
13 42 13 58 -7 23 -31 66 -39 96 -19 13 9 33 16 45 16 27 0 25 16 -5 44 -35
33 -32 60 10 86 29 18 33 25 24 36 -6 8 -9 20 -6 28 7 18 -18 40 -33 31 -6 -4
-9 -13 -6 -21 3 -8 1 -14 -4 -14 -6 0 -11 12 -11 28 -1 15 -3 36 -4 47 -3 26
12 65 24 65 5 0 11 -12 13 -27 4 -37 38 -45 38 -9 0 32 17 42 39 22 13 -12 20
-13 29 -4 32 32 14 -36 -22 -82 -18 -23 -38 -89 -31 -101 4 -6 -2 -13 -14 -16
-25 -6 -26 -11 -5 -34 13 -14 21 -16 36 -8 11 6 35 8 54 4 23 -4 34 -2 34 6 0
17 31 38 56 39 11 0 29 -9 39 -20 10 -11 28 -20 39 -21 43 -1 86 -36 100 -81
8 -27 59 -32 103 -9 27 13 44 16 54 10 11 -7 4 -18 -34 -55 -106 -102 -114
-204 -25 -318 21 -27 38 -54 38 -62 0 -10 -83 -12 -427 -9 -577 5 -1215 15
-1230 20 -7 2 -108 7 -225 11 -117 3 -216 8 -220 11 -5 2 -8 11 -8 20 0 8 -6
29 -14 46 -8 18 -28 64 -45 104 -16 39 -46 97 -65 128 -43 66 -44 84 -11 115
14 13 25 32 25 42 0 11 4 16 10 13 12 -7 50 12 50 25 0 6 -11 10 -25 10 -17 0
-25 6 -25 17 0 21 31 151 67 283 33 120 39 325 11 375 -28 51 -71 93 -126 120
-40 20 -52 31 -47 44 5 16 17 400 15 479 -1 32 0 32 45 32 25 0 45 5 45 10 0
8 -45 13 -76 9 -24 -3 -34 119 -13 163 15 33 102 56 234 62 115 5 163 14 167
31 2 6 -13 11 -32 13 -67 5 -81 12 -96 49 -19 45 -12 63 23 63 32 -1 61 -20
77 -51 21 -42 38 -44 78 -6 20 19 34 37 31 41 -4 3 -26 6 -49 6 -24 0 -45 4
-48 9 -3 4 -28 11 -56 15 -41 6 -57 3 -83 -13 -30 -18 -35 -18 -72 -5 -66 25
-75 27 -75 16 0 -6 9 -14 21 -17 32 -11 110 -97 99 -110 -15 -18 -111 -34
-160 -27 -42 7 -45 9 -46 40 -2 36 1 38 23 16 14 -14 18 -14 31 -1 11 12 13
25 6 64 -8 43 -12 48 -37 51 l-29 3 9 352 c4 194 7 417 5 497 -2 139 13 456
24 493 5 16 -18 17 -382 17 l-387 0 7 -37 c3 -21 9 -72 12 -113 7 -83 23 -128
33 -97 6 15 9 16 25 4 12 -9 25 -44 38 -103 10 -49 22 -98 25 -109 12 -40 16
-184 11 -430 -1 -44 0 -93 1 -110 2 -16 0 -41 -4 -55 -12 -39 -10 -87 5 -105
9 -10 13 -36 11 -70 -1 -30 2 -63 8 -74 8 -14 8 -28 1 -47 -6 -14 -13 -60 -17
-100 -3 -41 -10 -74 -14 -74 -5 0 -9 -8 -9 -18 0 -25 -30 -61 -36 -44 -9 21
-24 13 -24 -13 0 -14 6 -25 13 -25 7 0 23 -9 34 -20 17 -15 20 -27 16 -60 -4
-25 -2 -40 5 -40 6 0 10 -20 10 -47 -2 -108 14 -207 37 -233 33 -37 52 -90 36
-100 -10 -5 -12 -33 -10 -102 3 -68 0 -99 -9 -111 -11 -13 -10 -17 7 -27 18
-9 19 -14 10 -32 -9 -16 -8 -23 3 -29 8 -4 20 -26 27 -47 16 -47 1 -160 -23
-177 -10 -8 -13 -24 -10 -50 9 -80 15 -104 27 -108 8 -3 9 -8 2 -14 -6 -7 -33
-7 -70 -3 -33 5 -114 9 -179 9 l-119 1 9 403 c10 446 10 1142 -1 1905 l-7 502
-62 -1 c-50 0 -57 -2 -36 -10z m809 -601 c0 -13 -4 -32 -9 -43 -7 -15 -9 -10
-9 23 -1 23 4 42 9 42 6 0 10 -10 9 -22z m5 -109 c1 -14 6 -30 9 -37 4 -6 -3
-33 -17 -59 l-25 -48 -2 35 c-1 41 0 77 6 105 2 11 4 27 4 35 1 23 22 -3 25
-31z m70 -211 c-6 -38 -8 -40 -14 -18 -4 14 -2 35 3 48 15 33 20 19 11 -30z
m-83 -26 c0 -20 1 -83 2 -140 2 -61 -2 -111 -9 -123 -18 -35 -28 -5 -25 83 1
43 -3 86 -8 96 -6 12 -4 36 6 75 18 62 34 66 34 9z m-3689 -169 c2 -20 9 -29
26 -31 14 -2 22 -10 22 -23 0 -15 -8 -19 -35 -20 -19 -1 -41 -2 -47 -3 -19 -2
-21 29 -3 47 8 9 15 25 15 36 0 31 18 25 22 -6z m472 -69 c59 -9 63 -32 4 -27
-73 6 -118 15 -118 24 0 11 48 12 114 3z m3216 -69 c0 -8 -4 -15 -10 -15 -5 0
-10 7 -10 15 0 8 5 15 10 15 6 0 10 -7 10 -15z m-3150 -29 c0 -8 -4 -18 -10
-21 -5 -3 -10 3 -10 14 0 12 5 21 10 21 6 0 10 -6 10 -14z m325 4 c3 -5 -1
-10 -9 -10 -9 0 -16 5 -16 10 0 6 4 10 9 10 6 0 13 -4 16 -10z m209 -35 c8 -8
19 -15 25 -15 6 0 11 -4 11 -10 0 -5 9 -10 20 -10 11 0 20 4 20 10 0 13 97 1
140 -18 l35 -15 -44 -11 c-44 -12 -61 -28 -42 -41 6 -3 11 -13 11 -22 0 -12
-6 -14 -27 -8 -36 9 -37 9 -21 34 17 28 -1 48 -30 32 -15 -8 -23 -6 -38 10
-10 11 -26 18 -35 16 -11 -3 -21 4 -28 20 -7 16 -17 23 -26 19 -8 -3 -22 -9
-30 -12 -24 -10 -17 12 8 24 30 14 33 14 51 -3z m2636 -80 c0 -7 -5 -15 -12
-17 -13 -5 -17 -30 -16 -98 4 -234 -7 -403 -25 -397 -17 5 -20 144 -7 259 13
109 13 103 10 192 -2 46 2 71 10 76 17 11 40 1 40 -15z m-2177 -1 c15 -3 27
-9 27 -14 0 -4 10 -11 23 -15 22 -6 21 -7 -5 -15 -20 -6 -37 -3 -63 10 -23 12
-49 16 -73 14 -41 -5 -69 7 -57 25 7 12 70 9 148 -5z m-573 -79 c0 -8 -4 -15
-10 -15 -5 0 -10 7 -10 15 0 8 5 15 10 15 6 0 10 -7 10 -15z m55 5 c3 -5 1
-10 -4 -10 -6 0 -11 5 -11 10 0 6 2 10 4 10 3 0 8 -4 11 -10z m410 -10 c-3 -5
-10 -10 -16 -10 -5 0 -9 5 -9 10 0 6 7 10 16 10 8 0 12 -4 9 -10z m-282 -45
c1 -5 -6 -11 -15 -13 -11 -2 -18 3 -18 13 0 17 30 18 33 0z m587 -41 c0 -12
-6 -15 -25 -10 -14 4 -25 2 -25 -4 0 -5 11 -10 25 -10 26 0 30 -7 17 -27 -9
-14 -82 -6 -82 8 0 5 -7 9 -15 9 -8 0 -15 7 -15 15 0 8 7 15 15 15 8 0 15 5
15 10 0 6 20 10 45 10 35 0 45 -4 45 -16z m185 -14 c3 -5 1 -10 -4 -10 -6 0
-11 5 -11 10 0 6 2 10 4 10 3 0 8 -4 11 -10z m-73 -17 c22 -20 23 -33 3 -33
-9 0 -19 8 -22 18 -4 9 -11 20 -17 24 -7 5 -6 8 3 8 8 0 23 -7 33 -17z m163
-30 c38 -18 47 -48 16 -58 -27 -8 -101 32 -101 56 0 24 36 25 85 2z m199 1
c11 -28 -3 -54 -29 -54 -14 0 -25 -7 -28 -20 -7 -26 -24 -26 -32 1 -12 36 3
69 30 69 13 0 27 5 30 10 9 15 22 12 29 -6z m-220 -119 c4 -11 -2 -15 -26 -15
-26 0 -29 2 -18 15 7 8 18 15 25 15 7 0 15 -7 19 -15z m1693 -339 c4 -58 1
-96 -7 -116 -15 -37 -9 -47 15 -24 11 11 15 28 13 46 -6 36 4 36 20 0 17 -40
9 -116 -12 -120 -13 -3 -15 2 -10 22 6 24 4 26 -27 26 l-34 0 0 123 c0 67 4
128 9 135 16 26 27 -5 33 -92z m-13 -214 c-20 -5 -39 12 -30 27 4 6 14 4 27
-7 17 -15 18 -17 3 -20z m144 -96 c37 -20 99 -85 111 -119 33 -86 -8 -317
-100 -567 -33 -89 -37 -94 -57 -78 -8 7 -38 40 -65 73 -50 61 -86 92 -189 165
-32 23 -58 47 -58 54 0 20 67 264 86 311 22 56 90 141 122 153 62 25 113 27
150 8z m4213 -210 c70 -37 110 -61 169 -98 30 -19 82 -49 115 -66 65 -32 100
-73 153 -177 40 -80 56 -137 48 -170 -6 -25 -86 -121 -225 -271 -268 -288
-353 -377 -488 -511 -103 -103 -160 -153 -175 -153 -12 0 -51 17 -87 39 -172
101 -408 225 -454 238 -98 28 -197 82 -197 108 0 7 38 53 84 102 45 48 98 105
116 126 37 43 53 45 135 16 54 -19 66 -20 126 -9 190 33 416 217 449 364 12
54 -7 71 -111 102 -50 15 -93 34 -96 42 -4 9 55 74 161 178 187 184 192 186
277 140z m-2699 -116 c-6 -10 -8 -27 -5 -39 7 -27 -7 -27 -41 0 -27 21 -34 39
-15 39 12 0 44 30 32 30 -4 0 -1 5 7 10 20 13 37 -17 22 -40z m-142 -90 c0 -5
-7 -10 -16 -10 -8 0 -12 5 -9 10 3 6 10 10 16 10 5 0 9 -4 9 -10z m517 -66
c-3 -3 -12 -4 -19 -1 -8 3 -5 6 6 6 11 1 17 -2 13 -5z m-2767 -24 c0 -5 -10
-15 -22 -21 -27 -14 -28 -15 -135 -136 -44 -51 -99 -118 -120 -150 -42 -62
-153 -255 -153 -266 0 -4 -13 -29 -30 -55 -27 -44 -76 -175 -114 -302 -91
-306 -122 -423 -141 -530 -9 -52 -27 -147 -40 -210 -13 -63 -29 -153 -35 -200
-7 -47 -16 -101 -21 -120 -4 -19 -15 -107 -24 -194 -9 -88 -20 -191 -25 -230
-23 -178 -33 -510 -22 -711 18 -325 50 -714 66 -805 8 -47 24 -148 35 -225 55
-367 57 -382 116 -600 9 -33 27 -100 40 -150 13 -49 42 -142 65 -207 22 -64
40 -121 40 -127 0 -6 11 -34 24 -63 13 -29 27 -64 31 -77 4 -14 16 -38 26 -55
13 -21 15 -34 8 -42 -7 -8 -6 -15 2 -20 8 -5 10 -3 5 7 -4 8 2 3 13 -10 25
-28 20 -39 -12 -24 -63 30 -240 52 -253 31 -3 -4 -12 -8 -21 -8 -8 0 -24 -11
-34 -25 -12 -14 -26 -22 -35 -18 -14 5 -64 99 -64 120 0 6 -9 13 -20 16 -13 3
-20 14 -20 29 0 13 -9 34 -20 46 -11 12 -20 27 -20 34 0 7 -11 33 -25 57 -14
24 -27 57 -29 75 -6 45 -22 82 -46 106 -18 18 -21 32 -20 83 3 80 2 85 -14 65
-11 -15 -14 -13 -28 20 -37 88 -79 232 -108 367 -11 55 -25 118 -31 140 -11
44 -55 358 -62 444 -2 24 19 40 141 106 50 27 169 144 195 193 24 43 27 62 28
136 1 117 -19 173 -80 228 -65 59 -125 74 -222 58 -38 -7 -72 -10 -75 -8 -8 9
-9 469 -1 613 14 262 47 566 68 630 12 35 55 285 69 395 15 114 20 142 35 175
8 17 19 53 26 80 6 28 13 55 14 61 2 6 32 14 67 17 76 6 111 23 181 87 55 50
77 96 77 157 0 57 -40 189 -86 281 l-46 94 46 91 c57 114 91 169 152 244 74
92 90 109 142 150 44 34 178 103 222 113 19 5 55 14 80 20 41 9 162 25 218 29
12 0 22 -3 22 -9z m397 -6 c113 -26 264 -148 393 -319 122 -162 156 -236 233
-510 89 -312 153 -620 177 -840 16 -154 29 -258 51 -400 10 -71 23 -184 27
-250 10 -149 7 -746 -5 -800 l-8 -40 -68 -3 c-65 -3 -67 -2 -78 25 -6 15 -12
144 -15 293 -6 333 -25 547 -66 750 -6 30 -14 87 -19 125 -30 263 -41 331 -82
510 -14 61 -28 130 -32 155 -18 127 -72 245 -198 435 -102 153 -181 223 -283
250 -143 37 -314 -61 -399 -231 -16 -32 -39 -72 -51 -89 -69 -95 -185 -397
-233 -605 -12 -52 -26 -108 -32 -125 -11 -31 -43 -172 -59 -260 -13 -73 -20
-128 -30 -240 -10 -111 -25 -283 -41 -450 -23 -248 -33 -920 -13 -979 7 -23
20 -129 29 -236 21 -256 31 -348 50 -448 25 -140 156 -506 240 -672 36 -70
146 -199 217 -252 41 -32 86 -55 132 -69 61 -18 76 -19 134 -9 84 14 118 29
189 81 106 78 164 146 230 269 34 63 68 138 76 166 8 28 22 64 30 80 24 48
123 456 132 544 7 71 30 207 51 303 20 88 24 135 24 261 l0 153 60 6 c33 4 73
4 90 0 l32 -6 -7 -156 c-3 -86 -10 -196 -15 -246 -5 -49 -14 -189 -20 -310 -9
-171 -17 -243 -37 -325 -14 -58 -29 -109 -34 -115 -5 -5 -9 -41 -9 -81 0 -59
-10 -103 -51 -236 -28 -90 -74 -210 -102 -268 -79 -164 -177 -338 -193 -344
-8 -3 -14 -12 -14 -21 0 -8 -5 -15 -10 -15 -6 0 -15 -12 -21 -27 -8 -22 -12
-24 -19 -13 -6 9 -10 10 -10 3 0 -6 -13 -16 -30 -22 -16 -5 -30 -16 -30 -23 0
-26 -37 -81 -56 -84 -10 -2 -23 -11 -29 -21 -19 -33 -80 -84 -132 -109 -47
-23 -59 -25 -140 -20 -153 10 -224 21 -266 43 -53 27 -192 131 -233 175 -36
38 -147 192 -181 251 -69 119 -213 517 -213 587 0 20 -5 41 -11 47 -6 6 -14
26 -19 44 -5 19 -16 61 -25 94 -21 77 -53 231 -66 320 -6 39 -14 95 -19 125
-57 367 -70 500 -95 920 -19 318 -19 544 0 717 9 76 20 179 25 228 33 319 50
435 104 715 8 41 20 102 26 135 15 79 69 285 80 310 5 11 25 73 45 137 102
342 279 659 489 876 39 39 75 72 80 72 5 0 20 10 32 21 57 54 196 72 321 43z
m4348 -103 c45 -14 61 -24 63 -39 4 -27 -30 -94 -73 -141 -46 -50 -163 -129
-239 -159 -111 -45 -222 -27 -214 35 3 24 170 210 262 292 47 41 51 43 95 37
25 -4 73 -15 106 -25z m-5996 -104 c52 -35 119 -130 192 -274 33 -65 64 -123
69 -130 6 -7 10 -14 10 -17 0 -2 18 -32 41 -66 79 -119 126 -259 114 -339 -5
-34 -16 -54 -42 -79 -46 -43 -104 -72 -145 -72 -76 1 -169 85 -238 215 -17 33
-49 80 -69 105 -72 87 -184 267 -207 332 -8 24 -15 74 -16 113 -1 60 2 75 24
107 30 44 81 96 117 120 36 24 101 17 150 -15z m4733 -194 c39 -17 78 -47 125
-96 37 -39 123 -122 191 -185 68 -63 121 -120 119 -126 -2 -6 -17 -10 -33 -10
-16 1 -119 -2 -228 -7 -188 -9 -202 -8 -254 11 -122 46 -216 141 -227 232 -11
89 27 150 120 195 59 28 100 25 187 -14z m-3052 -300 c48 -17 150 -96 150
-117 0 -11 -10 -10 -52 0 -61 16 -171 18 -198 4 -10 -5 -21 -21 -24 -36 l-7
-26 -47 44 c-56 51 -59 75 -13 101 76 45 125 52 191 30z m2180 -110 c648 -4
720 -7 720 -37 0 -7 -44 -35 -97 -61 -54 -26 -123 -63 -155 -81 -49 -30 -63
-34 -110 -31 -29 3 -66 10 -83 17 -62 25 -353 16 -525 -17 -25 -5 -61 -5 -80
-1 -47 11 -314 9 -340 -3 -3 -1 -30 -3 -60 -5 -178 -13 -200 -16 -200 -29 0
-8 5 -17 11 -21 8 -4 8 -9 0 -17 -8 -8 -19 -3 -40 20 -37 41 -75 51 -111 30
-25 -15 -29 -15 -41 -1 -10 13 -24 14 -66 9 -46 -6 -56 -4 -71 13 -9 11 -34
22 -55 25 -30 5 -41 1 -57 -15 -11 -12 -20 -25 -20 -29 0 -4 -10 -9 -22 -11
-26 -3 -32 7 -79 145 -17 48 -28 94 -25 103 5 13 55 14 428 8 233 -4 718 -9
1078 -11z m-2441 -80 c95 -78 112 -97 105 -112 -3 -9 -7 -25 -8 -36 -3 -29
-27 -85 -36 -85 -4 0 -11 7 -14 15 -4 12 -10 13 -24 6 -20 -11 -40 -10 -60 2
-12 8 -52 0 -62 -12 -7 -8 -86 -51 -95 -51 -9 0 2 34 37 110 39 87 101 190
113 190 6 0 26 -12 44 -27z m377 5 c128 -40 146 -82 99 -239 -29 -94 -58 -231
-80 -376 -9 -54 -22 -142 -30 -195 -27 -173 -44 -261 -71 -368 -23 -92 -48
-207 -60 -277 -3 -14 -14 -24 -31 -27 -33 -7 -183 10 -195 22 -5 5 -4 31 1 58
39 203 74 426 91 584 7 58 19 152 27 210 8 58 18 150 23 205 4 55 13 132 18
170 6 39 16 108 22 155 7 47 14 88 16 92 10 15 102 8 170 -14z m3528 -3 c166
-46 218 -87 256 -200 33 -100 18 -197 -56 -368 -63 -142 -190 -281 -319 -346
-107 -55 -134 -76 -117 -93 11 -11 19 -9 45 6 18 10 64 34 102 54 39 19 86 46
105 61 115 86 169 110 273 121 100 10 164 -4 292 -64 120 -57 178 -112 232
-224 72 -151 50 -332 -63 -507 -65 -101 -194 -218 -337 -304 -99 -59 -164 -85
-287 -111 -98 -22 -394 -38 -403 -23 -3 5 14 24 38 41 25 17 45 36 45 42 0 24
-30 19 -98 -15 -140 -69 -297 -91 -515 -72 -121 10 -238 59 -301 127 -52 56
-64 100 -49 175 13 61 72 205 84 205 12 0 11 -11 -6 -60 -8 -23 -15 -72 -15
-108 0 -88 42 -175 118 -242 77 -69 106 -80 199 -80 152 1 208 14 333 76 101
50 125 68 200 143 113 114 239 300 340 501 10 19 21 56 25 81 10 66 -9 74 -54
22 -61 -68 -233 -169 -361 -211 -138 -45 -444 -78 -640 -69 -103 4 -261 33
-315 56 -11 5 -42 17 -70 26 -123 43 -343 168 -422 239 -81 73 -135 200 -125
294 5 49 7 49 87 18 80 -31 162 -17 202 34 21 26 16 140 -8 184 -26 49 -15 58
55 42 117 -28 261 -115 352 -214 38 -41 65 -63 72 -58 20 12 14 29 -33 83 -25
28 -45 57 -45 65 0 8 14 36 31 64 40 62 85 168 94 223 5 31 3 48 -10 67 -10
15 -14 35 -11 49 6 23 58 70 121 110 18 11 60 39 94 61 69 46 197 101 208 90
9 -9 -24 -69 -53 -97 -26 -24 -32 -55 -11 -62 6 -2 75 29 152 69 121 62 216
101 290 117 62 14 195 6 279 -18z m-3298 -222 c26 -60 40 -108 98 -358 40
-171 48 -217 71 -405 9 -74 25 -198 35 -275 26 -190 33 -255 29 -255 -2 0 -26
11 -53 25 -32 16 -66 25 -96 25 -50 0 -135 -25 -161 -46 -13 -12 -39 -19 -39
-11 -15 264 -25 366 -46 493 l-26 157 21 151 c34 240 109 556 132 556 5 0 21
-26 35 -57z m464 -94 c0 -5 -7 -9 -15 -9 -8 0 -15 7 -15 15 0 9 6 12 15 9 8
-4 15 -10 15 -15z m5565 -59 c-10 -16 -35 7 -35 32 0 18 0 18 21 -1 12 -11 18
-25 14 -31z m210 20 c3 -5 1 -10 -4 -10 -6 0 -11 5 -11 10 0 6 2 10 4 10 3 0
8 -4 11 -10z m-6791 -39 c15 -32 17 -51 11 -102 -9 -78 -19 -99 -48 -99 -31 0
-196 -46 -290 -81 -43 -16 -81 -29 -83 -29 -16 0 34 178 58 205 4 5 8 15 8 23
0 7 10 27 23 45 20 29 26 32 72 31 74 -2 75 -3 75 -19 0 -22 100 -13 112 9 5
9 16 16 23 16 8 0 15 5 15 10 0 6 -4 10 -10 10 -5 0 -10 5 -10 10 0 24 27 6
44 -29z m1036 -32 c0 -10 -4 -19 -10 -19 -5 0 -10 12 -10 26 0 14 4 23 10 19
6 -3 10 -15 10 -26z m48 -66 c2 -8 -5 -13 -17 -13 -21 0 -35 13 -24 24 10 10
36 3 41 -11z m5032 -48 c0 -14 -8 -29 -20 -35 -23 -12 -106 -4 -116 11 -7 11
37 28 82 32 19 1 34 5 34 10 0 4 5 7 10 7 6 0 10 -11 10 -25z m-4685 -30 l320
-6 35 -37 c19 -20 56 -54 83 -76 49 -40 56 -59 33 -88 -10 -13 -15 -15 -24 -6
-7 7 -12 18 -12 26 0 9 -7 11 -20 7 -10 -3 -29 1 -42 9 -16 11 -48 15 -103 14
-44 0 -113 5 -154 11 -48 7 -78 7 -86 1 -6 -5 -22 -8 -34 -5 -13 2 -30 -2 -38
-10 -8 -8 -25 -15 -38 -15 -12 0 -25 -7 -29 -15 -9 -25 -36 -18 -36 10 0 18
-5 25 -20 25 -25 0 -27 -20 -2 -21 13 0 14 -2 2 -6 -8 -4 -23 -17 -33 -30 -10
-12 -29 -23 -41 -23 -13 0 -42 -14 -66 -31 -23 -17 -45 -27 -49 -22 -4 4 -15
60 -25 123 -10 63 -20 127 -23 142 -6 29 10 37 57 32 14 -2 169 -6 345 -9z
m-1435 -124 c0 -61 -25 -238 -50 -363 -11 -53 -20 -106 -20 -118 0 -11 -9 -62
-21 -113 -11 -50 -23 -103 -25 -116 -6 -30 -12 -24 -64 74 -24 44 -46 82 -50
85 -4 3 -17 23 -29 45 -12 22 -51 87 -86 145 -65 105 -105 193 -105 231 0 39
28 77 67 89 21 7 42 16 48 21 5 5 20 9 33 9 14 0 57 10 96 21 92 28 178 46
194 41 7 -3 12 -22 12 -51z m1880 -136 c0 -8 -7 -15 -15 -15 -9 0 -12 6 -9 15
4 8 10 15 15 15 5 0 9 -7 9 -15z m-3396 -109 c8 -33 -2 -56 -24 -56 -25 0 -33
15 -25 50 8 37 40 41 49 6z m3386 2 c0 -6 -6 -5 -15 2 -8 7 -15 14 -15 16 0 2
7 1 15 -2 8 -4 15 -11 15 -16z m-3458 -50 c-3 -26 -1 -27 27 -22 24 5 31 3 31
-8 0 -20 -120 -60 -137 -46 -7 5 -17 7 -23 3 -5 -3 -14 4 -19 17 l-9 23 -7
-27 c-6 -22 -13 -28 -36 -28 -22 0 -30 6 -35 25 -4 16 -13 25 -26 25 -10 0
-16 5 -13 10 4 6 11 8 16 4 5 -3 16 -1 24 6 9 7 15 8 20 0 10 -17 60 -11 83
10 12 11 30 20 42 20 11 0 20 5 20 11 0 6 10 9 23 7 18 -2 21 -8 19 -30z
m1143 -35 c16 -27 39 -66 51 -88 12 -22 45 -78 73 -124 28 -47 51 -88 51 -92
0 -4 10 -25 23 -46 58 -99 97 -221 90 -284 -7 -62 -19 -82 -46 -73 -12 4 -54
7 -93 6 -38 0 -75 3 -80 6 -30 21 -106 169 -143 280 -20 60 -21 71 -10 190 11
127 37 272 48 272 3 0 19 -21 36 -47z m-1380 -23 c11 -17 -5 -32 -21 -19 -8 6
-14 15 -14 20 0 12 27 11 35 -1z m-165 -13 c0 -8 -9 -13 -22 -11 -34 4 -35 5
-13 14 29 12 35 12 35 -3z m-6 -23 c8 -3 13 -11 10 -18 -6 -16 64 -29 104 -20
18 4 24 3 17 -3 -15 -15 -164 -53 -181 -46 -8 3 -23 -2 -32 -10 -24 -22 -105
-42 -128 -32 -12 5 -15 9 -6 12 15 6 16 43 1 43 -6 0 -13 -9 -16 -20 -7 -28
-18 -25 -18 5 0 14 6 25 13 25 6 0 12 8 12 18 0 9 4 23 9 31 14 23 44 -6 38
-36 -3 -16 2 -27 15 -34 20 -11 42 -3 33 12 -4 5 0 10 7 10 47 4 82 10 86 14
3 2 -1 11 -7 19 -10 11 -8 17 6 25 22 13 18 12 37 5z m253 -10 c-3 -3 -12 -4
-19 -1 -8 3 -5 6 6 6 11 1 17 -2 13 -5z m3737 -10 c10 -25 7 -34 -9 -28 -8 4
-15 15 -15 25 0 23 16 25 24 3z m-3784 -4 c0 -5 -6 -10 -14 -10 -8 0 -18 5
-21 10 -3 6 3 10 14 10 12 0 21 -4 21 -10z m2151 -193 c7 -103 9 -190 5 -194
-4 -4 -14 -3 -23 3 -14 9 -16 35 -18 170 0 87 1 174 3 192 10 71 22 9 33 -171z
m-1891 146 c0 -57 -19 -210 -30 -238 -9 -24 -178 -101 -430 -196 -184 -70
-179 -70 -400 -50 -74 7 -169 14 -210 16 -41 3 -147 9 -235 15 -88 6 -191 11
-230 13 l-70 2 45 17 c25 9 106 35 180 58 74 23 164 50 200 61 36 11 92 29
125 40 33 10 70 19 83 19 13 0 35 6 50 14 15 8 68 28 117 44 50 17 130 44 179
61 50 17 137 42 195 56 117 27 301 76 371 99 25 7 48 14 53 15 4 1 7 -20 7
-46z m3564 -31 c-8 -2 -14 -8 -14 -13 0 -17 -37 9 -43 30 -7 28 33 32 55 6 14
-17 14 -21 2 -23z m75 -53 c-9 -18 -8 -20 9 -15 41 13 132 -46 132 -86 0 -13
5 -29 10 -34 14 -14 21 -54 10 -54 -4 0 -10 7 -14 15 -3 8 -12 15 -21 15 -8 0
-15 7 -15 16 0 14 -7 16 -40 11 -38 -5 -90 10 -90 26 0 4 15 7 34 7 19 0 38 5
41 10 4 6 -11 10 -38 10 -32 0 -47 5 -51 16 -11 28 -6 57 12 70 25 20 34 17
21 -7z m-4478 -34 c0 -13 -41 -19 -41 -7 0 11 20 22 33 18 5 -1 8 -6 8 -11z
m2670 -110 c3 -76 1 -85 -20 -85 -11 0 -23 5 -26 10 -6 9 7 84 21 129 9 27 23
-4 25 -54z m1769 55 c8 -5 12 -11 10 -14 -3 -2 -14 2 -24 10 -22 15 -10 19 14
4z m-4933 -49 c3 -12 17 -21 40 -26 33 -6 34 -7 17 -20 -11 -8 -33 -15 -50
-15 -18 0 -44 -7 -60 -15 -31 -16 -45 -12 -26 7 7 7 12 18 12 25 0 22 31 63
47 63 8 0 17 -9 20 -19z m5210 3 c-3 -3 -12 -4 -19 -1 -8 3 -5 6 6 6 11 1 17
-2 13 -5z m93 -44 c6 -11 8 -25 5 -30 -3 -6 5 -10 19 -10 14 0 28 5 31 10 9
15 45 12 102 -10 29 -11 59 -17 68 -14 20 8 18 -6 -5 -34 -18 -22 -22 -22 -62
-11 -24 7 -54 13 -68 13 -15 1 -26 8 -28 19 -3 12 -13 17 -38 17 -35 0 -64 18
-64 39 0 6 -4 11 -10 11 -5 0 -10 5 -10 10 0 19 49 10 60 -10z m50 -20 c0 -5
-4 -10 -9 -10 -6 0 -13 5 -16 10 -3 6 1 10 9 10 9 0 16 -4 16 -10z m-7 -47
c-7 -2 -19 -2 -25 0 -7 3 -2 5 12 5 14 0 19 -2 13 -5z m663 -60 c-3 -23 -15
-63 -27 -88 -12 -25 -18 -52 -15 -61 6 -15 8 -15 29 -1 65 46 164 98 215 113
60 18 281 32 327 20 41 -11 30 -41 -47 -121 -100 -106 -147 -136 -268 -175
-207 -66 -402 -50 -484 40 -72 80 -86 137 -55 231 32 98 31 98 178 101 69 2
132 -1 140 -7 9 -6 11 -22 7 -52z m-3052 -3 c6 -6 3 -16 -6 -27 -19 -21 -74
-137 -83 -175 -9 -37 -29 -52 -52 -39 -10 5 -26 12 -37 15 -15 5 -18 13 -12
44 3 20 6 75 6 121 l0 84 88 -7 c48 -4 91 -11 96 -16z m220 -6 c52 -29 59 -39
87 -127 34 -107 53 -236 53 -375 1 -116 -1 -135 -16 -146 -10 -7 -15 -16 -11
-19 3 -4 0 -7 -9 -7 -12 0 -16 20 -22 98 -8 126 -19 170 -49 197 -34 33 -82
55 -115 55 -29 0 -72 -31 -72 -52 0 -7 -23 11 -50 38 -46 44 -50 52 -45 83 4
18 10 41 15 50 5 9 22 46 38 82 36 79 95 149 127 149 12 0 43 -12 69 -26z
m400 -4 c65 -58 88 -193 41 -249 -34 -39 -215 -124 -231 -108 -4 3 -15 46 -25
94 -10 48 -25 108 -33 131 -18 51 -12 69 39 108 79 60 157 69 209 24z m-1228
-87 c15 -38 31 -72 36 -77 17 -20 6 -36 -38 -56 -26 -11 -48 -20 -50 -20 -7 0
-4 155 2 189 4 17 10 31 14 31 4 0 20 -30 36 -67z m2508 38 c11 -8 175 -58
226 -69 91 -18 376 -94 383 -101 5 -5 12 -30 14 -56 5 -37 14 -54 49 -91 59
-60 78 -90 64 -99 -6 -4 -17 -4 -24 -2 -9 4 -16 -5 -20 -23 -6 -32 -18 -36
-126 -44 -30 -3 -59 -5 -63 -5 -5 -1 -5 -5 -2 -11 3 -5 1 -10 -4 -10 -6 0 -12
-8 -12 -17 -1 -17 -2 -17 -6 0 -6 23 -23 22 -23 -1 0 -15 -13 -21 -66 -31 -45
-8 -70 -9 -78 -2 -9 7 -18 6 -32 -3 -11 -8 -74 -19 -149 -25 -72 -7 -152 -16
-180 -21 -48 -9 -161 -19 -275 -25 -72 -4 -184 -14 -290 -25 -47 -6 -119 -10
-161 -10 -63 0 -78 3 -83 17 -9 21 5 483 13 483 4 0 16 -7 28 -15 35 -25 134
-46 213 -46 99 0 268 38 301 67 8 8 19 14 23 14 27 0 176 136 176 162 0 12 86
4 104 -11z m-4879 -41 c347 -11 586 -32 622 -55 23 -15 23 -18 21 -193 -1 -97
-5 -179 -10 -182 -12 -9 -13 -242 -1 -265 7 -12 13 -135 17 -309 3 -189 9
-293 17 -302 6 -7 8 -18 4 -23 -11 -18 -13 -143 -4 -221 8 -68 4 -125 -17
-246 -4 -18 -1 -35 5 -38 15 -10 14 -57 -3 -108 -10 -30 -16 -107 -20 -248 -3
-113 -8 -212 -11 -221 -4 -10 0 -19 9 -22 9 -4 16 -13 16 -22 0 -18 -12 -19
-28 -3 -8 8 -10 2 -5 -27 l6 -38 -54 7 c-29 4 -59 12 -66 18 -7 6 -13 7 -13 2
0 -5 -4 -2 -10 6 -13 21 -17 4 -25 -100 l-6 -85 -95 -2 c-76 -1 -94 1 -94 13
0 10 12 14 40 14 29 0 40 4 40 15 0 11 -11 15 -40 15 -22 0 -40 -4 -40 -10 0
-18 -27 -10 -55 15 -28 27 -28 32 -13 126 6 34 -8 69 -27 69 -18 0 -19 7 -2
24 6 8 19 24 27 37 8 12 26 33 38 45 17 16 22 29 17 43 -7 25 -23 27 -31 6 -4
-8 -15 -15 -26 -15 -11 0 -22 -8 -25 -20 -6 -23 -32 -33 -67 -24 -22 5 -26 3
-26 -15 0 -26 -21 -37 -92 -45 -54 -6 -58 -5 -58 14 0 13 7 20 19 20 26 0 34
15 21 39 -9 18 -14 19 -36 9 -31 -14 -44 0 -44 50 0 25 4 32 20 32 11 0 20 5
20 10 0 6 7 10 15 10 9 0 15 9 15 24 0 14 5 28 11 32 6 3 9 18 6 32 -3 16 1
30 9 37 13 9 13 13 1 29 -13 18 -16 19 -55 3 -23 -9 -58 -16 -78 -15 -33 1
-35 3 -18 15 17 12 17 13 -2 14 -16 1 -17 2 -1 6 13 3 17 15 17 50 0 37 -3 44
-16 39 -9 -3 -27 -9 -40 -12 -19 -5 -24 -13 -24 -39 0 -19 -5 -37 -10 -40 -15
-10 -2 -25 22 -25 17 0 18 -2 8 -15 -7 -8 -25 -15 -41 -15 -16 0 -29 -4 -29
-9 0 -16 -31 -41 -51 -41 -29 0 -28 85 1 100 23 13 18 30 -9 30 -25 0 -31 40
-41 290 -10 211 -10 217 -8 273 1 33 -15 402 -29 657 -12 215 -8 733 6 758 8
15 23 22 54 25 23 2 47 4 52 5 6 1 149 -3 320 -8z m-1168 -152 c-2 -18 -4 -6
-4 27 0 33 2 48 4 33 2 -15 2 -42 0 -60z m20 -5 c-3 -10 -5 -4 -5 12 0 17 2
24 5 18 2 -7 2 -21 0 -30z m4848 -265 l0 -192 -34 -7 c-20 -4 -69 0 -119 9
-67 13 -86 21 -92 37 -13 37 -22 193 -11 213 6 11 36 30 68 43 67 27 140 66
148 80 4 5 14 9 24 9 16 0 17 -16 16 -192z m1768 -55 c-7 -2 -19 -2 -25 0 -7
3 -2 5 12 5 14 0 19 -2 13 -5z m-50 -10 c-7 -2 -21 -2 -30 0 -10 3 -4 5 12 5
17 0 24 -2 18 -5z m-3825 -282 c48 -25 68 -48 87 -100 18 -52 19 -119 3 -175
-13 -45 -114 -152 -177 -187 -20 -11 -54 -31 -76 -44 -22 -13 -68 -33 -101
-44 -34 -11 -84 -31 -110 -44 -32 -16 -68 -25 -104 -26 -30 -1 -57 -6 -60 -10
-13 -20 -54 -31 -111 -31 -49 0 -70 5 -95 22 -65 45 -101 145 -85 234 14 76
33 110 93 175 43 45 69 62 133 88 44 18 94 39 111 46 17 8 55 21 85 29 30 8
101 31 159 50 122 40 193 45 248 17z m3542 -67 c0 -3 -5 -10 -10 -17 -22 -26
-59 -84 -85 -132 -15 -27 -39 -63 -54 -80 -28 -30 -99 -171 -119 -235 -28 -89
-46 -231 -46 -370 0 -164 7 -195 78 -314 81 -139 76 -121 55 -190 -26 -85 -25
-152 5 -200 25 -43 59 -64 174 -111 49 -21 54 -43 23 -103 -11 -21 -27 -66
-36 -101 -16 -63 -60 -171 -73 -181 -4 -3 -23 -36 -43 -75 -20 -38 -59 -111
-88 -161 -56 -98 -75 -150 -60 -160 24 -14 139 121 139 164 0 12 5 22 10 22 6
0 15 11 20 25 5 14 16 25 24 25 7 0 16 7 20 15 9 24 23 17 35 -16 14 -42 14
-49 -4 -49 -17 0 -20 -16 -5 -25 17 -10 11 -35 -15 -63 -21 -23 -27 -25 -35
-12 -6 9 -6 18 0 24 6 6 10 16 10 23 0 22 -48 -18 -55 -46 -3 -14 -13 -30 -22
-36 -9 -7 -21 -27 -27 -45 -6 -18 -20 -38 -31 -44 -11 -6 -23 -15 -26 -19 -3
-4 -19 -3 -35 4 -16 6 -40 13 -54 15 -14 2 -52 8 -85 14 -33 5 -71 12 -85 14
-14 2 -37 10 -51 18 -26 14 -26 15 -13 48 20 47 11 48 -30 3 -28 -31 -47 -42
-91 -52 -70 -16 -110 -54 -154 -145 -18 -36 -36 -68 -41 -71 -4 -3 -11 -25
-14 -50 -4 -24 -11 -47 -15 -50 -5 -2 -9 -30 -9 -61 0 -31 -5 -60 -12 -64 -13
-8 -50 -75 -50 -91 0 -6 -7 -18 -16 -26 -11 -11 -12 -18 -4 -23 6 -4 8 -14 5
-22 -5 -11 18 -40 70 -92 68 -67 93 -83 127 -77 4 0 6 -27 4 -61 -3 -65 -26
-98 -66 -98 -10 0 -20 -5 -22 -12 -8 -24 -30 5 -26 33 3 16 2 29 -1 29 -3 0
-15 18 -25 41 -11 22 -33 56 -50 75 l-31 36 -27 -21 c-19 -15 -34 -20 -52 -15
-20 5 -26 2 -26 -9 0 -26 -22 -31 -39 -9 -23 31 -56 23 -56 -14 -1 -34 -11
-54 -29 -54 -15 0 -41 -44 -33 -57 3 -4 -24 -9 -59 -10 -62 -3 -93 11 -57 24
10 4 21 11 25 17 5 7 8 6 8 -4 1 -18 34 53 44 93 7 28 20 35 31 17 11 -18 25
-11 45 22 26 42 27 98 2 98 -9 0 -23 -13 -30 -30 -8 -16 -20 -30 -28 -30 -28
0 15 65 54 81 24 9 30 29 8 29 -8 0 -21 3 -30 6 -11 4 -16 1 -16 -11 0 -12 -8
-16 -32 -13 -29 3 -34 7 -38 36 -6 42 -25 42 -26 -1 -1 -38 -11 -60 -25 -52
-12 8 -12 65 1 65 16 0 12 26 -9 51 -18 22 -18 24 8 68 33 57 56 125 47 140
-4 6 -20 11 -37 11 -21 0 -29 -5 -29 -18 0 -10 -9 -28 -20 -40 -16 -17 -28
-20 -72 -17 -58 5 -88 -1 -88 -16 0 -6 -7 -18 -16 -26 -10 -10 -13 -25 -10
-39 5 -17 2 -24 -8 -24 -8 0 -18 5 -21 10 -10 17 -34 11 -45 -11 -9 -16 -8
-26 4 -44 18 -27 21 -55 6 -55 -5 0 -10 -7 -10 -15 0 -8 -5 -15 -10 -15 -6 0
-8 11 -4 26 5 20 4 25 -5 19 -20 -12 -60 32 -53 58 7 26 37 54 75 69 16 6 26
16 23 23 -2 7 11 26 30 43 19 17 34 36 34 44 0 7 16 24 35 37 24 16 35 31 35
49 0 14 11 35 25 48 30 27 33 54 6 54 -31 0 -51 -11 -51 -27 0 -8 -22 -36 -50
-61 -27 -25 -50 -52 -50 -59 0 -7 -6 -13 -14 -13 -8 0 -17 -8 -20 -17 -3 -10
-19 -27 -35 -38 -17 -11 -35 -29 -41 -40 -6 -11 -33 -35 -61 -53 -27 -18 -54
-44 -59 -57 -7 -18 -17 -25 -35 -25 -23 0 -25 3 -20 23 4 12 15 34 25 48 11
15 22 39 26 53 3 14 10 26 15 26 5 0 9 6 9 13 0 6 16 27 35 44 19 18 43 47 53
65 10 17 32 39 49 47 21 11 41 36 63 79 18 35 41 68 51 75 10 6 19 16 19 21 0
4 14 24 30 43 17 18 30 41 30 51 0 9 7 26 15 36 8 11 15 29 15 40 0 35 -89
-72 -102 -122 -7 -31 -18 -46 -34 -52 -13 -5 -49 -34 -81 -64 -32 -30 -76 -69
-98 -86 -22 -17 -43 -41 -48 -53 -4 -13 -29 -33 -59 -47 -34 -16 -54 -33 -58
-47 -5 -24 -66 -93 -81 -93 -5 0 -9 -7 -9 -15 0 -8 -4 -15 -8 -15 -5 0 -20 -9
-33 -20 -13 -11 -29 -23 -34 -28 -6 -5 -15 -7 -21 -5 -6 2 -18 -7 -26 -19 -37
-55 -69 -80 -97 -76 -22 3 -27 0 -27 -17 1 -18 -6 -20 -56 -23 -62 -3 -71 5
-40 36 9 10 28 31 42 47 14 17 59 61 100 99 132 124 217 264 120 199 -23 -15
-42 -32 -133 -117 -15 -14 -29 -26 -31 -26 -2 0 -45 -43 -97 -95 -51 -52 -97
-95 -102 -95 -12 0 -51 -43 -55 -61 -4 -18 -32 -49 -44 -49 -9 0 -33 -20 -84
-70 -29 -28 -37 -31 -45 -20 -5 8 -7 21 -4 28 3 7 -4 12 -16 12 -14 0 -19 5
-16 14 3 8 -1 17 -9 20 -8 3 -14 -1 -14 -8 0 -8 -3 -21 -6 -29 -3 -10 1 -17
13 -19 15 -3 13 -7 -12 -21 -16 -9 -25 -16 -18 -17 7 0 17 -9 23 -20 13 -24
-7 -61 -30 -57 -10 1 -14 -5 -12 -19 1 -12 -4 -27 -13 -34 -10 -8 -15 -9 -15
-1 0 19 -27 12 -42 -11 -9 -13 -19 -18 -27 -14 -10 6 -9 12 2 24 9 10 17 26
19 37 1 11 12 22 23 25 19 6 19 6 -3 28 -12 12 -22 29 -22 37 0 22 -28 18 -40
-5 -6 -12 -10 -31 -8 -43 2 -14 -2 -22 -12 -22 -8 0 -16 10 -18 23 -4 29 -30
29 -43 0 -5 -13 -17 -36 -26 -52 -14 -26 -17 -27 -25 -12 -7 13 -5 23 8 37 10
11 12 19 6 19 -25 0 -11 21 17 26 17 4 38 15 47 25 9 11 22 19 29 19 16 0 77
61 92 91 22 46 74 225 93 319 15 76 24 100 45 117 14 13 33 39 41 58 13 32 17
35 42 28 33 -10 314 -10 472 0 101 6 124 11 180 38 80 38 211 125 275 181 70
62 161 190 240 337 39 72 73 131 77 131 3 0 35 -29 69 -65 50 -53 73 -68 115
-81 46 -13 59 -13 122 1 117 27 176 78 207 180 24 82 20 146 -16 218 -17 34
-41 75 -51 90 -14 20 -18 34 -12 47 14 29 254 277 302 311 35 25 50 30 75 25
l31 -6 -34 25 c-47 35 -79 33 -93 -5 -13 -33 -28 -38 -47 -15 -9 11 -22 14
-44 9 -42 -8 -57 -24 -23 -24 21 0 27 -5 27 -21 0 -29 -207 -244 -235 -244
-15 0 -36 31 -92 140 -81 155 -79 144 -50 305 8 47 18 139 21 205 4 66 11 174
16 240 6 66 14 208 19 315 10 207 13 224 39 235 13 6 264 16 402 16 8 0 105 7
215 15 110 8 236 15 280 17 44 1 106 3 138 4 31 1 57 0 57 -3z m-1442 -66 c18
-18 16 -298 -3 -390 -8 -40 -24 -128 -36 -196 -12 -67 -25 -124 -29 -127 -4
-2 -33 46 -64 108 -31 61 -83 166 -117 232 l-61 119 22 121 c12 66 23 126 26
133 5 17 245 17 262 0z m-438 -14 c0 -13 -25 -52 -53 -81 -35 -38 -86 -44
-125 -17 -31 22 -25 53 17 81 26 18 48 23 97 23 35 0 64 -3 64 -6z m87 -69
c-7 -70 -15 -83 -34 -56 -12 18 -12 26 6 66 11 25 23 45 27 45 4 0 4 -25 1
-55z m-333 -66 c-3 -5 -17 -9 -32 -9 -25 1 -26 2 -9 15 20 14 51 10 41 -6z
m278 -72 c20 -29 73 -123 117 -209 44 -87 85 -166 90 -175 56 -100 85 -200 76
-259 -6 -40 -16 -57 -55 -96 -81 -82 -130 -65 -202 72 -19 36 -47 84 -62 108
-15 24 -54 93 -88 155 -33 62 -82 146 -108 187 -62 100 -83 147 -84 190 l-1
35 85 13 c47 7 101 17 120 21 65 16 73 13 112 -42z m-482 -15 c0 -22 -36 -194
-50 -237 -10 -33 -60 -281 -85 -420 -26 -147 -81 -359 -104 -404 -24 -44 -34
-28 -115 179 -24 63 -52 143 -61 178 -16 62 -15 64 14 180 113 446 125 481
160 488 14 3 64 16 111 29 110 29 130 30 130 7z m-397 -17 c29 -4 50 -12 54
-22 6 -14 -50 -230 -69 -266 -16 -31 -26 -7 -27 65 -1 28 -5 36 -15 32 -21 -8
-23 2 -30 104 -7 101 -4 117 22 102 9 -5 39 -12 65 -15z m500 -11 c18 -60 51
-130 92 -199 54 -89 77 -130 159 -287 61 -119 66 -132 66 -193 0 -84 -30 -165
-73 -198 -18 -13 -56 -36 -85 -51 -29 -15 -74 -42 -100 -60 -26 -19 -65 -43
-88 -54 -22 -11 -46 -28 -53 -36 -23 -28 18 -19 58 11 59 46 217 128 256 135
31 5 21 -33 -37 -142 -99 -186 -213 -319 -288 -335 -38 -8 -46 -3 -119 82 -71
83 -72 96 -11 137 22 14 40 31 40 36 0 6 -18 -2 -40 -16 -42 -28 -75 -26 -66
3 3 10 8 36 11 58 10 64 26 135 46 205 10 36 28 126 39 200 12 74 27 162 35
195 8 33 19 94 25 135 6 41 28 138 50 215 21 77 42 153 45 168 7 35 26 31 38
-9z m2073 -141 c3 -10 18 -40 32 -68 75 -146 208 -236 402 -270 41 -7 86 -18
100 -23 33 -12 203 -38 358 -53 308 -30 663 40 826 164 17 13 51 34 76 47 25
12 59 36 77 53 l32 30 12 -29 c6 -16 16 -78 22 -137 9 -93 8 -122 -8 -205 -29
-160 -119 -342 -223 -451 -23 -25 -41 -50 -39 -55 7 -20 24 -15 64 19 69 59
72 55 108 -114 14 -66 14 -76 0 -97 -8 -13 -28 -26 -43 -30 -15 -3 -67 -18
-117 -34 -139 -43 -204 -53 -363 -54 -174 -1 -195 5 -190 62 3 36 4 37 63 50
118 26 110 60 -10 42 -58 -9 -127 -9 -278 -1 -221 13 -242 15 -305 38 -33 12
-46 13 -55 4 -8 -8 -8 -15 3 -25 19 -18 114 -56 140 -56 30 0 24 -19 -7 -26
-45 -12 -278 28 -433 72 -76 22 -200 80 -216 101 -24 32 -11 171 16 188 6 4
29 -9 53 -28 37 -30 181 -107 200 -107 4 0 7 7 7 15 0 8 -6 15 -14 15 -7 0
-19 7 -26 15 -7 8 -31 24 -54 34 -78 35 -124 79 -190 179 -71 108 -88 146
-111 242 -18 77 -19 153 -4 252 27 184 75 304 95 241z m-6109 -385 c-3 -8 -6
-5 -6 6 -1 11 2 17 5 13 3 -3 4 -12 1 -19z m173 -104 c0 -8 -7 -14 -15 -14 -8
0 -15 -6 -15 -12 0 -9 -3 -9 -9 1 -5 8 -7 19 -5 25 7 17 44 17 44 0z m-63 -26
c-3 -7 -5 -2 -5 12 0 14 2 19 5 13 2 -7 2 -19 0 -25z m-110 -40 c-3 -8 -6 -5
-6 6 -1 11 2 17 5 13 3 -3 4 -12 1 -19z m4465 -80 c55 -39 117 -36 212 10 31
15 -69 -281 -141 -418 -67 -128 -98 -170 -177 -236 -84 -71 -138 -96 -217
-102 -53 -4 -73 0 -107 17 -23 12 -42 25 -42 30 0 5 12 16 26 26 75 49 121 98
186 200 28 44 62 96 74 115 26 39 104 231 104 255 0 8 6 32 14 52 8 21 17 46
20 56 7 22 12 22 48 -5z m-4442 -87 c0 -3 -7 -15 -15 -25 -14 -19 -15 -18 -15
12 0 24 4 30 15 26 8 -4 15 -9 15 -13z m610 -81 c0 -22 -20 -26 -38 -8 -19 19
-14 28 13 28 18 0 25 -5 25 -20z m4535 -285 c56 -88 97 -185 102 -244 4 -49 0
-63 -27 -108 -16 -29 -41 -60 -55 -69 -63 -41 -159 -35 -205 12 -15 16 -39 39
-53 51 -13 13 -32 39 -41 58 -16 33 -16 37 3 82 11 27 32 91 46 143 31 111 74
247 87 274 8 15 17 5 60 -65 28 -46 65 -106 83 -134z m-4555 151 c0 -14 5 -28
10 -31 16 -10 12 -92 -5 -109 -20 -19 -19 -28 5 -56 17 -20 20 -37 20 -129
l-1 -106 -20 28 c-11 15 -26 27 -33 27 -8 0 -11 10 -8 30 3 23 0 30 -12 30
-12 0 -16 10 -16 38 0 20 -4 53 -10 71 -8 29 -6 41 11 69 15 27 18 44 13 77
-7 47 7 85 31 85 9 0 15 -10 15 -24z m-633 -133 c-3 -10 -5 -2 -5 17 0 19 2
27 5 18 2 -10 2 -26 0 -35z m503 -41 c0 -5 -8 -16 -18 -25 -16 -15 -19 -15
-29 2 -7 11 -9 22 -6 25 9 9 53 7 53 -2z m783 -13 c36 -10 38 -11 20 -24 -10
-8 -34 -15 -54 -15 -33 0 -36 2 -31 25 5 28 11 29 65 14z m-1286 -31 c-3 -7
-5 -2 -5 12 0 14 2 19 5 13 2 -7 2 -19 0 -25z m7122 -64 c27 -6 36 -15 56 -60
37 -84 45 -86 273 -90 108 -2 199 -3 202 -4 4 0 12 -16 19 -35 7 -20 31 -57
53 -83 23 -26 53 -65 67 -87 14 -23 43 -62 65 -88 l38 -47 -7 -67 c-4 -38 -15
-88 -25 -113 -11 -25 -26 -70 -35 -100 -8 -30 -24 -82 -35 -115 -11 -33 -20
-68 -20 -77 0 -10 -4 -18 -8 -18 -5 0 -16 -18 -26 -40 -10 -22 -22 -40 -27
-40 -5 0 -9 -6 -9 -14 0 -8 -9 -18 -20 -21 -11 -3 -20 -15 -20 -25 0 -10 -7
-25 -15 -34 -8 -8 -15 -23 -15 -33 0 -29 -16 -46 -37 -41 -16 4 -19 1 -15 -19
4 -21 9 -24 33 -21 16 3 29 3 29 1 0 -6 -28 -33 -34 -33 -3 0 -19 -13 -36 -30
-19 -18 -41 -30 -58 -30 -24 0 -29 -7 -50 -68 -13 -37 -26 -78 -29 -92 -7 -32
-22 -50 -41 -50 -11 0 -13 8 -8 40 6 39 1 47 -19 32 -16 -11 -35 -50 -35 -70
0 -9 -9 -26 -21 -36 -14 -11 -19 -25 -15 -38 3 -12 0 -31 -6 -42 -6 -11 -15
-34 -19 -51 -4 -16 -16 -53 -27 -81 -10 -28 -22 -67 -26 -86 -6 -31 -56 -114
-56 -93 0 6 -8 -6 -19 -25 -10 -19 -17 -38 -14 -43 2 -4 -3 -14 -11 -22 -13
-14 -16 -11 -26 25 -6 22 -17 40 -24 40 -21 0 -28 31 -12 49 8 9 18 37 22 61
4 25 17 59 30 77 13 17 24 42 24 55 0 13 7 32 15 42 8 11 15 26 15 34 0 8 16
30 35 49 19 19 35 43 35 54 0 13 12 25 35 35 38 16 43 25 20 44 -21 18 -19 47
11 126 14 38 30 89 34 114 4 25 12 58 19 74 14 36 8 43 -16 19 -10 -10 -30
-27 -43 -38 -25 -20 -102 -143 -115 -185 -8 -25 -38 -23 -43 3 -2 9 4 24 12
33 17 17 22 49 6 39 -6 -4 -10 13 -10 45 0 34 -11 78 -32 132 -30 77 -31 82
-15 107 42 68 55 101 61 161 5 51 3 70 -9 88 -13 18 -19 20 -34 10 -25 -16
-68 -2 -103 32 -22 23 -27 35 -22 54 9 36 -20 45 -50 17 -31 -29 -70 -20 -88
20 -9 20 -20 29 -36 29 -37 0 -60 17 -67 50 -5 23 -11 29 -28 27 -18 -2 -23 4
-25 31 -2 21 3 41 12 51 14 16 46 114 46 141 0 16 -30 11 -36 -5 -4 -8 -10
-15 -15 -15 -5 0 -26 -17 -47 -38 -20 -22 -47 -44 -60 -51 -21 -11 -22 -11
-18 31 2 29 10 47 25 56 37 25 18 82 -21 61 -17 -9 -18 -7 -12 18 3 15 19 72
36 125 l30 97 102 -1 c103 0 128 6 216 57 26 15 114 20 169 9z m-6592 -30 c-3
-4 0 -16 8 -28 19 -26 19 -36 0 -36 -8 0 -15 7 -15 15 0 8 -4 15 -10 15 -14 0
-12 27 3 33 18 8 21 8 14 1z m23 -89 c0 -8 -4 -15 -10 -15 -5 0 -10 7 -10 15
0 8 5 15 10 15 6 0 10 -7 10 -15z m27 -110 c-1 -37 -11 -46 -21 -19 -10 27 -7
54 8 54 10 0 14 -11 13 -35z m1023 -44 c0 -6 -4 -13 -10 -16 -5 -3 -10 1 -10
9 0 9 5 16 10 16 6 0 10 -4 10 -9z m-457 -7 c9 -9 -11 -44 -26 -44 -7 0 -19 5
-27 10 -13 9 -12 12 4 25 21 16 39 19 49 9z m-628 -24 c36 -23 47 -40 35 -59
-11 -19 -90 23 -90 48 0 35 12 38 55 11z m-538 -167 c-3 -10 -5 -2 -5 17 0 19
2 27 5 18 2 -10 2 -26 0 -35z m0 -215 c-2 -35 -3 -7 -3 62 0 69 1 97 3 63 2
-35 2 -91 0 -125z m3345 141 c87 -47 128 -148 104 -261 -10 -44 -28 -40 -26 6
3 52 1 56 -29 56 -20 0 -30 6 -34 20 -3 11 -11 19 -19 18 -8 -2 -13 6 -13 21
0 16 -8 27 -24 33 -19 7 -22 11 -13 20 19 19 15 58 -6 58 -11 0 -18 8 -19 20
-1 16 4 20 28 20 17 0 39 -5 51 -11z m4973 -9 c3 -5 14 -10 24 -10 33 0 46
-30 39 -92 -1 -10 -2 -18 -4 -18 -1 0 -16 23 -33 50 -17 28 -35 50 -41 50 -5
0 -10 7 -10 15 0 17 16 20 25 5z m-306 -69 c42 -69 48 -109 23 -156 -12 -20
-18 -44 -15 -52 3 -8 2 -18 -3 -22 -27 -19 -31 -46 -12 -78 17 -28 18 -36 6
-60 -15 -32 -58 -45 -58 -18 0 13 -6 16 -25 13 -13 -3 -26 0 -29 6 -2 6 -5 1
-5 -11 -1 -13 -5 -23 -11 -23 -5 0 -7 40 -4 103 5 90 22 173 56 272 5 17 12
40 15 53 8 35 29 26 62 -27z m-4300 -126 c23 -16 49 -37 58 -45 9 -8 25 -19
36 -25 41 -20 31 -35 -22 -35 -28 0 -51 4 -51 8 0 5 -12 10 -27 10 -111 6
-143 31 -149 114 -2 29 -6 69 -10 88 l-6 35 65 -60 c36 -33 83 -73 106 -90z
m4782 115 c32 0 57 -18 76 -53 11 -22 18 -27 21 -17 9 26 25 31 82 24 97 -11
93 -3 85 -185 -4 -105 -3 -159 3 -159 11 0 23 79 21 145 -1 46 13 134 24 153
11 17 28 15 99 -12 35 -13 178 -56 318 -96 140 -39 305 -91 367 -116 61 -24
114 -44 117 -44 18 0 240 -115 263 -136 14 -13 32 -24 39 -24 18 0 12 -42 -6
-48 -9 -3 -11 1 -7 12 4 10 1 16 -8 16 -14 0 -31 -36 -26 -58 3 -18 -20 -86
-32 -93 -14 -10 1 -59 18 -59 11 0 15 13 15 50 0 28 5 50 10 50 6 0 10 -13 10
-29 0 -25 3 -28 25 -23 25 4 31 26 26 85 -1 9 3 17 9 17 7 0 10 6 7 13 -3 9 6
13 32 14 28 1 32 -1 15 -7 -29 -11 -37 -37 -19 -63 13 -19 13 -23 -2 -39 -12
-14 -14 -21 -5 -30 8 -8 19 -3 41 20 16 18 27 32 24 32 -2 0 -1 5 3 12 5 8 10
6 15 -8 7 -18 8 -18 8 1 1 11 6 27 11 35 8 12 15 9 45 -20 24 -23 33 -40 29
-52 -3 -10 -1 -18 5 -18 5 0 13 -9 16 -20 3 -11 13 -20 21 -20 8 0 14 -5 14
-10 0 -6 9 -20 20 -32 14 -15 20 -36 20 -65 l0 -43 -27 17 c-16 9 -30 18 -32
19 -2 2 4 10 13 19 18 18 21 41 7 49 -5 4 -30 8 -55 10 -38 4 -48 1 -61 -17
-8 -12 -15 -29 -15 -39 0 -10 -8 -19 -17 -19 -10 -1 -31 -3 -48 -6 -16 -2 -46
-5 -65 -7 -19 -2 -41 -4 -49 -5 -11 -1 -12 -12 -8 -49 8 -69 -5 -83 -34 -35
-13 21 -22 45 -21 54 2 10 -6 19 -19 22 -23 6 -61 -8 -56 -21 3 -10 -46 -82
-55 -82 -5 0 -8 9 -8 20 0 12 -7 32 -16 45 -9 14 -12 25 -8 26 28 2 48 9 62
21 10 8 30 20 45 28 l28 14 -43 17 c-80 33 -126 16 -111 -40 4 -15 -2 -29 -20
-47 -15 -14 -29 -35 -32 -45 -9 -27 -32 -23 -47 9 -11 23 -20 27 -63 30 -28 2
-54 7 -59 13 -6 5 -17 9 -26 9 -9 0 -26 11 -38 25 -12 14 -27 25 -33 25 -20 0
-69 -34 -69 -48 0 -8 -9 -21 -21 -31 -11 -9 -24 -32 -28 -51 -9 -46 -34 -50
-70 -11 -16 17 -36 31 -45 31 -10 0 -16 9 -16 25 0 14 -4 25 -9 25 -11 0 -61
102 -61 125 0 12 -6 15 -19 10 -25 -7 -29 1 -33 58 -2 26 -5 47 -7 47 -14 0
-39 -34 -34 -47 4 -10 2 -14 -6 -12 -7 3 -13 9 -13 14 0 6 -4 18 -9 27 -5 10
-11 49 -13 88 -2 39 -6 73 -10 77 -14 15 -20 -13 -19 -95 l1 -87 -112 -2 c-61
-1 -135 -4 -164 -7 -55 -6 -57 -5 -96 49 -14 19 -15 18 -23 -15 -7 -28 -15
-36 -37 -38 -31 -4 -31 -2 -10 68 4 14 3 22 -1 18 -8 -7 -55 55 -55 73 0 5 -7
21 -17 35 -14 22 -15 32 -4 82 7 31 14 73 14 92 1 19 5 37 8 40 4 3 3 29 -2
58 -5 36 -4 61 3 78 9 20 9 27 0 33 -10 6 -10 15 -2 36 6 16 8 36 4 44 -11 23
-10 55 1 63 6 4 12 3 13 -2 2 -6 13 -10 23 -10z m-6756 -24 c12 -12 11 -16 -5
-31 -19 -18 -20 -17 -20 13 0 35 5 39 25 18z m4635 -43 c0 -16 -8 -25 -24 -29
-14 -3 -27 -12 -30 -20 -7 -17 -32 -18 -39 -1 -2 7 1 28 7 47 9 27 18 36 41
40 33 6 45 -3 45 -37z m-180 -17 c0 -7 -7 -19 -15 -26 -9 -7 -13 -21 -10 -31
5 -14 1 -19 -13 -19 -18 0 -19 2 -4 45 13 42 42 63 42 31z m76 -80 c-6 -31
-11 -36 -35 -36 -15 0 -30 3 -34 6 -6 6 30 63 48 76 18 13 28 -10 21 -46z
m666 -4 c139 -63 186 -142 116 -195 -64 -48 -96 -58 -171 -57 -103 2 -107 2
-107 -14 0 -24 15 -28 133 -35 l111 -6 29 -56 c32 -63 43 -120 33 -174 -7 -34
-13 -39 -74 -67 -93 -41 -97 -44 -97 -58 0 -31 34 -35 95 -14 48 17 63 19 77
9 38 -28 -8 -43 -220 -70 -134 -17 -225 -19 -247 -5 -22 14 -11 17 78 23 86 5
109 14 99 41 -5 13 -23 16 -84 16 -43 0 -96 5 -118 10 -22 6 -98 15 -170 20
-119 10 -430 55 -550 81 -150 32 -226 54 -277 81 -60 32 -101 81 -110 132 -11
56 71 278 117 316 9 7 40 15 68 18 50 4 92 -4 467 -94 36 -9 84 -25 107 -35
23 -10 49 -19 57 -19 8 0 18 -5 22 -11 13 -21 156 -81 166 -71 15 15 2 29 -45
50 -23 10 -56 31 -74 46 -29 24 -31 30 -22 54 17 46 59 82 95 82 43 0 84 -34
84 -70 0 -50 34 -63 184 -70 130 -6 189 -1 208 18 17 17 -1 32 -36 32 -18 0
-39 6 -48 13 -20 15 -68 92 -68 108 0 20 101 3 172 -29z m-6935 -79 c-3 -10
-5 -2 -5 17 0 19 2 27 5 18 2 -10 2 -26 0 -35z m0 -240 c-3 -10 -5 -4 -5 12 0
17 2 24 5 18 2 -7 2 -21 0 -30z m7962 -18 c2 -13 -8 -29 -30 -47 -29 -24 -31
-30 -21 -52 7 -16 24 -29 49 -35 42 -12 208 -14 235 -3 9 4 30 26 47 50 25 33
37 42 61 42 40 0 97 -51 106 -95 9 -51 -3 -72 -62 -110 -51 -33 -71 -65 -40
-65 8 0 76 10 153 22 100 15 183 22 299 22 159 0 163 -1 220 -30 51 -25 63
-37 90 -88 38 -70 67 -194 60 -256 -5 -55 -22 -88 -70 -141 -56 -60 -105 -88
-203 -115 -173 -48 -274 -43 -453 23 -109 39 -330 146 -440 211 -41 25 -95 56
-120 69 -64 36 -139 112 -151 153 -9 28 -8 44 4 73 19 45 86 127 104 127 8 0
30 -11 51 -25 44 -29 87 -37 87 -16 0 8 -27 35 -59 60 -85 67 -100 89 -88 135
10 34 48 75 96 103 31 18 70 12 75 -12z m-3167 -39 c-5 -6 -12 -18 -15 -26 -3
-8 -6 -1 -6 17 -1 25 2 31 14 27 10 -4 12 -10 7 -18z m5278 -16 c0 -5 -9 -6
-20 -3 -11 3 -17 9 -15 14 7 10 35 1 35 -11z m-4579 -76 c13 -14 50 -39 82
-55 77 -39 324 -103 439 -113 26 -3 87 -12 135 -20 49 -9 122 -19 163 -23 41
-5 74 -12 73 -18 -6 -26 -262 -32 -393 -10 -41 7 -109 19 -150 25 -41 7 -129
26 -194 42 -177 44 -236 79 -236 141 0 60 40 75 81 31z m-1004 -60 c-3 -3 -12
-4 -19 -1 -8 3 -5 6 6 6 11 1 17 -2 13 -5z m328 -64 c3 -5 1 -10 -4 -10 -6 0
-11 5 -11 10 0 6 2 10 4 10 3 0 8 -4 11 -10z m75 -19 c0 -5 -9 -11 -20 -14
-13 -3 -20 0 -20 9 0 8 9 14 20 14 11 0 20 -4 20 -9z m-60 -31 c0 -5 -4 -10
-10 -10 -5 0 -10 5 -10 10 0 6 5 10 10 10 6 0 10 -4 10 -10z m5794 -80 c4 -26
11 -40 21 -40 10 0 15 -10 15 -27 0 -25 -1 -26 -13 -8 -8 10 -19 15 -25 11
-16 -10 -30 23 -29 67 1 50 23 48 31 -3z m-5399 -10 c3 -5 16 -10 27 -10 12 0
19 -3 15 -6 -10 -10 -78 6 -72 17 8 12 22 12 30 -1z m5950 -13 c0 -26 -20 -25
-23 2 -3 16 1 22 10 19 7 -3 13 -12 13 -21z m-8204 2 c11 -6 29 -19 39 -29 18
-18 18 -19 -16 -35 -19 -9 -34 -22 -34 -29 0 -18 -28 -41 -38 -31 -4 4 -1 10
6 12 29 11 8 21 -37 18 -35 -3 -53 1 -62 11 -6 8 -8 14 -3 14 5 0 29 18 54 40
48 42 60 46 91 29z m1609 -8 c0 -12 -20 -25 -27 -18 -7 7 6 27 18 27 5 0 9 -4
9 -9z m5490 -48 c-10 -43 -18 -52 -30 -33 -16 25 -11 68 7 79 24 13 32 -3 23
-46z m787 51 c-3 -3 -12 -4 -19 -1 -8 3 -5 6 6 6 11 1 17 -2 13 -5z m-3737
-50 c0 -11 -9 -29 -19 -38 -11 -10 -21 -30 -23 -45 -2 -22 -8 -26 -33 -26 -24
0 -31 5 -33 24 -6 40 7 71 40 91 40 24 68 22 68 -6z m-598 -4 c8 -12 24 -20
40 -20 15 0 30 -5 33 -10 10 -16 -14 -40 -38 -37 -16 1 -23 -5 -28 -28 -6 -33
-20 -16 -16 20 1 14 -5 21 -20 23 -19 3 -23 10 -23 38 0 27 4 34 20 34 11 0
25 -9 32 -20z m-195 -34 c-2 -6 -14 -12 -26 -14 -26 -4 -58 18 -41 28 16 10
71 -1 67 -14z m3015 2 c-7 -7 -12 -8 -12 -2 0 14 12 26 19 19 2 -3 -1 -11 -7
-17z m-2476 -48 c-1 -44 -7 -52 -38 -54 -18 -1 -22 -6 -20 -24 2 -13 -2 -22
-10 -22 -7 0 -19 -9 -26 -21 -13 -20 -14 -20 -33 -3 -25 23 -25 44 1 37 20 -5
21 -2 18 55 -3 66 3 78 42 84 46 7 68 -10 66 -52z m2868 16 c-10 -34 -29 -49
-54 -41 -17 5 -19 9 -9 15 10 7 10 12 0 23 -10 13 -7 17 16 25 38 12 55 5 47
-22z m-5224 8 c0 -8 -4 -12 -10 -9 -5 3 -10 10 -10 16 0 5 5 9 10 9 6 0 10 -7
10 -16z m830 -6 c0 -16 -3 -19 -11 -11 -6 6 -8 16 -5 22 11 17 16 13 16 -11z
m4005 -39 c-4 -5 -13 -9 -21 -9 -12 0 -12 2 -2 14 14 15 32 11 23 -5z m-1641
-8 c3 -5 51 -39 106 -75 93 -61 118 -86 88 -86 -7 0 -24 9 -38 20 -14 11 -29
20 -33 20 -5 0 -40 20 -78 45 -48 31 -69 51 -69 65 0 21 14 27 24 11z m3141 0
c-3 -5 -1 -12 5 -16 12 -7 13 -25 2 -25 -5 0 -14 11 -20 25 -10 21 -9 25 4 25
8 0 13 -4 9 -9z m-5415 -54 c-3 -4 -19 -3 -35 3 -30 11 -25 25 10 32 21 4 39
-21 25 -35z m3934 2 c-30 -32 -54 -38 -54 -14 0 8 -4 15 -10 15 -5 0 -10 7
-10 15 0 8 5 15 10 15 6 0 10 -7 10 -15 0 -8 5 -15 10 -15 6 0 10 7 10 16 0 8
4 13 8 10 4 -2 14 -1 22 4 28 17 31 -3 4 -31z m-2925 4 c7 -1 18 -6 24 -12 16
-16 -4 -65 -27 -69 -16 -4 -18 0 -13 27 4 20 1 35 -8 45 -18 18 -20 30 -2 19
6 -4 18 -8 26 -10z m574 -9 c3 -19 1 -24 -10 -20 -8 3 -19 6 -24 6 -6 0 -5 8
1 20 15 27 27 25 33 -6z m3649 -19 c0 -5 -5 -11 -11 -13 -6 -2 -11 4 -11 13 0
9 5 15 11 13 6 -2 11 -8 11 -13z m48 0 c12 -14 6 -35 -10 -35 -5 0 -7 7 -3 16
3 9 0 20 -8 25 -8 5 -9 9 -3 9 6 0 17 -7 24 -15z m-1303 -27 c-3 -8 -6 -5 -6
6 -1 11 2 17 5 13 3 -3 4 -12 1 -19z m1033 -4 c0 -8 -4 -12 -10 -9 -5 3 -10
10 -10 16 0 5 5 9 10 9 6 0 10 -7 10 -16z m-5110 -23 c0 -19 -17 -38 -25 -29
-7 7 7 48 16 48 5 0 9 -9 9 -19z m70 -1 c0 -11 -7 -20 -15 -20 -15 0 -21 21
-8 33 12 13 23 7 23 -13z m6348 -83 c-1 -52 -6 -81 -14 -84 -7 -2 -33 4 -58
15 -47 21 -73 66 -46 82 6 4 10 11 9 16 -2 5 11 16 29 24 18 9 30 19 26 22
-15 15 7 27 31 16 23 -10 24 -15 23 -91z m-5041 67 c7 -18 -17 -38 -31 -24
-11 11 -1 40 14 40 6 0 13 -7 17 -16z m2498 -14 c12 -37 -6 -78 -49 -118 -48
-44 -248 -145 -361 -183 -77 -25 -109 -25 -170 -1 -38 15 -39 16 -15 23 14 4
45 7 70 8 51 1 167 23 220 41 119 41 195 102 254 203 31 52 41 57 51 27z
m1209 -4 c-5 -14 -9 -15 -15 -5 -5 8 -3 17 4 21 15 9 19 4 11 -16z m-5841 0
c7 -19 -18 -40 -38 -32 -8 3 -15 15 -15 26 0 14 7 20 24 20 13 0 26 -6 29 -14z
m2367 -6 c0 -5 -4 -10 -9 -10 -6 0 -13 5 -16 10 -3 6 1 10 9 10 9 0 16 -4 16
-10z m-27 -110 c-3 -11 -9 -20 -14 -20 -14 0 -22 27 -15 46 9 24 35 -1 29 -26z
m157 -40 c0 -5 8 -10 18 -11 14 0 14 -2 -3 -8 -11 -5 -23 -7 -27 -4 -12 6 -10
33 2 33 6 0 10 -4 10 -10z m3310 -129 c0 -9 -41 -23 -48 -16 -2 2 -1 8 3 14 8
13 45 15 45 2z m-121 -133 c28 -17 27 -42 -4 -66 -14 -11 -25 -25 -25 -31 0
-6 -7 -11 -15 -11 -8 0 -15 -4 -15 -10 0 -15 -30 -12 -47 6 -14 13 -14 21 -3
57 22 74 53 90 109 55z m-200 -81 c15 -59 12 -98 -6 -105 -7 -2 -17 8 -23 23
-7 17 -15 25 -24 22 -25 -10 -35 15 -23 56 8 24 18 37 29 37 10 0 18 5 18 10
0 6 4 10 8 10 5 0 14 -24 21 -53z"/>
<path d="M7110 6664 c-113 -63 -219 -248 -228 -399 -4 -73 -2 -82 18 -100 50
-45 157 -2 218 88 40 60 119 235 132 293 13 57 7 90 -22 122 -28 29 -62 28
-118 -4z"/>
<path d="M8088 6089 c-53 -12 -154 -65 -162 -84 -11 -29 22 -27 90 6 108 54
254 51 345 -7 44 -28 51 -37 59 -84 3 -23 11 -36 24 -38 17 -4 18 1 14 43 -10
84 -67 132 -190 160 -73 16 -123 18 -180 4z"/>
<path d="M834 3465 c-9 -24 9 -37 40 -29 35 9 31 38 -7 42 -18 2 -29 -2 -33
-13z"/>
<path d="M1215 3336 c-16 -12 -17 -16 -6 -30 7 -9 22 -16 32 -16 14 0 19 7 19
30 0 33 -15 38 -45 16z"/>
<path d="M1670 3059 c-11 -8 -12 -12 -2 -16 6 -2 10 -8 7 -13 -3 -5 8 -3 25 3
16 6 30 17 30 24 0 16 -39 17 -60 2z"/>
<path d="M1545 2880 c-10 -33 11 -50 46 -38 32 11 36 22 15 44 -21 21 -54 17
-61 -6z"/>
<path d="M1460 2800 c-12 -8 -11 -10 8 -10 12 0 22 5 22 10 0 13 -11 13 -30 0z"/>
<path d="M5960 2764 c0 -8 5 -12 10 -9 6 3 10 10 10 16 0 5 -4 9 -10 9 -5 0
-10 -7 -10 -16z"/>
<path d="M5781 2226 c-9 -11 -9 -16 0 -21 10 -7 28 10 29 28 0 12 -17 8 -29
-7z"/>
<path d="M5448 2156 c-10 -7 -18 -19 -18 -25 0 -7 -7 -19 -15 -27 -8 -9 -15
-22 -15 -31 0 -13 3 -13 15 -3 8 7 15 19 15 26 0 8 5 14 12 14 6 0 8 3 5 7 -4
3 1 11 10 18 8 6 14 17 12 23 -3 7 -9 7 -21 -2z"/>
<path d="M5349 2007 c-15 -18 -30 -51 -33 -72 -6 -32 -14 -43 -39 -55 -38 -18
-49 -57 -21 -77 14 -10 15 -16 6 -25 -10 -10 -14 -8 -18 10 -4 12 -8 22 -11
22 -13 0 -63 -69 -63 -87 0 -23 38 -14 59 13 17 22 23 24 36 14 8 -7 15 -21
15 -31 0 -32 18 -30 39 6 11 19 25 35 31 35 5 0 10 5 10 10 0 6 -11 10 -25 10
-34 0 -47 28 -30 65 7 17 25 57 39 90 15 33 31 68 36 77 23 41 3 38 -31 -5z"/>
<path d="M5026 1743 c-13 -13 7 -23 45 -23 27 0 39 4 37 12 -4 12 -71 21 -82
11z"/>
<path d="M5040 1699 c-13 -6 -20 -13 -15 -17 12 -8 13 -37 3 -48 -4 -3 -3 -15
3 -25 8 -15 21 -19 67 -19 32 0 65 6 74 13 25 20 28 44 8 62 -16 15 -22 15
-35 5 -13 -11 -19 -8 -38 14 -25 28 -30 30 -67 15z"/>
<path d="M4962 1633 c2 -10 10 -18 18 -18 22 0 18 29 -3 33 -14 3 -18 -1 -15
-15z"/>
<path d="M3651 1509 l-23 -19 25 0 c28 0 45 17 31 30 -5 5 -20 0 -33 -11z"/>
<path d="M3555 1380 c-8 -13 -1 -24 14 -19 6 3 7 10 2 18 -6 10 -10 10 -16 1z"/>
<path d="M5478 1283 c7 -3 16 -2 19 1 4 3 -2 6 -13 5 -11 0 -14 -3 -6 -6z"/>
<path d="M6360 3693 c-47 -24 -62 -59 -54 -123 9 -65 54 -134 113 -171 61 -39
135 -40 197 -4 47 28 63 49 75 105 20 89 -44 169 -154 190 -108 22 -140 22
-177 3z m195 -32 c22 -11 54 -30 70 -44 27 -23 30 -30 30 -87 0 -57 -3 -64
-30 -86 -73 -59 -152 -56 -219 9 -50 48 -73 111 -59 161 17 61 126 85 208 47z"/>
<path d="M7220 3575 c-77 -35 -137 -121 -125 -181 8 -43 47 -90 98 -115 32
-17 54 -20 108 -17 57 3 74 8 105 34 62 50 78 78 77 134 -1 63 -27 107 -77
134 -52 26 -140 31 -186 11z m131 -25 c82 -23 122 -115 79 -185 -29 -48 -73
-69 -140 -69 -63 0 -124 25 -147 60 -35 54 26 158 110 188 52 18 54 18 98 6z"/>
<path d="M640 2990 c0 -5 5 -10 11 -10 5 0 7 5 4 10 -3 6 -8 10 -11 10 -2 0
-4 -4 -4 -10z"/>
<path d="M630 2860 c0 -11 5 -20 10 -20 6 0 10 9 10 20 0 11 -4 20 -10 20 -5
0 -10 -9 -10 -20z"/>
<path d="M6674 2585 c-3 -14 -4 -28 -1 -31 10 -10 27 7 27 26 0 30 -19 33 -26
5z"/>
<path d="M8581 2038 c0 -18 4 -42 8 -53 6 -15 9 -11 14 20 10 58 9 65 -8 65
-10 0 -15 -10 -14 -32z"/>
<path d="M8592 1843 c-12 -22 -13 -131 -2 -138 13 -8 28 55 25 103 -3 51 -10
61 -23 35z"/>
<path d="M8584 1620 c-1 -22 2 -40 7 -40 5 0 9 18 9 40 0 22 -3 40 -8 40 -4 0
-8 -18 -8 -40z"/>
<path d="M9883 1540 c6 -26 3 -33 -12 -37 -11 -3 -21 -13 -24 -23 -3 -13 0
-17 9 -13 8 3 20 0 28 -6 10 -8 17 -6 30 8 23 25 13 76 -16 92 -20 11 -21 9
-15 -21z"/>
<path d="M10245 1450 c3 -5 8 -10 11 -10 2 0 4 5 4 10 0 6 -5 10 -11 10 -5 0
-7 -4 -4 -10z"/>
<path d="M9390 1425 c0 -8 5 -15 10 -15 6 0 10 7 10 15 0 8 -4 15 -10 15 -5 0
-10 -7 -10 -15z"/>
<path d="M9480 1430 c0 -5 5 -10 10 -10 6 0 10 5 10 10 0 6 -4 10 -10 10 -5 0
-10 -4 -10 -10z"/>
<path d="M9545 1400 c-9 -15 14 -40 36 -40 24 0 33 18 19 35 -14 17 -46 20
-55 5z"/>
<path d="M9947 1364 c-9 -10 2 -24 19 -24 8 0 14 7 14 15 0 15 -21 21 -33 9z"/>
<path d="M11720 930 c0 -5 5 -10 11 -10 5 0 7 5 4 10 -3 6 -8 10 -11 10 -2 0
-4 -4 -4 -10z"/>
<path d="M10191 451 c-9 -16 -10 -26 -2 -34 13 -13 25 12 19 40 -3 16 -5 15
-17 -6z"/>
<path d="M5670 10793 c8 -3 28 -16 43 -29 15 -13 56 -39 91 -59 35 -19 71 -44
81 -55 10 -11 26 -20 35 -20 10 0 29 -9 43 -20 14 -11 32 -20 40 -20 9 0 19
-5 22 -10 4 -6 25 -20 48 -31 23 -12 44 -25 47 -28 3 -4 43 -28 90 -54 47 -26
92 -51 100 -56 8 -5 26 -14 40 -20 14 -6 39 -19 55 -29 17 -9 59 -34 95 -54
55 -31 369 -168 386 -168 4 0 43 -21 88 -46 44 -25 122 -63 171 -84 50 -21
117 -49 150 -63 102 -44 193 -77 209 -77 9 0 24 -4 34 -9 9 -5 40 -17 67 -26
28 -9 84 -28 125 -41 41 -14 104 -31 140 -38 96 -20 163 -37 182 -47 10 -5 25
-9 33 -9 9 0 28 -6 43 -14 16 -8 102 -31 192 -51 91 -20 188 -45 215 -55 28
-10 73 -21 100 -25 28 -4 61 -12 74 -17 30 -11 259 -45 395 -58 55 -6 128 -14
161 -20 33 -5 219 -14 413 -21 365 -13 454 -10 742 27 215 27 297 47 590 144
63 21 156 51 205 65 120 36 262 96 357 151 42 24 80 44 83 44 4 0 34 20 68 44
34 24 79 49 99 55 21 7 69 28 108 47 39 19 74 34 78 34 9 1 102 65 219 152
107 80 167 143 196 206 15 33 75 101 193 220 l170 172 -37 0 c-34 0 -47 -11
-164 -126 -71 -69 -140 -131 -154 -138 -40 -20 -161 -49 -169 -41 -4 3 27 37
68 73 41 37 111 103 155 147 l80 80 -40 3 c-37 3 -43 0 -113 -73 -41 -41 -108
-102 -150 -135 -43 -33 -117 -93 -165 -134 -104 -88 -427 -306 -453 -306 -2 0
-78 -35 -167 -79 -241 -117 -406 -179 -727 -274 -315 -93 -506 -119 -895 -125
-427 -5 -869 29 -1120 87 -50 12 -124 28 -165 37 -41 10 -127 30 -190 46 -63
17 -158 41 -210 54 -52 13 -111 31 -130 38 -19 8 -69 22 -110 31 -76 17 -247
70 -355 110 -33 12 -112 42 -175 65 -63 24 -168 67 -233 96 -64 30 -120 54
-123 54 -7 0 -241 111 -289 137 -16 9 -64 34 -105 55 -41 21 -102 55 -135 74
-33 20 -82 48 -110 64 -73 40 -156 92 -189 118 -16 12 -33 22 -38 22 -6 0 -21
9 -35 20 -22 17 -41 20 -125 20 -94 0 -98 -1 -88 -19 25 -48 2 -55 -42 -11
-29 30 -31 30 -131 29 -56 0 -95 -3 -87 -6z m410 -103 c0 -5 7 -10 15 -10 8 0
15 -7 15 -15 0 -8 7 -15 15 -15 7 0 18 -6 22 -13 4 -8 17 -19 28 -25 17 -10
17 -11 3 -12 -9 0 -20 5 -23 10 -4 6 -27 20 -51 32 -25 11 -42 23 -39 26 2 3
0 11 -6 19 -9 10 -8 13 5 13 9 0 16 -4 16 -10z m187 -106 c26 -15 52 -30 58
-35 5 -5 15 -9 22 -9 23 0 109 -64 126 -93 l16 -27 -45 25 c-24 14 -51 25 -58
25 -7 0 -21 9 -31 20 -10 11 -24 20 -31 20 -7 0 -26 11 -42 25 -17 14 -34 25
-38 25 -18 1 -46 29 -39 39 8 15 7 15 62 -15z m6098 -164 c10 -16 -15 -44
-101 -116 -152 -127 -286 -210 -419 -260 -38 -14 -72 -18 -140 -15 -103 3
-124 13 -74 36 19 8 43 21 54 28 213 130 349 221 420 279 24 21 50 30 106 38
40 6 75 13 78 15 9 9 70 5 76 -5z m-5590 -103 c50 -24 137 -66 195 -93 116
-53 125 -59 135 -93 l7 -24 -48 28 c-105 60 -172 93 -239 118 -131 48 -195 83
-195 108 0 18 53 2 145 -44z m605 -265 c14 -6 59 -20 100 -32 41 -12 91 -29
110 -37 19 -9 57 -22 84 -29 27 -7 59 -22 70 -34 12 -11 32 -29 46 -39 14 -11
22 -22 18 -26 -8 -8 -192 46 -256 75 -23 11 -53 20 -66 20 -13 0 -29 7 -36 15
-7 8 -18 15 -24 15 -6 0 -39 13 -72 29 -54 25 -94 61 -94 82 0 7 54 -11 120
-39z m4275 -94 c13 -12 -58 -54 -225 -131 -197 -91 -215 -95 -309 -67 -104 31
-107 43 -19 73 127 44 155 56 225 89 47 22 90 34 138 38 77 7 182 6 190 -2z
m-3640 -94 c17 -3 53 -11 80 -19 117 -32 167 -45 285 -74 69 -16 136 -32 150
-35 14 -3 56 -29 95 -58 80 -61 72 -71 -34 -40 -36 11 -127 35 -201 52 -143
35 -235 61 -266 78 -10 6 -40 18 -65 26 -54 19 -142 92 -99 81 14 -3 39 -8 55
-11z m2935 -130 c98 -22 107 -39 33 -59 -32 -9 -87 -27 -122 -41 -36 -14 -83
-29 -105 -34 -23 -5 -66 -16 -96 -25 -30 -9 -86 -20 -124 -25 -65 -8 -74 -7
-131 19 -53 24 -90 58 -67 62 4 1 21 3 37 5 17 2 41 6 55 10 14 3 36 8 50 11
53 9 187 45 220 58 36 14 118 31 158 34 13 0 54 -6 92 -15z m-1955 -85 c162
-17 289 -28 333 -28 37 -1 50 -7 90 -45 26 -25 43 -48 39 -52 -13 -13 -331 14
-432 37 -103 23 -225 79 -225 103 0 5 23 5 53 1 28 -4 93 -11 142 -16z m855
-48 c332 2 337 2 392 -28 77 -42 78 -50 11 -60 -85 -12 -465 -10 -558 3 -88
12 -158 42 -176 75 -11 21 -10 22 47 15 33 -3 160 -5 284 -5z"/>
<path d="M2748 10653 c-10 -2 -18 -8 -18 -12 0 -10 44 -51 54 -51 4 0 14 -7
22 -15 26 -26 44 -18 44 18 0 54 -39 77 -102 60z"/>
<path d="M2400 10626 c0 -17 51 -30 80 -21 17 5 19 10 9 21 -16 19 -89 19 -89
0z"/>
<path d="M1440 10609 c0 -14 5 -19 17 -17 26 5 29 38 4 38 -15 0 -21 -6 -21
-21z"/>
<path d="M1587 10613 c-11 -11 -8 -31 6 -36 9 -3 13 2 12 14 -2 22 -9 32 -18
22z"/>
<path d="M690 10546 c0 -24 18 -28 30 -6 9 17 8 20 -10 20 -11 0 -20 -6 -20
-14z"/>
<path d="M953 10483 c-15 -5 -17 -23 -4 -23 5 0 11 7 15 15 3 8 4 15 3 14 -1
0 -8 -3 -14 -6z"/>
<path d="M231 10434 c0 -11 3 -14 6 -6 3 7 2 16 -1 19 -3 4 -6 -2 -5 -13z"/>
<path d="M106 10393 c-3 -3 -6 -12 -6 -20 0 -15 36 -18 45 -4 7 12 -29 33 -39
24z"/>
<path d="M3 10105 c0 -27 2 -38 4 -22 2 15 2 37 0 50 -2 12 -4 0 -4 -28z"/>
<path d="M3 9975 c0 -33 2 -45 4 -27 2 18 2 45 0 60 -2 15 -4 0 -4 -33z"/>
<path d="M389 9613 c-11 -3 -15 -12 -11 -28 2 -14 7 -25 10 -25 14 0 40 33 35
46 -5 14 -7 15 -34 7z"/>
<path d="M162 9570 c0 -14 2 -19 5 -12 2 6 2 18 0 25 -3 6 -5 1 -5 -13z"/>
<path d="M740 9510 c0 -5 5 -10 10 -10 6 0 10 5 10 10 0 6 -4 10 -10 10 -5 0
-10 -4 -10 -10z"/>
<path d="M5250 9360 c0 -5 5 -12 10 -15 6 -4 8 -21 4 -40 -5 -28 -2 -36 20
-50 23 -15 44 -17 169 -11 204 10 280 15 284 20 2 2 -47 7 -109 11 -88 6 -124
12 -165 31 -28 14 -76 27 -105 31 -29 3 -57 9 -63 13 -19 13 -45 19 -45 10z"/>
<path d="M11980 9329 c-51 -7 -303 -42 -430 -59 -30 -5 -84 -12 -120 -18 -36
-6 -114 -15 -175 -21 -112 -12 -231 -28 -274 -37 -18 -4 -21 -8 -13 -16 8 -8
29 -8 79 0 37 6 113 16 168 22 55 6 136 15 180 20 44 5 123 14 175 20 52 6
124 15 160 20 36 5 103 14 150 20 149 20 260 42 260 51 0 11 -83 10 -160 -2z"/>
<path d="M5180 9290 c0 -5 9 -10 20 -10 11 0 20 5 20 10 0 6 -9 10 -20 10 -11
0 -20 -4 -20 -10z"/>
<path d="M6090 9297 c-3 -3 -34 -7 -70 -10 -36 -3 -110 -9 -164 -13 -76 -5
-94 -9 -75 -16 13 -5 40 -6 58 -3 19 4 165 7 323 7 262 0 315 4 295 24 -7 7
-361 17 -367 11z"/>
<path d="M6640 9250 c0 -9 7 -9 335 -33 116 -9 240 -21 276 -26 70 -11 400
-34 506 -35 35 -1 67 4 74 11 29 29 -140 53 -467 67 -66 3 -127 7 -135 10 -25
9 -589 14 -589 6z"/>
<path d="M10830 9175 c-8 -2 -55 -9 -105 -15 -49 -7 -159 -25 -244 -41 -85
-16 -166 -29 -180 -29 -14 -1 -39 -7 -56 -15 -30 -14 -29 -14 25 -11 63 4 267
36 452 72 69 13 142 24 162 24 20 0 36 5 36 10 0 9 -53 12 -90 5z"/>
<path d="M7975 9160 c3 -5 30 -10 58 -10 37 0 48 3 37 10 -20 13 -103 13 -95
0z"/>
<path d="M8710 9070 c8 -5 22 -10 30 -10 13 0 13 1 0 10 -8 5 -22 10 -30 10
-13 0 -13 -1 0 -10z"/>
<path d="M3500 9051 l-24 -7 23 -16 c26 -18 41 -15 41 7 0 19 -11 23 -40 16z"/>
<path d="M8824 9042 c3 -5 51 -16 108 -26 57 -10 137 -24 178 -31 41 -7 125
-21 185 -30 61 -9 142 -23 180 -30 39 -8 90 -17 115 -21 45 -5 161 -30 295
-61 77 -18 115 -25 255 -49 169 -28 163 -28 158 -13 -6 18 -63 35 -243 69
-269 52 -378 80 -397 102 -16 18 -27 19 -119 15 -56 -3 -116 -1 -134 4 -18 5
-68 13 -111 18 -44 5 -160 21 -259 35 -197 28 -219 30 -211 18z"/>
<path d="M9815 9010 c-19 -8 -19 -9 2 -9 12 -1 25 4 28 9 7 12 -2 12 -30 0z"/>
<path d="M2200 9001 c-33 -22 58 -73 101 -56 8 3 14 18 13 33 -1 25 -4 27 -50
30 -27 1 -56 -2 -64 -7z"/>
<path d="M3463 8993 c-7 -3 -13 -18 -13 -34 0 -22 5 -29 20 -29 11 0 20 4 20
9 0 5 8 12 18 14 16 4 16 5 0 6 -10 0 -18 7 -18 15 0 18 -11 25 -27 19z"/>
<path d="M9758 8993 c6 -2 18 -2 25 0 6 3 1 5 -13 5 -14 0 -19 -2 -12 -5z"/>
<path d="M3140 8954 c0 -44 28 -143 45 -161 11 -10 16 -6 30 23 14 30 21 35
38 29 12 -4 41 -12 65 -18 23 -7 42 -15 42 -20 0 -19 39 16 49 44 14 42 14 44
-4 29 -13 -11 -21 -9 -46 9 -19 14 -39 21 -52 17 -15 -4 -31 6 -62 39 -32 35
-48 45 -73 45 -30 0 -32 -2 -32 -36z"/>
<path d="M3 8270 c-1 -395 2 -686 7 -675 l9 20 0 -20 c1 -11 5 -16 9 -10 20
27 114 31 171 6 61 -26 81 -26 123 -1 27 16 40 18 68 10 52 -14 238 -34 295
-32 41 2 53 7 71 29 20 25 24 27 47 14 18 -10 33 -11 54 -4 38 13 127 7 162
-12 52 -26 110 -35 126 -18 8 8 15 18 15 22 0 10 157 32 178 24 26 -10 32 -26
15 -38 -12 -9 -13 -14 -3 -20 7 -4 15 -3 19 3 10 16 107 17 164 2 27 -7 68
-10 95 -6 123 16 127 17 160 53 42 46 31 62 -31 46 -26 -7 -46 -8 -51 -2 -6 5
-27 9 -47 9 -66 0 -98 11 -101 34 -2 16 -11 22 -41 24 -33 3 -36 5 -27 22 8
14 6 21 -6 28 -14 8 -13 12 10 35 14 14 26 33 26 42 0 23 47 20 55 -4 3 -10 4
-25 3 -32 -2 -8 13 -15 44 -20 26 -4 52 -10 58 -14 5 -3 13 1 17 10 8 23 -14
35 -50 28 -19 -4 -32 -1 -38 8 -12 20 -11 29 4 29 8 0 22 8 31 19 24 27 65 24
78 -5 16 -34 35 -30 49 11 14 37 39 48 39 17 0 -11 8 -27 19 -36 18 -16 19
-16 23 18 2 20 0 36 -4 36 -4 0 -8 20 -8 44 0 36 -4 45 -21 49 -21 6 -74 -8
-95 -25 -7 -5 -26 -2 -48 8 -28 14 -40 15 -60 6 -19 -9 -31 -8 -54 3 -25 13
-34 13 -83 -5 -50 -19 -119 -27 -119 -14 0 3 5 14 11 26 11 21 5 68 -10 68 -5
0 -7 -9 -4 -20 6 -21 -11 -28 -23 -9 -3 6 -16 8 -27 5 -15 -4 -31 4 -53 25
-27 26 -31 37 -28 67 5 45 -14 72 -52 75 -33 3 -46 27 -14 27 11 0 35 8 53 17
57 30 131 40 212 28 52 -7 140 15 140 35 0 15 6 20 26 20 6 0 8 -7 5 -16 -8
-21 46 -42 133 -50 67 -7 91 -24 32 -24 -35 0 -39 -5 -33 -36 6 -32 28 -42
117 -52 90 -10 153 2 164 31 24 62 30 95 25 127 -5 31 -2 37 24 52 26 16 34
16 68 4 22 -7 48 -10 59 -6 21 8 46 2 56 -12 12 -18 39 4 37 31 -3 24 0 26 37
29 22 2 47 9 55 16 18 15 76 14 92 -2 19 -19 51 -14 81 14 23 21 34 25 55 18
15 -4 61 -8 102 -8 57 0 83 5 109 19 18 11 42 24 52 30 25 13 20 26 -19 48
-24 14 -36 16 -51 8 -24 -13 -71 -14 -71 -2 0 15 -39 20 -73 10 -61 -18 -138
-20 -154 -4 -19 20 -62 19 -69 0 -4 -9 -13 -13 -24 -10 -9 3 -30 0 -46 -6 -16
-6 -64 -10 -106 -9 -60 1 -88 -4 -125 -20 -30 -13 -66 -20 -98 -20 -86 2 -195
-8 -208 -18 -7 -6 -50 -16 -95 -21 -46 -6 -88 -13 -93 -16 -15 -10 -60 -17
-129 -21 -173 -9 -268 -20 -283 -32 -16 -14 -67 -7 -67 9 0 13 -48 11 -56 -2
-3 -6 -17 -9 -30 -6 -13 2 -24 0 -24 -6 0 -10 -77 -1 -95 12 -5 4 -53 7 -105
7 -91 -1 -95 -2 -98 -23 -3 -23 1 -26 47 -27 55 -2 14 -46 -42 -46 -25 0 -70
27 -63 38 2 4 -4 18 -14 32 -22 29 -80 39 -270 45 -296 10 -337 12 -348 19 -9
5 -13 -15 -14 -76 -2 -46 -5 68 -8 252 l-5 335 -5 -540 -5 -540 -5 540 -5 540
-2 -695z m1487 80 c0 -5 -4 -10 -9 -10 -6 0 -13 5 -16 10 -3 6 1 10 9 10 9 0
16 -4 16 -10z m-425 -260 c3 -5 -1 -10 -9 -10 -9 0 -16 5 -16 10 0 6 4 10 9
10 6 0 13 -4 16 -10z m395 -200 c0 -5 -4 -10 -10 -10 -5 0 -10 5 -10 10 0 6 5
10 10 10 6 0 10 -4 10 -10z m-1443 -87 c-3 -10 -5 -4 -5 12 0 17 2 24 5 18 2
-7 2 -21 0 -30z"/>
<path d="M3366 8944 c-13 -35 3 -47 43 -32 l24 9 -21 19 c-26 24 -38 25 -46 4z"/>
<path d="M3568 8895 c-3 -14 -1 -28 3 -31 5 -3 9 -1 9 5 0 5 9 13 20 16 28 9
25 35 -4 35 -17 0 -25 -7 -28 -25z"/>
<path d="M3475 8876 c22 -33 48 -35 43 -3 -2 16 -11 23 -31 25 -28 3 -28 3
-12 -22z"/>
<path d="M2468 8833 c-10 -2 -18 -11 -18 -19 0 -18 56 -18 89 0 l23 13 -23 6
c-26 7 -44 7 -71 0z"/>
<path d="M3351 8776 c-18 -21 -6 -34 24 -28 17 3 25 10 23 21 -4 21 -32 25
-47 7z"/>
<path d="M2657 8774 c-14 -15 15 -44 44 -44 33 0 51 26 28 41 -16 10 -63 12
-72 3z"/>
<path d="M2800 8725 c0 -16 16 -20 24 -6 3 5 -1 11 -9 15 -9 3 -15 0 -15 -9z"/>
<path d="M2528 8653 c6 -2 18 -2 25 0 6 3 1 5 -13 5 -14 0 -19 -2 -12 -5z"/>
<path d="M12931 8464 c0 -11 3 -14 6 -6 3 7 2 16 -1 19 -3 4 -6 -2 -5 -13z"/>
<path d="M12951 8464 c0 -11 3 -14 6 -6 3 7 2 16 -1 19 -3 4 -6 -2 -5 -13z"/>
<path d="M2306 8381 c-11 -17 18 -29 44 -19 20 7 22 11 10 18 -19 12 -47 13
-54 1z"/>
<path d="M4230 8350 c0 -5 5 -10 10 -10 6 0 10 5 10 10 0 6 -4 10 -10 10 -5 0
-10 -4 -10 -10z"/>
<path d="M2370 8342 c-19 -1 -45 -8 -58 -14 -17 -9 -25 -9 -34 0 -18 18 -139
15 -166 -4 -29 -20 -28 -34 6 -70 l27 -29 155 -2 c85 -1 168 -2 184 -2 16 -1
33 4 37 11 6 9 39 13 114 12 80 0 105 3 105 13 0 7 5 13 10 13 6 0 10 6 10 14
0 9 -30 19 -97 32 -54 10 -105 20 -113 22 -19 5 -133 8 -180 4z"/>
<path d="M6055 8260 c-8 -12 21 -60 35 -60 13 0 13 13 -2 45 -12 27 -23 32
-33 15z"/>
<path d="M12934 8090 c0 -74 1 -105 3 -67 2 37 2 97 0 135 -2 37 -3 6 -3 -68z"/>
<path d="M4227 8203 c-3 -5 -1 -17 4 -28 7 -17 8 -17 8 8 1 27 -4 34 -12 20z"/>
<path d="M1400 8035 c0 -15 4 -24 10 -20 6 3 10 12 10 20 0 8 -4 17 -10 20 -6
4 -10 -5 -10 -20z"/>
<path d="M12952 8025 c0 -16 2 -22 5 -12 2 9 2 23 0 30 -3 6 -5 -1 -5 -18z"/>
<path d="M2680 8012 c-52 -40 -80 -74 -86 -104 -7 -29 -18 -36 -29 -18 -9 15
-45 -7 -45 -29 0 -10 8 -25 18 -34 14 -13 20 -13 35 -3 9 7 17 18 17 24 0 6
11 19 25 30 14 11 25 23 25 27 0 5 25 32 56 61 51 49 62 74 31 74 -7 0 -28
-13 -47 -28z"/>
<path d="M12932 7930 c0 -14 2 -19 5 -12 2 6 2 18 0 25 -3 6 -5 1 -5 -13z"/>
<path d="M5773 7884 l-32 -35 20 -39 c22 -42 43 -49 82 -29 28 15 38 30 32 50
-13 39 33 67 62 38 8 -8 13 -7 18 2 15 24 -33 49 -94 49 -51 -1 -59 -3 -88
-36z m48 -37 c-1 -12 -15 -9 -19 4 -3 6 1 10 8 8 6 -3 11 -8 11 -12z"/>
<path d="M10140 7860 c-20 -24 -40 -34 -95 -46 -105 -23 -120 -33 -121 -78 -1
-29 5 -44 25 -63 l26 -25 423 6 c294 4 429 3 443 -5 30 -16 281 -17 286 -2 8
21 -47 36 -167 44 -266 19 -301 26 -337 72 -29 38 -154 110 -188 110 -16 -1
-67 -4 -111 -8 -68 -6 -86 -5 -105 9 -33 23 -51 20 -79 -14z"/>
<path d="M5638 7859 c-20 -11 -23 -53 -8 -94 7 -20 16 -26 33 -23 24 3 25 17
4 87 -10 34 -15 38 -29 30z"/>
<path d="M12043 7843 c-16 -3 -20 -9 -16 -21 10 -27 22 -30 64 -19 75 18 30
56 -48 40z"/>
<path d="M5386 7781 c-55 -14 -75 -25 -98 -52 -15 -19 -31 -44 -34 -56 -7 -28
-6 -28 -74 -2 -41 16 -67 19 -102 15 -27 -3 -72 -9 -100 -12 -52 -6 -78 -18
-78 -35 0 -12 47 -11 69 1 14 7 24 4 41 -15 28 -30 37 -31 64 -6 12 10 39 21
62 25 36 5 42 3 53 -18 8 -14 10 -36 6 -54 -8 -38 15 -54 65 -43 35 7 35 7 12
20 -17 9 -21 18 -16 29 3 9 6 25 6 35 -1 21 17 22 47 1 30 -21 45 -7 32 29 -7
18 -7 36 -1 52 5 14 7 25 3 25 -4 0 4 11 17 25 32 35 46 31 54 -12 9 -53 31
-81 54 -67 13 9 17 26 18 73 2 71 5 69 -100 42z"/>
<path d="M2027 7687 c-17 -12 -17 -14 -3 -26 17 -14 18 -14 77 17 4 1 20 -9
35 -23 31 -28 61 -29 78 -3 16 27 -1 35 -89 42 -60 5 -85 4 -98 -7z"/>
<path d="M12932 7655 c0 -16 2 -22 5 -12 2 9 2 23 0 30 -3 6 -5 -1 -5 -18z"/>
<path d="M12952 7655 c0 -16 2 -22 5 -12 2 9 2 23 0 30 -3 6 -5 -1 -5 -18z"/>
<path d="M11322 7648 c6 -17 126 -34 140 -20 21 21 -5 32 -73 32 -52 0 -70 -3
-67 -12z"/>
<path d="M1870 7591 c0 -11 88 -33 101 -25 6 3 3 12 -8 20 -20 15 -93 19 -93
5z"/>
<path d="M4965 7573 l-30 -5 25 -13 c17 -9 30 -10 47 -2 22 10 23 28 0 26 -7
-1 -25 -4 -42 -6z"/>
<path d="M10303 7570 c-126 -13 -47 -44 91 -36 98 5 116 9 102 23 -11 11 -132
19 -193 13z"/>
<path d="M11120 7557 c0 -8 8 -18 17 -22 19 -7 143 14 143 25 0 3 -36 7 -80 9
-65 2 -80 0 -80 -12z"/>
<path d="M11793 7557 c-47 -16 -41 -27 15 -27 52 0 78 12 68 29 -8 13 -39 12
-83 -2z"/>
<path d="M5550 7551 c-14 -4 -26 -14 -28 -23 -2 -13 4 -14 36 -8 43 8 62 17
62 31 0 10 -33 10 -70 0z"/>
<path d="M6115 7550 c-9 -15 26 -40 55 -40 19 0 33 7 40 20 6 11 9 20 8 21
-19 6 -100 5 -103 -1z"/>
<path d="M6710 7550 c0 -5 4 -10 9 -10 6 0 13 5 16 10 3 6 -1 10 -9 10 -9 0
-16 -4 -16 -10z"/>
<path d="M10670 7543 c-55 -14 -54 -14 43 -17 71 -2 99 5 83 21 -10 11 -79 9
-126 -4z"/>
<path d="M11549 7555 c-3 -2 -30 -6 -61 -7 -62 -2 -68 -12 -12 -22 34 -7 94
10 94 26 0 9 -14 11 -21 3z"/>
<path d="M5898 7542 c-25 -5 -22 -21 6 -33 34 -16 76 -4 76 22 0 16 -6 19 -32
17 -18 -1 -41 -4 -50 -6z"/>
<path d="M12105 7520 c3 -5 24 -10 46 -10 21 0 39 5 39 10 0 6 -21 10 -46 10
-27 0 -43 -4 -39 -10z"/>
<path d="M11315 7078 c-107 -10 -127 -15 -105 -28 21 -11 988 -21 995 -10 12
20 -32 25 -270 32 -471 13 -530 14 -620 6z"/>
<path d="M12335 7047 c-39 -22 21 -26 305 -21 162 2 301 4 308 4 6 0 12 6 12
13 0 11 -56 14 -304 14 -176 0 -311 -4 -321 -10z"/>
<path d="M11136 6611 c-22 -24 -20 -31 9 -31 18 0 25 5 25 19 0 28 -15 33 -34
12z"/>
<path d="M11557 6613 c-13 -12 -7 -33 8 -33 8 0 15 9 15 20 0 20 -11 26 -23
13z"/>
<path d="M10954 6595 c-16 -13 -17 -16 -4 -25 20 -13 23 -13 45 3 19 14 13 37
-9 37 -7 0 -21 -7 -32 -15z"/>
<path d="M11770 6424 c-27 -13 -57 -15 -137 -11 -122 7 -469 -3 -453 -13 6 -4
83 -7 171 -8 124 -1 162 -4 174 -15 10 -11 31 -14 77 -10 35 3 82 0 105 -5 39
-9 43 -8 67 19 31 35 72 38 109 9 30 -24 41 -25 57 -6 9 12 4 18 -29 35 -48
25 -93 26 -141 5z"/>
<path d="M11966 6401 c-10 -16 27 -23 159 -32 78 -5 162 -17 210 -30 44 -12
96 -24 115 -27 31 -4 33 -3 21 12 -16 19 -24 18 109 16 52 -1 92 2 88 5 -4 4
-80 13 -170 21 -90 7 -228 20 -308 28 -168 18 -217 19 -224 7z"/>
<path d="M11926 6320 c3 -19 10 -42 15 -50 16 -28 11 14 -6 51 l-16 34 7 -35z"/>
<path d="M11951 6224 c0 -11 3 -14 6 -6 3 7 2 16 -1 19 -3 4 -6 -2 -5 -13z"/>
<path d="M22 6030 c0 -14 2 -19 5 -12 2 6 2 18 0 25 -3 6 -5 1 -5 -13z"/>
<path d="M10771 5948 c-117 -107 -194 -218 -294 -428 -63 -134 -90 -220 -102
-333 -4 -33 -13 -63 -22 -70 -79 -63 -89 -108 -45 -189 18 -31 32 -67 32 -80
0 -13 9 -54 19 -93 60 -220 139 -372 255 -495 18 -19 49 -58 69 -85 72 -102
272 -263 428 -344 211 -110 478 -201 642 -218 51 -5 59 -9 77 -38 28 -46 93
-59 148 -31 15 7 76 16 137 19 110 6 212 29 340 77 33 12 88 33 122 45 61 23
156 82 282 177 35 26 68 48 72 48 5 0 9 15 9 33 0 17 -4 27 -8 21 -4 -7 -24
-19 -45 -28 -22 -9 -48 -27 -59 -41 -11 -14 -69 -50 -128 -80 -60 -30 -111
-59 -115 -65 -4 -6 -24 -10 -45 -8 -21 1 -46 -4 -55 -12 -9 -8 -42 -15 -73
-16 -32 -2 -60 -3 -64 -3 -3 -1 -4 -10 -1 -21 5 -18 0 -20 -51 -20 -47 0 -56
3 -54 18 4 45 -1 52 -38 52 -20 0 -49 9 -65 21 -25 18 -29 27 -29 68 0 27 7
64 15 83 16 40 7 93 -16 93 -10 0 -16 -20 -20 -80 -6 -88 -21 -127 -44 -119
-18 7 -37 -61 -29 -104 6 -31 -18 -80 -54 -109 -19 -16 -57 -17 -84 -2 -19 11
-19 13 19 52 95 99 108 134 133 349 8 73 8 102 0 119 -19 34 -31 9 -37 -77
-13 -201 -88 -295 -222 -278 -49 6 -56 5 -72 -17 -12 -15 -19 -19 -19 -10 0
11 -3 10 -13 -3 -14 -20 -29 -19 -129 3 -72 16 -119 39 -125 61 -3 12 -14 20
-27 20 -12 0 -45 22 -76 53 -73 69 -144 127 -158 127 -5 0 -32 18 -59 39 -38
30 -56 38 -76 34 -21 -4 -27 -1 -27 12 0 28 -33 75 -52 75 -11 0 -18 7 -18 19
0 20 -18 31 -53 31 -20 1 -20 2 -4 11 26 15 20 27 -15 31 -25 2 -36 10 -46 31
-18 38 -40 45 -58 18 -8 -11 -19 -21 -23 -21 -13 0 -41 69 -41 101 0 28 -3 31
-24 25 -23 -6 -24 -4 -20 42 2 26 6 64 9 85 3 21 2 36 -3 33 -14 -8 -29 7 -56
57 -23 44 -24 51 -11 71 8 12 12 26 9 29 -4 4 -1 13 6 22 15 18 81 14 173 -10
67 -17 239 -20 367 -5 47 5 134 26 195 45 102 33 111 34 122 18 7 -9 13 -22
13 -29 0 -6 7 -14 15 -18 18 -7 18 -2 3 40 -10 28 -9 38 12 77 23 43 23 45 6
96 -28 88 -16 131 65 227 71 86 129 137 167 148 15 5 33 1 56 -13 18 -12 44
-21 57 -21 26 1 59 21 59 38 0 50 232 17 351 -50 21 -12 58 -48 81 -81 72 -99
70 -97 63 -52 -13 80 -106 179 -204 216 -44 17 -134 36 -230 49 -2 0 0 12 3
28 12 48 33 336 25 351 -12 25 -22 -28 -24 -129 -2 -120 -12 -168 -42 -203
-12 -16 -26 -46 -29 -68 -9 -56 -27 -67 -70 -44 -19 10 -34 24 -34 31 0 8 10
49 22 91 17 63 21 103 20 207 -1 71 -5 133 -11 139 -12 12 -20 -46 -20 -143 0
-41 -5 -97 -11 -125 -6 -27 -13 -59 -16 -70 -7 -35 -38 -67 -93 -96 -30 -16
-60 -29 -67 -29 -7 0 -11 -6 -8 -14 3 -9 -5 -17 -24 -24 -20 -7 -35 -24 -50
-54 -11 -25 -33 -59 -47 -77 -27 -31 -84 -161 -85 -192 0 -22 -38 -55 -90 -78
-51 -22 -178 -42 -293 -46 -43 -2 -80 -5 -83 -8 -26 -25 213 -31 326 -8 36 8
91 27 122 42 60 30 88 36 88 19 0 -28 -118 -108 -140 -95 -5 3 -28 -5 -51 -17
-30 -15 -63 -23 -109 -24 -36 -1 -90 -8 -121 -15 -50 -11 -60 -11 -81 3 -18
12 -40 15 -89 11 -78 -6 -110 6 -102 38 6 21 4 22 -28 13 -64 -16 -134 -9
-190 19 -30 14 -83 39 -119 55 -92 41 -132 77 -128 115 4 42 34 59 56 32 26
-30 122 -101 162 -119 19 -8 46 -24 60 -35 19 -15 45 -21 106 -24 45 -3 87 -8
93 -11 13 -8 31 1 31 15 0 5 -12 9 -27 9 -16 0 -57 16 -93 35 -35 19 -72 35
-81 35 -37 0 -49 12 -49 49 0 30 -8 45 -37 74 -20 21 -42 37 -48 37 -8 0 -10
10 -7 25 4 24 22 36 22 15 0 -5 5 -10 10 -10 21 0 9 18 -25 36 -38 20 -36 8
-20 137 12 87 128 355 182 418 16 19 42 54 56 79 14 25 55 77 91 115 36 39 65
73 66 78 1 18 -24 2 -89 -55z m-256 -1168 c3 -5 -1 -10 -9 -10 -8 0 -18 5 -21
10 -3 6 1 10 9 10 8 0 18 -4 21 -10z m65 -330 c0 -5 -4 -10 -10 -10 -5 0 -10
5 -10 10 0 6 5 10 10 10 6 0 10 -4 10 -10z m21 -72 c19 -24 25 -58 10 -58 -14
0 -28 22 -33 53 -6 33 -2 34 23 5z m284 -274 c18 5 25 2 25 -8 0 -8 -6 -16
-12 -19 -22 -8 64 -77 89 -72 16 4 23 -2 32 -25 8 -24 7 -30 -4 -30 -8 0 -17
5 -20 10 -4 6 -25 23 -48 37 -46 29 -117 99 -117 115 0 6 6 6 15 -2 8 -7 25
-10 40 -6z"/>
<path d="M11977 5884 c-11 -11 -8 -52 4 -60 10 -6 28 11 29 27 0 13 -26 40
-33 33z"/>
<path d="M12372 5058 c-21 -21 -13 -28 33 -28 25 0 62 -8 83 -19 32 -16 164
-51 313 -82 48 -11 103 -3 93 12 -3 5 -26 9 -52 9 -84 0 -338 64 -392 98 -39
25 -61 27 -78 10z"/>
<path d="M24 4865 c0 -77 2 -107 3 -67 2 40 2 103 0 140 -2 37 -3 4 -3 -73z"/>
<path d="M12340 4973 c0 -9 14 -32 32 -50 31 -32 31 -33 19 -75 -24 -78 -54
-130 -110 -191 l-56 -61 54 30 c39 21 61 40 76 69 11 22 29 52 39 67 10 15 24
47 31 70 l13 43 48 -2 c27 -1 74 -9 104 -18 112 -31 196 -46 282 -50 78 -3 88
-1 88 14 0 14 -6 17 -32 13 -52 -8 -279 19 -323 37 -22 10 -53 21 -70 25 -46
12 -130 54 -150 76 -22 24 -45 26 -45 3z"/>
<path d="M3 4785 c0 -27 2 -38 4 -22 2 15 2 37 0 50 -2 12 -4 0 -4 -28z"/>
<path d="M2 4680 c0 -14 2 -19 5 -12 2 6 2 18 0 25 -3 6 -5 1 -5 -13z"/>
<path d="M22 4680 c0 -14 2 -19 5 -12 2 6 2 18 0 25 -3 6 -5 1 -5 -13z"/>
<path d="M11535 4680 c10 -11 20 -18 23 -15 7 6 -18 35 -31 35 -5 0 -2 -9 8
-20z"/>
<path d="M11930 4563 c-17 -12 -44 -18 -84 -18 l-58 0 58 -17 c80 -24 90 -23
108 14 9 17 16 33 16 35 0 8 -17 2 -40 -14z"/>
<path d="M12046 4561 c-3 -4 4 -17 15 -26 19 -18 21 -18 37 -1 15 15 15 18 2
26 -19 12 -47 13 -54 1z"/>
<path d="M12072 4459 c2 -7 10 -15 17 -17 8 -3 12 1 9 9 -2 7 -10 15 -17 17
-8 3 -12 -1 -9 -9z"/>
<path d="M10740 4339 c0 -5 5 -7 10 -4 6 3 10 8 10 11 0 2 -4 4 -10 4 -5 0
-10 -5 -10 -11z"/>
<path d="M41 4013 c-1 -23 3 -31 14 -29 15 2 22 17 8 15 -5 0 -11 10 -15 23
-5 20 -6 19 -7 -9z"/>
<path d="M12952 3955 c0 -16 2 -22 5 -12 2 9 2 23 0 30 -3 6 -5 -1 -5 -18z"/>
<path d="M270 3790 c0 -5 5 -10 11 -10 5 0 7 5 4 10 -3 6 -8 10 -11 10 -2 0
-4 -4 -4 -10z"/>
<path d="M560 3761 c0 -11 4 -21 9 -21 18 0 21 18 6 30 -13 10 -15 9 -15 -9z"/>
<path d="M390 3560 c0 -5 5 -10 10 -10 6 0 10 5 10 10 0 6 -4 10 -10 10 -5 0
-10 -4 -10 -10z"/>
<path d="M420 3485 c0 -10 7 -15 18 -13 21 4 19 22 -2 26 -10 2 -16 -3 -16
-13z"/>
<path d="M9696 3291 c-4 -6 -1 -13 6 -15 19 -6 233 -23 308 -25 127 -3 414
-44 437 -63 7 -5 24 -49 39 -96 47 -152 76 -232 85 -232 14 0 10 39 -12 120
-11 41 -22 98 -24 125 -8 103 -13 113 -64 129 -49 15 -178 32 -331 42 -52 3
-111 7 -130 9 -141 13 -308 16 -314 6z"/>
<path d="M488 3273 c7 -3 16 -2 19 1 4 3 -2 6 -13 5 -11 0 -14 -3 -6 -6z"/>
<path d="M8460 3230 c-22 -6 -23 -8 -7 -15 22 -9 107 3 107 16 0 11 -64 10
-100 -1z"/>
<path d="M8766 3232 c-3 -6 -3 -13 1 -15 17 -10 122 -18 147 -11 43 11 18 25
-42 24 -32 -1 -67 1 -78 5 -12 4 -25 2 -28 -3z"/>
<path d="M9270 3230 c0 -5 4 -10 9 -10 6 0 13 5 16 10 3 6 -1 10 -9 10 -9 0
-16 -4 -16 -10z"/>
<path d="M10545 3227 c-18 -14 -15 -15 40 -22 33 -4 80 -11 105 -17 60 -13
560 -20 540 -8 -8 5 -57 10 -109 10 -89 0 -176 7 -351 30 -165 21 -204 22
-225 7z"/>
<path d="M11835 3200 c-3 -5 7 -16 23 -24 16 -8 41 -33 55 -55 41 -61 61 -47
32 22 -9 20 0 21 130 7 50 -5 114 -7 143 -3 99 11 37 24 -134 28 -129 3 -176
7 -199 19 -35 19 -42 19 -50 6z"/>
<path d="M10600 2757 c0 -12 18 -78 40 -146 22 -68 40 -136 40 -150 0 -31 64
-219 80 -235 7 -7 16 -5 27 7 20 19 20 19 -51 212 -19 50 -44 124 -56 165 -39
133 -80 209 -80 147z"/>
<path d="M12120 2749 c0 -8 11 -26 25 -39 32 -30 33 -10 0 27 -17 20 -24 23
-25 12z"/>
<path d="M12258 2575 c5 -11 12 -27 15 -35 5 -13 6 -13 6 1 1 8 -6 24 -15 35
-15 19 -15 19 -6 -1z"/>
<path d="M12300 2494 c0 -5 7 -19 15 -30 8 -10 15 -14 15 -8 0 5 -7 19 -15 30
-8 10 -15 14 -15 8z"/>
<path d="M12480 2135 c0 -5 16 -35 35 -65 19 -30 39 -66 45 -79 16 -37 93
-151 102 -151 4 0 8 5 8 12 0 15 -47 95 -77 132 -13 16 -33 45 -43 65 -23 42
-70 100 -70 86z"/>
<path d="M10163 1904 c-8 -20 13 -42 27 -28 12 12 3 44 -11 44 -5 0 -12 -7
-16 -16z"/>
<path d="M11010 1885 c0 -14 5 -25 10 -25 6 0 10 11 10 25 0 14 -4 25 -10 25
-5 0 -10 -11 -10 -25z"/>
<path d="M11460 1898 c0 -9 5 -20 11 -23 17 -11 20 0 4 21 -13 17 -14 17 -15
2z"/>
<path d="M10210 1891 c0 -6 5 -13 10 -16 6 -3 10 1 10 9 0 9 -4 16 -10 16 -5
0 -10 -4 -10 -9z"/>
<path d="M10630 1867 c0 -19 4 -25 15 -21 8 4 15 10 15 14 0 4 -7 13 -15 20
-13 11 -15 8 -15 -13z"/>
<path d="M10390 1841 c0 -5 5 -13 10 -16 6 -3 10 -2 10 4 0 5 -4 13 -10 16 -5
3 -10 2 -10 -4z"/>
<path d="M11484 1830 c3 -14 6 -31 6 -37 0 -7 5 -13 10 -13 12 0 2 50 -13 65
-6 7 -8 2 -3 -15z"/>
<path d="M10392 1758 c4 -46 28 -49 28 -4 0 26 -4 36 -16 36 -11 0 -14 -8 -12
-32z"/>
<path d="M10617 1724 c-15 -15 -7 -112 10 -129 16 -16 17 -16 25 6 5 13 10 46
11 74 2 43 -1 50 -18 53 -12 2 -24 0 -28 -4z"/>
<path d="M11526 1673 c3 -26 9 -86 13 -132 5 -46 13 -86 18 -90 5 -3 16 -34
23 -69 14 -70 36 -98 27 -36 -3 22 -9 66 -12 99 -4 33 -13 83 -20 110 -8 28
-18 74 -22 104 -10 71 -34 83 -27 14z"/>
<path d="M11719 1658 c-1 -4 -9 -49 -11 -64 -3 -21 25 -75 36 -71 14 5 16 107
3 125 -8 10 -25 17 -28 10z"/>
<path d="M10460 1560 c0 -5 5 -10 10 -10 6 0 10 5 10 10 0 6 -4 10 -10 10 -5
0 -10 -4 -10 -10z"/>
<path d="M11750 1470 c0 -21 4 -41 10 -45 5 -3 7 -12 3 -20 -10 -28 12 -15 25
14 14 33 3 74 -22 84 -13 5 -16 -1 -16 -33z"/>
<path d="M10615 1450 c-3 -5 3 -10 15 -10 12 0 18 5 15 10 -3 6 -10 10 -15 10
-5 0 -12 -4 -15 -10z"/>
<path d="M11602 1250 c2 -24 8 -36 21 -38 23 -5 22 20 -3 49 l-20 24 2 -35z"/>
<path d="M12152 1237 c-1 -47 10 -73 27 -63 15 10 14 38 -3 61 -8 11 -12 25
-9 32 3 7 1 13 -5 13 -5 0 -10 -19 -10 -43z"/>
<path d="M12930 520 l-4 -145 -6 125 c-3 69 -7 112 -9 95 -1 -16 -5 -39 -7
-50 -3 -11 -6 -55 -6 -97 0 -43 -5 -78 -9 -78 -5 0 -9 -14 -9 -30 0 -28 -2
-30 -20 -20 -11 6 -20 17 -20 25 0 8 -9 15 -20 15 -14 0 -22 -11 -30 -40 -10
-38 -13 -40 -50 -40 l-39 0 -3 48 c-3 43 -5 47 -30 50 -20 2 -28 -1 -28 -12 0
-9 -4 -16 -9 -16 -13 0 -11 -39 2 -67 11 -24 41 -31 52 -13 4 6 20 0 39 -15
18 -14 39 -25 46 -25 7 0 22 -8 33 -18 19 -16 20 -16 34 5 19 29 37 29 63 1
11 -12 20 -18 21 -12 0 5 4 0 9 -11 8 -18 9 -18 10 5 2 24 3 23 10 -5 4 -17 7
55 7 160 -1 159 -2 171 -6 75 l-6 -115 -5 175 -6 175 -4 -145z"/>
<path d="M12951 604 c0 -11 3 -14 6 -6 3 7 2 16 -1 19 -3 4 -6 -2 -5 -13z"/>
<path d="M12812 110 c-5 -14 -14 -44 -19 -67 l-10 -43 88 0 89 0 -1 63 c-1 34
-4 51 -6 38 -4 -19 -7 -21 -14 -10 -7 11 -9 10 -9 -5 0 -11 -3 -16 -7 -13 -3
4 -11 -3 -17 -15 -16 -32 -33 -33 -40 -1 -4 15 -15 39 -26 53 l-18 24 -10 -24z"/>
</g>
</svg>
