<?xml version="1.0" standalone="no"?>
<!DOCTYPE svg PUBLIC "-//W3C//DTD SVG 20010904//EN"
 "http://www.w3.org/TR/2001/REC-SVG-20010904/DTD/svg10.dtd">
<svg version="1.0" xmlns="http://www.w3.org/2000/svg"
 width="1296.000000pt" height="1080.000000pt" viewBox="0 0 1296.000000 1080.000000"
 preserveAspectRatio="xMidYMid meet">
<metadata>
Created by potrace 1.16, written by Peter Selinger 2001-2019
</metadata>
<g transform="translate(0.000000,1080.000000) scale(0.100000,-0.100000)"
fill="#000000" stroke="none">
<path d="M2 9103 c0 -934 4 -1675 8 -1648 l7 50 3 -40 c3 -37 4 -37 7 -9 l4
31 47 -9 c26 -5 58 -6 72 -2 36 9 304 5 375 -5 48 -7 65 -6 87 7 20 12 32 13
55 4 50 -19 77 -21 118 -11 22 6 101 12 175 13 125 3 151 5 220 22 14 4 86 6
160 5 154 -2 315 12 336 30 11 9 23 9 53 -1 60 -19 179 12 196 53 12 25 45 36
45 14 0 -8 -8 -18 -17 -21 -15 -6 -14 -9 5 -29 18 -18 34 -22 85 -22 48 0 62
3 62 15 0 10 -12 16 -34 18 -19 2 -43 9 -52 16 -15 10 -16 16 -6 36 15 30 71
45 88 24 15 -18 38 -18 60 2 21 19 54 11 69 -16 8 -14 5 -27 -10 -53 -46 -78
4 -321 85 -417 7 -8 25 -37 40 -65 16 -27 41 -64 56 -82 44 -52 113 -173 103
-183 -5 -4 -61 -20 -124 -35 -63 -15 -212 -52 -330 -82 -118 -31 -267 -68
-330 -83 -63 -14 -128 -32 -143 -38 -16 -7 -35 -12 -44 -12 -8 0 -40 -7 -71
-16 -62 -18 -98 -27 -297 -72 -71 -16 -159 -37 -195 -45 -122 -30 -335 -70
-365 -69 -16 1 -38 -4 -50 -12 -26 -16 -147 -45 -203 -48 -24 -1 -46 -6 -48
-10 -3 -4 -17 -8 -32 -8 -15 0 -75 -13 -134 -29 l-107 -28 -4 56 -3 56 -4 -65
-3 -65 -7 65 c-4 36 -7 -1365 -8 -3112 l-2 -3178 6480 0 6480 0 -2 413 c-1
230 -5 366 -8 307 l-6 -105 -4 105 c-3 98 -4 101 -10 45 l-7 -60 -1 67 c-1 37
-6 70 -12 73 -5 3 -10 15 -10 25 0 22 -30 90 -40 90 -4 0 -7 39 -6 87 1 61 -7
129 -26 218 -15 72 -30 151 -34 178 -4 30 -11 47 -20 47 -17 0 -15 9 -21 -73
-4 -55 -1 -72 12 -87 12 -13 14 -23 7 -36 -6 -10 -6 -32 0 -56 9 -42 3 -78
-12 -78 -5 0 -23 46 -41 103 -31 102 -74 195 -96 210 -6 4 -14 26 -18 50 -4
23 -15 51 -25 62 -10 11 -25 43 -33 70 -9 33 -20 51 -32 54 -16 3 -17 -2 -10
-40 4 -24 9 -66 11 -92 2 -27 10 -60 18 -75 40 -72 59 -152 36 -152 -5 0 -10
-7 -10 -16 0 -8 4 -12 10 -9 6 3 10 1 10 -5 0 -6 -6 -10 -12 -9 -45 5 -53 -5
-65 -81 -6 -41 -22 -65 -35 -52 -5 5 -12 40 -14 78 -9 115 -10 122 -23 138
-21 25 -39 123 -34 189 8 117 -61 250 -82 156 -6 -27 13 -133 34 -194 4 -11 9
-65 10 -120 2 -73 7 -105 18 -117 9 -10 13 -26 10 -38 -3 -11 1 -48 8 -82 7
-35 11 -66 8 -70 -9 -17 -53 -7 -64 14 -9 17 -9 24 5 33 9 7 16 22 16 34 0 18
-5 22 -27 19 -22 -2 -27 -9 -31 -36 -4 -36 -29 -72 -49 -72 -16 0 -17 12 -1
28 9 9 9 15 0 24 -7 7 -12 23 -12 36 0 13 -9 36 -20 52 -13 18 -19 42 -18 71
1 24 -6 60 -15 81 -9 20 -21 69 -27 110 -11 73 -20 105 -46 165 -8 17 -14 39
-14 49 0 23 -43 134 -51 134 -12 0 -17 -41 -12 -95 3 -29 3 -64 -1 -78 -6 -24
-8 -24 -40 -15 -44 14 -68 5 -65 -24 5 -44 -10 -68 -44 -69 -18 0 -44 -3 -59
-5 -34 -6 -41 7 -57 106 -7 41 -17 85 -22 98 -5 13 -9 29 -9 37 0 8 -13 44
-30 78 -16 35 -30 71 -30 80 0 9 -4 18 -9 21 -5 3 -12 20 -15 38 -6 34 -12 46
-60 132 -16 26 -37 80 -48 120 -10 39 -29 82 -42 96 -12 14 -30 37 -39 52 -18
29 -54 45 -68 31 -6 -6 -4 -26 5 -54 9 -24 16 -55 16 -67 0 -13 8 -36 19 -50
30 -43 51 -100 62 -175 6 -38 17 -84 25 -103 8 -18 13 -37 12 -41 -1 -5 14
-42 34 -83 26 -57 34 -85 32 -119 -4 -55 -9 -60 -36 -34 -18 18 -21 33 -20 98
1 71 -1 76 -20 73 -15 -2 -27 7 -42 34 -22 38 -44 64 -93 109 -53 48 -63 70
-63 131 0 55 -2 61 -40 98 -34 33 -46 39 -67 34 -14 -4 -28 -15 -30 -25 -3
-11 -11 -19 -18 -19 -11 0 -10 6 1 30 9 16 20 30 25 30 5 0 9 11 9 25 0 20 -5
25 -24 25 -19 0 -26 -7 -31 -30 -8 -35 -15 -37 -40 -10 -10 11 -22 20 -27 20
-15 0 -48 -40 -48 -59 0 -10 -7 -21 -15 -25 -29 -11 -14 -101 16 -101 7 0 14
-6 17 -14 3 -9 -1 -11 -15 -7 -14 5 -21 -1 -30 -24 -6 -17 -15 -30 -20 -30
-16 0 -36 72 -35 127 0 29 -4 55 -9 59 -5 3 -6 16 -3 30 5 21 3 24 -20 24 -36
0 -96 55 -96 88 0 25 -45 102 -60 102 -4 0 -11 15 -14 34 -4 19 -13 39 -20 45
-8 6 -16 24 -19 39 -3 15 -19 41 -36 58 -17 17 -39 51 -50 76 -11 25 -25 48
-32 50 -7 2 -16 30 -20 64 -4 32 -10 69 -14 81 -5 15 -3 23 4 23 6 0 14 -11
17 -26 5 -18 12 -24 28 -22 18 3 21 9 18 48 -2 25 -9 58 -17 74 -21 41 -19 73
5 81 46 14 84 -22 110 -103 7 -23 19 -47 27 -53 7 -6 13 -17 13 -24 0 -11 20
-25 36 -25 13 0 0 45 -28 100 -31 60 -32 63 -14 74 10 6 34 24 54 39 32 25 43
28 82 23 25 -3 52 -6 60 -6 150 1 577 11 675 16 211 9 195 11 224 -25 14 -17
41 -48 59 -69 l34 -37 -7 53 c-7 66 -1 69 114 53 47 -6 95 -12 106 -13 30 -1
218 21 224 27 17 17 -41 24 -259 31 -185 5 -250 10 -267 21 -18 12 -29 12 -65
2 -68 -19 -725 -18 -848 1 -113 18 -390 42 -415 36 -14 -4 -55 -1 -93 5 -37 6
-78 13 -92 15 -37 6 -491 33 -595 35 -49 1 -127 -4 -173 -11 -46 -7 -95 -10
-110 -7 -36 7 -177 -12 -219 -29 -34 -15 -44 -40 -19 -50 8 -3 35 4 61 15 63
28 320 55 390 42 83 -17 214 -29 330 -31 68 -1 123 -7 144 -16 18 -8 53 -14
77 -14 24 0 44 -4 44 -10 0 -5 20 -10 44 -10 66 0 92 -13 101 -52 4 -18 7 -36
6 -40 0 -4 19 -69 44 -145 25 -75 45 -153 45 -173 0 -48 10 -80 24 -80 16 0
33 -32 52 -100 25 -86 29 -130 11 -130 -15 0 -48 42 -51 66 -1 7 -5 17 -9 20
-4 4 -7 17 -7 29 0 13 -7 28 -15 35 -8 7 -15 22 -15 35 0 12 -10 34 -23 49
-13 15 -36 62 -52 105 -31 82 -38 87 -78 52 -17 -14 -20 -13 -48 16 -16 18
-29 37 -29 42 0 15 -16 14 -51 -5 -16 -8 -39 -12 -49 -9 -27 9 -27 -28 0 -62
11 -14 20 -35 20 -46 0 -43 35 -145 55 -159 11 -8 21 -338 11 -364 -5 -13 -9
-14 -21 -4 -12 10 -15 10 -15 -3 0 -19 -19 -32 -30 -21 -5 5 -11 27 -14 49
-11 76 -28 135 -37 129 -5 -3 -9 -19 -9 -35 0 -36 -38 -107 -63 -115 -18 -6
-18 -7 -21 -68 -1 -36 -26 -67 -26 -32 0 25 -22 66 -37 66 -7 0 -13 6 -13 14
0 17 -24 28 -45 20 -10 -4 -15 0 -15 14 0 14 -8 22 -22 24 -13 2 -23 8 -24 13
0 6 -4 18 -8 27 -4 9 -5 21 -2 27 4 5 2 12 -4 16 -12 7 -54 -4 -46 -12 3 -3
-3 -18 -14 -33 -11 -15 -23 -53 -26 -85 -8 -63 -27 -81 -53 -48 -23 28 -47 35
-63 16 -7 -9 -13 -19 -13 -22 0 -3 -4 -5 -9 -3 -6 2 -20 -2 -31 -8 -26 -14
-71 -9 -68 7 6 29 -150 51 -166 24 -5 -8 -35 -11 -92 -9 -82 3 -84 3 -87 29
-2 21 -10 28 -34 33 -46 9 -58 7 -58 -9 0 -8 -7 -15 -16 -15 -11 0 -14 6 -9
20 5 15 2 20 -12 20 -11 0 -23 4 -28 9 -6 4 -31 14 -57 21 -46 12 -65 30 -33
30 20 0 19 15 -2 46 -14 22 -15 35 -5 102 8 48 9 89 3 107 -5 20 -3 63 7 125
16 98 18 228 3 243 -4 4 -16 -2 -26 -13 -28 -31 -35 -24 -35 34 0 70 -10 116
-24 116 -25 0 -57 -54 -63 -105 -2 -16 -8 -45 -14 -63 -9 -27 -7 -37 10 -66
27 -44 27 -117 0 -196 -11 -33 -18 -63 -16 -67 3 -5 1 -18 -4 -31 -8 -20 -14
-22 -65 -19 -64 4 -68 8 -90 93 -9 36 -12 78 -9 118 10 109 -24 164 -37 59 -8
-65 -39 -173 -50 -173 -4 0 -7 21 -6 46 0 34 -5 50 -21 65 -22 21 -27 44 -11
54 15 9 12 52 -4 58 -7 3 -26 -1 -41 -9 -15 -8 -31 -11 -36 -8 -5 3 -9 0 -9
-5 0 -6 -7 -11 -16 -11 -12 0 -15 6 -9 23 4 12 9 45 12 72 3 28 11 57 19 66
16 18 19 65 4 74 -20 13 -45 -15 -55 -61 -12 -55 -31 -68 -41 -27 -4 15 -26
65 -49 109 -33 64 -41 88 -36 111 7 32 69 122 85 124 6 1 18 2 26 3 20 2 26
36 6 36 -22 0 -20 11 13 115 46 143 55 184 57 279 2 49 5 95 8 102 3 8 -1 14
-9 14 -8 0 -19 17 -25 39 -5 21 -23 67 -38 102 -16 35 -35 91 -42 124 -7 33
-16 65 -20 70 -4 6 -15 33 -25 60 -10 28 -33 71 -51 98 -36 50 -40 70 -24 111
7 18 17 26 34 26 26 0 66 -34 66 -56 0 -6 9 -22 20 -35 l19 -24 1 23 c0 12 5
22 10 22 6 0 10 -7 10 -15 0 -8 5 -15 10 -15 6 0 10 7 10 15 0 8 5 15 10 15 6
0 10 -5 10 -12 0 -15 13 -2 18 20 2 9 6 39 9 65 4 39 9 50 29 57 27 11 32 38
9 46 -10 4 -13 14 -9 30 4 15 0 29 -10 39 -12 12 -13 21 -6 35 7 14 6 23 -5
34 -17 17 -10 46 11 46 17 0 19 46 3 56 -8 4 -7 9 2 15 8 4 19 3 26 -3 10 -8
13 -7 13 5 0 8 -8 17 -18 19 -16 5 -20 20 -25 121 -8 143 -1 163 93 267 80 90
152 186 169 228 18 42 36 46 79 17 73 -48 147 -66 294 -72 301 -12 480 70 640
295 21 29 38 59 38 67 0 8 4 17 10 20 5 3 14 24 20 45 6 22 15 40 20 40 6 0
10 47 10 113 0 78 3 107 10 97 7 -10 8 9 4 60 -3 41 -11 82 -18 90 -7 8 -16
24 -20 34 -3 10 -9 16 -13 13 -7 -7 -33 11 -33 23 0 3 220 7 489 7 474 1 673
11 687 35 10 15 -4 22 -47 24 -40 2 -57 9 -47 19 4 4 49 9 155 14 7 1 21 10
31 22 17 18 20 18 26 3 6 -15 8 -15 30 -1 32 21 92 32 100 18 9 -14 53 -15 61
-1 3 5 12 7 20 4 8 -4 18 1 21 10 7 17 44 22 44 6 0 -5 7 -10 15 -10 9 0 30
-7 48 -17 20 -10 51 -15 83 -14 37 1 56 -3 68 -15 14 -13 22 -14 41 -6 12 6
32 8 42 6 11 -3 25 1 32 9 9 12 19 13 48 5 20 -5 49 -7 65 -4 38 7 35 1 -11
-30 -38 -24 -44 -25 -118 -18 -43 4 -109 7 -148 6 -38 0 -148 -1 -243 -2 -96
-1 -184 -5 -197 -10 -14 -5 -26 -5 -33 2 -14 14 -45 2 -39 -15 4 -14 2 -13
258 -20 107 -3 195 -10 207 -16 12 -6 70 -11 132 -11 62 0 120 -5 132 -11 18
-10 24 -7 45 20 29 36 79 43 106 13 22 -25 57 -136 57 -183 0 -39 17 -89 31
-89 14 0 15 102 2 165 -16 76 -16 108 -2 100 6 -4 83 -10 172 -15 112 -5 177
-13 212 -25 27 -9 73 -21 102 -25 49 -6 53 -5 48 11 -6 17 3 19 112 21 98 3
114 5 97 15 -18 10 -116 20 -289 28 -120 6 -362 37 -387 50 -16 8 -28 10 -28
5 0 -4 -13 -11 -29 -15 -20 -4 -42 1 -76 20 -26 14 -55 25 -63 25 -37 0 4 15
46 17 26 1 61 4 77 7 17 2 37 -1 45 -8 16 -13 25 -13 53 -2 11 5 26 2 42 -8
23 -15 27 -15 80 11 50 25 59 26 98 16 32 -9 54 -9 86 -1 36 9 48 8 71 -6 33
-19 69 -20 140 -5 56 12 66 32 24 51 -18 8 -36 9 -62 2 -24 -6 -49 -6 -70 0
-23 6 -39 5 -57 -4 -22 -12 -27 -11 -45 5 -12 11 -20 28 -19 39 3 39 -1 46
-25 46 -14 0 -28 5 -31 10 -4 6 -11 8 -16 5 -5 -4 -5 3 0 18 9 23 9 23 -42 15
-29 -5 -59 -9 -67 -9 -26 -1 -89 30 -99 49 -7 13 -21 17 -58 16 -27 0 -54 -3
-60 -7 -6 -4 -17 -5 -25 -2 -8 3 -31 -1 -52 -10 -36 -15 -40 -15 -78 5 -21 11
-43 18 -47 16 -4 -3 -37 -7 -74 -10 -53 -4 -68 -2 -75 10 -12 21 -101 26 -155
10 -62 -19 -240 -13 -273 9 -14 9 -42 16 -62 15 -56 -3 -58 -2 -70 25 -16 34
-53 47 -138 46 -70 0 -73 1 -113 39 -23 22 -46 40 -50 40 -5 0 -33 -12 -62
-27 -42 -22 -67 -28 -133 -30 -93 -2 -185 -15 -206 -28 -8 -5 -70 -11 -138
-12 -92 -2 -129 -7 -147 -19 -23 -15 -25 -15 -25 0 0 20 -29 21 -44 0 -15 -20
-75 -35 -155 -38 -50 -2 -67 1 -80 15 -25 27 -66 39 -130 39 -40 0 -63 5 -71
15 -7 8 -29 15 -50 15 -23 0 -48 8 -64 21 -23 18 -34 20 -111 14 l-84 -7 -21
34 c-19 31 -19 34 -2 46 9 7 32 27 51 45 l35 32 365 -2 c201 0 384 -4 406 -6
37 -5 432 -6 785 -2 85 1 192 7 238 14 58 8 88 9 102 1 12 -7 137 -10 352 -10
183 1 441 -2 573 -5 314 -9 512 -8 838 4 29 1 37 5 37 20 0 11 -4 21 -10 23
-5 2 -74 1 -152 -2 -193 -8 -545 -4 -1008 11 -307 10 -410 10 -510 0 -150 -15
-424 -15 -500 0 -36 8 -124 9 -265 4 -421 -14 -726 -13 -920 2 -104 8 -196 17
-204 19 -11 4 -7 12 13 33 51 53 68 57 121 25 67 -39 167 -55 235 -37 60 15
97 39 132 85 30 39 80 138 97 190 16 50 26 56 114 69 65 10 84 9 126 -5 65
-21 159 -21 189 0 24 17 41 15 104 -8 28 -11 53 -12 105 -5 79 11 105 11 228
7 73 -3 97 0 129 15 50 24 69 22 107 -9 17 -14 37 -26 45 -26 19 0 18 26 -1
34 -8 3 -15 16 -15 30 0 22 5 25 48 31 26 4 58 10 71 14 24 7 22 9 -22 30 -54
26 -61 27 -252 36 -150 7 -227 19 -262 41 -26 16 -46 8 -96 -36 -23 -21 -31
-23 -47 -12 -26 16 -255 16 -301 0 -43 -15 -194 -17 -209 -2 -6 6 -11 37 -12
70 0 32 -4 64 -9 69 -24 32 -51 127 -52 189 -3 79 7 96 56 97 l32 1 -28 8
c-49 15 -59 28 -36 51 27 27 22 72 -9 74 -12 1 -21 -3 -20 -9 2 -7 -1 -14 -7
-16 -11 -6 -19 54 -10 78 5 13 9 12 26 -6 11 -12 30 -22 43 -22 13 0 36 -4 52
-9 16 -5 55 -17 87 -27 48 -14 57 -20 57 -40 0 -23 4 -24 60 -24 76 0 88 18
42 61 -17 16 -34 29 -38 29 -4 0 -15 7 -24 15 -17 15 -101 36 -225 55 -53 8
-64 14 -98 52 -21 24 -49 66 -64 93 -40 78 -113 196 -146 237 -28 35 -144 118
-165 118 -5 0 -22 6 -37 14 l-28 15 24 5 c13 3 64 7 113 9 53 3 92 10 96 17 4
6 14 10 23 8 9 -2 16 2 17 7 0 6 -7 11 -17 12 -10 1 -44 5 -76 8 l-59 7 20 21
c11 12 25 40 32 62 16 55 75 135 100 135 11 0 24 -11 32 -27 7 -14 18 -28 25
-30 18 -6 53 34 53 60 1 25 44 87 84 118 14 11 26 25 26 30 0 23 -36 5 -88
-45 -52 -49 -62 -54 -114 -59 -32 -3 -60 -2 -63 2 -2 5 13 22 35 40 45 36 49
50 20 76 -29 26 -118 17 -203 -23 -38 -18 -70 -32 -73 -32 -14 0 2 32 46 92
27 37 52 79 56 92 l6 23 245 1 c405 2 698 47 1023 156 74 26 158 53 185 61 28
9 71 22 98 30 26 8 71 22 100 30 72 20 361 166 425 215 29 22 81 51 115 64 94
36 175 77 252 129 214 143 288 210 338 305 23 44 53 83 79 103 39 32 143 137
238 242 l43 47 -47 0 c-56 0 -103 -32 -223 -156 -81 -83 -98 -95 -160 -109
-26 -5 -33 -3 -33 8 0 8 11 18 25 21 14 4 25 11 25 17 0 6 46 56 103 112 l102
102 -60 3 -60 4 -55 -60 c-30 -32 -93 -89 -140 -127 -47 -37 -107 -89 -135
-115 -89 -83 -255 -203 -395 -285 -138 -81 -433 -225 -522 -256 -51 -17 -102
-37 -113 -44 -19 -12 -191 -67 -365 -119 -144 -42 -290 -74 -410 -90 -63 -9
-146 -20 -185 -26 -38 -6 -153 -13 -255 -16 l-186 -6 -14 33 c-30 67 -90 84
-225 65 -54 -8 -125 -34 -125 -46 0 -11 -46 -21 -64 -14 -10 4 -16 18 -16 39
0 27 -5 35 -29 45 -17 6 -35 9 -42 4 -7 -4 -29 -6 -50 -6 -22 1 -44 -4 -53
-13 -8 -8 -20 -15 -26 -15 -7 0 -29 -10 -50 -21 l-37 -21 -114 21 c-105 20
-161 31 -294 60 -27 6 -90 20 -140 30 -181 40 -226 52 -289 75 -36 14 -109 34
-163 45 -136 29 -332 92 -558 178 -49 20 -111 43 -137 52 -25 10 -68 28 -95
41 -50 24 -71 33 -163 70 -64 26 -249 113 -300 142 -19 10 -64 33 -100 51 -36
17 -83 44 -104 59 -21 15 -43 28 -49 28 -12 0 -110 71 -120 87 -4 7 -17 13
-28 13 -11 0 -31 11 -44 24 -13 14 -32 27 -42 31 -10 3 -29 14 -41 25 -22 18
-22 21 -8 36 9 8 16 17 16 19 0 2 -189 4 -421 5 -312 0 -419 -2 -413 -11 5 -8
31 -9 86 -4 64 5 84 3 103 -9 15 -10 22 -22 19 -31 -4 -9 0 -15 9 -15 8 0 17
6 20 14 3 8 15 20 26 25 17 9 25 6 54 -24 19 -19 39 -35 45 -35 6 0 16 -9 22
-20 6 -11 17 -20 24 -20 8 0 19 -7 26 -15 7 -8 21 -15 31 -15 10 0 26 -11 35
-25 10 -15 26 -25 41 -25 13 0 36 -8 51 -18 83 -57 110 -72 129 -72 11 0 26
-7 33 -15 11 -13 49 -35 252 -145 26 -14 80 -44 121 -67 41 -24 105 -54 143
-69 38 -14 78 -31 89 -38 11 -7 34 -16 50 -20 35 -8 149 -62 185 -86 14 -10
100 -49 192 -88 91 -39 195 -85 231 -102 35 -16 73 -30 83 -30 10 0 57 -14
104 -31 47 -17 117 -39 155 -49 39 -10 81 -22 95 -28 14 -5 72 -17 130 -27 58
-10 127 -29 154 -42 26 -13 83 -30 125 -37 93 -17 264 -61 311 -81 19 -8 78
-21 130 -30 52 -8 99 -20 104 -25 20 -20 -12 -33 -74 -31 -50 2 -73 -4 -131
-30 -38 -18 -69 -35 -69 -39 0 -4 -14 -13 -31 -21 -17 -7 -53 -34 -80 -61 -51
-51 -66 -57 -76 -33 -3 9 -18 22 -33 30 -20 11 -29 24 -34 53 -4 29 -16 49
-42 72 -32 28 -42 31 -83 28 -25 -2 -52 -6 -60 -9 -9 -2 -21 9 -32 31 -22 45
-49 69 -80 72 -29 2 -117 -21 -125 -33 -3 -5 -14 -9 -24 -9 -11 0 -61 -42
-114 -95 -79 -79 -101 -95 -126 -95 -57 0 -124 -44 -184 -121 -31 -39 -56 -79
-56 -90 0 -23 -39 -49 -71 -48 -13 1 -49 -8 -79 -20 -46 -18 -62 -20 -96 -12
-25 7 -53 7 -71 2 -24 -7 -38 -5 -62 10 -59 36 -185 13 -249 -44 -9 -8 -33
-18 -53 -22 -30 -6 -39 -3 -51 14 -11 16 -25 20 -69 19 -29 0 -69 -6 -88 -14
-18 -8 -43 -14 -54 -14 -12 0 -33 -12 -49 -27 l-28 -26 -57 16 c-32 9 -87 19
-123 22 -58 5 -242 40 -345 65 -22 6 -67 15 -100 20 -33 5 -76 14 -95 20 -19
6 -80 17 -135 25 -55 8 -111 16 -125 19 -14 2 -74 10 -135 16 -177 18 -247 30
-293 47 -33 12 -48 13 -67 5 -16 -8 -26 -8 -31 -1 -5 9 2 249 12 384 11 162
25 493 28 710 4 236 9 291 25 281 4 -3 5 10 3 28 -3 28 0 34 20 40 21 7 22 8
4 15 -18 7 -17 9 8 28 14 12 26 29 26 38 0 13 5 16 23 10 46 -14 176 -18 191
-5 9 6 20 9 26 5 6 -4 9 -1 8 6 -2 7 9 19 24 28 25 15 28 14 41 -3 17 -23 53
-17 50 9 -1 10 6 25 15 32 14 10 -485 12 -2620 13 l-2638 0 2 -1697z m3998
1627 c0 -23 -5 -29 -32 -34 -37 -7 -43 -3 -33 21 5 10 7 23 6 30 -2 12 26 22
47 15 6 -2 12 -17 12 -32z m-157 -97 c-7 -17 -43 -16 -65 1 -26 19 -22 24 20
28 39 3 54 -6 45 -29z m135 -10 c18 -18 19 -22 27 -328 2 -110 9 -261 14 -335
13 -172 13 -236 1 -335 -6 -44 -7 -123 -4 -175 3 -52 5 -133 4 -180 -1 -47 -1
-119 0 -160 1 -41 1 -91 0 -110 -5 -135 -3 -164 8 -168 15 -5 15 -27 0 -68
-10 -28 -9 -36 6 -53 26 -28 56 -34 56 -10 0 10 5 19 11 19 11 0 10 -21 -6
-90 l-6 -25 12 25 12 25 5 -23 c5 -30 -5 -55 -19 -47 -7 5 -8 -4 -4 -27 7 -39
7 -60 -3 -278 l-7 -165 -28 -13 c-33 -16 -29 -27 14 -36 25 -5 29 -9 20 -20
-6 -7 -9 -20 -6 -28 4 -11 -7 -17 -47 -26 -78 -17 -110 -21 -125 -15 -16 6
-18 403 -3 608 6 72 12 204 15 295 5 153 17 1566 15 1673 -1 47 6 87 16 87 3
0 13 -7 22 -17z m-458 -43 c0 -18 7 -20 75 -20 43 0 75 4 75 10 0 6 -4 10 -10
10 -5 0 -10 5 -10 10 0 7 35 10 95 9 l94 -2 1 -36 c0 -20 3 -83 6 -141 6 -113
12 -383 17 -812 l3 -268 -22 0 c-13 0 -56 7 -96 15 -40 9 -136 22 -214 31 -77
8 -156 19 -175 24 -18 6 -58 10 -87 10 -30 0 -88 9 -130 19 -43 11 -108 22
-147 25 -38 3 -80 8 -92 12 -12 3 -35 2 -51 -4 -19 -7 -35 -6 -47 1 -11 6 -53
11 -95 13 -226 8 -305 16 -345 37 -47 24 -75 31 -75 17 0 -6 -4 -10 -10 -10
-5 0 -10 6 -10 14 0 11 -20 13 -107 9 -136 -6 -118 -7 -188 11 -33 9 -94 16
-135 17 -141 1 -228 13 -247 33 -17 17 -17 18 -1 13 23 -8 34 11 17 28 -17 15
-146 28 -154 15 -3 -5 -29 -9 -58 -9 -29 1 -83 -3 -121 -8 -38 -5 -79 -8 -92
-5 l-24 4 20 25 c11 14 20 30 20 35 0 5 10 18 22 27 16 13 19 24 14 44 -8 33
-41 53 -61 37 -10 -8 -15 -7 -22 4 -7 13 -15 14 -40 7 -25 -7 -35 -6 -45 7
-11 13 -11 14 0 8 23 -14 59 3 107 50 l47 45 0 86 0 86 56 56 c55 54 59 56
112 56 30 0 80 -2 110 -5 50 -5 56 -3 65 18 10 22 35 31 35 11 0 -6 7 -4 15 5
19 19 19 26 -1 26 -9 0 -12 5 -8 11 4 8 27 9 70 5 56 -6 68 -4 99 16 19 13 35
30 35 38 0 8 9 26 20 40 17 23 25 25 87 22 75 -2 103 -9 103 -23 0 -10 36 -49
46 -49 7 0 34 -27 34 -34 0 -12 41 -46 58 -48 37 -3 52 3 52 20 0 9 14 28 30
42 17 14 30 32 30 40 0 9 6 24 14 35 7 11 13 25 12 30 0 6 10 12 24 13 14 2
31 9 38 14 7 6 26 11 42 10 17 0 30 4 30 9 0 5 29 9 65 9 37 0 65 4 65 10 0 6
13 10 29 10 16 0 37 7 46 16 15 15 18 15 41 -6 13 -13 24 -34 24 -46 0 -15 16
-35 44 -58 40 -33 48 -36 110 -36 95 0 145 32 146 92 0 40 17 78 35 78 9 0 29
10 46 22 38 28 89 35 282 37 151 1 157 0 157 -19z m2745 -61 c10 -15 -1 -23
-20 -15 -9 3 -13 10 -10 16 8 13 22 13 30 -1z m-6248 -691 c-1 -123 -2 -25 -2
217 0 242 1 342 2 223 2 -119 2 -317 0 -440z m12293 592 c0 -22 -35 -63 -91
-106 -32 -24 -64 -51 -72 -59 -27 -27 -191 -125 -286 -172 -84 -41 -100 -45
-159 -44 -100 2 -109 17 -32 56 28 14 72 42 98 62 26 19 63 43 82 52 19 8 47
25 61 36 15 11 39 28 55 37 54 32 69 43 106 75 21 18 48 35 60 37 13 3 50 11
83 19 74 19 95 20 95 7z m-12273 -662 c-1 -79 -3 -15 -3 142 0 157 2 221 3
143 2 -79 2 -207 0 -285z m7406 220 c12 -7 29 -19 38 -25 8 -7 33 -17 55 -22
l39 -9 -42 -1 c-42 -1 -148 38 -125 46 6 3 10 9 6 14 -7 12 2 11 29 -3z m4154
-24 c2 -6 -16 -21 -39 -33 -24 -12 -54 -28 -68 -36 -47 -28 -225 -103 -282
-120 -55 -17 -59 -17 -128 4 -39 12 -68 26 -65 31 3 5 31 16 62 25 32 9 70 26
86 37 16 12 46 22 66 23 21 1 57 14 82 28 72 42 276 71 286 41z m-10577 -154
c0 -11 -4 -20 -10 -20 -5 0 -10 9 -10 20 0 11 5 20 10 20 6 0 10 -9 10 -20z
m7069 -15 c2 -14 -1 -17 -20 -12 -13 4 -31 7 -40 7 -8 0 -24 7 -35 15 -17 13
-14 14 36 11 44 -2 56 -6 59 -21z m136 -20 c79 -14 205 -57 205 -71 0 -8 5
-14 10 -14 6 0 10 7 10 16 0 13 6 15 28 9 15 -3 29 -11 31 -16 2 -6 14 -14 27
-19 25 -10 33 -30 11 -30 -7 0 -37 6 -67 14 -30 7 -75 17 -100 20 -25 4 -67
13 -95 21 -27 8 -76 22 -107 30 -54 15 -57 17 -45 36 8 13 19 18 32 15 11 -3
38 -8 60 -11z m-7045 -25 c0 -5 -9 -10 -21 -10 -11 0 -17 5 -14 10 3 6 13 10
21 10 8 0 14 -4 14 -10z m9753 -29 c17 -17 -6 -34 -49 -37 -20 -2 -44 -9 -53
-16 -34 -27 -65 -40 -123 -49 -33 -5 -78 -19 -100 -30 -50 -26 -162 -36 -211
-20 -39 13 -47 25 -22 35 8 3 15 12 15 20 0 10 23 19 78 31 42 8 91 20 108 25
17 6 42 10 56 10 14 0 31 7 38 15 8 9 30 15 59 15 25 0 53 5 61 11 18 12 128
5 143 -10z m-9910 -10 c6 -25 0 -31 -35 -31 -31 0 -36 11 -12 34 21 22 41 20
47 -3z m-423 -51 c0 -5 -9 -10 -20 -10 -11 0 -20 5 -20 10 0 6 9 10 20 10 11
0 20 -4 20 -10z m775 -27 c-11 -3 -24 -11 -28 -19 -9 -15 -37 -19 -37 -6 0 17
26 32 55 31 21 -1 24 -3 10 -6z m65 -9 c0 -8 -5 -12 -10 -9 -6 4 -8 11 -5 16
9 14 15 11 15 -7z m2671 -17 c-1 -12 -15 -9 -19 4 -3 6 1 10 8 8 6 -3 11 -8
11 -12z m5109 -1 c0 -3 -4 -8 -10 -11 -5 -3 -10 -1 -10 4 0 6 5 11 10 11 6 0
10 -2 10 -4z m850 -31 l-33 -24 43 -7 c38 -6 41 -8 21 -16 -12 -4 -46 -7 -74
-7 -29 1 -77 -2 -107 -5 -71 -9 -241 9 -251 26 -23 36 -11 38 191 37 19 0 73
4 120 9 132 14 128 15 90 -13z m-1083 9 c-3 -3 -12 -4 -19 -1 -8 3 -5 6 6 6
11 1 17 -2 13 -5z m1203 -39 c0 -10 -10 -15 -27 -14 -16 0 -22 3 -15 6 17 7
15 23 -3 23 -8 0 -15 7 -15 15 0 14 3 14 30 0 17 -9 30 -22 30 -30z m-1043 19
c-3 -3 -12 -4 -19 -1 -8 3 -5 6 6 6 11 1 17 -2 13 -5z m218 -15 c11 -17 -1
-21 -15 -4 -8 9 -8 15 -2 15 6 0 14 -5 17 -11z m265 -9 c0 -5 -7 -7 -15 -4 -8
4 -15 8 -15 10 0 2 7 4 15 4 8 0 15 -4 15 -10z m-320 -469 c0 -15 -19 -23 -38
-16 -14 5 -14 7 -2 15 19 12 40 13 40 1z m188 -65 c10 -4 25 -18 32 -31 11
-21 11 -28 0 -38 -10 -10 -12 -8 -7 11 6 25 3 26 -24 12 -11 -7 -19 -21 -19
-37 0 -14 -8 -32 -17 -39 -16 -11 -16 -13 10 -19 47 -12 30 -23 -45 -29 -175
-13 -198 -14 -198 -5 0 10 17 19 44 23 26 4 31 16 6 16 -13 0 -20 3 -17 7 4 3
2 12 -4 20 -8 9 -8 17 0 26 6 8 8 16 6 19 -8 7 38 37 115 75 63 31 65 31 82
13 10 -10 26 -21 36 -24z m-448 -325 c0 -7 -69 -118 -103 -165 -13 -19 -16
-19 -83 -3 -38 9 -85 17 -104 17 -44 1 -141 23 -140 33 0 4 0 16 0 26 0 29 80
53 255 77 28 3 57 10 65 15 20 11 110 11 110 0z m-550 -190 c3 -3 20 -16 38
-29 26 -19 33 -20 38 -8 8 21 29 26 66 15 18 -5 62 -10 97 -11 44 -1 65 -6 68
-16 5 -11 17 -13 52 -8 64 8 75 -1 62 -50 -15 -58 -31 -72 -78 -75 -57 -4 -73
12 -67 66 5 56 -7 63 -39 25 -26 -31 -75 -41 -106 -21 -20 13 -4 31 27 31 19
0 23 3 14 9 -8 4 -13 12 -12 17 3 19 -22 15 -27 -5 -4 -17 -13 -21 -49 -21
-43 0 -44 0 -44 -34 0 -19 5 -38 10 -41 13 -8 13 -51 0 -76 -9 -15 -7 -21 6
-26 9 -3 28 -17 42 -29 18 -18 37 -24 68 -24 l43 0 -3 43 c-1 23 -1 48 2 55 7
21 38 13 50 -14 9 -19 17 -24 32 -19 17 5 19 1 17 -35 -1 -26 5 -46 16 -57 15
-15 17 -15 23 0 4 12 13 15 32 10 17 -4 23 -2 18 6 -4 6 -3 11 1 11 5 0 9 16
10 35 1 19 -2 33 -6 30 -4 -2 -21 -1 -36 3 l-29 8 23 23 c20 20 25 21 37 9 22
-22 34 -115 22 -173 -14 -66 -23 -77 -64 -69 -43 8 -57 -1 -43 -27 14 -27 7
-32 -25 -17 -18 8 -26 18 -23 28 8 30 -12 50 -47 50 -19 0 -39 7 -46 15 -7 8
-18 15 -25 15 -7 0 -18 -7 -25 -15 -20 -24 -50 -19 -47 8 2 23 -13 26 -114 28
-15 0 -35 8 -46 18 -28 26 -85 17 -81 -13 2 -17 9 -20 35 -18 36 4 92 -26 73
-38 -16 -10 -3 -50 16 -50 9 0 23 4 32 9 10 5 29 7 43 4 20 -4 26 -11 27 -33
1 -41 -19 -55 -55 -37 -16 8 -44 12 -66 9 -53 -6 -87 13 -87 50 0 27 -1 28
-57 30 -177 5 -262 17 -317 45 -21 11 -35 12 -50 5 -45 -21 -83 -31 -141 -36
-81 -7 -112 -12 -144 -26 -37 -15 -141 22 -141 49 0 13 -10 21 -30 25 -17 3
-47 17 -68 31 -20 14 -49 25 -63 25 -15 0 -32 6 -38 14 -7 8 -20 12 -29 9 -26
-6 -72 14 -72 32 0 12 6 15 21 10 15 -5 19 -4 15 4 -10 16 5 14 24 -4 14 -13
19 -12 45 2 39 21 185 30 196 12 8 -14 25 -16 157 -22 48 -3 85 0 88 5 4 6 10
5 16 -3 7 -11 11 -11 15 -1 2 6 12 12 21 12 15 0 15 2 2 10 -12 8 -9 10 13 10
15 0 27 5 27 10 0 6 -16 10 -36 10 -22 0 -41 6 -48 15 -13 18 -30 20 -103 10
l-53 -8 -15 37 c-18 43 -32 50 -66 37 -19 -7 -31 -5 -49 9 -18 13 -28 16 -37
8 -19 -15 -63 0 -72 25 -13 34 13 43 53 19 25 -15 37 -17 45 -9 8 8 21 8 47
-2 20 -7 50 -10 69 -7 22 5 47 0 81 -15 27 -12 62 -21 78 -20 17 1 38 -7 50
-18 14 -12 31 -17 51 -15 100 14 126 15 161 4 69 -21 114 -28 120 -18 3 5 13
6 22 4 10 -3 30 1 45 9 21 10 34 12 47 5 10 -6 31 -10 45 -10 22 0 25 -3 20
-20 -6 -19 -1 -25 66 -85 17 -16 89 -10 101 9 16 23 7 47 -19 57 -19 7 -23 13
-15 18 17 10 -53 31 -106 31 -22 0 -44 5 -47 10 -4 7 6 10 27 9 18 -1 49 5 67
14 l35 15 -35 21 c-18 11 -37 21 -40 21 -12 0 -17 39 -5 44 17 6 170 4 176 -3z
m-8483 -88 c-2 -16 -4 -3 -4 27 0 30 2 43 4 28 2 -16 2 -40 0 -55z m8048 -3
c3 -5 -1 -10 -9 -10 -9 0 -16 5 -16 10 0 6 4 10 9 10 6 0 13 -4 16 -10z
m-3304 -70 c66 -70 73 -129 39 -303 -19 -95 -74 -279 -90 -302 -4 -5 -13 -27
-19 -47 -7 -21 -16 -38 -19 -38 -4 0 -38 33 -77 74 -38 40 -105 99 -148 131
-43 31 -81 64 -84 72 -13 33 65 294 109 364 48 78 81 96 182 98 59 1 60 1 107
-49z m3499 40 c0 -5 -4 -10 -10 -10 -5 0 -10 5 -10 10 0 6 5 10 10 10 6 0 10
-4 10 -10z m488 -38 c2 -14 -2 -22 -11 -22 -17 0 -26 19 -19 38 7 19 27 9 30
-16z m-2506 -153 c-5 -32 -6 -33 -39 -24 -28 7 -28 7 -5 18 12 5 22 16 22 24
0 8 6 13 13 10 6 -2 10 -15 9 -28z m3106 -8 c96 -51 242 -203 293 -307 19 -38
33 -84 36 -121 5 -51 2 -66 -22 -112 -36 -72 -82 -137 -184 -259 -84 -101
-234 -233 -391 -344 -73 -51 -200 -147 -339 -255 -51 -40 -100 -73 -109 -73
-10 0 -35 23 -57 51 -50 63 -61 73 -110 110 -53 38 -218 171 -297 238 -35 29
-73 62 -85 72 -13 10 -23 27 -23 36 0 10 52 64 116 122 l116 104 72 -7 c113
-10 266 29 427 110 79 40 124 75 144 115 35 67 9 100 -99 124 -42 9 -78 21
-81 25 -9 15 124 124 281 230 13 8 57 41 98 73 77 59 127 86 159 87 10 0 34
-9 55 -19z m627 -20 c3 -5 1 -12 -5 -16 -5 -3 -10 1 -10 9 0 18 6 21 15 7z
m-4060 -81 c3 -5 -1 -10 -10 -10 -9 0 -13 5 -10 10 3 6 8 10 10 10 2 0 7 -4
10 -10z m-5898 -47 c-3 -10 -5 -2 -5 17 0 19 2 27 5 18 2 -10 2 -26 0 -35z
m3060 -7 c4 -8 17 -15 28 -17 25 -5 34 -49 10 -49 -18 0 -75 52 -75 69 0 16
28 13 37 -3z m2473 -24 c0 -10 -5 -23 -12 -30 -9 -9 -9 -18 0 -37 7 -15 9 -37
6 -50 -8 -32 3 -50 21 -35 30 25 28 -26 -2 -62 -18 -20 -2 -33 24 -19 10 5 30
12 45 15 15 4 33 13 42 21 13 14 16 10 22 -31 9 -62 -10 -94 -65 -113 -36 -11
-46 -11 -76 3 -19 10 -35 21 -35 26 0 15 -22 12 -65 -10 -22 -11 -47 -20 -57
-20 -27 0 -70 72 -66 112 3 28 8 34 33 38 28 5 30 8 30 51 0 25 6 53 14 62 12
15 16 15 43 1 46 -24 68 -11 68 40 0 23 3 46 7 49 12 13 23 7 23 -11z m-5533
-29 c-3 -10 -5 -4 -5 12 0 17 2 24 5 18 2 -7 2 -21 0 -30z m8713 17 c0 -11 -7
-20 -15 -20 -27 0 -18 30 13 39 1 1 2 -8 2 -19z m30 10 c0 -5 -4 -10 -10 -10
-5 0 -10 5 -10 10 0 6 5 10 10 10 6 0 10 -4 10 -10z m-3415 -77 c-3 -17 -18
-46 -33 -62 -15 -17 -34 -55 -42 -84 -15 -48 -18 -52 -49 -55 -40 -4 -56 9
-56 45 0 14 -6 28 -12 30 -8 3 -13 -4 -13 -16 0 -28 -5 -27 -50 16 -43 39 -51
63 -22 63 10 0 24 9 32 20 15 21 15 21 35 -4 l20 -26 -3 39 c-5 47 5 55 43 35
31 -16 33 -15 49 18 7 14 25 25 46 29 19 4 36 13 39 20 8 24 22 -36 16 -68z
m-2365 -44 c0 -22 -5 -49 -10 -59 -7 -13 -6 -38 5 -82 15 -68 44 -103 76 -93
28 9 24 -17 -8 -47 -16 -15 -46 -29 -68 -33 -64 -11 -75 -15 -75 -32 0 -8 14
-20 30 -26 17 -6 30 -16 30 -21 0 -5 -12 -34 -27 -64 l-26 -54 -18 23 c-9 13
-32 53 -51 89 -18 36 -49 85 -69 110 -37 46 -69 101 -69 118 0 15 66 -3 86
-22 23 -23 44 -17 64 19 9 17 26 31 38 33 27 4 28 13 2 35 -33 28 -26 74 17
113 52 47 73 45 73 -7z m160 18 c0 -2 -9 -3 -20 -4 -12 -1 -20 4 -20 13 0 12
4 12 20 4 11 -6 20 -12 20 -13z m650 -22 c0 -8 -4 -15 -9 -15 -18 0 -191 -208
-242 -292 -108 -174 -129 -210 -129 -217 0 -4 -15 -33 -34 -64 -19 -32 -38
-67 -42 -80 -3 -12 -12 -35 -19 -52 -7 -16 -23 -64 -35 -105 -11 -41 -30 -97
-40 -125 -10 -27 -31 -95 -45 -150 -15 -55 -33 -119 -41 -143 -12 -38 -22 -84
-53 -262 -5 -25 -17 -92 -29 -150 -20 -100 -56 -334 -67 -430 -6 -54 -19 -165
-34 -275 -35 -271 -33 -915 3 -1180 8 -60 15 -121 14 -135 -1 -14 4 -72 11
-130 11 -94 21 -162 51 -340 5 -30 14 -95 21 -145 11 -90 22 -155 39 -230 30
-127 92 -370 111 -433 23 -76 23 -87 -5 -76 -11 4 -16 15 -14 33 3 27 -18 55
-64 85 -15 10 -25 22 -22 28 8 12 -25 48 -43 48 -7 0 -23 16 -34 35 -12 19
-27 35 -33 35 -7 0 -21 9 -31 20 -15 17 -16 24 -7 46 17 35 15 44 -8 44 -11 0
-20 5 -20 10 0 6 -8 10 -18 10 -10 0 -24 11 -32 24 -11 21 -10 27 4 41 20 20
21 29 2 22 -18 -7 -49 29 -72 83 -3 8 -10 24 -14 35 -5 11 -14 37 -20 58 -7
21 -18 41 -25 44 -8 2 -17 17 -20 33 -3 15 -15 36 -26 46 -10 9 -19 23 -19 30
0 7 -11 26 -25 41 -14 15 -29 33 -34 39 -12 14 -12 96 0 89 5 -3 6 1 3 9 -3 9
-10 16 -15 16 -5 0 -9 25 -9 55 0 41 -4 55 -14 55 -10 0 -16 -13 -18 -37 l-4
-38 -8 37 c-10 45 -2 53 117 131 110 72 191 151 218 213 13 31 22 80 26 134 5
81 4 88 -27 145 -61 113 -95 136 -221 143 -48 2 -93 8 -100 12 -8 5 -13 40
-14 102 -2 51 -8 127 -14 168 -14 88 -14 160 0 176 5 7 9 27 8 45 -2 55 12
202 21 224 24 59 30 87 32 153 1 44 -3 77 -10 84 -21 21 -9 158 26 308 11 45
35 184 52 295 4 33 15 89 24 125 23 101 46 204 46 212 0 19 36 38 72 38 55 0
148 51 203 112 59 65 67 121 35 245 -12 48 -30 104 -40 123 -9 19 -27 56 -40
81 -17 34 -21 55 -16 80 8 44 59 144 96 191 17 20 30 42 30 48 0 20 162 210
179 210 4 0 25 13 46 30 20 16 46 32 58 36 12 3 29 12 37 19 22 18 125 46 174
47 22 0 52 5 66 11 27 11 84 24 113 26 9 0 17 -6 17 -14z m419 4 c80 -14 87
-18 176 -85 125 -95 261 -257 348 -414 48 -88 56 -112 125 -365 72 -263 76
-281 102 -415 11 -58 24 -125 30 -150 20 -85 39 -335 34 -440 -4 -101 7 -204
36 -335 50 -221 50 -222 50 -497 0 -362 -8 -390 -114 -374 -45 7 -46 8 -46 44
-1 20 -5 161 -10 312 -9 280 -25 425 -91 835 -5 33 -13 92 -19 130 -5 39 -23
138 -40 220 -17 83 -40 199 -52 259 -14 74 -33 137 -59 192 -22 46 -39 88 -39
94 0 6 -14 25 -30 42 -17 16 -38 44 -46 61 -9 16 -40 62 -69 102 -120 162
-248 215 -406 169 -77 -23 -193 -119 -218 -182 -8 -19 -32 -62 -54 -95 -46
-71 -107 -186 -107 -204 0 -7 -9 -29 -19 -50 -10 -21 -35 -78 -56 -128 -20
-49 -41 -98 -46 -107 -5 -10 -9 -30 -9 -45 0 -34 -37 -220 -47 -236 -4 -6 -10
-29 -14 -52 -3 -22 -16 -87 -27 -145 -27 -135 -43 -230 -42 -255 0 -11 -9
-117 -20 -235 -10 -118 -22 -251 -25 -295 -4 -44 -11 -109 -17 -145 -10 -64
-13 -442 -3 -550 2 -30 7 -101 10 -157 3 -55 7 -110 9 -120 2 -10 9 -88 15
-173 18 -253 21 -278 46 -428 18 -105 40 -187 79 -296 29 -83 58 -164 64 -181
42 -118 112 -276 132 -295 9 -8 36 -42 62 -75 38 -50 104 -116 154 -155 35
-27 94 -50 154 -61 60 -10 77 -10 132 6 35 9 79 26 98 36 39 20 154 118 192
164 83 99 204 365 243 535 7 30 19 82 28 115 25 94 64 308 93 500 8 61 22 135
30 165 9 34 14 105 14 187 l0 133 26 10 c30 12 104 13 120 2 21 -13 23 -76 8
-277 -7 -110 -19 -283 -25 -385 -16 -268 -17 -278 -39 -351 -11 -36 -20 -73
-20 -81 0 -8 -9 -23 -20 -33 -22 -20 -27 -45 -9 -45 16 0 5 -135 -14 -180 -9
-19 -30 -82 -48 -140 -29 -97 -93 -234 -124 -270 -7 -8 -17 -28 -21 -45 -4
-16 -24 -56 -46 -87 -21 -31 -38 -60 -38 -63 0 -8 -74 -108 -123 -167 -21 -25
-50 -49 -63 -52 -13 -4 -24 -11 -24 -17 0 -20 -49 -59 -75 -59 -21 0 -24 -4
-20 -23 5 -19 -4 -29 -55 -65 -33 -24 -65 -40 -70 -37 -6 4 -9 1 -8 -7 5 -24
-203 -16 -284 11 -59 20 -68 26 -68 47 0 21 -5 24 -35 24 -26 0 -33 3 -29 15
4 9 0 15 -8 15 -24 0 -79 31 -73 40 3 5 13 6 21 3 32 -12 48 63 19 87 -9 7
-14 19 -11 27 3 8 -1 16 -9 19 -8 4 -15 12 -15 19 0 24 -36 44 -95 52 l-60 8
-8 59 c-8 57 -24 86 -46 86 -11 0 -15 18 -11 58 1 12 -3 22 -9 22 -7 0 -11 30
-11 80 l0 80 -45 0 c-38 0 -45 3 -45 20 0 23 0 23 -34 10 -14 -5 -26 -17 -26
-27 -1 -14 -4 -12 -15 7 -15 27 -20 71 -7 69 38 -6 60 22 27 35 -8 3 -15 13
-15 22 0 10 -3 15 -6 11 -9 -9 -34 19 -34 37 0 9 -4 16 -8 16 -4 0 -6 15 -4
34 2 21 -2 44 -12 58 -18 25 -21 74 -6 83 13 8 13 25 -1 25 -17 0 -39 27 -39
49 0 12 -4 21 -8 21 -5 0 -7 13 -4 30 3 18 0 30 -7 30 -6 0 -11 -6 -12 -12 -3
-36 -18 67 -20 135 -1 42 -5 77 -10 77 -4 0 -5 16 -2 37 5 29 3 35 -8 28 -12
-8 -12 -6 0 8 9 11 10 17 2 17 -6 0 -11 14 -11 30 0 19 -5 30 -14 30 -21 0
-31 55 -75 390 -30 232 -50 515 -58 798 -7 268 1 406 38 727 12 99 23 198 24
220 3 48 40 274 60 365 8 36 26 126 40 200 25 130 45 206 85 335 11 33 33 107
51 165 17 58 43 132 56 165 28 66 145 308 165 340 59 93 154 232 172 252 79
88 165 163 223 195 60 33 76 38 137 38 38 0 99 -5 135 -11z m-1648 -76 c21
-23 22 -25 4 -19 -11 5 -37 10 -57 13 -21 3 -38 9 -38 13 0 30 61 26 91 -7z
m2377 1 c2 -15 14 -23 40 -30 l37 -9 0 -88 0 -87 -33 -6 c-17 -3 -47 -3 -65 0
-47 9 -99 7 -114 -6 -24 -19 -26 0 -8 67 11 38 26 70 36 75 9 5 22 22 29 37
25 61 35 74 55 71 11 -2 21 -12 23 -24z m-2612 6 c31 0 44 -4 44 -14 0 -10
-17 -17 -57 -21 -32 -4 -65 -9 -75 -11 -9 -3 -20 0 -24 7 -9 15 36 51 54 44 8
-3 34 -5 58 -5z m5944 -23 c34 -17 39 -55 8 -61 -50 -10 -146 -25 -198 -31
-30 -3 -75 -10 -100 -15 -25 -5 -87 -14 -138 -21 -91 -12 -93 -12 -117 11 -37
34 -32 57 13 69 44 12 167 28 316 42 61 5 112 12 115 14 9 10 77 4 101 -8z
m-7400 -7 c12 -8 9 -10 -13 -10 -16 0 -26 4 -22 10 8 12 16 12 35 0z m5013
-40 c4 -14 -3 -26 -23 -40 -57 -41 -78 -16 -39 46 17 28 24 32 39 24 9 -5 20
-19 23 -30z m2929 3 c43 -9 80 -23 82 -29 3 -7 -5 -28 -17 -46 -53 -79 -404
-218 -480 -189 -15 6 -27 14 -27 19 0 21 194 194 268 239 45 28 74 29 174 6z
m-2777 -32 c7 -12 -31 -25 -45 -16 -6 4 -8 11 -5 16 8 12 42 12 50 0z m-3469
-26 c26 -12 134 -134 134 -150 0 -3 18 -35 40 -71 21 -35 47 -89 56 -119 10
-30 20 -52 24 -50 4 2 13 -8 21 -23 7 -15 29 -49 47 -76 18 -28 49 -83 69
-124 30 -63 36 -88 41 -163 l5 -89 -39 -35 c-46 -43 -110 -75 -149 -75 -47 0
-112 49 -161 121 -24 37 -44 71 -44 76 0 4 -11 25 -25 45 -14 20 -25 44 -25
52 0 8 -8 17 -18 20 -18 6 -72 78 -72 96 0 5 -12 18 -26 29 -14 11 -23 24 -20
30 3 5 0 11 -8 14 -8 3 -24 27 -37 54 -13 26 -31 56 -38 65 -18 22 -39 97 -45
162 -4 40 -1 54 17 76 12 15 29 37 37 50 33 50 49 64 91 81 55 22 87 23 125 4z
m5050 -14 c53 -31 110 -93 159 -171 46 -74 158 -221 225 -292 73 -80 68 -87
-47 -64 -139 27 -335 48 -456 49 l-118 0 -10 26 c-5 14 -23 52 -40 83 -22 42
-32 77 -36 127 -13 153 45 239 176 261 78 13 94 11 147 -19z m-596 -11 c0 -5
-7 -10 -15 -10 -8 0 -15 5 -15 10 0 6 7 10 15 10 8 0 15 -4 15 -10z m181 -60
c-28 -24 -41 -25 -41 -6 0 14 18 23 50 25 10 0 7 -6 -9 -19z m-1601 -10 c0 -5
-2 -10 -4 -10 -3 0 -8 5 -11 10 -3 6 -1 10 4 10 6 0 11 -4 11 -10z m656 -23
c4 -3 2 -13 -5 -21 -9 -11 -6 -20 15 -45 24 -29 25 -34 15 -81 -6 -28 -11
-100 -11 -159 l0 -108 -112 -6 c-62 -3 -279 -1 -483 5 -203 5 -454 12 -558 14
l-187 5 -30 64 c-17 35 -30 67 -30 70 0 4 -16 38 -35 76 -39 78 -42 94 -20
103 24 9 17 21 -21 35 -45 16 -39 33 13 38 33 3 43 0 47 -14 9 -27 83 -62 147
-69 44 -5 65 -2 102 14 41 18 55 19 114 11 48 -7 82 -6 116 2 36 8 52 8 60 0
28 -28 250 4 275 40 18 26 55 24 89 -4 15 -12 40 -28 54 -34 32 -14 147 -8
195 9 30 11 42 10 82 -6 70 -27 106 -31 121 -12 18 21 0 44 -37 48 -15 2 -27
7 -27 13 0 18 94 29 111 12z m929 -43 c14 -24 27 -66 31 -100 9 -76 26 -125
64 -180 16 -25 30 -49 30 -54 0 -20 -108 -43 -223 -48 l-119 -4 -51 35 c-65
45 -99 59 -161 66 -29 4 -52 12 -57 21 -4 8 -17 59 -30 113 l-22 98 20 21 c19
19 35 21 185 24 129 2 168 0 185 -12 27 -17 75 -18 91 -2 16 16 -13 48 -44 48
-13 0 -25 4 -28 9 -3 5 19 8 49 7 54 -2 57 -3 80 -42z m-2922 -344 c27 -9 127
-89 127 -102 0 -4 -15 -2 -32 3 -18 5 -68 9 -110 9 -79 0 -107 -12 -120 -51
-6 -17 -88 49 -88 72 0 24 34 50 92 70 51 17 72 17 131 -1z m2558 -29 c102
-50 197 -220 234 -413 19 -105 27 -124 44 -114 13 8 7 85 -16 198 -19 92 -15
99 60 124 75 24 159 68 183 95 11 13 26 38 33 56 11 26 20 33 54 39 45 7 167
8 174 0 12 -12 -25 -51 -90 -95 -90 -61 -167 -141 -167 -175 0 -33 43 -66 87
-66 82 0 260 84 313 148 28 33 30 42 25 84 -7 45 -6 46 25 53 38 8 225 -12
300 -32 145 -40 317 -167 339 -249 5 -22 9 -76 8 -121 -2 -75 -5 -85 -37 -130
-89 -125 -131 -164 -228 -209 -72 -34 -93 -48 -90 -62 3 -14 18 -18 83 -23
111 -8 158 -32 255 -129 121 -120 160 -220 160 -410 0 -188 -78 -332 -234
-430 -86 -54 -124 -60 -174 -28 -95 63 -322 64 -544 2 -123 -34 -352 -52 -437
-34 -34 7 -72 20 -83 29 -19 16 -19 17 23 56 99 92 129 123 129 134 0 25 -38
8 -109 -51 -41 -34 -93 -68 -116 -76 -22 -7 -45 -18 -52 -24 -7 -5 -48 -12
-92 -15 -73 -5 -85 -3 -135 21 -103 51 -206 198 -206 295 0 25 7 84 15 131 26
146 23 167 -34 235 -159 191 -201 264 -201 343 1 47 15 73 65 112 38 30 44 32
111 28 60 -3 75 -7 103 -31 19 -15 38 -26 44 -24 39 13 -12 70 -77 88 -49 13
-182 7 -199 -10 -35 -35 -79 26 -93 128 -13 102 39 360 78 385 14 8 23 5 46
-17 17 -16 39 -27 56 -27 72 0 164 83 190 171 9 29 22 57 29 61 20 14 101 3
148 -21z m-991 -57 c129 -4 288 -7 352 -8 134 0 144 -6 105 -65 -13 -20 -34
-53 -46 -73 -13 -21 -31 -39 -42 -39 -10 -1 -25 -2 -31 -3 -7 -1 -16 -5 -20
-11 -5 -6 -19 -4 -40 5 -38 16 -148 16 -179 -1 -23 -12 -481 -15 -501 -3 -13
8 -92 15 -163 14 -36 0 -57 6 -106 30 -9 5 -33 12 -52 15 -31 6 -40 3 -59 -18
-35 -39 -61 -23 -86 55 -36 109 -39 102 58 108 104 6 494 3 810 -6z m1250 -4
c0 -15 -48 -43 -65 -36 -23 8 -18 34 8 39 41 8 57 7 57 -3z m-3057 -115 c59
-57 61 -79 7 -82 -21 -1 -42 2 -45 7 -10 17 -43 11 -47 -7 -2 -13 -13 -18 -34
-18 -33 0 -35 13 -9 45 7 8 22 34 34 58 12 23 27 42 34 42 7 0 34 -20 60 -45z
m381 12 c58 -22 83 -45 91 -85 2 -11 -12 -78 -32 -149 -19 -70 -37 -141 -40
-158 -2 -16 -11 -64 -18 -105 -8 -41 -17 -102 -20 -135 -10 -96 -50 -302 -106
-545 -62 -268 -60 -261 -84 -270 -23 -9 -169 1 -180 12 -3 3 1 43 10 89 8 46
22 127 30 179 7 52 18 115 23 140 6 25 15 88 21 140 6 52 18 154 26 225 9 72
22 193 31 270 19 181 45 364 55 392 14 37 91 38 193 0z m202 -224 c14 -32 36
-103 49 -158 13 -55 38 -158 55 -230 30 -124 46 -225 71 -435 6 -52 19 -154
30 -227 18 -123 24 -203 15 -203 -2 0 -25 10 -51 21 -59 26 -122 22 -210 -14
-33 -14 -63 -23 -66 -21 -3 2 -9 73 -13 158 -6 155 -22 281 -50 411 -14 65
-14 79 5 205 38 256 110 550 135 550 2 0 16 -26 30 -57z m-1994 -37 c41 -46
56 -70 52 -83 -17 -53 -27 -72 -35 -67 -5 3 -9 1 -9 -5 0 -5 -30 -13 -67 -16
-38 -4 -72 -11 -78 -15 -13 -10 -76 -24 -93 -21 -7 1 -22 -5 -33 -13 -16 -11
-27 -12 -44 -4 -18 8 -27 5 -49 -17 -23 -23 -33 -26 -84 -24 -31 2 -67 -2 -79
-9 -12 -7 -32 -12 -45 -12 -13 0 -33 -7 -44 -15 -21 -16 -60 -20 -68 -6 -4 6
-20 5 -42 0 -26 -8 -39 -7 -52 3 -9 7 -13 8 -9 1 5 -7 1 -9 -12 -6 -13 3 -17
11 -14 24 4 13 0 19 -10 19 -8 0 -17 6 -20 13 -2 6 -8 8 -13 4 -4 -4 -2 -18 5
-30 11 -16 11 -22 1 -25 -9 -3 -9 -6 1 -13 10 -6 8 -9 -9 -9 -13 0 -36 -7 -51
-14 -15 -8 -38 -12 -49 -9 -13 3 -42 -4 -69 -17 -47 -23 -153 -35 -153 -18 0
12 -48 10 -52 -3 -2 -6 -16 -11 -31 -11 -16 0 -32 -8 -37 -18 -6 -12 -23 -17
-61 -18 -29 0 -57 -6 -62 -11 -12 -12 -50 -15 -60 -5 -4 4 -22 8 -42 10 -25 2
-40 -3 -54 -18 -12 -13 -24 -17 -33 -12 -19 12 -219 7 -232 -6 -5 -5 -24 -10
-41 -10 -17 0 -39 -6 -50 -14 -11 -7 -59 -16 -109 -19 -49 -3 -91 -9 -95 -14
-8 -11 -124 -34 -169 -33 -19 0 -53 -6 -75 -14 -23 -8 -61 -19 -84 -25 -23 -6
-48 -18 -56 -25 -8 -8 -23 -16 -33 -18 -13 -2 -21 -14 -25 -38 -4 -22 -7 -2
-8 55 -1 99 -8 90 69 98 14 1 27 5 30 9 3 4 23 9 45 12 22 2 56 11 75 19 19 8
63 17 97 21 35 4 84 13 110 20 27 8 84 22 128 31 44 10 126 30 181 46 56 16
108 29 115 29 8 0 26 6 41 14 14 8 46 17 70 21 24 4 68 13 98 21 30 7 123 29
205 49 83 20 174 43 203 51 28 8 76 20 105 28 28 8 72 17 97 21 25 4 70 15
100 25 56 19 243 66 315 80 77 15 231 51 320 74 50 13 97 25 105 25 8 1 41
-28 72 -63z m9616 -132 c-1 -9 -8 -19 -14 -21 -11 -4 -16 22 -8 46 7 21 27 -2
22 -25z m-8171 -78 c3 -2 1 -15 -3 -28 -4 -13 -7 -29 -6 -35 2 -9 -14 -13 -53
-13 -53 0 -74 13 -36 23 12 3 21 17 25 40 6 34 8 35 38 27 17 -5 33 -11 35
-14z m5806 -10 c8 -20 -2 -26 -32 -20 -51 11 -57 17 -26 24 46 12 52 11 58 -4z
m892 -16 c3 -5 -1 -10 -9 -10 -9 0 -16 5 -16 10 0 6 4 10 9 10 6 0 13 -4 16
-10z m-5075 -41 c544 -2 561 -2 571 -21 6 -11 7 -27 3 -36 -36 -86 -13 -185
72 -307 45 -65 62 -105 45 -105 -6 0 -11 -12 -11 -26 0 -21 -4 -25 -20 -21
-11 3 -20 2 -20 -3 0 -7 -69 4 -73 12 -1 1 -8 13 -14 25 -7 13 -13 32 -13 42
0 12 -13 28 -30 38 -28 16 -30 22 -25 53 5 32 2 37 -30 59 -19 13 -35 32 -35
41 0 32 -12 50 -32 50 -11 0 -26 7 -34 15 -9 8 -24 15 -34 15 -11 0 -27 12
-37 26 -17 27 -18 27 -112 21 -81 -6 -96 -4 -106 10 -11 14 -16 15 -28 5 -11
-10 -36 -11 -91 -6 -74 7 -77 6 -101 -20 -27 -30 -43 -33 -59 -11 -12 17 -38
24 -112 32 -68 7 -151 -27 -161 -66 -3 -14 -14 -34 -24 -44 -11 -10 -19 -24
-19 -32 0 -23 -19 -17 -25 8 -18 73 -42 233 -38 244 3 8 11 12 19 9 7 -3 265
-6 574 -7z m-1915 -49 c7 -12 -65 -52 -86 -48 -18 3 -18 4 0 34 16 26 24 30
50 26 17 -2 33 -8 36 -12z m276 -120 c-3 -75 -15 -168 -52 -390 -6 -36 -19
-94 -30 -130 -10 -36 -20 -76 -21 -89 -3 -22 -38 -41 -38 -20 0 5 -7 17 -16
27 -9 9 -51 76 -94 147 -43 72 -88 142 -99 157 -29 36 -81 161 -81 192 0 34
20 76 37 76 7 0 13 4 13 9 0 5 30 16 68 25 37 8 92 25 122 37 83 32 142 48
170 46 25 -2 25 -3 21 -87z m-4024 -272 c-2 -35 -3 -7 -3 62 0 69 1 97 3 63 2
-35 2 -91 0 -125z m3654 -148 c41 -69 82 -138 92 -155 10 -16 29 -55 43 -85
14 -30 34 -73 44 -95 31 -65 43 -137 30 -184 -6 -23 -15 -41 -20 -41 -6 0 -10
3 -10 8 0 4 -10 8 -23 9 -12 0 -57 6 -100 11 -86 11 -108 28 -127 92 -5 19
-16 45 -24 56 -35 49 -50 117 -48 214 3 116 18 259 32 296 14 36 18 32 111
-126z m-1158 11 c10 -1 7 -85 -6 -162 -13 -73 -37 -109 -73 -109 -13 0 -25 -4
-28 -8 -5 -9 -110 -61 -171 -85 -22 -8 -92 -36 -155 -61 -168 -66 -214 -76
-333 -70 -56 2 -120 7 -142 10 -47 7 -293 23 -452 31 -85 3 -113 8 -117 19 -3
8 0 17 7 19 110 38 307 99 356 111 36 8 80 22 99 30 19 8 45 14 59 14 13 0 41
9 63 20 22 11 45 20 53 20 8 0 54 14 103 31 49 17 114 37 144 45 30 9 59 20
64 25 6 5 27 9 48 9 21 0 66 9 100 19 173 52 206 61 222 61 10 0 32 6 49 14
47 21 60 24 82 21 11 -2 23 -4 28 -4z m1894 -192 c5 -144 4 -162 -9 -151 -12
10 -15 43 -16 174 -1 114 2 158 10 150 6 -6 12 -79 15 -173z m-71 -116 c-3 -8
-11 -11 -17 -8 -10 7 -4 59 10 80 8 13 14 -52 7 -72z m-253 -99 c56 -8 61 -13
40 -44 -16 -23 -66 -123 -76 -151 -4 -11 -15 -14 -41 -11 l-36 4 -2 82 c0 44
-2 88 -3 96 -2 26 17 42 44 36 14 -3 48 -9 74 -12z m287 -19 c21 -14 43 -33
49 -42 38 -73 81 -300 81 -428 -1 -48 -20 -92 -33 -78 -4 3 -7 32 -7 64 0 55
-2 60 -48 108 -50 52 -110 85 -136 75 -10 -4 -13 0 -10 13 5 20 -40 53 -71 53
-21 0 -44 28 -45 52 0 33 61 147 96 177 42 37 72 39 124 6z m403 -5 c63 -74
74 -186 23 -239 -15 -15 -52 -38 -84 -50 -31 -12 -70 -29 -85 -38 -40 -21 -53
-11 -62 44 -3 26 -18 84 -32 127 -30 93 -26 107 47 155 37 24 56 30 107 30 56
1 63 -1 86 -29z m-1249 -52 c9 -17 16 -39 16 -49 0 -10 5 -21 10 -24 6 -3 10
-14 10 -23 0 -20 -56 -46 -66 -31 -3 5 -4 40 -3 77 3 93 8 101 33 50z m2513 0
c7 -5 17 -7 23 -3 9 6 67 -4 133 -22 9 -2 17 -13 17 -24 0 -10 6 -19 14 -19
17 0 38 24 29 33 -10 11 30 8 86 -5 54 -12 67 -25 26 -25 -36 0 -38 -6 -21
-47 13 -32 13 -37 0 -51 -21 -21 -33 -19 -27 5 4 16 0 20 -21 20 -14 0 -26 4
-26 10 0 5 -7 7 -15 4 -8 -4 -15 -12 -15 -20 0 -8 -4 -14 -10 -14 -6 0 -6 -9
0 -26 6 -14 10 -27 10 -29 0 -7 -59 -23 -65 -17 -4 4 -10 7 -13 8 -4 0 -15 4
-25 9 -11 4 -29 2 -45 -6 -15 -7 -31 -15 -35 -17 -5 -2 -7 34 -6 80 2 46 -1
89 -5 96 -15 25 -25 0 -22 -56 4 -74 0 -82 -40 -82 -46 0 -114 -28 -115 -49
-1 -9 -1 -24 0 -33 1 -10 -4 -18 -13 -18 -9 0 -16 -6 -16 -14 0 -20 -25 -65
-45 -79 -14 -11 -20 -38 -24 -110 -1 -5 -5 -6 -10 -3 -4 3 -6 -5 -4 -18 5 -22
3 -23 -44 -15 -68 11 -83 11 -81 -2 3 -13 -58 -33 -77 -25 -7 2 -11 18 -10 40
3 34 1 36 -26 36 -25 0 -29 -4 -29 -30 0 -16 7 -33 16 -38 12 -7 2 -11 -37
-16 -44 -6 -56 -4 -66 10 -11 15 -13 15 -29 -1 -13 -13 -29 -16 -58 -13 -23 3
-50 2 -61 -2 -11 -4 -26 -3 -34 4 -8 6 -17 11 -20 11 -3 0 -6 83 -6 185 l0
185 90 -5 c202 -10 348 10 450 62 107 54 114 59 140 91 48 61 51 62 102 59 26
-2 53 -9 60 -14z m-4587 -49 c315 -19 336 -23 346 -65 8 -33 -5 -131 -22 -174
-9 -21 -13 -49 -9 -71 3 -19 1 -66 -5 -102 -10 -54 -17 -71 -39 -86 -14 -10
-33 -18 -41 -18 -21 0 -70 -33 -70 -47 1 -24 29 -47 64 -53 34 -5 37 -8 36
-42 0 -20 2 -55 4 -78 3 -29 0 -43 -10 -47 -8 -3 -14 -15 -14 -26 0 -15 -7
-20 -29 -20 -25 0 -29 -4 -35 -37 -9 -58 -7 -151 3 -158 13 -7 31 27 32 62 1
19 3 22 5 8 3 -11 10 -39 16 -63 9 -36 8 -49 -7 -82 -10 -22 -22 -40 -27 -40
-15 0 -9 -61 8 -78 14 -13 16 -33 12 -121 -4 -93 -3 -106 14 -123 26 -26 16
-48 -22 -48 -17 0 -29 -4 -25 -9 3 -5 -4 -12 -15 -16 -11 -3 -20 -13 -20 -21
0 -10 -14 -14 -56 -14 -34 0 -53 4 -49 10 3 6 -1 10 -9 10 -9 0 -23 11 -32 25
-20 30 -33 31 -68 4 -20 -15 -26 -29 -26 -58 0 -20 5 -42 12 -49 9 -9 8 -12
-5 -12 -13 0 -17 9 -17 40 0 22 -4 40 -10 40 -5 0 -10 11 -10 24 0 13 -6 29
-14 35 -8 7 -18 30 -21 53 -5 25 -10 36 -15 28 -6 -10 -19 -10 -61 -1 -30 7
-64 14 -75 16 -15 3 -24 16 -32 45 -11 44 -12 43 48 40 l35 -1 0 75 c0 63 -3
78 -20 90 -25 19 -52 20 -58 4 -7 -21 -20 0 -23 37 -2 24 1 35 11 35 7 0 15
-4 17 -10 4 -13 78 21 78 36 0 7 -4 14 -9 16 -5 2 -11 12 -13 23 -5 33 -31 46
-66 33 -29 -11 -32 -9 -81 42 -40 42 -51 59 -47 77 8 28 -8 37 -59 34 -46 -3
-81 25 -73 57 3 10 -3 36 -13 57 -15 30 -16 41 -7 52 7 8 13 36 15 63 2 44 1
48 -22 52 -13 3 -26 0 -29 -6 -2 -6 -5 0 -6 14 -1 23 -2 23 -10 5 l-9 -20 -1
20 -1 20 -10 -20 -9 -20 3 20 c1 14 14 23 40 29 32 8 37 13 37 38 0 24 -4 28
-22 26 -30 -4 -50 -17 -43 -28 3 -4 -2 -14 -11 -21 -14 -11 -15 11 -12 222 3
216 5 236 23 261 l20 27 255 -5 c140 -2 325 -9 410 -15z m4997 -15 c-3 -3 -12
-4 -19 -1 -8 3 -5 6 6 6 11 1 17 -2 13 -5z m-6234 -188 c23 -13 27 -13 27 0 0
8 8 14 18 13 10 0 12 -3 5 -6 -7 -2 -13 -13 -13 -24 0 -12 -7 -19 -18 -19 -25
0 -80 -42 -75 -57 3 -7 -1 -13 -7 -13 -7 0 -10 -7 -6 -16 4 -10 -1 -22 -11
-29 -15 -11 -15 -15 -3 -29 12 -15 11 -18 -8 -23 -12 -3 -22 -10 -22 -15 0
-13 26 -38 39 -38 6 0 20 -5 30 -12 22 -14 55 -3 48 16 -4 10 6 15 36 19 74 9
152 8 177 -1 20 -8 11 -10 -38 -9 -71 0 -85 -7 -54 -29 29 -20 28 -32 -2 -40
-14 -3 -27 -13 -31 -22 -6 -15 -8 -15 -21 2 -13 19 -14 19 -14 -7 0 -15 -4
-27 -9 -27 -5 0 -13 -14 -16 -31 -5 -23 -9 -28 -16 -18 -5 8 -9 24 -9 36 0 14
-9 24 -28 31 -27 9 -28 9 -24 -22 5 -34 -12 -27 -21 9 -4 15 -5 14 -6 -7 -1
-35 -21 -48 -21 -14 0 14 -4 26 -10 26 -5 0 -10 -13 -10 -30 0 -16 -5 -30 -11
-30 -5 0 -8 -4 -5 -9 9 -14 -4 -40 -17 -35 -16 6 -21 152 -7 190 8 20 8 30 1
32 -6 2 -12 13 -13 25 -1 12 -5 -90 -8 -228 l-6 -250 -2 330 c-2 325 -2 331
18 331 11 0 20 -5 20 -12 0 -8 12 -9 45 -1 38 9 45 14 45 34 0 27 14 29 53 9z
m100 -3 c-7 -2 -19 -2 -25 0 -7 3 -2 5 12 5 14 0 19 -2 13 -5z m-296 -941 c-1
-169 -2 -28 -2 313 0 341 1 479 2 307 2 -172 2 -451 0 -620z m4841 791 l-3
-138 -42 -3 c-34 -2 -50 2 -76 22 -19 14 -41 26 -50 26 -31 0 -47 13 -48 39 0
23 -1 24 -8 6 -7 -18 -9 -16 -15 12 -10 43 7 70 52 83 20 5 69 28 107 49 39
22 74 40 78 40 4 1 7 -61 5 -136z m-4538 92 c0 -14 -6 -25 -14 -25 -8 0 -12 9
-11 23 3 27 3 27 15 27 6 0 10 -11 10 -25z m-10 -125 c12 -8 9 -10 -13 -10
-16 0 -26 4 -22 10 8 12 16 12 35 0z m-135 -10 c3 -5 1 -10 -4 -10 -6 0 -11 5
-11 10 0 6 2 10 4 10 3 0 8 -4 11 -10z m345 -30 c0 -5 -4 -10 -10 -10 -5 0
-10 5 -10 10 0 6 5 10 10 10 6 0 10 -4 10 -10z m-345 -10 c3 -5 2 -10 -4 -10
-5 0 -13 5 -16 10 -3 6 -2 10 4 10 5 0 13 -4 16 -10z m344 -46 c14 -13 -59
-30 -86 -20 -13 5 -13 9 -2 22 9 11 22 14 48 9 20 -4 38 -9 40 -11z m4338 -50
c-9 -9 -28 6 -21 18 4 6 10 6 17 -1 6 -6 8 -13 4 -17z m-4534 -49 c-7 -21 -13
-19 -13 6 0 11 4 18 10 14 5 -3 7 -12 3 -20z m2448 -180 c39 -21 51 -35 69
-80 19 -46 21 -65 15 -120 -10 -93 -57 -153 -183 -235 -118 -77 -156 -94 -191
-84 -39 11 -61 12 -61 3 0 -5 6 -9 13 -10 6 0 -1 -5 -17 -9 -34 -11 -59 -1
-30 12 12 5 4 6 -21 2 -22 -3 -41 -10 -43 -15 -2 -5 -14 -9 -27 -9 -13 0 -28
-7 -33 -16 -7 -13 -13 -14 -31 -5 -14 8 -27 9 -39 2 -32 -17 -147 23 -159 55
-8 21 -61 18 -66 -3 -4 -14 -5 -12 -6 5 0 12 -5 22 -11 22 -6 0 -10 28 -10 63
0 48 6 74 26 112 31 60 86 119 128 139 166 77 208 95 237 101 19 4 84 25 144
47 178 64 218 67 296 23z m3499 9 c0 -3 -6 -18 -14 -32 -29 -58 -45 -127 -40
-184 4 -41 -1 -73 -16 -120 -12 -35 -25 -90 -30 -123 -4 -33 -12 -73 -18 -90
-52 -152 -54 -271 -4 -431 13 -42 76 -162 107 -204 30 -40 30 -44 7 -78 -10
-15 -28 -63 -41 -108 -28 -99 -22 -143 25 -198 19 -22 34 -43 34 -47 0 -5 29
-24 64 -44 86 -48 93 -57 63 -87 -13 -13 -37 -46 -52 -73 -16 -28 -41 -64 -56
-82 -15 -17 -30 -42 -34 -55 -4 -13 -25 -45 -46 -72 -22 -27 -39 -54 -39 -62
0 -18 -59 -125 -81 -146 -9 -10 -21 -28 -25 -40 -7 -22 -7 -22 -14 -3 -5 14
-8 6 -13 -28 -4 -26 -18 -69 -32 -97 -14 -27 -22 -50 -18 -51 5 0 -1 -4 -12
-9 -28 -12 -123 -12 -130 0 -3 6 -26 10 -50 10 -42 0 -68 15 -48 29 6 3 29 41
51 83 60 114 93 170 119 201 24 30 30 57 13 57 -15 0 -50 -38 -50 -54 0 -8
-24 -39 -52 -69 -66 -67 -103 -111 -125 -148 -10 -16 -20 -29 -24 -29 -4 0
-10 -13 -14 -30 -6 -26 -11 -30 -40 -30 -19 0 -37 -5 -41 -11 -3 -6 -15 -8
-26 -6 -10 3 -21 0 -24 -7 -3 -7 -11 -13 -19 -13 -8 0 -12 4 -10 8 3 3 -4 9
-15 12 -25 7 -28 1 -25 -50 3 -41 -7 -58 -18 -30 -3 7 -6 5 -6 -5 -1 -10 -7
-18 -15 -18 -28 0 -7 72 30 108 27 26 33 39 29 61 -3 20 3 35 25 60 17 18 30
37 30 43 0 10 53 91 126 197 7 9 15 29 18 44 6 26 5 27 -14 17 -11 -6 -28 -23
-37 -38 -10 -15 -39 -49 -65 -75 -26 -26 -51 -59 -54 -72 -3 -13 -17 -31 -30
-40 -13 -8 -36 -39 -50 -68 -15 -28 -30 -53 -35 -55 -5 -2 -9 -9 -9 -15 0 -22
-102 -133 -130 -142 -10 -3 -20 -15 -23 -25 -9 -36 -77 -47 -77 -13 0 12 -9
14 -42 10 -24 -3 -35 -3 -25 0 25 7 21 23 -5 20 -20 -2 -23 3 -24 33 -2 53 -3
60 -11 60 -15 0 -34 -17 -37 -31 -5 -26 -18 -49 -28 -49 -5 0 -6 5 -3 10 3 6
1 10 -5 10 -6 0 -8 10 -4 24 3 13 -1 40 -10 60 -13 32 -18 36 -35 27 -11 -6
-27 -11 -36 -11 -9 0 -27 -12 -40 -27 -15 -18 -27 -25 -33 -18 -14 15 -23 73
-12 80 6 3 10 16 10 28 0 12 7 35 15 51 8 16 17 42 20 58 4 23 1 30 -17 37
-19 7 -24 4 -32 -16 -5 -15 -13 -22 -22 -19 -13 5 -18 -5 -15 -30 2 -15 -58
-66 -69 -59 -16 10 -12 24 23 73 17 26 39 62 47 82 26 60 79 158 89 164 5 3
29 -17 52 -46 77 -91 168 -112 307 -69 82 26 109 52 148 142 17 41 23 73 24
131 0 75 -1 78 -51 158 -27 45 -49 90 -47 100 3 21 241 276 295 317 25 19 45
26 69 25 47 -3 43 10 -11 37 -35 17 -49 20 -65 11 -11 -6 -20 -14 -20 -18 0
-4 -4 -13 -9 -20 -7 -11 -12 -11 -28 -2 -12 8 -33 10 -56 6 -43 -8 -59 -26
-24 -26 51 0 40 -29 -45 -119 -46 -48 -96 -102 -111 -119 -16 -18 -33 -32 -37
-32 -5 0 -17 12 -28 28 -30 44 -112 203 -112 218 0 8 -5 23 -12 34 -10 15 -9
33 4 87 25 99 53 468 65 828 2 66 7 143 11 170 l7 50 170 12 c243 16 665 67
805 97 75 16 100 18 100 10z m-5339 -139 c-1 -15 -24 -12 -29 3 -3 9 2 13 12
10 10 -1 17 -7 17 -13z m3464 -7 c8 -8 -11 -46 -38 -75 -28 -32 -77 -30 -116
3 -36 30 -39 46 -10 65 21 14 151 20 164 7z m473 -127 c2 -94 -2 -159 -14
-215 -9 -45 -22 -122 -29 -171 -15 -96 -29 -145 -43 -145 -4 0 -20 24 -33 53
-14 28 -62 124 -108 212 -64 124 -81 167 -78 190 3 17 13 69 22 117 l17 87 87
4 c47 2 106 3 131 3 l45 -1 3 -134z m-4028 32 c20 -35 21 -39 6 -64 -9 -15
-16 -34 -16 -43 0 -9 -5 -16 -11 -16 -7 0 -9 12 -5 35 5 27 3 37 -9 41 -9 4
-15 19 -15 38 0 58 19 61 50 9z m3320 -17 c0 -11 -19 -15 -25 -6 -3 5 1 10 9
10 9 0 16 -2 16 -4z m-4123 -43 c-3 -10 -5 -4 -5 12 0 17 2 24 5 18 2 -7 2
-21 0 -30z m4412 -53 c37 -52 224 -402 267 -500 24 -57 24 -124 -1 -175 -20
-40 -86 -94 -117 -95 -31 0 -75 49 -98 110 -12 33 -28 64 -35 68 -6 4 -18 19
-26 34 -34 65 -138 243 -202 347 -102 165 -117 216 -69 226 15 4 46 10 69 16
23 5 59 9 80 10 21 0 47 4 58 9 28 12 30 11 74 -50z m-3653 -2 c-1 -24 4 -49
11 -56 7 -7 13 -29 13 -47 0 -34 -14 -54 -25 -35 -3 5 -1 10 6 10 8 0 8 4 -2
16 -14 17 -15 21 -25 102 -5 42 -4 52 8 52 10 0 14 -12 14 -42z m-759 -40 c-3
-7 -5 -2 -5 12 0 14 2 19 5 13 2 -7 2 -19 0 -25z m573 28 c0 -11 -19 -15 -25
-6 -3 5 1 10 9 10 9 0 16 -2 16 -4z m3350 -18 c-1 -22 -20 -114 -54 -263 -9
-38 -36 -175 -61 -303 -50 -260 -72 -343 -108 -420 l-25 -53 -45 93 c-48 98
-81 186 -103 278 -12 52 -11 62 17 175 76 302 117 441 136 460 8 8 33 15 56
16 23 0 67 8 97 19 76 25 90 25 90 -2z m180 -163 c75 -133 163 -291 199 -359
39 -75 41 -84 41 -163 0 -120 -20 -150 -135 -213 -33 -18 -67 -38 -75 -45 -8
-7 -54 -36 -103 -65 -76 -45 -107 -73 -107 -94 0 -17 37 0 112 50 139 95 248
138 248 99 0 -20 -89 -189 -137 -262 -70 -107 -188 -205 -228 -189 -7 2 -16
18 -20 35 -5 22 -12 31 -26 31 -12 0 -28 14 -40 35 -12 20 -30 40 -40 46 -11
5 -19 14 -19 19 0 5 32 30 70 55 69 45 89 75 50 75 -10 0 -41 -14 -67 -30 -26
-17 -51 -26 -56 -21 -10 10 5 102 38 226 23 87 61 286 86 450 19 127 61 306
116 495 2 8 19 -19 37 -60 19 -41 44 -93 56 -115z m2203 119 c43 -46 153 -128
243 -180 16 -9 9 -13 -46 -22 -105 -19 -160 -76 -160 -166 0 -98 76 -175 188
-192 100 -15 203 55 217 149 9 60 1 84 -48 134 -52 54 -43 70 30 55 84 -18
260 -27 523 -26 258 0 286 3 570 54 95 17 192 55 274 109 43 28 81 51 85 51
18 -1 33 -23 66 -99 30 -68 38 -101 42 -165 14 -222 -144 -565 -321 -695 -63
-47 -72 -59 -57 -74 14 -14 81 17 140 65 25 21 51 38 58 38 18 0 49 -57 77
-142 29 -85 26 -113 -17 -141 -33 -21 -169 -64 -232 -73 -27 -4 -61 -11 -74
-16 -34 -12 -264 -38 -343 -38 -37 0 -79 5 -93 12 -32 14 -55 56 -55 98 0 34
9 40 100 60 75 17 116 38 101 53 -8 8 -26 8 -69 -2 -166 -38 -502 -19 -621 35
-35 16 -58 21 -64 15 -18 -18 3 -42 58 -67 62 -29 69 -47 34 -96 -32 -44 -55
-49 -154 -32 -99 18 -346 94 -416 130 -48 24 -109 100 -109 135 0 23 30 139
41 162 15 27 35 21 75 -23 37 -40 64 -51 64 -27 0 12 -12 31 -78 118 -62 81
-133 208 -157 280 -32 93 -33 208 -5 340 12 52 25 114 30 139 12 62 27 100 41
100 6 0 34 -25 62 -56z m-2734 17 c16 -10 13 -29 -21 -151 -12 -47 -27 -85
-33 -85 -9 0 -26 221 -17 238 5 10 54 9 71 -2z m3042 -292 c90 -39 117 -127
59 -193 -17 -19 -46 -40 -65 -46 -49 -16 -139 5 -182 43 -29 26 -33 35 -33 82
0 113 101 165 221 114z m-4054 -21 c-3 -8 -6 -5 -6 6 -1 11 2 17 5 13 3 -3 4
-12 1 -19z m1917 -453 c31 -23 96 -28 145 -11 24 9 45 16 48 16 8 0 -10 -77
-33 -135 -12 -33 -32 -89 -44 -125 -37 -112 -118 -248 -191 -321 -92 -92 -125
-115 -193 -134 -67 -20 -149 -16 -172 7 -14 13 -6 25 70 99 48 46 95 102 107
126 11 23 28 52 38 65 41 54 101 179 125 262 14 50 30 94 36 100 5 5 10 20 10
31 0 37 21 45 54 20z m605 -309 c16 -23 44 -70 61 -104 17 -34 35 -64 41 -67
5 -4 23 -34 41 -68 38 -77 49 -170 24 -219 -34 -69 -59 -89 -122 -97 -60 -8
-84 -6 -84 9 0 5 -12 11 -27 15 -30 6 -93 56 -93 73 0 5 -7 15 -15 22 -19 16
-19 60 -1 97 8 15 35 100 61 188 54 187 62 208 75 200 5 -3 23 -25 39 -49z
m2035 -185 c3 -5 15 -7 25 -4 32 8 33 -15 1 -33 -16 -10 -30 -21 -31 -24 0 -3
-2 -18 -4 -35 -8 -61 -16 -80 -26 -64 -5 9 -9 10 -9 2 0 -7 -16 -15 -35 -19
-39 -7 -46 -13 -81 -80 -14 -27 -39 -63 -55 -80 -17 -17 -33 -44 -38 -60 -5
-19 -15 -30 -29 -32 -13 -2 -29 -14 -38 -27 -8 -13 -21 -26 -29 -29 -11 -4
-11 1 1 30 8 18 23 49 34 66 11 18 20 41 20 50 0 9 8 23 19 30 10 7 29 34 41
60 12 26 28 52 36 59 8 6 14 17 14 24 0 7 16 36 35 64 19 28 35 53 35 55 0 3
4 16 10 30 8 23 15 26 54 26 25 0 47 -4 50 -9z m170 -27 c4 -15 4 -39 1 -54
-7 -32 2 -43 75 -90 50 -32 58 -34 164 -38 111 -5 132 -12 116 -42 -4 -8 -11
-57 -15 -109 -5 -52 -14 -106 -21 -120 -8 -14 -14 -40 -14 -57 0 -17 -9 -43
-21 -58 -11 -14 -18 -30 -15 -35 3 -5 -1 -28 -9 -51 -8 -23 -15 -55 -15 -69 0
-15 -5 -32 -11 -38 -8 -8 -7 -20 5 -44 17 -34 14 -89 -5 -89 -5 0 -9 -11 -9
-25 0 -21 -5 -25 -30 -25 -25 0 -31 -5 -36 -28 -6 -32 -44 -63 -44 -37 0 27
-19 16 -22 -12 -3 -27 -4 -28 -63 -25 -33 2 -63 8 -67 15 -11 17 -36 -11 -53
-59 -7 -21 -20 -40 -28 -42 -13 -3 -15 6 -11 48 2 32 0 49 -6 45 -6 -3 -10 2
-10 12 0 24 39 164 51 183 23 37 39 82 39 112 1 18 7 56 14 83 13 50 5 95 -16
95 -22 0 -78 -54 -78 -74 0 -12 -17 -39 -38 -59 -34 -33 -40 -36 -52 -23 -14
18 -10 64 11 113 10 25 10 37 1 57 -18 39 -47 33 -84 -19 -34 -46 -48 -55 -48
-31 0 8 -10 17 -22 21 -62 17 -88 51 -55 72 7 4 25 27 40 51 15 23 31 42 36
42 22 0 73 63 90 112 51 142 67 168 108 168 26 0 43 31 43 80 0 20 6 31 20 35
11 3 20 10 20 15 0 8 20 16 46 19 7 0 15 -11 18 -25z m1066 -38 c0 -27 -11
-38 -26 -28 -9 6 -10 21 -6 45 5 19 32 5 32 -17z m1997 -23 c-4 -3 -2 -12 4
-20 9 -10 8 -17 -1 -29 -12 -13 -15 -13 -28 -1 -17 18 -7 57 15 57 9 0 13 -3
10 -7z m-7123 -56 c4 -19 3 -26 -4 -22 -5 3 -10 18 -10 32 0 32 5 28 14 -10z
m3616 -7 c12 0 12 -3 -2 -14 -10 -7 -18 -19 -18 -26 0 -11 -10 -24 -62 -81
-10 -10 -18 -23 -18 -29 0 -5 -5 -10 -11 -10 -6 0 -19 -10 -30 -22 l-18 -23
-1 30 c0 17 9 62 21 100 12 39 23 75 24 81 2 8 19 9 52 3 26 -4 55 -8 63 -9z
m3555 -82 c2 -7 6 -42 9 -78 2 -36 9 -89 16 -118 12 -55 4 -82 -25 -82 -16 0
-27 -35 -25 -79 1 -23 -2 -31 -10 -26 -23 14 -38 70 -34 125 4 49 2 59 -21 85
-27 32 -31 50 -15 60 5 3 15 -6 22 -20 9 -21 17 -25 42 -22 39 4 44 29 21 98
-8 28 -13 54 -10 59 9 14 25 12 30 -2z m-112 -28 c3 -11 1 -18 -4 -14 -5 3 -9
12 -9 20 0 20 7 17 13 -6z m-6653 -342 c0 -5 -4 -8 -10 -8 -5 0 -10 10 -10 23
0 18 2 19 10 7 5 -8 10 -18 10 -22z m7196 -133 c-8 -23 -20 -18 -38 18 -16 30
-22 91 -10 111 7 13 55 -113 48 -129z m-7146 95 c0 -11 -4 -20 -9 -20 -5 0 -7
9 -4 20 3 11 7 20 9 20 2 0 4 -9 4 -20z m970 -47 c0 -18 -20 -56 -20 -39 0 5
-7 3 -15 -4 -8 -7 -13 -16 -10 -20 7 -11 -13 -23 -43 -26 -20 -2 -22 -1 -10 9
8 7 29 31 47 55 35 45 51 53 51 25z m2385 -73 c9 -15 -4 -70 -17 -70 -6 0 -8
9 -5 19 2 10 1 25 -4 32 -8 14 -3 29 11 29 5 0 12 -5 15 -10z m3835 -80 c0
-31 -17 -39 -38 -18 -13 13 -16 50 -6 61 15 14 44 -15 44 -43z m-6090 10 c0
-12 -28 -25 -36 -17 -9 9 6 27 22 27 8 0 14 -5 14 -10z m148 -12 c-6 -18 -28
-21 -28 -4 0 9 7 16 16 16 9 0 14 -5 12 -12z m1942 -11 c81 -27 150 -91 150
-139 0 -26 -46 -74 -88 -91 -20 -8 -68 -18 -105 -22 -72 -8 -90 -22 -66 -51
11 -14 25 -15 79 -9 136 16 131 17 164 -48 22 -43 30 -77 34 -132 l5 -74 -54
-25 c-97 -44 -265 -78 -386 -77 -213 1 -679 56 -773 91 -14 5 -65 21 -115 35
-140 42 -229 88 -249 129 -22 46 -21 56 15 182 36 125 59 176 91 198 53 38
268 5 593 -89 31 -9 75 -32 98 -51 44 -35 153 -94 175 -94 18 0 26 28 12 44
-6 8 -24 17 -39 21 -16 3 -45 21 -65 39 -48 45 -50 92 -5 130 54 46 107 46
127 2 9 -20 7 -28 -9 -47 -20 -24 -20 -24 0 -40 20 -17 68 -28 232 -54 119
-19 163 -19 178 -1 17 21 3 43 -37 59 -48 19 -111 104 -96 128 7 12 77 5 134
-14z m-2430 -22 c-7 -9 -15 -13 -19 -10 -3 3 1 10 9 15 21 14 24 12 10 -5z
m4626 -10 c-2 -14 -16 -22 -16 -10 0 3 0 10 0 15 0 6 4 10 9 10 5 0 8 -7 7
-15z m2274 -109 c0 -3 -7 -6 -15 -6 -9 0 -15 9 -15 21 0 18 2 19 15 5 8 -8 15
-17 15 -20z m-7113 -13 c-9 -9 -20 -13 -24 -9 -4 4 -1 11 7 16 25 16 35 11 17
-7z m-632 -13 c3 -5 29 -10 56 -10 47 0 49 -1 34 -16 -10 -10 -33 -17 -56 -17
-29 0 -44 -6 -57 -22 -9 -12 -21 -21 -26 -21 -9 1 -20 -16 -31 -49 -7 -19 -8
-19 -18 4 -13 28 7 71 41 86 13 6 20 16 17 23 -10 27 25 46 40 22z m430 -9
c10 -18 -33 -33 -56 -20 -16 8 -27 8 -45 -1 -12 -7 -29 -10 -37 -7 -7 3 -33 1
-58 -3 -32 -6 -50 -4 -69 6 -23 13 -20 14 40 9 42 -3 60 -2 51 4 -11 7 -4 11
25 14 79 8 143 7 149 -2z m3109 -103 c6 -41 -16 -61 -34 -28 -14 27 -12 41 7
56 22 15 20 17 27 -28z m4282 -6 c5 -26 3 -32 -10 -32 -23 0 -40 48 -25 67 15
18 27 6 35 -35z m-3552 -97 c-14 -78 80 -138 222 -139 45 -1 86 2 90 7 4 4 11
32 15 64 4 31 14 60 21 64 31 20 148 -34 148 -69 0 -10 -14 -26 -31 -36 -17
-10 -64 -48 -104 -85 -67 -61 -135 -110 -135 -97 0 3 9 14 21 25 27 25 21 55
-12 59 -46 5 -119 -77 -119 -135 0 -23 39 -73 57 -73 8 0 29 11 47 25 42 34
46 37 86 65 19 13 71 54 115 91 181 151 398 237 570 227 88 -6 147 -26 228
-81 66 -44 87 -87 87 -181 0 -96 -24 -130 -97 -140 -27 -4 -70 -14 -98 -22
-254 -73 -355 -107 -423 -144 -38 -20 -149 -67 -212 -90 -19 -7 -82 -19 -138
-28 -143 -21 -182 -10 -343 95 -20 13 -70 55 -112 94 -64 58 -77 76 -77 101 0
31 40 109 83 162 22 28 24 28 53 13 43 -22 149 -48 168 -41 43 17 6 53 -91 89
-52 20 -83 38 -108 66 -39 44 -42 57 -19 100 16 33 43 47 87 48 27 1 28 -1 21
-34z m3722 -18 c-3 -12 0 -27 5 -34 14 -16 3 -33 -21 -33 -23 0 -34 30 -25 69
5 23 10 28 26 24 15 -4 19 -11 15 -26z m-136 -21 c0 -31 -12 -39 -35 -22 -23
16 -13 46 15 46 15 0 20 -7 20 -24z m569 -66 l0 -25 -19 24 c-20 23 -26 61
-13 75 10 10 32 -42 32 -74z m-6522 -38 c91 -55 298 -125 433 -146 94 -15 231
-39 300 -53 45 -9 -2 -24 -92 -29 -127 -8 -435 49 -593 110 -22 8 -46 15 -53
16 -24 0 -82 45 -93 73 -9 21 -9 34 0 53 6 14 15 24 19 22 4 -2 39 -22 79 -46z
m6363 -12 c0 -5 -7 -10 -15 -10 -8 0 -15 5 -15 10 0 6 7 10 15 10 8 0 15 -4
15 -10z m0 -45 c0 -9 -6 -12 -15 -9 -8 4 -15 10 -15 15 0 5 7 9 15 9 8 0 15
-7 15 -15z m-4842 -107 c-6 -16 -85 -38 -138 -37 -40 0 -42 1 -20 10 20 8 118
32 153 38 5 0 7 -4 5 -11z m5547 -69 c0 -7 -8 -15 -17 -17 -18 -3 -25 18 -11
32 10 10 28 1 28 -15z m-5887 4 c-10 -2 -26 -2 -35 0 -10 3 -2 5 17 5 19 0 27
-2 18 -5z m5906 -69 c9 -3 16 -12 16 -19 0 -7 7 -18 15 -25 16 -14 21 -60 6
-60 -24 0 -41 14 -41 33 0 11 -7 28 -16 38 -9 10 -13 23 -9 28 7 13 8 13 29 5z
m-147 -96 c-3 -7 -5 -2 -5 12 0 14 2 19 5 13 2 -7 2 -19 0 -25z m-4726 -35
c32 -31 59 -60 59 -65 0 -30 -107 28 -129 71 -10 18 -6 51 6 51 2 0 31 -25 64
-57z m4679 -42 c0 -8 -23 -21 -36 -21 -2 0 -4 11 -4 25 0 23 2 24 20 15 11 -6
20 -15 20 -19z m243 5 c3 3 11 3 18 -2 9 -5 5 -10 -12 -16 -15 -6 -25 -5 -27
1 -2 6 -11 11 -20 11 -14 0 -15 2 -2 10 9 5 19 5 26 0 6 -6 14 -7 17 -4z m151
-103 c-4 -29 -2 -48 6 -59 9 -10 10 -18 2 -26 -17 -17 -34 1 -27 32 3 16 2 31
-4 35 -12 7 -15 107 -4 118 14 15 34 -57 27 -100z m-180 -4 c-9 -14 -27 -6
-30 14 -2 14 1 15 17 6 11 -5 17 -15 13 -20z m193 -234 c3 -90 1 -98 -12 -81
-8 11 -15 34 -15 50 0 17 -4 47 -8 66 -11 46 -4 72 16 68 14 -3 17 -19 19
-103z"/>
<path d="M2151 10044 c0 -11 3 -14 6 -6 3 7 2 16 -1 19 -3 4 -6 -2 -5 -13z"/>
<path d="M9737 9539 c8 -8 16 -8 30 0 16 9 14 10 -11 11 -22 0 -27 -3 -19 -11z"/>
<path d="M7871 8241 c-8 -5 -9 -11 -3 -15 5 -3 12 1 16 9 6 17 6 18 -13 6z"/>
<path d="M8000 8220 c0 -5 5 -10 10 -10 6 0 10 5 10 10 0 6 -4 10 -10 10 -5 0
-10 -4 -10 -10z"/>
<path d="M8727 8213 c-13 -12 -7 -53 7 -53 17 0 25 18 18 43 -5 18 -14 22 -25
10z"/>
<path d="M8075 8190 c3 -5 12 -10 20 -10 8 0 17 5 20 10 4 6 -5 10 -20 10 -15
0 -24 -4 -20 -10z"/>
<path d="M8205 8180 c-3 -5 -3 -10 2 -11 4 0 -1 -4 -12 -9 -17 -6 -14 -9 18
-15 40 -8 62 2 49 21 -10 17 -49 26 -57 14z"/>
<path d="M5214 7846 c-6 -17 2 -36 17 -36 12 0 12 37 -1 45 -6 3 -13 -1 -16
-9z"/>
<path d="M3142 2980 c0 -14 2 -19 5 -12 2 6 2 18 0 25 -3 6 -5 1 -5 -13z"/>
<path d="M3220 3350 c0 -5 5 -10 10 -10 6 0 10 5 10 10 0 6 -4 10 -10 10 -5 0
-10 -4 -10 -10z"/>
<path d="M3541 3234 c0 -11 3 -14 6 -6 3 7 2 16 -1 19 -3 4 -6 -2 -5 -13z"/>
<path d="M3530 3181 c0 -13 12 -20 26 -14 20 8 17 19 -6 20 -11 1 -20 -2 -20
-6z"/>
<path d="M3860 2661 c0 -5 7 -11 15 -15 8 -3 15 -1 15 3 0 5 -7 11 -15 15 -8
3 -15 1 -15 -3z"/>
<path d="M2385 7277 c-4 -10 -5 -21 -1 -24 10 -10 18 4 13 24 -4 17 -4 17 -12
0z"/>
<path d="M6548 6213 c-39 -45 -49 -103 -27 -160 12 -32 53 -97 83 -131 18 -20
22 -42 26 -130 7 -128 22 -165 95 -237 89 -86 217 -118 307 -77 20 9 52 37 72
60 43 53 81 166 72 216 -8 41 -73 134 -118 168 -86 65 -146 102 -240 149 -69
34 -121 68 -159 105 -60 57 -86 65 -111 37z"/>
<path d="M8180 6105 c0 -8 21 -45 47 -82 55 -79 102 -188 110 -255 3 -26 0
-75 -6 -109 -21 -102 23 -109 48 -7 16 68 14 98 -14 185 -44 139 -185 343
-185 268z"/>
<path d="M7207 5973 c-13 -23 -16 -107 -7 -172 8 -55 18 -85 43 -121 58 -85
132 -133 167 -109 11 8 12 12 3 15 -60 25 -131 109 -154 182 -6 20 -13 71 -14
114 -2 42 -6 81 -9 87 -8 13 -23 14 -29 4z"/>
<path d="M5923 5292 c-10 -6 -9 -14 1 -34 8 -15 12 -29 8 -32 -3 -3 -1 -6 4
-6 5 0 17 14 26 30 9 17 13 30 7 30 -6 0 -7 5 -4 10 7 12 -24 13 -42 2z"/>
<path d="M6210 5280 c0 -5 7 -10 15 -10 8 0 15 5 15 10 0 6 -7 10 -15 10 -8 0
-15 -4 -15 -10z"/>
<path d="M6186 5182 c-3 -6 -1 -14 5 -17 15 -10 25 3 12 16 -7 7 -13 7 -17 1z"/>
<path d="M5265 4931 c-48 -6 -49 -7 -26 -19 20 -12 23 -20 18 -53 -5 -38 8
-54 19 -24 9 21 39 19 50 -4 8 -17 12 -18 26 -7 15 11 16 18 7 45 -9 24 -9 35
0 44 27 27 11 30 -94 18z"/>
<path d="M5690 4850 c-12 -8 -10 -10 8 -10 13 0 20 4 17 10 -7 12 -6 12 -25 0z"/>
<path d="M786 4994 c-18 -17 -19 -24 -10 -48 3 -9 10 -13 15 -10 5 3 9 -1 9
-8 1 -7 9 -3 20 10 18 22 18 25 4 48 -19 28 -18 28 -38 8z"/>
<path d="M932 4939 c-3 -61 11 -84 40 -68 17 9 19 17 13 47 -16 86 -49 99 -53
21z"/>
<path d="M1105 4540 c-8 -13 4 -32 16 -25 12 8 12 35 0 35 -6 0 -13 -4 -16
-10z"/>
<path d="M1332 4488 c-19 -19 -14 -42 13 -68 l25 -23 0 35 c0 61 -13 81 -38
56z"/>
<path d="M1103 4474 c-3 -9 -1 -19 5 -23 5 -3 12 -17 15 -31 2 -15 5 -5 6 23
1 46 -13 64 -26 31z"/>
<path d="M1352 4222 c-18 -6 -64 -81 -57 -92 4 -6 12 -10 20 -10 16 0 25 -11
30 -41 5 -27 15 -38 15 -16 0 8 4 17 8 19 21 9 54 70 48 92 -7 27 -44 55 -64
48z"/>
<path d="M1323 3995 c0 -8 7 -17 16 -20 13 -5 14 -7 1 -15 -19 -12 -19 -32 -1
-46 25 -19 42 7 31 47 -12 42 -47 67 -47 34z"/>
<path d="M40 4996 c0 -48 2 -55 19 -53 26 2 32 38 13 77 -22 45 -32 37 -32
-24z"/>
<path d="M5820 3309 c0 -5 9 -9 20 -9 11 0 20 2 20 4 0 2 -9 6 -20 9 -11 3
-20 1 -20 -4z"/>
<path d="M5924 2785 c-7 -17 1 -45 13 -45 13 0 34 40 28 50 -9 15 -35 12 -41
-5z"/>
<path d="M5740 2608 c0 -19 2 -20 10 -8 13 19 13 30 0 30 -5 0 -10 -10 -10
-22z"/>
<path d="M5868 2559 c-10 -5 -18 -17 -18 -25 0 -19 16 -10 30 17 12 22 11 22
-12 8z"/>
<path d="M5798 2483 c-26 -31 -52 -82 -45 -89 11 -11 77 63 77 86 0 25 -12 26
-32 3z"/>
<path d="M5692 2334 c-12 -8 -31 -32 -42 -53 -16 -32 -17 -41 -6 -56 12 -17
14 -17 34 3 12 12 24 34 28 49 3 16 13 38 20 51 18 27 1 31 -34 6z"/>
<path d="M6051 2334 c0 -11 3 -14 6 -6 3 7 2 16 -1 19 -3 4 -6 -2 -5 -13z"/>
<path d="M5540 2150 c0 -5 9 -10 21 -10 11 0 17 5 14 10 -3 6 -13 10 -21 10
-8 0 -14 -4 -14 -10z"/>
<path d="M5193 2085 c-11 -12 -8 -25 8 -25 10 0 20 28 11 34 -4 2 -12 -2 -19
-9z"/>
<path d="M5130 2070 c0 -5 6 -10 14 -10 8 0 18 5 21 10 3 6 -3 10 -14 10 -12
0 -21 -4 -21 -10z"/>
<path d="M7324 3831 c-70 -12 -158 -92 -170 -156 -17 -95 34 -165 150 -203 94
-31 134 -29 192 11 63 43 84 84 84 168 l0 66 -49 46 c-33 31 -66 51 -102 61
-29 9 -55 15 -58 15 -3 -1 -24 -4 -47 -8z m140 -80 c53 -33 66 -57 66 -121 0
-48 -4 -60 -27 -82 -39 -36 -66 -48 -106 -48 -45 0 -140 36 -172 66 -47 44
-26 130 46 183 59 44 123 45 193 2z"/>
<path d="M7240 1911 c0 -23 5 -30 25 -33 34 -7 48 13 29 40 -23 33 -54 29 -54
-7z"/>
<path d="M7370 1912 c0 -17 25 -32 52 -32 32 0 35 7 11 26 -20 15 -63 19 -63
6z"/>
<path d="M6197 10785 c-4 -8 -2 -17 3 -20 6 -4 10 3 10 14 0 25 -6 27 -13 6z"/>
<path d="M6290 10785 c12 -15 30 -12 30 6 0 5 -10 9 -21 9 -18 0 -19 -2 -9
-15z"/>
<path d="M6355 10760 c-10 -17 12 -37 25 -24 8 8 6 15 -4 23 -10 9 -16 9 -21
1z"/>
<path d="M6290 10725 c0 -8 4 -15 10 -15 5 0 7 7 4 15 -4 8 -8 15 -10 15 -2 0
-4 -7 -4 -15z"/>
<path d="M5650 10650 c0 -5 5 -10 11 -10 5 0 7 5 4 10 -3 6 -8 10 -11 10 -2 0
-4 -4 -4 -10z"/>
<path d="M12931 9545 c-1 -6 -38 -9 -98 -7 -94 4 -239 -13 -248 -28 -2 -4 33
-10 78 -14 99 -9 103 -9 194 0 l72 7 4 -34 4 -34 3 40 3 40 7 -40 c7 -38 7
-36 8 20 1 37 -2 55 -7 46 -7 -11 -9 -11 -14 0 -3 8 -6 10 -6 4z"/>
<path d="M10320 9283 c-1 -16 -12 -53 -25 -83 -20 -46 -21 -57 -10 -69 19 -19
47 -6 73 36 20 31 22 40 12 67 -30 80 -50 99 -50 49z"/>
<path d="M10062 9204 c3 -54 23 -68 52 -39 19 19 22 75 4 75 -7 0 -23 3 -36 6
-22 6 -23 5 -20 -42z"/>
<path d="M10394 9195 c-7 -18 21 -65 39 -65 21 0 37 22 37 52 0 25 -3 28 -35
28 -23 0 -38 -6 -41 -15z"/>
<path d="M10528 9189 c13 -14 16 -61 5 -73 -5 -4 -12 -26 -18 -48 -9 -37 -14
-42 -58 -56 -26 -8 -45 -17 -42 -20 6 -6 70 -4 105 3 14 3 57 10 95 15 39 5
99 18 135 29 36 11 74 21 85 24 11 3 0 5 -24 6 -42 1 -43 2 -37 29 4 15 19 37
34 49 31 26 23 31 -13 7 -15 -10 -34 -14 -49 -10 -29 7 -43 -8 -48 -53 -3 -31
-7 -35 -52 -48 -26 -8 -51 -12 -54 -8 -3 3 -1 23 5 45 8 33 7 44 -11 77 -14
25 -30 39 -46 41 -20 3 -23 1 -12 -9z"/>
<path d="M11124 9170 c-6 -6 -42 -14 -81 -17 -62 -5 -71 -8 -85 -33 -28 -49
17 -65 100 -36 22 8 72 18 111 22 39 3 79 13 88 20 17 13 17 15 -2 30 -12 9
-31 13 -47 10 -15 -3 -30 -1 -33 4 -8 13 -38 13 -51 0z"/>
<path d="M9965 8907 c-8 -4 -15 -12 -15 -17 0 -16 62 -10 105 10 l40 19 -58
-2 c-31 -1 -64 -5 -72 -10z"/>
<path d="M9811 8869 c-13 -5 -21 -12 -18 -15 8 -9 67 6 67 17 0 11 -18 11 -49
-2z"/>
<path d="M12888 8453 c-33 -17 -84 -80 -93 -116 -4 -15 -21 -36 -39 -46 -87
-55 -115 -120 -95 -224 12 -66 -2 -142 -33 -174 -17 -19 -19 -27 -10 -50 6
-15 13 -41 17 -56 4 -20 11 -27 23 -25 14 3 17 15 17 79 0 56 5 85 20 112 17
31 18 41 7 70 -25 70 -7 160 42 209 l29 30 19 -24 c15 -20 19 -21 28 -8 5 8
10 32 10 53 0 21 6 52 14 70 13 33 79 91 90 80 3 -4 6 3 6 14 0 23 -14 24 -52
6z"/>
<path d="M12951 8454 c0 -11 3 -14 6 -6 3 7 2 16 -1 19 -3 4 -6 -2 -5 -13z"/>
<path d="M10500 8151 c-54 -7 -66 -32 -23 -49 35 -14 134 -19 151 -9 21 14 13
41 -15 55 -28 13 -39 13 -113 3z"/>
<path d="M10578 8039 c-27 -15 -22 -48 10 -61 74 -30 143 10 96 56 -17 18 -80
21 -106 5z"/>
<path d="M11280 7920 c0 -5 5 -10 10 -10 6 0 10 5 10 10 0 6 -4 10 -10 10 -5
0 -10 -4 -10 -10z"/>
<path d="M12439 7907 c-19 -12 -43 -40 -54 -60 -14 -26 -29 -40 -48 -44 -18
-4 -37 -19 -52 -42 -13 -20 -44 -58 -68 -85 l-43 -49 -47 11 c-103 26 -167 11
-212 -49 -16 -23 -40 -51 -51 -64 -21 -23 -21 -24 -4 -40 28 -25 53 -15 62 25
12 50 71 100 118 100 21 0 43 -7 50 -15 18 -21 40 -19 68 8 l24 22 20 -25 c45
-58 59 -70 74 -70 18 0 16 20 -7 77 -12 28 -11 35 2 49 14 13 33 21 62 23 5 1
6 15 2 31 -8 35 0 38 24 9 16 -20 18 -20 34 -4 9 9 17 23 17 31 0 9 9 36 20
62 24 56 79 97 116 88 29 -8 32 9 5 24 -32 16 -76 12 -112 -13z"/>
<path d="M10065 7750 c-18 -8 -17 -9 8 -9 16 -1 26 3 22 9 -3 6 -7 10 -8 9 -1
0 -11 -4 -22 -9z"/>
<path d="M12952 7690 c0 -14 2 -19 5 -12 2 6 2 18 0 25 -3 6 -5 1 -5 -13z"/>
<path d="M12850 7507 c0 -15 37 -40 50 -32 4 3 11 -1 13 -7 3 -7 6 -1 6 13 1
20 -5 28 -21 33 -35 9 -48 7 -48 -7z"/>
<path d="M12933 7485 c0 -22 2 -30 4 -17 2 12 2 30 0 40 -3 9 -5 -1 -4 -23z"/>
<path d="M12654 7499 c-8 -13 32 -29 71 -29 38 0 75 15 75 30 0 11 -139 10
-146 -1z"/>
<path d="M12952 7475 c0 -16 2 -22 5 -12 2 9 2 23 0 30 -3 6 -5 -1 -5 -18z"/>
<path d="M11685 7470 c-3 -6 5 -10 19 -10 14 0 28 5 31 10 3 6 -5 10 -19 10
-14 0 -28 -4 -31 -10z"/>
<path d="M9268 7043 c7 -3 16 -2 19 1 4 3 -2 6 -13 5 -11 0 -14 -3 -6 -6z"/>
<path d="M23 6855 c0 -44 2 -61 4 -37 2 23 2 59 0 80 -2 20 -4 1 -4 -43z"/>
<path d="M3 6695 c0 -33 2 -45 4 -27 2 18 2 45 0 60 -2 15 -4 0 -4 -33z"/>
<path d="M24 6650 c0 -58 1 -81 3 -52 2 28 2 76 0 105 -2 28 -3 5 -3 -53z"/>
<path d="M12931 6674 c0 -11 3 -14 6 -6 3 7 2 16 -1 19 -3 4 -6 -2 -5 -13z"/>
<path d="M12952 6670 c0 -14 2 -19 5 -12 2 6 2 18 0 25 -3 6 -5 1 -5 -13z"/>
<path d="M22 6440 c0 -19 2 -27 5 -17 2 9 2 25 0 35 -3 9 -5 1 -5 -18z"/>
<path d="M11194 6314 c-18 -15 -18 -15 11 -9 37 8 57 25 29 25 -11 0 -29 -7
-40 -16z"/>
<path d="M11037 6225 c-38 -26 -48 -45 -23 -45 17 0 78 42 84 58 6 20 -20 14
-61 -13z"/>
<path d="M10911 6129 c-51 -31 -164 -123 -224 -182 -157 -156 -355 -553 -358
-720 -1 -58 -9 -75 -48 -95 -60 -30 -75 -136 -26 -184 14 -14 27 -46 35 -83
31 -156 150 -428 226 -518 25 -29 72 -86 105 -127 91 -111 278 -277 359 -319
19 -10 69 -36 110 -58 115 -61 317 -144 377 -153 29 -5 57 -12 62 -15 5 -3 62
-16 125 -29 101 -21 120 -28 145 -55 35 -38 70 -47 124 -31 23 7 94 16 157 21
117 8 163 19 305 69 173 61 237 89 297 132 35 25 97 68 138 96 76 51 120 93
120 113 0 5 5 7 10 4 6 -4 9 17 9 57 -2 58 -2 60 -9 23 -4 -24 -9 41 -11 165
l-3 205 -6 -207 c-4 -171 -7 -206 -19 -199 -9 6 -13 29 -12 76 1 66 -9 95 -33
95 -20 -1 -66 -72 -66 -104 0 -24 -6 -34 -27 -43 -15 -7 -33 -13 -40 -13 -7 0
-13 -6 -13 -12 0 -7 -5 -20 -10 -28 -8 -13 -11 -13 -22 2 -7 9 -26 18 -43 20
-25 2 -31 -1 -33 -20 -4 -29 -76 -82 -111 -82 -14 0 -43 -3 -63 -6 -34 -6 -36
-9 -33 -35 4 -33 2 -35 -20 -13 -20 20 -45 11 -45 -16 0 -24 -4 -25 -35 -4
-13 9 -34 17 -47 19 -13 1 -40 6 -61 10 -30 6 -42 4 -58 -11 -17 -16 -22 -16
-30 -4 -5 8 -7 31 -3 50 10 57 12 240 4 315 -23 192 -33 252 -45 271 -12 19
-11 24 13 47 32 32 23 46 -37 54 -48 7 -54 -8 -21 -50 24 -30 25 -37 5 -37
-23 0 -18 -19 15 -57 30 -34 36 -59 31 -134 -1 -19 3 -48 9 -64 12 -31 -5
-175 -21 -175 -19 0 -49 60 -49 100 0 44 -26 159 -39 173 -10 10 -22 -87 -16
-128 2 -16 -2 -68 -10 -115 -8 -47 -19 -118 -25 -157 -12 -76 -24 -90 -40 -49
-12 34 -17 35 -90 25 -58 -8 -68 -7 -92 11 -22 16 -37 19 -63 14 -26 -5 -39
-1 -56 15 -28 26 -30 26 -71 2 -53 -32 -81 -32 -123 -4 -34 23 -37 28 -32 63
5 38 5 38 -29 37 -41 -1 -46 -25 -12 -57 l22 -20 -22 0 c-13 0 -25 -7 -29 -16
-5 -13 -11 -10 -34 12 -33 31 -36 46 -14 64 20 17 19 22 -12 57 -24 26 -38 31
-94 37 -63 7 -66 9 -79 42 -10 25 -20 34 -37 34 -14 0 -26 7 -29 18 -18 54
-28 69 -58 90 -20 13 -40 20 -50 16 -11 -4 -26 2 -40 15 -21 19 -22 26 -15 91
5 40 16 82 26 98 10 15 18 37 18 49 -1 33 -26 73 -47 73 -11 0 -18 7 -18 19 0
22 40 31 140 31 119 1 246 19 339 50 51 16 96 30 101 30 4 0 39 -31 78 -70 65
-65 102 -86 102 -58 0 6 -17 27 -38 47 -41 39 -72 83 -72 102 0 7 10 33 22 57
21 44 21 46 4 96 -17 48 -17 56 -2 107 10 34 31 72 54 97 20 23 54 61 74 85
21 24 53 52 72 62 35 19 36 19 74 -3 54 -30 76 -28 122 14 38 35 41 35 97 29
97 -12 222 -52 264 -86 22 -17 55 -55 74 -84 61 -91 82 -97 71 -21 -6 38 -18
57 -76 118 -61 65 -77 77 -152 106 -46 17 -95 32 -108 32 -45 0 -101 20 -93
33 4 7 13 104 19 216 12 225 5 279 -39 313 -34 27 -38 22 -17 -24 14 -34 17
-58 13 -113 -3 -38 -4 -108 -3 -154 2 -94 -14 -175 -39 -200 -9 -9 -23 -42
-30 -74 -12 -48 -18 -57 -36 -57 -12 0 -30 9 -39 19 -14 16 -15 23 -6 40 6 12
19 60 30 107 17 79 17 95 5 210 -8 68 -19 132 -24 142 -10 16 -10 15 -11 -3
-1 -11 -5 -66 -9 -121 -7 -101 -8 -102 -47 -141 -79 -79 -114 -127 -114 -153
0 -27 -26 -59 -45 -58 -5 1 -19 -15 -30 -35 -11 -21 -28 -40 -37 -43 -12 -3
-18 -16 -18 -35 0 -29 -15 -40 -22 -17 -2 6 -12 -6 -23 -28 -10 -21 -29 -56
-43 -76 -19 -29 -24 -52 -26 -107 -2 -81 -14 -99 -84 -129 -61 -26 -260 -56
-322 -49 -85 10 -116 -12 -56 -42 24 -11 26 -15 14 -27 -29 -29 -138 -30 -138
-2 0 6 10 22 21 34 30 32 19 50 -44 68 -63 18 -113 63 -123 110 -3 17 -14 40
-23 51 -10 11 -18 31 -19 44 0 13 -10 43 -21 67 -12 24 -21 49 -21 56 0 7 -14
31 -30 52 -30 39 -41 98 -21 110 5 4 12 27 16 54 9 69 76 217 121 269 21 24
44 54 49 66 22 48 97 137 189 224 86 82 111 113 89 113 -5 0 -23 -9 -42 -21z
m-574 -1073 c11 -20 143 -116 159 -116 7 0 21 -11 32 -24 13 -17 36 -28 80
-36 34 -7 59 -17 56 -22 -8 -12 -72 0 -109 21 -17 10 -44 21 -60 25 -17 4 -63
23 -102 42 -75 36 -110 75 -97 108 8 20 30 21 41 2z m1053 -145 c0 -13 -41
-41 -58 -41 -20 0 -9 23 19 37 29 15 39 16 39 4z m-146 -50 c8 -12 -16 -30
-53 -41 -35 -10 -45 -2 -28 21 19 26 70 38 81 20z m-176 -11 c19 0 32 -5 32
-13 0 -14 -81 -47 -115 -47 -21 0 -45 17 -45 32 0 14 55 38 75 33 11 -3 35 -5
53 -5z m978 -836 c8 -53 -13 -135 -35 -142 -12 -4 -13 11 -7 84 4 48 10 92 12
96 12 19 23 5 30 -38z m-76 -288 c0 -22 -40 -85 -60 -96 -19 -10 -50 -4 -50
10 0 13 84 100 98 100 6 0 12 -6 12 -14z"/>
<path d="M12931 6074 c0 -11 3 -14 6 -6 3 7 2 16 -1 19 -3 4 -6 -2 -5 -13z"/>
<path d="M12951 6054 c0 -11 3 -14 6 -6 3 7 2 16 -1 19 -3 4 -6 -2 -5 -13z"/>
<path d="M12340 5105 c-14 -17 -50 -86 -50 -97 0 -4 14 -23 31 -43 28 -31 31
-40 25 -78 -9 -58 -59 -142 -123 -204 -50 -49 -64 -73 -44 -73 5 0 38 19 72
43 71 47 110 101 153 210 13 33 19 37 49 37 19 0 77 -11 128 -24 136 -35 226
-48 307 -44 71 3 72 3 72 30 0 23 -3 26 -22 20 -36 -10 -197 -7 -209 5 -20 20
29 42 154 68 65 13 -1 40 -123 50 -105 8 -273 51 -334 86 -60 33 -69 35 -86
14z m104 -70 c26 -14 55 -25 64 -25 16 0 233 -51 241 -57 13 -9 -26 -32 -74
-43 -48 -11 -57 -11 -72 2 -10 8 -44 18 -75 21 -77 7 -198 77 -198 114 0 22
63 15 114 -12z"/>
<path d="M12953 5005 c0 -33 2 -45 4 -27 2 18 2 45 0 60 -2 15 -4 0 -4 -33z"/>
<path d="M12932 4970 c0 -14 2 -19 5 -12 2 6 2 18 0 25 -3 6 -5 1 -5 -13z"/>
<path d="M11890 4603 c-18 -12 -41 -16 -88 -15 -48 2 -63 0 -60 -10 3 -7 22
-17 44 -22 21 -4 61 -14 87 -21 43 -12 49 -11 53 3 3 10 11 29 19 44 21 41 -9
53 -55 21z"/>
<path d="M9825 4521 c-3 -5 -1 -12 5 -16 5 -3 10 1 10 9 0 18 -6 21 -15 7z"/>
<path d="M11940 4453 c0 -13 5 -23 10 -23 13 0 13 11 0 30 -8 12 -10 11 -10
-7z"/>
<path d="M12954 4305 c0 -66 1 -92 3 -57 2 34 2 88 0 120 -2 31 -3 3 -3 -63z"/>
<path d="M12903 4366 c-10 -11 -9 -15 2 -20 10 -4 15 1 15 14 0 23 -1 24 -17
6z"/>
<path d="M8301 4274 c0 -11 3 -14 6 -6 3 7 2 16 -1 19 -3 4 -6 -2 -5 -13z"/>
<path d="M8375 4230 c3 -5 10 -10 16 -10 5 0 9 5 9 10 0 6 -7 10 -16 10 -8 0
-12 -4 -9 -10z"/>
<path d="M12951 4154 c0 -11 3 -14 6 -6 3 7 2 16 -1 19 -3 4 -6 -2 -5 -13z"/>
<path d="M8454 3479 c-3 -6 -1 -15 6 -19 20 -12 2 -50 -24 -50 -29 0 -39 -10
-25 -27 6 -7 8 -13 3 -14 -5 -1 2 -4 16 -8 23 -6 90 8 90 19 0 3 -9 23 -20 45
-11 22 -20 45 -20 52 0 16 -16 17 -26 2z"/>
<path d="M8390 3274 c-14 -3 -40 -7 -57 -10 -58 -9 -36 -44 26 -44 16 0 39 -9
53 -20 22 -17 27 -17 45 -5 11 7 69 18 132 24 150 14 171 4 135 -69 -31 -61 3
-197 40 -160 6 6 12 43 14 83 2 39 8 83 15 95 12 25 24 25 100 6 21 -5 33 -2
47 14 11 11 29 27 42 36 43 31 9 37 -233 41 -129 3 -256 7 -284 9 -27 2 -61 2
-75 0z"/>
<path d="M9047 3239 c6 -6 35 -14 64 -17 41 -4 51 -2 47 9 -3 9 -24 15 -64 17
-46 2 -56 0 -47 -9z"/>
<path d="M10162 3203 c2 -10 14 -19 26 -21 18 -3 22 -8 16 -20 -18 -41 -16
-87 6 -115 31 -39 50 -35 48 11 0 20 -4 42 -8 47 -14 19 -16 71 -3 84 24 22
13 31 -38 31 -43 0 -50 -3 -47 -17z"/>
<path d="M9070 3150 c0 -5 5 -10 10 -10 6 0 10 5 10 10 0 6 -4 10 -10 10 -5 0
-10 -4 -10 -10z"/>
<path d="M11014 3126 c-12 -31 6 -62 57 -104 28 -23 56 -42 60 -42 5 0 9 13 9
29 0 22 -13 41 -50 78 -59 56 -68 60 -76 39z"/>
<path d="M10320 3086 c0 -18 7 -39 16 -47 9 -8 15 -26 13 -48 -2 -44 8 -71 28
-71 9 0 12 6 9 18 -3 9 -7 43 -10 74 -8 86 -16 108 -37 108 -15 0 -19 -7 -19
-34z"/>
<path d="M12215 3100 c-10 -16 16 -43 28 -31 11 11 2 41 -12 41 -5 0 -13 -5
-16 -10z"/>
<path d="M9046 3063 c-21 -75 -36 -164 -41 -255 -7 -116 -1 -168 20 -168 15 0
21 35 30 165 2 44 9 116 15 160 10 78 7 115 -10 115 -5 0 -11 -8 -14 -17z"/>
<path d="M11960 3034 c0 -3 7 -34 16 -67 18 -71 62 -145 155 -260 36 -45 79
-109 95 -142 63 -127 86 -166 100 -172 24 -9 27 4 14 54 -20 76 -86 196 -143
259 -73 82 -126 156 -182 252 -45 77 -55 91 -55 76z"/>
<path d="M10135 3000 c-6 -9 11 -50 20 -50 3 0 5 14 5 30 0 29 -13 40 -25 20z"/>
<path d="M11341 2935 c20 -34 39 -46 39 -25 0 19 -32 60 -46 60 -10 0 -8 -9 7
-35z"/>
<path d="M11167 2933 c-15 -15 -5 -43 23 -66 17 -14 30 -30 30 -36 0 -6 7 -11
15 -11 22 0 18 17 -10 42 -14 12 -25 26 -25 32 -1 17 -26 47 -33 39z"/>
<path d="M11035 2668 c-14 -21 -14 -24 2 -35 22 -17 43 -16 66 1 15 12 16 18
7 35 -14 28 -55 27 -75 -1z"/>
<path d="M11530 2619 c0 -38 16 -69 35 -69 20 0 19 44 -1 75 -22 34 -34 31
-34 -6z"/>
<path d="M10935 2450 c-11 -18 13 -37 55 -44 22 -3 40 -11 40 -17 0 -5 5 -7
10 -4 12 7 2 57 -14 67 -17 11 -84 9 -91 -2z"/>
<path d="M12420 2199 c0 -12 56 -116 74 -139 7 -8 30 -46 51 -85 41 -76 133
-205 146 -205 4 0 22 -20 39 -45 28 -41 60 -60 60 -35 0 23 -135 261 -176 311
-25 30 -59 78 -75 107 -17 29 -43 64 -57 78 -28 25 -62 32 -62 13z"/>
<path d="M12487 1753 c-12 -11 -8 -23 8 -23 8 0 15 7 15 15 0 16 -12 20 -23 8z"/>
<path d="M12795 1660 c3 -5 8 -10 11 -10 2 0 4 5 4 10 0 6 -5 10 -11 10 -5 0
-7 -4 -4 -10z"/>
<path d="M12887 1533 c15 -27 28 -50 30 -52 2 -2 3 14 3 36 0 33 -4 42 -25 51
-14 7 -28 12 -30 12 -2 0 8 -21 22 -47z"/>
<path d="M12933 1495 c0 -33 2 -45 4 -27 2 18 2 45 0 60 -2 15 -4 0 -4 -33z"/>
<path d="M12953 1460 c0 -25 2 -35 4 -22 2 12 2 32 0 45 -2 12 -4 2 -4 -23z"/>
<path d="M12934 1185 c0 -49 1 -71 3 -48 2 23 2 64 0 90 -2 26 -3 8 -3 -42z"/>
<path d="M12953 1080 c0 -47 2 -66 4 -42 2 23 2 61 0 85 -2 23 -4 4 -4 -43z"/>
<path d="M12931 1064 c0 -11 3 -14 6 -6 3 7 2 16 -1 19 -3 4 -6 -2 -5 -13z"/>
<path d="M12933 885 c0 -33 2 -45 4 -27 2 18 2 45 0 60 -2 15 -4 0 -4 -33z"/>
<path d="M12951 904 c0 -11 3 -14 6 -6 3 7 2 16 -1 19 -3 4 -6 -2 -5 -13z"/>
</g>
</svg>
